<?xml version="1.0" encoding="utf-8"?>
<!-- Generator: Adobe Illustrator 16.0.0, SVG Export Plug-In . SVG Version: 6.00 Build 0)  -->
<!DOCTYPE svg PUBLIC "-//W3C//DTD SVG 1.1//EN" "http://www.w3.org/Graphics/SVG/1.1/DTD/svg11.dtd">
<svg version="1.1" id="Layer_1" xmlns="http://www.w3.org/2000/svg" xmlns:xlink="http://www.w3.org/1999/xlink" x="0px" y="0px"
	 width="320px" height="252px" viewBox="0 0 320 252" enable-background="new 0 0 320 252" xml:space="preserve">
<g>
	<defs>
		<path id="SVGID_1_" d="M132,45.966c0,0.552-0.452,1-1.005,1H1.005c-0.555,0-1.005-0.444-1.005-1c0-0.552,0.452-1,1.005-1h129.989
			C131.55,44.966,132,45.41,132,45.966z"/>
	</defs>
	<clipPath id="SVGID_2_">
		<use xlink:href="#SVGID_1_"  overflow="visible"/>
	</clipPath>
	<path clip-path="url(#SVGID_2_)" fill="none" stroke="#3C4B5D" stroke-width="4" stroke-miterlimit="10" d="M132,45.966
		c0,0.552-0.452,1-1.005,1H1.005c-0.555,0-1.005-0.444-1.005-1c0-0.552,0.452-1,1.005-1h129.989C131.55,44.966,132,45.41,132,45.966
		z"/>
</g>
<g>
	<defs>
		<path id="SVGID_3_" d="M320,45.966c0,0.552-0.452,1-1.005,1h-129.99c-0.555,0-1.005-0.444-1.005-1c0-0.552,0.452-1,1.005-1h129.99
			C319.55,44.966,320,45.41,320,45.966z"/>
	</defs>
	<clipPath id="SVGID_4_">
		<use xlink:href="#SVGID_3_"  overflow="visible"/>
	</clipPath>
	<path clip-path="url(#SVGID_4_)" fill="none" stroke="#3C4B5D" stroke-width="4" stroke-miterlimit="10" d="M320,45.966
		c0,0.552-0.452,1-1.005,1h-129.99c-0.555,0-1.005-0.444-1.005-1c0-0.552,0.452-1,1.005-1h129.99
		C319.55,44.966,320,45.41,320,45.966z"/>
</g>
<g>
	<defs>
		<path id="SVGID_5_" d="M87,237.967c0,0.553-0.447,1-1.007,1H1.007c-0.557,0-1.007-0.445-1.007-1c0-0.553,0.447-1,1.007-1h84.985
			C86.549,236.967,87,237.41,87,237.967z"/>
	</defs>
	<clipPath id="SVGID_6_">
		<use xlink:href="#SVGID_5_"  overflow="visible"/>
	</clipPath>
	<path clip-path="url(#SVGID_6_)" fill="none" stroke="#3C4B5D" stroke-width="4" stroke-miterlimit="10" d="M87,237.967
		c0,0.553-0.447,1-1.007,1H1.007c-0.557,0-1.007-0.445-1.007-1c0-0.553,0.447-1,1.007-1h84.985C86.549,236.967,87,237.41,87,237.967
		z"/>
</g>
<g>
	<defs>
		<path id="SVGID_7_" d="M320,237.967c0,0.553-0.447,1-1.007,1h-84.986c-0.556,0-1.007-0.445-1.007-1c0-0.553,0.447-1,1.007-1
			h84.986C319.549,236.967,320,237.41,320,237.967z"/>
	</defs>
	<clipPath id="SVGID_8_">
		<use xlink:href="#SVGID_7_"  overflow="visible"/>
	</clipPath>
	<path clip-path="url(#SVGID_8_)" fill="none" stroke="#3C4B5D" stroke-width="4" stroke-miterlimit="10" d="M320,237.967
		c0,0.553-0.447,1-1.007,1h-84.986c-0.556,0-1.007-0.445-1.007-1c0-0.553,0.447-1,1.007-1h84.986
		C319.549,236.967,320,237.41,320,237.967z"/>
</g>
<g>
	<defs>
		<path id="SVGID_9_" d="M97,236.967c0-7.732,6.27-14,13.996-14h98.008c7.729,0,13.996,6.266,13.996,14c0,7.732-6.27,14-13.996,14
			h-98.008C103.266,250.967,97,244.699,97,236.967z"/>
	</defs>
	<clipPath id="SVGID_10_">
		<use xlink:href="#SVGID_9_"  overflow="visible"/>
	</clipPath>
	<rect x="92" y="217.967" clip-path="url(#SVGID_10_)" fill="#3C4B5D" width="136" height="38"/>
</g>
<g>
	<path fill="#FFFFFF" d="M117.179,240.967c-0.32,0-0.58-0.26-0.58-0.58v-5.566c0-0.32,0.26-0.58,0.58-0.58h1.799
		c1.509,0,2.049,0.819,2.049,1.739c0,0.66-0.33,1.159-0.74,1.359c0.75,0.29,1.04,0.829,1.04,1.609c0,1.219-0.729,2.019-2.169,2.019
		H117.179z M117.759,236.989h1.22c0.629,0,0.889-0.36,0.889-0.859c0-0.521-0.26-0.85-0.889-0.85h-1.22V236.989z M117.759,239.928
		h1.399c0.709,0,0.99-0.38,0.99-0.979c0-0.61-0.33-0.979-0.99-0.979h-1.399V239.928z"/>
	<path fill="#FFFFFF" d="M125.489,239.218l-0.61,1.449c-0.09,0.21-0.28,0.38-0.54,0.38c-0.31,0-0.57-0.26-0.57-0.569
		c0-0.061,0.01-0.141,0.04-0.21l2.358-5.747c0.06-0.14,0.22-0.36,0.53-0.36c0.31,0,0.47,0.221,0.53,0.36l2.359,5.747
		c0.03,0.069,0.04,0.149,0.04,0.21c0,0.31-0.26,0.569-0.57,0.569c-0.26,0-0.45-0.17-0.54-0.38l-0.61-1.449H125.489z M126.698,236.06
		l-0.819,2.099h1.639L126.698,236.06z"/>
	<path fill="#FFFFFF" d="M131.86,237.608c0-2.368,1.139-3.508,3.128-3.508c1.209,0,1.999,0.479,2.409,1.079
		c0.08,0.12,0.11,0.22,0.11,0.33c0,0.29-0.24,0.529-0.54,0.529c-0.14,0-0.28-0.06-0.41-0.199c-0.41-0.45-0.839-0.7-1.569-0.7
		c-1.33,0-1.929,0.82-1.929,2.469c0,1.749,0.6,2.459,1.929,2.459c0.739,0,1.139-0.17,1.619-0.66c0.16-0.159,0.29-0.22,0.43-0.22
		c0.3,0,0.54,0.24,0.54,0.54c0,0.12-0.04,0.22-0.1,0.3c-0.479,0.64-1.419,1.079-2.488,1.079
		C132.999,241.106,131.86,240.058,131.86,237.608z"/>
	<path fill="#FFFFFF" d="M141.669,237.029l2.398-2.679c0.12-0.13,0.27-0.19,0.42-0.19c0.31,0,0.56,0.25,0.56,0.561
		c0,0.159-0.06,0.279-0.15,0.379l-1.879,2.039l2.208,3.009c0.07,0.09,0.11,0.21,0.11,0.33c0,0.31-0.26,0.569-0.57,0.569
		c-0.24,0-0.39-0.14-0.47-0.25l-2.059-2.849l-0.569,0.6v1.919c0,0.32-0.26,0.58-0.58,0.58s-0.58-0.26-0.58-0.58v-5.727
		c0-0.32,0.26-0.58,0.58-0.58s0.58,0.26,0.58,0.58V237.029z"/>
	<path fill="#FFFFFF" d="M155.128,235.26v5.207c0,0.32-0.26,0.58-0.58,0.58s-0.58-0.26-0.58-0.58v-5.207h-1.529
		c-0.28,0-0.51-0.229-0.51-0.51c0-0.279,0.23-0.51,0.51-0.51h4.218c0.28,0,0.509,0.23,0.509,0.51c0,0.28-0.229,0.51-0.509,0.51
		H155.128z"/>
	<path fill="#FFFFFF" d="M159.419,237.608c0-2.368,1.149-3.508,3.168-3.508c2.019,0,3.168,1.14,3.168,3.508
		c0,2.339-1.149,3.498-3.168,3.498C160.569,241.106,159.419,239.947,159.419,237.608z M160.619,237.608
		c0,1.649,0.65,2.459,1.969,2.459c1.318,0,1.969-0.81,1.969-2.459c0-1.659-0.65-2.469-1.969-2.469
		C161.269,235.14,160.619,235.949,160.619,237.608z"/>
	<path fill="#FFFFFF" d="M178.117,240.467c0,0.32-0.26,0.58-0.58,0.58s-0.58-0.26-0.58-0.58v-2.408h-2.858v2.408
		c0,0.32-0.26,0.58-0.579,0.58c-0.32,0-0.58-0.26-0.58-0.58v-5.727c0-0.32,0.26-0.58,0.58-0.58c0.319,0,0.579,0.26,0.579,0.58v2.259
		h2.858v-2.259c0-0.32,0.26-0.58,0.58-0.58s0.58,0.26,0.58,0.58V240.467z"/>
	<path fill="#FFFFFF" d="M181.06,237.608c0-2.368,1.149-3.508,3.169-3.508c2.018,0,3.168,1.14,3.168,3.508
		c0,2.339-1.15,3.498-3.168,3.498C182.209,241.106,181.06,239.947,181.06,237.608z M182.259,237.608c0,1.649,0.649,2.459,1.97,2.459
		c1.318,0,1.969-0.81,1.969-2.459c0-1.659-0.65-2.469-1.969-2.469C182.908,235.14,182.259,235.949,182.259,237.608z"/>
	<path fill="#FFFFFF" d="M192.998,239.628l-1.569-2.789v3.639c0,0.31-0.26,0.569-0.569,0.569c-0.311,0-0.57-0.26-0.57-0.569v-5.747
		c0-0.311,0.26-0.57,0.57-0.57c0.25,0,0.41,0.141,0.51,0.32l2.119,3.798l2.118-3.798c0.101-0.18,0.26-0.32,0.51-0.32
		c0.31,0,0.569,0.26,0.569,0.57v5.747c0,0.31-0.26,0.569-0.569,0.569s-0.569-0.26-0.569-0.569v-3.639l-1.569,2.789
		c-0.101,0.18-0.29,0.279-0.489,0.279C193.287,239.907,193.098,239.808,192.998,239.628z"/>
</g>
<text transform="matrix(1 0 0 1 199.3301 240.9668)" fill="#FFFFFF" font-family="'Bariol-Bold'" font-size="10">E</text>
<g>
	<defs>
		<path id="SVGID_11_" d="M145,46.966h30l-1.881,4.328c-0.882,2.028-3.389,3.672-5.602,3.672h-14.833
			c-2.212,0-4.75-1.619-5.672-3.625L145,46.966z"/>
	</defs>
	<clipPath id="SVGID_12_">
		<use xlink:href="#SVGID_11_"  overflow="visible"/>
	</clipPath>
	<path clip-path="url(#SVGID_12_)" fill="none" stroke="#3C4B5D" stroke-width="4" stroke-miterlimit="10" d="M145,46.966h30
		l-1.881,4.328c-0.882,2.028-3.389,3.672-5.602,3.672h-14.833c-2.212,0-4.75-1.619-5.672-3.625L145,46.966z"/>
</g>
<g>
	<defs>
		<path id="SVGID_13_" d="M144,44.964c0-1.104,0.889-1.998,2.001-1.998h27.997c1.105,0,2.002,0.898,2.002,1.998v2.004
			c0,1.104-0.89,1.998-2.002,1.998h-27.997c-1.105,0-2.001-0.898-2.001-1.998V44.964z"/>
	</defs>
	<clipPath id="SVGID_14_">
		<use xlink:href="#SVGID_13_"  overflow="visible"/>
	</clipPath>
	<path clip-path="url(#SVGID_14_)" fill="none" stroke="#3C4B5D" stroke-width="4" stroke-miterlimit="10" d="M144,44.964
		c0-1.104,0.889-1.998,2.002-1.998h27.996c1.105,0,2.002,0.898,2.002,1.998v2.004c0,1.104-0.89,1.998-2.002,1.998h-27.996
		c-1.106,0-2.002-0.898-2.002-1.998V44.964z"/>
</g>
<g>
	<defs>
		<path id="SVGID_15_" d="M153.006,9.961c-0.1-3.863,2.946-6.995,6.817-6.995h0.336c3.864,0,6.925,3.123,6.835,7.006l-0.808,34.994
			H153.91L153.006,9.961z"/>
	</defs>
	<clipPath id="SVGID_16_">
		<use xlink:href="#SVGID_15_"  overflow="visible"/>
	</clipPath>
	<path clip-path="url(#SVGID_16_)" fill="none" stroke="#3C4B5D" stroke-width="4" stroke-miterlimit="10" d="M153.006,9.961
		c-0.1-3.863,2.946-6.995,6.816-6.995h0.336c3.864,0,6.925,3.123,6.835,7.006l-0.808,34.994H153.91L153.006,9.961z"/>
</g>
<g>
	<defs>
		<path id="SVGID_17_" d="M154,27.966c0,0.552-0.443,1-1.009,1h-1.981c-0.557,0-1.009-0.444-1.009-1c0-0.552,0.443-1,1.009-1h1.981
			C153.548,26.966,154,27.41,154,27.966z"/>
	</defs>
	<clipPath id="SVGID_18_">
		<use xlink:href="#SVGID_17_"  overflow="visible"/>
	</clipPath>
	<path clip-path="url(#SVGID_18_)" fill="none" stroke="#3C4B5D" stroke-width="4" stroke-miterlimit="10" d="M154,27.966
		c0,0.552-0.443,1-1.009,1h-1.981c-0.557,0-1.009-0.444-1.009-1c0-0.552,0.443-1,1.009-1h1.981C153.548,26.966,154,27.41,154,27.966
		z"/>
</g>
<g>
	<defs>
		<path id="SVGID_19_" d="M154,17.966c0,0.552-0.443,1-1.009,1h-1.981c-0.557,0-1.009-0.444-1.009-1c0-0.552,0.443-1,1.009-1h1.981
			C153.548,16.966,154,17.41,154,17.966z"/>
	</defs>
	<clipPath id="SVGID_20_">
		<use xlink:href="#SVGID_19_"  overflow="visible"/>
	</clipPath>
	<path clip-path="url(#SVGID_20_)" fill="none" stroke="#3C4B5D" stroke-width="4" stroke-miterlimit="10" d="M154,17.966
		c0,0.552-0.443,1-1.009,1h-1.981c-0.557,0-1.009-0.444-1.009-1c0-0.552,0.443-1,1.009-1h1.981C153.548,16.966,154,17.41,154,17.966
		z"/>
</g>
<g>
	<defs>
		<circle id="SVGID_21_" cx="158" cy="9.966" r="1"/>
	</defs>
	<clipPath id="SVGID_22_">
		<use xlink:href="#SVGID_21_"  overflow="visible"/>
	</clipPath>
	<rect x="152" y="3.966" clip-path="url(#SVGID_22_)" fill="#3C4B5D" width="12" height="12"/>
</g>
<g>
	<defs>
		<circle id="SVGID_23_" cx="159" cy="16.966" r="1"/>
	</defs>
	<clipPath id="SVGID_24_">
		<use xlink:href="#SVGID_23_"  overflow="visible"/>
	</clipPath>
	<rect x="153" y="10.966" clip-path="url(#SVGID_24_)" fill="#3C4B5D" width="12" height="12"/>
</g>
<g>
	<defs>
		<circle id="SVGID_25_" cx="161" cy="23.966" r="1"/>
	</defs>
	<clipPath id="SVGID_26_">
		<use xlink:href="#SVGID_25_"  overflow="visible"/>
	</clipPath>
	<rect x="155" y="17.966" clip-path="url(#SVGID_26_)" fill="#3C4B5D" width="12" height="12"/>
</g>
<g>
	<defs>
		<circle id="SVGID_27_" cx="160" cy="32.966" r="1"/>
	</defs>
	<clipPath id="SVGID_28_">
		<use xlink:href="#SVGID_27_"  overflow="visible"/>
	</clipPath>
	<rect x="154" y="26.966" clip-path="url(#SVGID_28_)" fill="#3C4B5D" width="12" height="12"/>
</g>
<g>
	<defs>
		<circle id="SVGID_29_" cx="163" cy="13.966" r="1"/>
	</defs>
	<clipPath id="SVGID_30_">
		<use xlink:href="#SVGID_29_"  overflow="visible"/>
	</clipPath>
	<rect x="157" y="7.966" clip-path="url(#SVGID_30_)" fill="#3C4B5D" width="12" height="12"/>
</g>
<g>
	<defs>
		<path id="SVGID_31_" d="M154,12.966c0,0.552-0.443,1-1.009,1h-1.981c-0.557,0-1.009-0.444-1.009-1c0-0.552,0.443-1,1.009-1h1.981
			C153.548,11.966,154,12.41,154,12.966z"/>
	</defs>
	<clipPath id="SVGID_32_">
		<use xlink:href="#SVGID_31_"  overflow="visible"/>
	</clipPath>
	<path clip-path="url(#SVGID_32_)" fill="none" stroke="#3C4B5D" stroke-width="4" stroke-miterlimit="10" d="M154,12.966
		c0,0.552-0.443,1-1.009,1h-1.981c-0.557,0-1.009-0.444-1.009-1c0-0.552,0.443-1,1.009-1h1.981C153.548,11.966,154,12.41,154,12.966
		z"/>
</g>
<g>
	<defs>
		<path id="SVGID_33_" d="M153.932,7.484c-0.143,0.534-0.688,0.851-1.234,0.705l-1.914-0.513c-0.539-0.144-0.86-0.69-0.716-1.227
			c0.143-0.534,0.688-0.851,1.234-0.705l1.914,0.513C153.754,6.401,154.076,6.947,153.932,7.484z"/>
	</defs>
	<clipPath id="SVGID_34_">
		<use xlink:href="#SVGID_33_"  overflow="visible"/>
	</clipPath>
	<path clip-path="url(#SVGID_34_)" fill="none" stroke="#3C4B5D" stroke-width="4" stroke-miterlimit="10" d="M153.932,7.484
		c-0.143,0.534-0.687,0.851-1.233,0.705l-1.914-0.513c-0.539-0.144-0.86-0.69-0.716-1.227c0.143-0.534,0.687-0.851,1.233-0.705
		l1.914,0.513C153.754,6.401,154.076,6.947,153.932,7.484z"/>
</g>
<g>
	<defs>
		<path id="SVGID_35_" d="M170,22.966c0,0.552-0.443,1-1.01,1h-1.98c-0.558,0-1.01-0.444-1.01-1c0-0.552,0.443-1,1.01-1h1.98
			C169.548,21.966,170,22.41,170,22.966z"/>
	</defs>
	<clipPath id="SVGID_36_">
		<use xlink:href="#SVGID_35_"  overflow="visible"/>
	</clipPath>
	<path clip-path="url(#SVGID_36_)" fill="none" stroke="#3C4B5D" stroke-width="4" stroke-miterlimit="10" d="M170,22.966
		c0,0.552-0.443,1-1.01,1h-1.98c-0.558,0-1.01-0.444-1.01-1c0-0.552,0.443-1,1.01-1h1.98C169.548,21.966,170,22.41,170,22.966z"/>
</g>
<g>
	<defs>
		<path id="SVGID_37_" d="M170,18.966c0,0.552-0.443,1-1.01,1h-1.98c-0.558,0-1.01-0.444-1.01-1c0-0.552,0.443-1,1.01-1h1.98
			C169.548,17.966,170,18.41,170,18.966z"/>
	</defs>
	<clipPath id="SVGID_38_">
		<use xlink:href="#SVGID_37_"  overflow="visible"/>
	</clipPath>
	<path clip-path="url(#SVGID_38_)" fill="none" stroke="#3C4B5D" stroke-width="4" stroke-miterlimit="10" d="M170,18.966
		c0,0.552-0.443,1-1.01,1h-1.98c-0.558,0-1.01-0.444-1.01-1c0-0.552,0.443-1,1.01-1h1.98C169.548,17.966,170,18.41,170,18.966z"/>
</g>
<g>
	<defs>
		<path id="SVGID_39_" d="M170,9.966c0,0.552-0.443,1-1.01,1h-1.98c-0.558,0-1.01-0.444-1.01-1c0-0.552,0.443-1,1.01-1h1.98
			C169.548,8.966,170,9.41,170,9.966z"/>
	</defs>
	<clipPath id="SVGID_40_">
		<use xlink:href="#SVGID_39_"  overflow="visible"/>
	</clipPath>
	<path clip-path="url(#SVGID_40_)" fill="none" stroke="#3C4B5D" stroke-width="4" stroke-miterlimit="10" d="M170,9.966
		c0,0.552-0.443,1-1.01,1h-1.98c-0.558,0-1.01-0.444-1.01-1c0-0.552,0.443-1,1.01-1h1.98C169.548,8.966,170,9.41,170,9.966z"/>
</g>
<g>
	<defs>
		<path id="SVGID_41_" d="M168.696,3.907c0.293,0.468,0.153,1.083-0.326,1.383l-1.681,1.05c-0.473,0.295-1.091,0.158-1.386-0.313
			c-0.293-0.468-0.153-1.083,0.326-1.383l1.681-1.05C167.783,3.298,168.401,3.435,168.696,3.907z"/>
	</defs>
	<clipPath id="SVGID_42_">
		<use xlink:href="#SVGID_41_"  overflow="visible"/>
	</clipPath>
	<path clip-path="url(#SVGID_42_)" fill="none" stroke="#3C4B5D" stroke-width="4" stroke-miterlimit="10" d="M168.696,3.906
		c0.292,0.469,0.153,1.083-0.326,1.383l-1.681,1.05c-0.473,0.295-1.091,0.158-1.386-0.313c-0.293-0.468-0.153-1.083,0.326-1.383
		l1.681-1.05C167.783,3.298,168.401,3.435,168.696,3.906z"/>
</g>
<g>
	<defs>
		<path id="SVGID_43_" d="M157.518,3.898c-0.533,0.143-1.081-0.17-1.227-0.716l-0.513-1.914c-0.145-0.538,0.167-1.09,0.705-1.234
			c0.533-0.143,1.081,0.17,1.227,0.716l0.513,1.914C158.367,3.203,158.055,3.754,157.518,3.898z"/>
	</defs>
	<clipPath id="SVGID_44_">
		<use xlink:href="#SVGID_43_"  overflow="visible"/>
	</clipPath>
	<path clip-path="url(#SVGID_44_)" fill="none" stroke="#3C4B5D" stroke-width="4" stroke-miterlimit="10" d="M157.518,3.898
		c-0.533,0.143-1.081-0.169-1.227-0.716l-0.513-1.914c-0.145-0.538,0.167-1.09,0.705-1.233c0.533-0.143,1.081,0.169,1.227,0.716
		l0.513,1.914C158.367,3.203,158.055,3.754,157.518,3.898z"/>
</g>
<g>
	<path fill="#3C4B5D" d="M95.88,175.297v2.97c0,0.448-0.364,0.812-0.812,0.812s-0.812-0.364-0.812-0.812v-7.914
		c0-0.448,0.364-0.812,0.812-0.812h2.675c1.639,0,2.942,0.91,2.942,2.871c0,1.934-1.275,2.886-2.942,2.886H95.88z M95.88,170.996
		v2.844h1.737c0.869,0,1.387-0.519,1.387-1.429c0-0.925-0.532-1.415-1.387-1.415H95.88z"/>
	<path fill="#3C4B5D" d="M104.826,176.516l-0.854,2.031c-0.126,0.294-0.392,0.532-0.756,0.532c-0.434,0-0.798-0.364-0.798-0.799
		c0-0.084,0.014-0.196,0.056-0.294l3.306-8.055c0.084-0.196,0.308-0.504,0.743-0.504c0.434,0,0.658,0.308,0.742,0.504l3.306,8.055
		c0.042,0.098,0.056,0.21,0.056,0.294c0,0.435-0.364,0.799-0.798,0.799c-0.364,0-0.63-0.238-0.756-0.532l-0.854-2.031H104.826z
		 M106.521,172.089l-1.149,2.941h2.297L106.521,172.089z"/>
	<path fill="#3C4B5D" d="M119.626,175.339h-1.905c-0.393,0-0.715-0.322-0.715-0.715c0-0.392,0.322-0.714,0.715-0.714h2.717
		c0.392,0,0.771,0.336,0.771,0.742v2.241c0,0.322-0.07,0.532-0.238,0.742c-0.672,0.896-2.157,1.527-3.656,1.527
		c-2.788,0-4.385-1.471-4.385-4.903c0-3.319,1.597-4.916,4.385-4.916c1.695,0,2.801,0.672,3.375,1.513
		c0.112,0.168,0.154,0.309,0.154,0.462c0,0.406-0.336,0.743-0.756,0.743c-0.196,0-0.393-0.085-0.574-0.28
		c-0.575-0.631-1.177-0.98-2.199-0.98c-1.863,0-2.704,1.148-2.704,3.459c0,2.452,0.84,3.446,2.704,3.446
		c1.036,0,1.765-0.238,2.311-0.799V175.339z"/>
	<path fill="#3C4B5D" d="M126.358,173.504h2.647c0.392,0,0.714,0.322,0.714,0.714c0,0.393-0.322,0.715-0.714,0.715h-2.647v2.577
		h3.712c0.406,0,0.729,0.322,0.729,0.729s-0.322,0.729-0.729,0.729h-4.524c-0.448,0-0.812-0.364-0.812-0.812v-7.802
		c0-0.448,0.364-0.812,0.812-0.812h4.371c0.406,0,0.728,0.322,0.728,0.729c0,0.405-0.322,0.728-0.728,0.728h-3.558V173.504z"/>
	<path fill="#3C4B5D" d="M146.311,170.227v8.054c0,0.435-0.364,0.799-0.798,0.799c-0.266,0-0.518-0.141-0.658-0.351l-4.132-5.967
		v5.519c0,0.435-0.364,0.799-0.798,0.799s-0.798-0.364-0.798-0.799v-8.054c0-0.435,0.364-0.799,0.798-0.799
		c0.28,0,0.504,0.126,0.645,0.336l4.146,6.01v-5.547c0-0.435,0.364-0.799,0.798-0.799
		C145.947,169.428,146.311,169.792,146.311,170.227z"/>
	<path fill="#3C4B5D" d="M149.541,174.26c0-3.319,1.611-4.916,4.44-4.916s4.44,1.597,4.44,4.916c0,3.278-1.611,4.903-4.44,4.903
		S149.541,177.538,149.541,174.26z M151.222,174.26c0,2.312,0.911,3.446,2.759,3.446c1.849,0,2.76-1.135,2.76-3.446
		c0-2.325-0.911-3.459-2.76-3.459C152.132,170.801,151.222,171.935,151.222,174.26z"/>
	<path fill="#3C4B5D" d="M165.236,170.969v7.298c0,0.448-0.363,0.812-0.812,0.812s-0.812-0.364-0.812-0.812v-7.298h-2.144
		c-0.393,0-0.714-0.322-0.714-0.715c0-0.392,0.322-0.714,0.714-0.714h5.912c0.392,0,0.714,0.322,0.714,0.714
		c0,0.393-0.322,0.715-0.714,0.715H165.236z"/>
	<path fill="#3C4B5D" d="M177.989,178.267c0,0.448-0.364,0.812-0.812,0.812s-0.812-0.364-0.812-0.812v-7.914
		c0-0.448,0.364-0.812,0.812-0.812h4.37c0.406,0,0.729,0.322,0.729,0.729c0,0.405-0.322,0.728-0.729,0.728h-3.558v2.592h2.647
		c0.393,0,0.715,0.322,0.715,0.715c0,0.392-0.322,0.714-0.715,0.714h-2.647V178.267z"/>
	<path fill="#3C4B5D" d="M185.17,174.26c0-3.319,1.611-4.916,4.44-4.916s4.44,1.597,4.44,4.916c0,3.278-1.611,4.903-4.44,4.903
		S185.17,177.538,185.17,174.26z M186.852,174.26c0,2.312,0.91,3.446,2.759,3.446s2.76-1.135,2.76-3.446
		c0-2.325-0.911-3.459-2.76-3.459S186.852,171.935,186.852,174.26z"/>
	<path fill="#3C4B5D" d="M197.35,175.885v-5.645c0-0.448,0.365-0.812,0.812-0.812c0.449,0,0.812,0.364,0.812,0.812v5.645
		c0,0.854,0.322,1.85,1.905,1.85s1.905-0.995,1.905-1.85v-5.645c0-0.448,0.364-0.812,0.812-0.812s0.812,0.364,0.812,0.812v5.645
		c0,1.598-0.701,3.278-3.53,3.278S197.35,177.482,197.35,175.885z"/>
	<path fill="#3C4B5D" d="M215.12,170.227v8.054c0,0.435-0.364,0.799-0.798,0.799c-0.267,0-0.519-0.141-0.658-0.351l-4.133-5.967
		v5.519c0,0.435-0.364,0.799-0.799,0.799c-0.434,0-0.798-0.364-0.798-0.799v-8.054c0-0.435,0.364-0.799,0.798-0.799
		c0.281,0,0.505,0.126,0.645,0.336l4.146,6.01v-5.547c0-0.435,0.364-0.799,0.799-0.799
		C214.756,169.428,215.12,169.792,215.12,170.227z"/>
</g>
<text transform="matrix(1 0 0 1 218.0312 178.9668)" fill="#3C4B5D" font-family="'Bariol-Bold'" font-size="14">D</text>
<text transform="matrix(1 0 0 1 91.6802 152.9668)" fill="#3C4B5D" font-family="'Bariol-Bold'" font-size="80">4</text>
<text transform="matrix(1 0 0 1 136.5601 152.9668)" fill="#3C4B5D" font-family="'Bariol-Bold'" font-size="80">04</text>
</svg>
