<svg xmlns="http://www.w3.org/2000/svg" xmlns:xlink="http://www.w3.org/1999/xlink" width="320" height="252" viewBox="0 0 320 252"><defs><path id="a" d="M132 45.966c0 .552-.452 1-1.005 1H1.005c-.555 0-1.005-.444-1.005-1 0-.552.452-1 1.005-1h129.99c.555 0 1.005.444 1.005 1z"/></defs><clipPath id="b"><use xlink:href="#a" overflow="visible"/></clipPath><path clip-path="url(#b)" fill="none" stroke="#3C4B5D" stroke-width="4" stroke-miterlimit="10" d="M132 45.966c0 .552-.452 1-1.005 1H1.005c-.555 0-1.005-.444-1.005-1 0-.552.452-1 1.005-1h129.99c.555 0 1.005.444 1.005 1z"/><defs><path id="c" d="M320 45.966c0 .552-.452 1-1.005 1h-129.99c-.555 0-1.005-.444-1.005-1 0-.552.452-1 1.005-1h129.99c.555 0 1.005.444 1.005 1z"/></defs><clipPath id="d"><use xlink:href="#c" overflow="visible"/></clipPath><path clip-path="url(#d)" fill="none" stroke="#3C4B5D" stroke-width="4" stroke-miterlimit="10" d="M320 45.966c0 .552-.452 1-1.005 1h-129.99c-.555 0-1.005-.444-1.005-1 0-.552.452-1 1.005-1h129.99c.555 0 1.005.444 1.005 1z"/><defs><path id="e" d="M87 237.967c0 .553-.447 1-1.007 1H1.007c-.557 0-1.007-.445-1.007-1 0-.553.447-1 1.007-1h84.985c.557 0 1.008.443 1.008 1z"/></defs><clipPath id="f"><use xlink:href="#e" overflow="visible"/></clipPath><path clip-path="url(#f)" fill="none" stroke="#3C4B5D" stroke-width="4" stroke-miterlimit="10" d="M87 237.967c0 .553-.447 1-1.007 1H1.007c-.557 0-1.007-.445-1.007-1 0-.553.447-1 1.007-1h84.985c.557 0 1.008.443 1.008 1z"/><defs><path id="g" d="M320 237.967c0 .553-.447 1-1.007 1h-84.986c-.556 0-1.007-.445-1.007-1 0-.553.447-1 1.007-1h84.986c.556 0 1.007.443 1.007 1z"/></defs><clipPath id="h"><use xlink:href="#g" overflow="visible"/></clipPath><path clip-path="url(#h)" fill="none" stroke="#3C4B5D" stroke-width="4" stroke-miterlimit="10" d="M320 237.967c0 .553-.447 1-1.007 1h-84.986c-.556 0-1.007-.445-1.007-1 0-.553.447-1 1.007-1h84.986c.556 0 1.007.443 1.007 1z"/><defs><path id="i" d="M97 236.967c0-7.732 6.27-14 13.996-14h98.008c7.73 0 13.996 6.266 13.996 14 0 7.732-6.27 14-13.996 14h-98.008c-7.73 0-13.996-6.268-13.996-14z"/></defs><clipPath id="j"><use xlink:href="#i" overflow="visible"/></clipPath><path clip-path="url(#j)" fill="#3C4B5D" d="M92 217.967h136v38H92z"/><g fill="#FFF"><path d="M117.18 240.967c-.32 0-.58-.26-.58-.58v-5.566c0-.32.26-.58.58-.58h1.798c1.51 0 2.05.82 2.05 1.74 0 .66-.33 1.16-.74 1.36.75.29 1.04.828 1.04 1.608 0 1.22-.73 2.02-2.17 2.02h-1.98zm.58-3.978h1.22c.628 0 .888-.36.888-.86 0-.52-.26-.85-.89-.85h-1.22v1.71zm0 2.938h1.398c.71 0 .99-.38.99-.98 0-.61-.33-.978-.99-.978h-1.4v1.958zM125.49 239.218l-.61 1.45c-.09.21-.28.38-.54.38-.31 0-.57-.26-.57-.57 0-.06.01-.14.04-.21l2.357-5.747c.06-.14.22-.36.53-.36.31 0 .47.222.53.36l2.36 5.748c.03.07.04.15.04.21 0 .31-.26.57-.57.57-.26 0-.45-.17-.54-.38l-.61-1.45h-2.418zm1.208-3.158l-.82 2.1h1.64l-.82-2.1zM131.86 237.608c0-2.368 1.14-3.508 3.128-3.508 1.21 0 2 .48 2.41 1.08.08.12.11.22.11.33 0 .29-.24.528-.54.528-.14 0-.28-.06-.41-.2-.41-.45-.84-.7-1.57-.7-1.33 0-1.93.82-1.93 2.47 0 1.75.6 2.46 1.93 2.46.74 0 1.14-.17 1.62-.66.16-.16.29-.22.43-.22.3 0 .54.24.54.54 0 .12-.04.22-.1.3-.48.64-1.42 1.078-2.49 1.078-1.99 0-3.128-1.048-3.128-3.498zM141.67 237.03l2.397-2.68c.12-.13.27-.19.42-.19.31 0 .56.25.56.56 0 .16-.06.28-.15.38l-1.88 2.04 2.21 3.008c.07.09.11.21.11.33 0 .31-.26.57-.57.57-.24 0-.39-.14-.47-.25l-2.06-2.85-.57.6v1.92c0 .32-.26.58-.58.58s-.58-.26-.58-.58v-5.728c0-.32.26-.58.58-.58s.58.26.58.58v2.29zM155.128 235.26v5.207c0 .32-.26.58-.58.58s-.58-.26-.58-.58v-5.207h-1.53c-.28 0-.51-.23-.51-.51s.23-.51.51-.51h4.22c.28 0 .508.23.508.51s-.23.51-.51.51h-1.528zM159.42 237.608c0-2.368 1.148-3.508 3.167-3.508 2.02 0 3.168 1.14 3.168 3.508 0 2.34-1.15 3.498-3.168 3.498-2.018 0-3.168-1.16-3.168-3.498zm1.2 0c0 1.65.65 2.46 1.968 2.46s1.97-.81 1.97-2.46c0-1.66-.65-2.47-1.97-2.47-1.32.002-1.97.81-1.97 2.47zM178.117 240.467c0 .32-.26.58-.58.58s-.58-.26-.58-.58v-2.408H174.1v2.407c0 .32-.26.58-.58.58-.32 0-.58-.26-.58-.58v-5.727c0-.32.26-.58.58-.58.32 0 .58.26.58.58V237h2.857v-2.26c0-.32.26-.58.58-.58s.58.26.58.58v5.727zM181.06 237.608c0-2.368 1.15-3.508 3.17-3.508 2.017 0 3.167 1.14 3.167 3.508 0 2.34-1.15 3.498-3.168 3.498-2.02 0-3.17-1.16-3.17-3.498zm1.2 0c0 1.65.648 2.46 1.97 2.46 1.317 0 1.968-.81 1.968-2.46 0-1.66-.65-2.47-1.97-2.47-1.32.002-1.97.81-1.97 2.47zM192.998 239.628l-1.57-2.79v3.64c0 .31-.26.57-.568.57-.31 0-.57-.26-.57-.57v-5.747c0-.31.26-.57.57-.57.25 0 .41.142.51.32l2.12 3.8 2.117-3.8c.1-.18.26-.32.51-.32.31 0 .57.26.57.57v5.748c0 .31-.26.57-.57.57s-.57-.26-.57-.57v-3.64l-1.568 2.79c-.102.18-.29.28-.49.28-.203 0-.392-.1-.492-.28z"/></g><text transform="translate(199.33 240.967)" fill="#FFF" font-family="'Bariol-Bold'" font-size="10">E</text><defs><path id="k" d="M145 46.966h30l-1.88 4.328c-.883 2.028-3.39 3.672-5.603 3.672h-14.833c-2.212 0-4.75-1.62-5.672-3.625L145 46.967z"/></defs><clipPath id="l"><use xlink:href="#k" overflow="visible"/></clipPath><path clip-path="url(#l)" fill="none" stroke="#3C4B5D" stroke-width="4" stroke-miterlimit="10" d="M145 46.966h30l-1.88 4.328c-.883 2.028-3.39 3.672-5.603 3.672h-14.833c-2.212 0-4.75-1.62-5.672-3.625L145 46.967z"/><defs><path id="m" d="M144 44.964c0-1.104.89-1.998 2-1.998H174c1.105 0 2.002.898 2.002 1.998v2.004c0 1.104-.89 1.998-2.002 1.998H146c-1.104 0-2-.898-2-1.998v-2.004z"/></defs><clipPath id="n"><use xlink:href="#m" overflow="visible"/></clipPath><path clip-path="url(#n)" fill="none" stroke="#3C4B5D" stroke-width="4" stroke-miterlimit="10" d="M144 44.964c0-1.104.89-1.998 2.002-1.998h27.996c1.105 0 2.002.898 2.002 1.998v2.004c0 1.104-.89 1.998-2.002 1.998h-27.996c-1.106 0-2.002-.898-2.002-1.998v-2.004z"/><defs><path id="o" d="M153.006 9.96c-.1-3.862 2.946-6.994 6.817-6.994h.336c3.863 0 6.924 3.123 6.834 7.006l-.808 34.994H153.91l-.904-35.005z"/></defs><clipPath id="p"><use xlink:href="#o" overflow="visible"/></clipPath><path clip-path="url(#p)" fill="none" stroke="#3C4B5D" stroke-width="4" stroke-miterlimit="10" d="M153.006 9.96c-.1-3.862 2.946-6.994 6.816-6.994h.336c3.864 0 6.925 3.123 6.835 7.006l-.808 34.994H153.91l-.904-35.005z"/><defs><path id="q" d="M154 27.966c0 .552-.443 1-1.01 1h-1.98c-.557 0-1.01-.444-1.01-1 0-.552.444-1 1.01-1h1.98c.558 0 1.01.444 1.01 1z"/></defs><clipPath id="r"><use xlink:href="#q" overflow="visible"/></clipPath><path clip-path="url(#r)" fill="none" stroke="#3C4B5D" stroke-width="4" stroke-miterlimit="10" d="M154 27.966c0 .552-.443 1-1.01 1h-1.98c-.557 0-1.01-.444-1.01-1 0-.552.444-1 1.01-1h1.98c.558 0 1.01.444 1.01 1z"/><g><defs><path id="s" d="M154 17.966c0 .552-.443 1-1.01 1h-1.98c-.557 0-1.01-.444-1.01-1 0-.552.444-1 1.01-1h1.98c.558 0 1.01.444 1.01 1z"/></defs><clipPath id="t"><use xlink:href="#s" overflow="visible"/></clipPath><path clip-path="url(#t)" fill="none" stroke="#3C4B5D" stroke-width="4" stroke-miterlimit="10" d="M154 17.966c0 .552-.443 1-1.01 1h-1.98c-.557 0-1.01-.444-1.01-1 0-.552.444-1 1.01-1h1.98c.558 0 1.01.444 1.01 1z"/></g><g><defs><circle id="u" cx="158" cy="9.966" r="1"/></defs><clipPath id="v"><use xlink:href="#u" overflow="visible"/></clipPath><path clip-path="url(#v)" fill="#3C4B5D" d="M152 3.966h12v12h-12z"/></g><g><defs><circle id="w" cx="159" cy="16.966" r="1"/></defs><clipPath id="x"><use xlink:href="#w" overflow="visible"/></clipPath><path clip-path="url(#x)" fill="#3C4B5D" d="M153 10.966h12v12h-12z"/></g><g><defs><circle id="y" cx="161" cy="23.966" r="1"/></defs><clipPath id="z"><use xlink:href="#y" overflow="visible"/></clipPath><path clip-path="url(#z)" fill="#3C4B5D" d="M155 17.966h12v12h-12z"/></g><g><defs><circle id="A" cx="160" cy="32.966" r="1"/></defs><clipPath id="B"><use xlink:href="#A" overflow="visible"/></clipPath><path clip-path="url(#B)" fill="#3C4B5D" d="M154 26.966h12v12h-12z"/></g><g><defs><circle id="C" cx="163" cy="13.966" r="1"/></defs><clipPath id="D"><use xlink:href="#C" overflow="visible"/></clipPath><path clip-path="url(#D)" fill="#3C4B5D" d="M157 7.966h12v12h-12z"/></g><g><defs><path id="E" d="M154 12.966c0 .552-.443 1-1.01 1h-1.98c-.557 0-1.01-.444-1.01-1 0-.552.444-1 1.01-1h1.98c.558 0 1.01.444 1.01 1z"/></defs><clipPath id="F"><use xlink:href="#E" overflow="visible"/></clipPath><path clip-path="url(#F)" fill="none" stroke="#3C4B5D" stroke-width="4" stroke-miterlimit="10" d="M154 12.966c0 .552-.443 1-1.01 1h-1.98c-.557 0-1.01-.444-1.01-1 0-.552.444-1 1.01-1h1.98c.558 0 1.01.444 1.01 1z"/></g><g><defs><path id="G" d="M153.932 7.484c-.143.534-.688.85-1.234.705l-1.914-.514c-.54-.144-.86-.69-.716-1.227.143-.535.688-.852 1.234-.706l1.914.513c.538.144.86.69.716 1.227z"/></defs><clipPath id="H"><use xlink:href="#G" overflow="visible"/></clipPath><path clip-path="url(#H)" fill="none" stroke="#3C4B5D" stroke-width="4" stroke-miterlimit="10" d="M153.932 7.484c-.143.534-.687.85-1.233.705l-1.915-.514c-.54-.144-.86-.69-.716-1.227.142-.535.686-.852 1.232-.706l1.914.513c.538.144.86.69.716 1.227z"/></g><g><defs><path id="I" d="M170 22.966c0 .552-.443 1-1.01 1h-1.98c-.558 0-1.01-.444-1.01-1 0-.552.443-1 1.01-1h1.98c.558 0 1.01.444 1.01 1z"/></defs><clipPath id="J"><use xlink:href="#I" overflow="visible"/></clipPath><path clip-path="url(#J)" fill="none" stroke="#3C4B5D" stroke-width="4" stroke-miterlimit="10" d="M170 22.966c0 .552-.443 1-1.01 1h-1.98c-.558 0-1.01-.444-1.01-1 0-.552.443-1 1.01-1h1.98c.558 0 1.01.444 1.01 1z"/></g><g><defs><path id="K" d="M170 18.966c0 .552-.443 1-1.01 1h-1.98c-.558 0-1.01-.444-1.01-1 0-.552.443-1 1.01-1h1.98c.558 0 1.01.444 1.01 1z"/></defs><clipPath id="L"><use xlink:href="#K" overflow="visible"/></clipPath><path clip-path="url(#L)" fill="none" stroke="#3C4B5D" stroke-width="4" stroke-miterlimit="10" d="M170 18.966c0 .552-.443 1-1.01 1h-1.98c-.558 0-1.01-.444-1.01-1 0-.552.443-1 1.01-1h1.98c.558 0 1.01.444 1.01 1z"/></g><g><defs><path id="M" d="M170 9.966c0 .552-.443 1-1.01 1h-1.98c-.558 0-1.01-.444-1.01-1 0-.552.443-1 1.01-1h1.98c.558 0 1.01.444 1.01 1z"/></defs><clipPath id="N"><use xlink:href="#M" overflow="visible"/></clipPath><path clip-path="url(#N)" fill="none" stroke="#3C4B5D" stroke-width="4" stroke-miterlimit="10" d="M170 9.966c0 .552-.443 1-1.01 1h-1.98c-.558 0-1.01-.444-1.01-1 0-.552.443-1 1.01-1h1.98c.558 0 1.01.444 1.01 1z"/></g><g><defs><path id="O" d="M168.696 3.907c.293.468.153 1.083-.326 1.383l-1.68 1.05c-.474.295-1.092.158-1.387-.313-.293-.468-.153-1.083.326-1.383l1.68-1.05c.473-.296 1.09-.16 1.386.313z"/></defs><clipPath id="P"><use xlink:href="#O" overflow="visible"/></clipPath><path clip-path="url(#P)" fill="none" stroke="#3C4B5D" stroke-width="4" stroke-miterlimit="10" d="M168.696 3.906c.292.47.153 1.083-.326 1.383l-1.68 1.05c-.474.294-1.092.157-1.387-.314-.293-.468-.153-1.083.326-1.383l1.68-1.05c.473-.295 1.09-.158 1.386.313z"/></g><g><defs><path id="Q" d="M157.518 3.898c-.533.143-1.08-.17-1.227-.716l-.512-1.914c-.145-.538.167-1.09.705-1.234.533-.143 1.08.17 1.227.716l.513 1.914c.144.54-.168 1.09-.705 1.234z"/></defs><clipPath id="R"><use xlink:href="#Q" overflow="visible"/></clipPath><path clip-path="url(#R)" fill="none" stroke="#3C4B5D" stroke-width="4" stroke-miterlimit="10" d="M157.518 3.898c-.533.143-1.08-.17-1.227-.716l-.512-1.914c-.145-.538.167-1.09.705-1.233.533-.143 1.08.17 1.227.716l.513 1.915c.144.538-.168 1.09-.705 1.233z"/></g><g fill="#3C4B5D"><path d="M95.88 175.297v2.97c0 .448-.364.812-.812.812s-.812-.365-.812-.813v-7.914c0-.448.364-.812.812-.812h2.675c1.64 0 2.942.91 2.942 2.872 0 1.934-1.275 2.886-2.942 2.886H95.88zm0-4.3v2.843h1.737c.87 0 1.387-.52 1.387-1.43 0-.924-.532-1.414-1.387-1.414H95.88zM104.826 176.516l-.854 2.03c-.126.295-.392.533-.756.533-.434 0-.798-.365-.798-.8 0-.084.014-.196.056-.294l3.306-8.055c.084-.195.308-.503.743-.503.434 0 .658.308.742.504l3.306 8.056c.043.098.057.21.057.294 0 .435-.364.8-.798.8-.365 0-.63-.24-.757-.533l-.854-2.03h-3.394zm1.695-4.427l-1.148 2.94h2.297l-1.15-2.94zM119.626 175.34h-1.905c-.392 0-.714-.323-.714-.716 0-.392.322-.714.715-.714h2.718c.392 0 .77.336.77.742v2.24c0 .323-.07.533-.237.743-.67.896-2.156 1.527-3.655 1.527-2.788 0-4.385-1.47-4.385-4.903 0-3.32 1.597-4.917 4.385-4.917 1.695 0 2.8.672 3.375 1.513.112.168.154.31.154.462 0 .406-.336.743-.756.743-.196 0-.393-.084-.574-.28-.575-.63-1.177-.98-2.2-.98-1.862 0-2.703 1.15-2.703 3.46 0 2.452.84 3.446 2.705 3.446 1.036 0 1.765-.238 2.31-.8v-1.567zM126.358 173.504h2.647c.392 0 .714.322.714.714 0 .393-.323.715-.715.715h-2.647v2.577h3.712c.406 0 .73.322.73.73s-.323.728-.73.728h-4.524c-.448 0-.812-.364-.812-.812v-7.802c0-.448.364-.812.812-.812h4.37c.407 0 .73.322.73.73 0 .404-.323.727-.73.727h-3.557v2.504zM146.31 170.227v8.054c0 .436-.363.8-.797.8-.266 0-.518-.14-.658-.35l-4.132-5.968v5.52c0 .434-.364.798-.798.798s-.798-.364-.798-.8v-8.053c0-.435.364-.8.798-.8.28 0 .504.127.645.337l4.146 6.01v-5.547c0-.435.364-.8.798-.8.433 0 .797.365.797.8zM149.54 174.26c0-3.32 1.612-4.916 4.44-4.916s4.44 1.597 4.44 4.916c0 3.278-1.61 4.903-4.44 4.903s-4.44-1.625-4.44-4.903zm1.682 0c0 2.312.91 3.446 2.76 3.446 1.848 0 2.76-1.135 2.76-3.446 0-2.325-.912-3.46-2.76-3.46-1.85 0-2.76 1.135-2.76 3.46zM165.236 170.97v7.297c0 .448-.363.812-.812.812s-.812-.365-.812-.813v-7.298h-2.144c-.393 0-.714-.323-.714-.716 0-.392.322-.714.714-.714h5.912c.392 0 .714.322.714.714 0 .393-.322.715-.714.715h-2.144zM177.99 178.267c0 .448-.365.812-.813.812s-.812-.365-.812-.813v-7.914c0-.448.364-.812.812-.812h4.37c.406 0 .73.323.73.73 0 .405-.323.728-.73.728h-3.558v2.592h2.646c.393 0 .715.322.715.715 0 .392-.32.714-.714.714h-2.647v3.247zM185.17 174.26c0-3.32 1.61-4.916 4.44-4.916s4.44 1.597 4.44 4.916c0 3.278-1.61 4.903-4.44 4.903s-4.44-1.625-4.44-4.903zm1.682 0c0 2.312.91 3.446 2.76 3.446s2.76-1.135 2.76-3.446c0-2.325-.912-3.46-2.76-3.46s-2.76 1.135-2.76 3.46zM197.35 175.885v-5.645c0-.448.365-.812.812-.812.45 0 .812.364.812.812v5.645c0 .854.322 1.85 1.905 1.85s1.904-.995 1.904-1.85v-5.645c0-.448.364-.812.812-.812s.812.364.812.812v5.645c0 1.598-.7 3.278-3.53 3.278s-3.528-1.68-3.528-3.278zM215.12 170.227v8.054c0 .436-.364.8-.798.8-.267 0-.52-.14-.658-.35l-4.133-5.968v5.52c0 .434-.363.798-.798.798-.434 0-.798-.364-.798-.8v-8.053c0-.435.364-.8.798-.8.28 0 .505.127.645.337l4.146 6.01v-5.547c0-.435.364-.8.8-.8.433 0 .797.365.797.8z"/></g><text transform="translate(218.03 178.967)" fill="#5D5E5E" font-family="'Bariol-Bold'" font-size="14">D</text><text transform="translate(91.68 152.967)" fill="#3C4B5D" font-family="'Bariol-Bold'" font-size="80">4</text><text transform="translate(136.56 152.967)" fill="#3C4B5D" font-family="'Bariol-Bold'" font-size="80">04</text></svg>