<svg xmlns="http://www.w3.org/2000/svg" width="550" height="550" viewBox="0 0 550 550"><g opacity=".15" fill="#FFF"><path d="M239.697 96.325c-1.772 1.625-4.582.81-4.267-1.673.31-2.483 4.56-3.157 6.468.132 1.91 3.292-.43 8.49-7.554 9.295-7.125.805-11.623-7.773-9.666-13.85 1.956-6.072 11.476-10.597 23.313-3.382 11.84 7.214 28.315 9.98 41.482 1.883-12.718 10.485-30.655 5.69-42.352-.58-11.698-6.266-19.13-1.3-20.384 3.136-1.286 4.558 1.964 9.715 7.088 10.61 5.12.9 6.445-3.83 5.873-5.57z"/><path d="M237.8 82.15c-8.633-.894-12.253 2.216-14.435 5.65-2.562 4.022-.984 9.988 1.262 14.392-5.114-3.898-5.594-11.647-3.244-15.497 2.284-3.747 7.77-7.2 16.416-4.545z"/><path d="M223.652 81.35c4.534-2.605 11.353-2.407 17.95-.206-6.467-3.36-14.703-4.198-19.236-1.502-4.534 2.7-6.787 8.056-5.833 13.654.862-5.233 2.58-9.342 7.12-11.947zM312.333 96.325c1.773 1.625 4.584.81 4.27-1.673-.313-2.483-4.56-3.157-6.47.132-1.91 3.292.43 8.49 7.554 9.295 7.124.805 11.624-7.773 9.668-13.85-1.957-6.072-11.476-10.597-23.315-3.382-11.837 7.214-28.31 9.98-41.482 1.883 12.72 10.485 30.658 5.69 42.35-.58 11.7-6.266 19.133-1.3 20.386 3.136 1.285 4.558-1.963 9.715-7.086 10.61-5.123.9-6.444-3.83-5.875-5.57z"/><path d="M314.234 82.15c8.63-.894 12.25 2.216 14.434 5.65 2.562 4.022.984 9.988-1.262 14.392 5.112-3.898 5.59-11.647 3.245-15.497-2.284-3.747-7.773-7.2-16.416-4.545z"/><path d="M328.38 81.35c-4.537-2.605-11.353-2.407-17.95-.206 6.465-3.36 14.702-4.198 19.236-1.502 4.534 2.7 6.787 8.056 5.833 13.654-.864-5.233-2.583-9.342-7.12-11.947zM276.016 99.96c-7.948 0-18.888-4.622-25.072-8.387 4.55 4.138 13.216 10.916 25.072 10.916s20.522-6.78 25.07-10.917c-6.182 3.765-17.12 8.388-25.07 8.388z"/><path d="M275.4 97.507c-4.447-10.5-11.122-10.025-13.56-9.917-2.445.107-4.962-.73-5.543-2.698-.584-1.968 2.118-4.136 6.852-3.79 4.736.346 10.355 3.353 12.25 16.405z"/><path d="M276.016 70.003c-3.604 0-5.865 4.99-4.116 9.932 1.75 4.94 3.575 8.312 4.116 17.8.542-9.487 2.364-12.858 4.114-17.8s-.51-9.932-4.114-9.932zM276.63 97.507c4.45-10.5 11.122-10.025 13.563-9.917 2.44.107 4.96-.73 5.542-2.698.584-1.968-2.118-4.136-6.854-3.79-4.736.346-10.353 3.353-12.25 16.405z"/></g><g opacity=".15" fill="#FFF"><path d="M276.01 450.073c7.927 0 18.837 4.61 25.002 8.365-4.538-4.126-13.18-10.885-25-10.885-11.822 0-20.465 6.76-25 10.885 6.164-3.754 17.073-8.365 25-8.365z"/><path d="M276.624 452.52c4.435 10.472 11.09 9.998 13.522 9.89 2.437-.106 4.946.728 5.525 2.69.584 1.963-2.11 4.125-6.83 3.78-4.722-.345-10.325-3.344-12.216-16.36z"/><path d="M276.01 479.947c3.595 0 5.85-4.975 4.105-9.903-1.746-4.928-3.565-8.29-4.104-17.75-.54 9.46-2.355 12.822-4.1 17.75-1.746 4.93.507 9.903 4.1 9.903z"/><path d="M275.397 452.52c-4.435 10.472-11.09 9.998-13.523 9.89-2.435-.106-4.945.728-5.526 2.69-.582 1.963 2.112 4.125 6.834 3.78 4.725-.345 10.325-3.344 12.215-16.36z"/></g></svg>