<svg xmlns="http://www.w3.org/2000/svg" xmlns:xlink="http://www.w3.org/1999/xlink" width="2000" height="810" viewBox="0 0 2000 810"><defs><path id="a" d="M0 0h2000v810H0z"/></defs><clipPath id="b"><use xlink:href="#a" overflow="visible"/></clipPath><g opacity=".1" clip-path="url(#b)"><g opacity=".95" fill="none" stroke="#FFF" stroke-width=".6" stroke-miterlimit="10"><path d="M23.112 622.27l-38.26 74.615-15.246-40.955zM327.186 1035.36l-15.045 25.18 28.157 62.944zM312.14 1060.54l-96.43-24.412 18.388-10.634z"/><path d="M223.884 1011.87l-8.173 24.258 18.388-10.634zM167.5 641.445l-41.99 23.953 14.208 16.504zM-30.394 655.93l15.246 40.955-63.885 10.248zM-15.148 696.885L-65.83 800.85l-13.203-93.717zM295.47 551.12l-17.927 7.003-27.086-28.846zM-30.394 655.93l-48.64 51.203-19.24 1.484zM144.086 1032.64l14.76 17.09 44.796-49.802zM139.718 681.902L89.088 802.4l-55.86-63.61z"/><path d="M-15.148 696.885L-65.83 800.85l99.057-62.06zM20.056 837.378L-65.83 800.85l99.057-62.06zM167.5 641.445l-41.99 23.953-21.614-10.657zM295.588 635.025l-128.09 6.42 74.165-65.222z"/><path d="M277.543 558.123l-27.086-28.846-8.794 46.946zM265.28 341.807l-20.008 65.214-24.487-52.17zM596.214 637.93l8.99 19.19-56.745 52.18z"/><path d="M596.214 637.93l-90.998 44.547L548.46 709.3zM245.272 407.02l-99.27 35.738 133.304 36.215zM295.47 551.12l-45.013-21.843 28.85-50.304z"/><path d="M250.457 529.277L146 442.757l133.306 36.216zM167.5 641.445l-63.604 13.296 9.712-106.398zM103.896 654.74l-80.784-32.47 90.496-73.928zM-179.93 661.486l-61.913-19.242 30.523 47.612z"/><path d="M-241.843 642.244l1.622 81.383 28.9-33.77zM-79.033 707.133l-19.24 1.484-16.898 93.244zM-79.033 707.133l13.203 93.718-49.34 1.01zM596.214 637.93l-82.256-64.253-13.724 52.68zM596.214 637.93l-90.998 44.547-4.982-56.12zM505.216 682.477l-52.552-14.766 47.57-41.352zM574.586 712.404L548.46 709.3l47.57 49.29zM340.297 1123.484l-28.156-62.943-118.158 107.638zM312.14 1060.54l-96.43-24.412-21.728 132.05z"/><path d="M215.71 1036.128l-56.864 13.602 35.136 118.448zM89.09 802.4l39.665 71.084-71.207 43.65zM128.755 873.484l-2.54 23.387-68.667 20.265zM-179.93 661.486l-31.39 28.37 41.707 63.642z"/><path d="M-211.32 689.856l-28.9 33.77 70.607 29.872zM505.216 682.477l-52.552-14.766-58.587 125.763zM394.077 793.473l-35.335 42.02-8.275-54.13z"/><path d="M358.742 835.494l-33.43-9.507 25.155-44.625zM325.31 825.987l-50.01 7.167 75.167-51.792zM158.846 1049.73l35.136 118.448-69.836-2.957zM241.663 576.223l53.925 58.802L311.918 581zM295.47 551.12l-17.927 7.003L311.918 581z"/><path d="M277.543 558.123l-35.88 18.1L311.918 581zM146 442.758l-72.326 36.965 56.817 60.506zM241.663 576.223L167.5 641.445 130.49 540.23zM73.674 479.723l39.934 68.62 16.883-8.114z"/><path d="M113.608 548.342l53.89 93.103-37.007-101.216zM250.457 529.277L146 442.757l-15.51 97.472z"/><path d="M250.457 529.277l-8.794 46.946L130.49 540.23zM340.297 1123.484l-146.315 44.694 7.156 47.445zM193.982 1168.178l-69.836-2.957 76.992 50.403zM135.168 361.18l-16.782 41.183-43.61-57.43zM320.073 415.266l-40.767 63.707 99.472 34.824zM279.306 478.973l16.165 72.148 83.308-37.323z"/><path d="M295.47 551.12L311.92 581l66.86-67.203zM125.51 665.398l14.208 16.504-82.037 7.395z"/><path d="M125.51 665.398l-21.614-10.657-46.215 34.557z"/><path d="M139.718 681.902l-106.49 56.89 24.453-49.495z"/><path d="M103.896 654.74l-80.784-32.47 34.57 67.027z"/><path d="M23.112 622.27l-38.26 74.615 72.83-7.588zM33.227 738.79l-48.375-41.905 72.83-7.588zM275.3 833.154l-43.962 98.762-9.043-35.725zM231.338 931.916l-41.036 20.845 31.993-56.57zM89.09 802.4l39.665 71.084 6.904-35.222zM223.884 1011.87l-20.242-11.942 7.322 11.916z"/><path d="M223.884 1011.87l-8.173 24.258-4.746-24.284zM203.642 999.928l-44.796 49.802 52.118-37.886zM215.71 1036.128l-56.864 13.602 52.118-37.886zM-169.613 753.498l-70.608-29.87 18.438 51.222zM358.742 835.494l-33.43-9.507 33.53 42.577z"/><path d="M325.31 825.987l-50.01 7.167 83.543 35.41z"/><path d="M275.3 833.154l-43.962 98.762 127.505-63.352zM20.056 837.378L-65.83 800.85l-2.69 19.11zM-65.83 800.85l-49.34 1.01 46.65 18.1zM-115.17 801.86l2.858 81.33 43.79-63.23zM465.352 862.51l-33.647 54.807 51.08-17.014z"/><path d="M431.705 917.317l37.146 174.835 13.936-191.85zM-115.17 801.86l-77.277 37.19 40.903-64.936z"/><path d="M-169.613 753.498l-52.17 21.352 70.24-.736zM118.386 402.363L146 442.758l9.06-49.407zM220.785 354.85l24.487 52.17-90.212-13.67z"/><path d="M220.785 354.85l-85.617 6.33 19.892 32.17zM245.272 407.02l-99.27 35.738 9.058-49.407zM135.168 361.18l-16.782 41.183 36.674-9.012zM394.077 793.473l-23.35 50.666-8.54-6.35zM394.077 793.473l-35.335 42.02 3.444 2.296zM370.728 844.14l-11.885 24.424 3.343-30.775z"/><path d="M358.742 835.494l.1 33.07 3.344-30.775zM465.352 862.51l-71.275-69.037 140.544 20.574zM465.352 862.51l17.434 37.793 51.835-86.256z"/><path d="M596.03 758.59l-47.57-49.29-13.84 104.747z"/><path d="M548.46 709.3l-43.244-26.823 29.405 131.57z"/><path d="M505.216 682.477l-111.14 110.996 140.545 20.574zM73.674 479.723l39.934 68.62-68.517-20.78z"/><path d="M73.674 479.723l-41.522-3.018 12.94 50.86z"/><path d="M113.608 548.342L23.112 622.27l21.98-94.706zM32.152 476.705l-54.274 52.07 67.213-1.21z"/><path d="M-22.122 528.774l45.234 93.496 21.98-94.706zM435.462 571.11l-10.313 89.275-65.173-51.552zM452.664 667.71l-27.515-7.325-22.917 12.676z"/><path d="M425.15 660.385l-65.173-51.552 42.256 64.228z"/><path d="M359.977 608.833l-36.874 33.52 79.13 30.708zM231.338 931.916l-41.036 20.845-.25 7.975z"/><path d="M203.642 999.928l-59.556 32.71 45.966-71.903zM33.227 738.79L89.09 802.4 48.57 812.812z"/><path d="M33.227 738.79l-13.17 98.588 28.515-24.566z"/><path d="M89.09 802.4L57.547 917.135l-8.976-104.323z"/><path d="M20.056 837.378l-3.124 57.1 31.64-81.666z"/><path d="M57.548 917.135L16.932 894.48l31.64-81.668zM534.62 814.047l-51.834 86.256 84.297-33.832zM465.352 862.51l-71.275-69.037 4.03 59.224zM465.352 862.51l-33.647 54.807-33.6-64.62z"/><path d="M394.077 793.473l-23.35 50.666 27.38 8.557zM370.728 844.14l-11.885 24.424 39.263-15.867z"/><path d="M431.705 917.317l-72.862-48.753 39.263-15.867zM231.338 931.916l-41.286 28.82 31.39 16.948z"/><path d="M190.052 960.735l13.59 39.193 17.8-22.244zM670.36 748.484L627.54 768.8l38.31-58.083zM627.538 768.8l-31.508-10.21 69.817-47.873zM70.48 1033.906l-24.094 8.673-37.21-31.385zM46.386 1042.58l-26.78 53.885-10.43-85.27z"/><path d="M-54.225 954.662l73.832 141.803-10.43-85.27zM201.138 1215.623l-76.992-50.402-87.06-11.107zM323.103 642.352l-27.515-7.327-11.566 38.496z"/><path d="M295.588 635.025l-128.09 6.42 116.524 32.076z"/><path d="M167.5 641.445l-27.782 40.457 144.304-8.38zM-151.544 774.114l-70.238.736 2.474 45.21zM-151.544 774.114l-40.903 64.937-26.86-18.99zM358.843 868.564l-127.505 63.352 42.792 59.305zM231.338 931.916l-9.895 45.768 52.687 13.537zM327.186 1035.36l-15.045 25.18-38.01-69.32z"/><path d="M312.14 1060.54l-78.042-35.046 40.032-34.273zM265.28 341.807l54.793 73.46-53.488-6.15zM265.28 341.807l-20.008 65.214 21.313 2.097z"/><path d="M320.073 415.266l-40.767 63.707-12.72-69.856z"/><path d="M245.272 407.02l34.034 71.953-12.72-69.856zM57.548 917.135L16.932 894.48l28.1 64.256zM16.932 894.48l-71.157 60.182 99.256 4.074z"/><path d="M9.176 1011.195l-63.4-56.533 99.255 4.074zM284.022 673.52l-144.304 8.382 22.918 77.968zM139.718 681.902L89.088 802.4l73.548-42.53zM435.462 571.11l-75.485 37.723 29.752-69.946z"/><path d="M359.977 608.833L311.917 581l77.812-42.113zM173.028 290.257l47.757 64.593-72.395-30.402z"/><path d="M173.028 290.257l-98.253 54.675 73.615-20.484z"/><path d="M220.785 354.85l-85.617 6.33 13.222-36.732zM135.168 361.18l-60.393-16.248 73.615-20.484zM323.103 642.352l-27.515-7.327 40.753-23.895zM359.977 608.833L311.917 581l24.424 30.13z"/><path d="M311.918 581l-16.33 54.025 40.753-23.895zM190.302 952.76l-.25 7.975-96.398-13.39z"/><path d="M190.302 952.76l-64.087-55.89-32.56 50.476z"/><path d="M190.052 960.735l-45.966 71.904-50.432-85.294zM126.215 896.87l-68.667 20.265 36.106 30.21z"/><path d="M57.548 917.135l-12.517 41.6 48.624-11.39z"/><path d="M144.086 1032.64L73.28 981.952l20.374-34.607z"/><path d="M73.28 981.953l-28.25-23.217 48.624-11.39z"/><path d="M144.086 1032.64L73.28 981.952l-3.127 11.78zM144.086 1032.64l-73.607 1.266-.327-40.174z"/><path d="M73.28 981.953l-28.25-23.217 25.123 34.996zM45.03 958.736l-35.854 52.46 60.977-17.464z"/><path d="M70.48 1033.906l-61.304-22.71 60.977-17.464zM665.847 710.717L596.03 758.59l-10.596-49.738z"/><path d="M574.586 712.404l21.444 46.186-10.596-49.738zM275.3 833.154l-53.005 63.037-17.535-25.54z"/><path d="M222.295 896.19l-31.993 56.57 14.458-82.11zM135.66 838.262l-6.905 35.222 76.005-2.834z"/><path d="M128.755 873.484l-2.54 23.387 78.545-26.22z"/><path d="M190.302 952.76l-64.087-55.89 78.545-26.22zM-98.273 708.617l-81.656-47.13 67.515 52.67zM-98.273 708.617l-16.898 93.244 2.755-87.702z"/><path d="M-179.93 661.486l10.317 92.012 57.198-39.34zM-115.17 801.86l-36.374-27.746 39.13-59.956z"/><path d="M-169.613 753.498l18.07 20.616 39.128-59.956zM-22.122 528.774l45.234 93.496-47.103 14.384zM-22.122 528.774l-59.105.232 57.236 107.648z"/><path d="M23.112 622.27l-53.506 33.66 6.403-19.276z"/><path d="M-81.227 529.006l-98.702 132.48 155.94-24.832z"/><path d="M-30.394 655.93l-67.88 52.687 74.283-71.963z"/><path d="M-98.273 708.617l-81.656-47.13 155.94-24.833zM274.13 991.22l-52.687-13.536 16.416 18.855z"/><path d="M274.13 991.22l-40.032 34.274 3.76-28.955zM221.443 977.684l-17.8 22.244 34.216-3.39zM223.884 1011.87l10.214 13.624 3.76-28.955z"/><path d="M223.884 1011.87l-20.242-11.942 34.217-3.39zM513.958 573.677l-13.724 52.68-38.762-.078z"/><path d="M513.958 573.677l-78.496-2.566 26.01 55.17zM500.234 626.358l-47.57 41.353 8.808-41.43z"/><path d="M435.462 571.11l-10.313 89.275 36.322-34.106zM452.664 667.71l-27.515-7.325 36.322-34.106zM323.103 642.352l-39.08 31.17 14.207 16.504z"/><path d="M284.022 673.52l-121.386 86.35 135.594-69.844zM350.467 781.362L275.3 833.154l22.93-143.128z"/><path d="M275.3 833.154L162.635 759.87l135.594-69.844zM323.103 642.352l-24.873 47.674 80.568 6.146zM298.23 690.026l52.237 91.336 28.33-85.19zM394.077 793.473l-43.61-12.11 28.33-85.19zM452.664 667.71l-58.587 125.763-15.28-97.3zM452.664 667.71l-50.43 5.35-23.436 23.112z"/><path d="M402.233 673.06l-79.13-30.708 55.695 53.82zM-241.843 642.244l1.622 81.383-38.045 10.3z"/><path d="M-240.22 723.627l18.438 51.223-56.483-40.924zM20.056 837.378l-3.124 57.1-17.437-37.793zM19.607 1096.465l17.48 57.648 7.592-39.187z"/><path d="M-.505 856.685l17.437 37.794-116.534 57.47zM16.932 894.48l-71.157 60.182-45.377-2.713zM-54.225 954.662l73.832 141.803-119.21-144.516zM670.36 748.484L627.54 768.8l-18.936 55.366zM627.538 768.8l-31.508-10.21 12.572 65.576zM596.03 758.59l-61.41 55.457 73.982 10.12z"/><path d="M534.62 814.047l32.463 52.424 41.52-42.304zM-221.782 774.85l-56.483-40.924L-148.4 989.48z"/><path d="M-221.782 774.85l2.474 45.21 70.908 169.42zM-99.602 951.95l119.21 144.515L-148.4 989.48z"/><path d="M-192.447 839.05l-26.86-18.99 70.907 169.42zM19.607 1096.465l17.48 57.648L-148.4 989.48zM275.3 833.154L162.635 759.87l.118 38.577z"/><path d="M275.3 833.154l-70.54 37.496-42.006-72.203z"/><path d="M162.636 759.87L89.09 802.4l73.664-3.953z"/><path d="M204.76 870.65l-69.1-32.388 27.094-39.815z"/><path d="M135.66 838.262L89.09 802.4l73.664-3.953zM20.056 837.378l-20.56 19.307-52.654-2.514zM20.056 837.378L-68.52 819.96l15.362 34.21z"/><path d="M-.505 856.685l-99.097 95.264 46.444-97.78z"/><path d="M-68.52 819.96l-43.792 63.23 59.154-29.02zM-112.312 883.19l7.322 11.917 51.832-40.936z"/><path d="M-104.99 895.107l5.388 56.842 46.444-97.78zM-115.17 801.86l2.858 81.33-11.535 4.198zM-115.17 801.86l-77.277 37.19 68.6 48.338z"/><path d="M-112.312 883.19l7.322 11.917-18.857-7.72z"/><path d="M-104.99 895.107l5.388 56.842-24.245-64.562zM-99.602 951.95l-48.798 37.53 24.553-102.092z"/><path d="M-192.447 839.05l44.047 150.43 24.553-102.092zM32.152 476.705l-54.274 52.07-16.464-35.388z"/><path d="M-22.122 528.774l-59.105.232 42.64-35.62zM431.705 917.317l-72.862-48.753 34.05 122.784zM431.705 917.317l37.146 174.835-75.958-100.804z"/><path d="M358.843 868.564L274.13 991.22l118.762.128z"/><path d="M392.892 991.348l75.96 100.804-117.915-65.83z"/><path d="M392.892 991.348l-118.762-.127 76.807 35.102z"/><path d="M468.85 1092.152l-128.553 31.332 10.64-97.162zM327.186 1035.36l-53.056-44.14 76.807 35.102z"/><path d="M327.186 1035.36l13.11 88.124 10.64-97.162zM144.086 1032.64l14.76 17.09-98.536 51.625z"/><path d="M144.086 1032.64l-73.607 1.266-10.17 67.45z"/><path d="M158.846 1049.73l-34.7 115.49-63.836-63.865zM70.48 1033.906l-24.094 8.673 13.924 58.775zM46.386 1042.58l-26.78 53.885 40.704 4.89z"/><path d="M124.146 1165.22l-87.06-11.107 23.224-52.758z"/><path d="M44.68 1114.926l-25.073-18.46 40.703 4.89z"/><path d="M44.68 1114.926l-7.593 39.187 23.223-52.758zM482.786 900.303l-13.935 191.85 98.534-217.123zM567.083 866.47l-84.297 33.833 84.598-25.273zM513.958 573.677l-78.496-2.566 10.045-41.49zM435.462 571.11l-45.733-32.223 55.777-9.268z"/><path d="M389.73 538.887l-10.952-25.09 66.73 15.822zM118.386 402.363L146 442.758l-37.826-8.697z"/><path d="M146 442.758l-72.326 36.965 34.5-45.662z"/><path d="M73.674 479.723l-41.522-3.018 76.022-42.644zM108.174 434.06l-76.022 42.645-34.38-51.724zM32.152 476.705l-70.738 16.682L-2.23 424.98z"/></g><g fill="#FFF"><circle cx="201.076" cy="1215.455" r="3.74"/><circle cx="193.076" cy="1167.213" r="3.741"/><circle cx="124.145" cy="1165.221" r="3.741"/><circle cx="340.297" cy="1123.484" r="3.74"/><circle cx="468.852" cy="1092.152" r="3.741"/><circle cx="312.141" cy="1060.541" r="3.741"/><circle cx="327.186" cy="1035.361" r="3.741"/><circle cx="350.937" cy="1026.322" r="3.741"/><circle cx="393.247" cy="991.724" r="3.741"/><circle cx="273.594" cy="991.725" r="3.741"/><circle cx="238.962" cy="997.714" r="3.741"/><circle cx="223.884" cy="1011.871" r="3.741"/><circle cx="234.098" cy="1025.496" r="3.741"/><circle cx="215.711" cy="1036.129" r="3.741"/><circle cx="211.91" cy="1012.854" r="3.741"/><circle cx="203.642" cy="999.927" r="3.741"/><circle cx="221.444" cy="977.685" r="3.741"/><circle cx="158.846" cy="1049.73" r="3.741"/><circle cx="144.086" cy="1032.638" r="3.741"/><circle cx="190.052" cy="960.734" r="3.741"/><circle cx="190.302" cy="952.762" r="3.741"/><circle cx="231.495" cy="932.082" r="3.741"/><circle cx="222.295" cy="896.191" r="3.74"/><circle cx="204.76" cy="870.65" r="3.741"/><circle cx="275.299" cy="833.154" r="3.74"/><circle cx="324.612" cy="826.644" r="3.741"/><circle cx="358.742" cy="835.494" r="3.741"/><circle cx="360.093" cy="868.494" r="3.741"/><circle cx="431.705" cy="917.318" r="3.741"/><circle cx="482.786" cy="900.304" r="3.741"/><circle cx="466.18" cy="863.391" r="3.741"/><circle cx="398.107" cy="852.697" r="3.741"/><circle cx="394.078" cy="793.472" r="3.741"/><circle cx="350.466" cy="781.363" r="3.741"/><path d="M132.932 840.822c-1.415-1.506-1.34-3.875.166-5.29 1.506-1.413 3.873-1.34 5.288.17 1.414 1.503 1.34 3.872-.166 5.286s-3.875 1.34-5.288-.166z"/><circle cx="162.754" cy="798.448" r="3.741"/><circle cx="162.635" cy="759.87" r="3.741"/><circle cx="90.271" cy="803.66" r="3.741"/><circle cx="48.572" cy="812.812" r="3.742"/><circle cx="20.056" cy="837.378" r="3.741"/><circle cx="-1.299" cy="857.431" r="3.741"/><circle cx="16.931" cy="894.479" r="3.742"/><circle cx="58.234" cy="916.491" r="3.741"/><path d="M41.96 961.62c-1.413-1.507-1.34-3.876.167-5.29 1.506-1.413 3.874-1.338 5.288.168 1.414 1.504 1.34 3.873-.166 5.287-1.508 1.414-3.875 1.34-5.29-.166z"/><circle cx="70.152" cy="993.732" r="3.741"/><path d="M70.223 984.822c-1.415-1.506-1.34-3.873.166-5.29 1.505-1.413 3.874-1.34 5.288.17 1.413 1.503 1.34 3.872-.167 5.286-1.506 1.416-3.873 1.34-5.287-.166z"/><circle cx="93.033" cy="948.085" r="3.741"/><path d="M123.49 899.434c-1.416-1.508-1.342-3.875.165-5.29 1.505-1.413 3.874-1.34 5.288.17 1.414 1.503 1.34 3.872-.167 5.285-1.506 1.414-3.874 1.338-5.287-.166zM126.705 875.41c-1.415-1.506-1.34-3.875.166-5.29s3.875-1.337 5.29.17c1.412 1.503 1.338 3.872-.167 5.286-1.507 1.414-3.876 1.34-5.288-.165z"/><circle cx="70.277" cy="1034.095" r="3.741"/><circle cx="46.385" cy="1042.58" r="3.74"/><circle cx="9.176" cy="1011.196" r="3.74"/><circle cx="-54.225" cy="954.662" r="3.741"/><circle cx="-97.547" cy="951.425" r="3.74"/><path d="M-151.125 992.04c-1.414-1.507-1.34-3.872.164-5.286 1.506-1.415 3.875-1.34 5.29.164 1.413 1.508 1.338 3.876-.168 5.29-1.507 1.415-3.873 1.34-5.287-.17z"/><circle cx="-123.847" cy="887.387" r="3.74"/><circle cx="-112.313" cy="883.189" r="3.741"/><circle cx="-104.991" cy="895.107" r="3.741"/><circle cx="-53.033" cy="854.054" r="3.741"/><circle cx="-68.52" cy="819.958" r="3.741"/><circle cx="-64.801" cy="799.885" r="3.741"/><circle cx="-115.173" cy="801.863" r="3.741"/><path d="M-154.272 776.676c-1.415-1.506-1.34-3.874.166-5.29 1.505-1.41 3.874-1.337 5.288.17 1.414 1.505 1.34 3.872-.167 5.286-1.506 1.415-3.873 1.34-5.287-.166z"/><circle cx="-112.073" cy="713.836" r="3.741"/><circle cx="-99.376" cy="707.442" r="3.741"/><circle cx="-180.052" cy="661.603" r="3.741"/><circle cx="-241.238" cy="642.888" r="3.74"/><circle cx="-240.418" cy="723.419" r="3.74"/><circle cx="-211.321" cy="689.858" r="3.741"/><circle cx="-169.614" cy="753.498" r="3.74"/><circle cx="-221.427" cy="774.516" r="3.74"/><circle cx="-277.167" cy="732.894" r="3.74"/><circle cx="-218.559" cy="820.857" r="3.741"/><circle cx="-209.281" cy="812.856" r="3.741"/><circle cx="-201.688" cy="833.359" r="3.74"/><circle cx="-191.541" cy="840.017" r="3.742"/><circle cx="-79.033" cy="707.133" r="3.741"/><circle cx="-15.135" cy="696.873" r="3.741"/><circle cx="57.68" cy="689.295" r="3.741"/><circle cx="33.226" cy="738.791" r="3.741"/><circle cx="139.719" cy="681.902" r="3.741"/><circle cx="124.826" cy="666.041" r="3.741"/><circle cx="104.626" cy="654.056" r="3.741"/><circle cx="23.112" cy="622.269" r="3.741"/><circle cx="-24.542" cy="636.067" r="3.741"/><circle cx="-21.288" cy="526.888" r="3.741"/><circle cx="33.181" cy="475.74" r="3.741"/><circle cx="-2.23" cy="424.981" r="3.74"/><circle cx="74.775" cy="344.932" r="3.741"/><circle cx="-38.587" cy="493.387" r="3.741"/><circle cx="-81.226" cy="529.006" r="3.741"/><circle cx="45.952" cy="526.756" r="3.741"/><circle cx="113.608" cy="548.344" r="3.741"/><circle cx="130.491" cy="540.229" r="3.741"/><circle cx="73.675" cy="479.723" r="3.741"/><circle cx="108.748" cy="434.673" r="3.741"/><circle cx="146" cy="442.758" r="3.741"/><circle cx="154.785" cy="393.058" r="3.74"/><circle cx="135.782" cy="361.835" r="3.741"/><circle cx="119.071" cy="401.721" r="3.741"/><circle cx="148.941" cy="325.034" r="3.741"/><circle cx="173.029" cy="290.258" r="3.74"/><circle cx="219.881" cy="353.887" r="3.74"/><circle cx="265.281" cy="341.807" r="3.741"/><circle cx="245.272" cy="407.021" r="3.741"/><circle cx="266.598" cy="409.104" r="3.741"/><circle cx="279.992" cy="478.33" r="3.741"/><circle cx="250.457" cy="529.277" r="3.741"/><circle cx="295.471" cy="551.122" r="3.741"/><circle cx="311.576" cy="581.321" r="3.741"/><circle cx="276.649" cy="558.961" r="3.74"/><circle cx="378.778" cy="513.797" r="3.741"/><circle cx="444.499" cy="530.566" r="3.741"/><circle cx="435.462" cy="571.11" r="3.741"/><circle cx="461.472" cy="626.279" r="3.741"/><circle cx="513.958" cy="573.676" r="3.741"/><circle cx="499.564" cy="626.988" r="3.741"/><circle cx="504.559" cy="683.095" r="3.74"/><circle cx="548.459" cy="709.303" r="3.741"/><path d="M593.304 761.152c-1.414-1.506-1.34-3.873.165-5.29 1.505-1.412 3.874-1.337 5.288.17 1.414 1.503 1.34 3.873-.167 5.286-1.505 1.414-3.872 1.338-5.286-.166z"/><circle cx="575.335" cy="713.203" r="3.741"/><circle cx="585.434" cy="708.852" r="3.741"/><circle cx="596.213" cy="637.931" r="3.741"/><circle cx="604.549" cy="657.738" r="3.741"/><circle cx="665.273" cy="710.105" r="3.74"/><circle cx="534.621" cy="814.048" r="3.741"/><circle cx="567.642" cy="876.629" r="3.741"/><circle cx="670.361" cy="748.484" r="3.74"/><circle cx="652.62" cy="770.471" r="3.741"/><circle cx="567.083" cy="866.47" r="3.74"/><circle cx="607.437" cy="825.261" r="3.741"/><circle cx="627.539" cy="768.8" r="3.741"/><circle cx="452.099" cy="666.425" r="3.741"/><circle cx="425.15" cy="660.386" r="3.741"/><circle cx="402.43" cy="673.271" r="3.74"/><circle cx="378.799" cy="696.172" r="3.741"/><path d="M332.6 614.643c-1.414-1.506-1.34-3.875.165-5.29 1.507-1.413 3.875-1.34 5.29.17 1.414 1.503 1.34 3.872-.167 5.286-1.507 1.413-3.874 1.336-5.288-.167z"/><circle cx="359.634" cy="609.155" r="3.74"/><circle cx="323.103" cy="642.352" r="3.741"/><circle cx="296.274" cy="634.381" r="3.741"/><circle cx="284.219" cy="673.732" r="3.741"/><circle cx="297.467" cy="690.743" r="3.741"/><circle cx="391.029" cy="540.271" r="3.741"/><circle cx="242.215" cy="576.81" r="3.741"/><circle cx="320.977" cy="416.229" r="3.741"/><circle cx="362.667" cy="339.102" r="3.741"/><circle cx="-30.393" cy="655.931" r="3.741"/><circle cx="167.224" cy="641.153" r="3.74"/><circle cx="19.463" cy="1096.601" r="3.74"/><circle cx="44.679" cy="1114.928" r="3.741"/><circle cx="60.309" cy="1101.357" r="3.741"/><circle cx="37.088" cy="1154.115" r="3.741"/></g><path fill="none" stroke="#FFF" stroke-width=".6" stroke-miterlimit="10" d="M320.073 415.266l43.3-76.163-100.517 2.088M652.644 770.195l40.936 53.703"/></g><g opacity=".1" clip-path="url(#b)"><g fill="none" stroke="#FFF" stroke-width=".6" stroke-miterlimit="10"><path d="M1657.45 524.873l74.616-38.262-40.955-15.243zM2070.543 828.945l25.178-15.043 62.944 28.157zM2095.72 813.902l-24.41-96.43-10.634 18.385z"/><path d="M2047.053 725.645l24.258-8.172-10.634 18.384zM1676.627 669.26l23.95-41.99 16.507 14.21zM1691.11 471.367l40.956 15.244 10.246-63.883z"/><path d="M1732.066 486.61l103.964-50.678-93.718-13.205zM1586.307 797.232l7-17.927-28.846-27.088zM1691.11 471.367l51.202-48.64 1.486-19.24zM2067.82 645.846l17.092 14.76-49.803 44.796zM1717.084 641.48l120.498-50.63-63.61-55.864zM1732.066 486.61l103.964-50.678-62.06 99.054zM1872.56 521.816l-36.53-85.884-62.06 99.054zM1676.627 669.26l23.95-41.99-10.653-21.614zM1670.207 797.35l6.42-128.09-65.223 74.164z"/><path d="M1593.307 779.305l-28.846-27.088 46.944-8.793zM1376.99 767.042l65.215-20.008-52.172-24.488zM1673.11 1097.976l19.193 8.992 52.18-56.746zM1673.11 1097.976l44.548-90.998 26.824 43.244zM1442.205 747.034l35.736-99.272 36.216 133.304zM1586.307 797.232l-21.846-45.015-50.304 28.85z"/><path d="M1564.46 752.217l-86.52-104.455 36.216 133.304zM1676.627 669.26l13.297-63.604-106.397 9.713z"/><path d="M1689.924 605.656l-32.473-80.783-73.923 90.496zM1696.667 321.832l-19.242-61.914 47.613 30.523z"/><path d="M1677.425 259.918l81.38 1.62-33.767 28.903zM1742.312 422.727l1.486-19.24 93.244-16.9zM1742.312 422.727l93.718 13.205 1.012-49.344zM1673.11 1097.976l-64.25-82.256 52.68-13.724z"/><path d="M1673.11 1097.976l44.548-90.998-56.12-4.982zM1717.658 1006.978l-14.765-52.554-41.354 47.572zM1747.586 1076.347l-3.104-26.125 49.29 47.57zM2158.664 842.06L2095.72 813.9l107.64-118.158z"/><path d="M2095.72 813.902l-24.41-96.43 132.05-21.728z"/><path d="M2071.31 717.473l13.602-56.868 118.447 35.14zM1837.582 590.85l71.084 39.666 43.65-71.207z"/><path d="M1908.666 630.516l23.387-2.54 20.263-68.667zM1696.667 321.832l28.37-31.39 63.643 41.704zM1725.038 290.44l33.768-28.9 29.874 70.606zM1717.658 1006.978l-14.765-52.554 125.76-58.586zM1828.652 895.838l42.022-35.334-54.13-8.277z"/><path d="M1870.674 860.504l-9.504-33.434-44.627 25.157z"/><path d="M1861.17 827.07l7.166-50.01-51.793 75.167zM2084.912 660.605l118.447 35.14-2.958-69.84zM1611.404 743.424l58.803 53.926-54.023 16.33z"/><path d="M1586.307 797.232l7-17.927 22.877 34.375z"/><path d="M1593.307 779.305l18.097-35.88 4.78 70.255zM1477.94 647.762l36.966-72.326 60.506 56.816zM1611.404 743.424l65.223-74.164-101.215-37.008z"/><path d="M1514.906 575.436l68.62 39.933-8.114 16.882zM1583.527 615.37l93.1 53.89-101.215-37.008zM1564.46 752.217l-86.52-104.455 97.472-15.51zM1564.46 752.217l46.944-8.793-35.992-111.172zM2158.664 842.06l44.695-146.316 47.445 7.154zM2203.36 695.744l-2.958-69.838 50.403 76.992zM1396.363 636.93l41.184-16.783-57.432-43.61zM1450.45 821.835l63.706-40.77 34.824 99.474z"/><path d="M1514.156 781.066l72.15 16.166-37.326 83.307zM1586.307 797.232l29.877 16.448-67.204 66.86zM1700.578 627.27l16.506 14.21 7.393-82.04z"/><path d="M1700.578 627.27l-10.654-21.614 34.553-46.215zM1717.084 641.48l56.887-106.494-49.493 24.455z"/><path d="M1689.924 605.656l-32.473-80.783 67.027 34.568z"/><path d="M1657.45 524.873l74.616-38.262-7.59 72.83z"/><path d="M1773.97 534.986l-41.904-48.375-7.59 72.83zM1868.336 777.06l98.76-43.96-35.725-9.043z"/><path d="M1967.096 733.1l20.847-41.036-56.572 31.993zM1837.582 590.85l71.084 39.666-35.225 6.904zM2047.053 725.645l-11.944-20.243 11.915 7.323zM2047.053 725.645l24.258-8.172-24.285-4.748zM2035.11 705.402l49.802-44.797-37.887 52.12z"/><path d="M2071.31 717.473l13.602-56.868-37.887 52.12zM1788.68 332.146l-29.874-70.607 51.224 18.44zM1870.674 860.504l-9.504-33.434 42.576 33.534z"/><path d="M1861.17 827.07l7.166-50.01 35.41 83.544zM1868.336 777.06l98.76-43.96-63.35 127.504zM1872.56 521.816l-36.53-85.884 19.11-2.692z"/><path d="M1836.03 435.932l1.012-49.344 18.098 46.652z"/><path d="M1837.042 386.588l81.328 2.86-63.23 43.792zM1897.69 967.113l54.81-33.648-17.016 51.082zM1952.5 933.465l174.834 37.146-191.85 13.937zM1837.042 386.588l37.19-77.274-64.938 40.903zM1788.68 332.146l21.35-52.167-.736 70.237zM1437.547 620.147l40.394 27.615-49.405 9.06zM1390.033 722.546l52.172 24.488-13.67-90.213zM1390.033 722.546l6.33-85.617 32.172 19.89z"/><path d="M1442.205 747.034l35.736-99.272-49.405 9.06zM1396.363 636.93l41.184-16.783-9.012 36.674zM1828.652 895.838l50.666-23.35-6.347-8.543zM1828.652 895.838l42.022-35.334 2.297 3.44z"/><path d="M1879.318 872.488l24.428-11.884-30.775 3.34z"/><path d="M1870.674 860.504l33.072.1-30.775 3.34zM1897.69 967.113l-69.038-71.275 20.577 140.543zM1897.69 967.113l37.794 17.434-86.255 51.834zM1793.77 1097.792l-49.288-47.57 104.747-13.84zM1744.482 1050.222l-26.824-43.244 131.57 29.403zM1717.658 1006.978l110.994-111.14 20.577 140.543zM1514.906 575.436l68.62 39.933-20.776-68.518z"/><path d="M1514.906 575.436l-3.017-41.522 50.86 12.938zM1583.527 615.37l73.924-90.497-94.7 21.98zM1511.89 533.914l52.07-54.275-1.21 67.212zM1563.96 479.64l93.49 45.233-94.7 21.98zM1606.295 937.223l89.27-10.313-51.55-65.172zM1702.893 954.424l-7.327-27.514 12.676-22.916z"/><path d="M1695.566 926.91l-51.552-65.172 64.228 42.256z"/><path d="M1644.014 861.738l33.52-36.875 30.708 79.13zM1967.096 733.1l20.847-41.036 7.973-.252zM2035.11 705.402l32.71-59.556-71.904 45.966zM1773.97 534.986l63.612 55.864 10.41-40.518z"/><path d="M1773.97 534.986l98.59-13.17-24.568 28.516zM1837.582 590.85l114.734-31.54-104.324-8.978z"/><path d="M1872.56 521.816l57.1-3.125-81.668 31.642z"/><path d="M1952.316 559.31l-22.656-40.62-81.668 31.642zM1849.23 1036.38l86.254-51.833-33.832 84.297zM1897.69 967.113l-69.038-71.275 59.225 4.03zM1897.69 967.113l54.81-33.648-64.623-33.598z"/><path d="M1828.652 895.838l50.666-23.35 8.56 27.38z"/><path d="M1879.318 872.488l24.428-11.884-15.87 39.263z"/><path d="M1952.5 933.465l-48.754-72.86-15.87 39.262zM1967.096 733.1l28.82-41.288 16.95 31.39z"/><path d="M1995.916 691.812l39.193 13.59-22.245 17.8zM1783.666 1172.127l20.314-42.825-58.082 38.31z"/><path d="M1803.98 1129.302l-10.21-31.51-47.872 69.82zM2069.088 572.24l8.672-24.094-31.385-37.208zM2077.76 548.146l53.886-26.777-85.27-10.432z"/><path d="M1989.844 447.535l141.802 73.834-85.27-10.432zM2250.805 702.898l-50.403-76.992-11.107-87.058zM1677.533 824.863l-7.326-27.513 38.496-11.567z"/><path d="M1670.207 797.35l6.42-128.09 32.076 116.523z"/><path d="M1676.627 669.26l40.457-27.78-8.38 144.303zM1809.294 350.217l.736-70.238 45.21 2.473zM1809.294 350.217l64.937-40.903-18.99-26.86zM1903.746 860.604l63.35-127.504 59.306 42.79z"/><path d="M1967.096 733.1l45.77-9.897 13.536 52.688zM2070.543 828.945l25.178-15.043-69.318-38.01z"/><path d="M2095.72 813.902l-35.044-78.045-34.274 40.034zM1376.99 767.042l73.46 54.793-6.15-53.488zM1376.99 767.042l65.215-20.008 2.096 21.313zM1450.45 821.835l63.706-40.77-69.855-12.718z"/><path d="M1442.205 747.034l71.95 34.032-69.854-12.72zM1952.316 559.31l-22.656-40.62 64.256 28.1z"/><path d="M1929.66 518.69l60.184-71.155 4.072 99.256z"/><path d="M2046.375 510.938l-56.53-63.403 4.07 99.256zM1708.703 785.783l8.38-144.304 77.968 22.916z"/><path d="M1717.084 641.48l120.498-50.63-42.53 73.546zM1606.295 937.223l37.72-75.485-69.945 29.75z"/><path d="M1644.014 861.738l-27.83-48.058-42.114 77.808zM1325.44 674.79l64.593 47.756-30.402-72.395z"/><path d="M1325.44 674.79l54.675-98.254-20.484 73.615z"/><path d="M1390.033 722.546l6.33-85.617-36.732 13.22z"/><path d="M1396.363 636.93l-16.248-60.394-20.484 73.615zM1677.533 824.863l-7.326-27.513-23.896 40.752zM1644.014 861.738l-27.83-48.058 30.127 24.422zM1616.184 813.68l54.023-16.33-23.896 40.752zM1987.943 692.064l7.973-.252-13.39-96.398zM1987.943 692.064l-55.89-64.087 50.472-32.563z"/><path d="M1995.916 691.812l71.904-45.966-85.295-50.432zM1932.053 627.977l20.263-68.668 30.21 36.104z"/><path d="M1952.316 559.31l41.6-12.52-11.39 48.624z"/><path d="M2067.82 645.846l-50.685-70.807-34.61 20.374z"/><path d="M2017.135 575.04l-23.22-28.25-11.39 48.624zM2067.82 645.846l-50.685-70.807 11.777-3.126z"/><path d="M2067.82 645.846l1.268-73.606-40.176-.326zM2017.135 575.04l-23.22-28.25 34.997 25.124zM1993.916 546.79l52.46-35.852-17.464 60.976z"/><path d="M2069.088 572.24l-22.713-61.302-17.463 60.976zM1745.898 1167.612l47.873-69.82-49.737-10.596zM1747.586 1076.347l46.185 21.445-49.737-10.596zM1868.336 777.06l63.035-53.003-25.538-17.537z"/><path d="M1931.37 724.057l56.573-31.993-82.11 14.456zM1873.44 637.42l35.226-6.904-2.834 76.004z"/><path d="M1908.666 630.516l23.387-2.54-26.22 78.544zM1987.943 692.064l-55.89-64.087-26.22 78.543zM1743.798 403.486l-47.13-81.654 52.67 67.514z"/><path d="M1743.798 403.486l93.244-16.898-87.705 2.758zM1696.667 321.832l92.013 10.314-39.343 57.2z"/><path d="M1837.042 386.588l-27.748-36.37-59.957 39.128z"/><path d="M1788.68 332.146l20.614 18.07-59.957 39.13zM1563.96 479.64l93.49 45.233 14.386-47.103z"/><path d="M1563.96 479.64l.23-59.107 107.646 57.237zM1657.45 524.873l33.66-53.506-19.274 6.403z"/><path d="M1564.19 420.533l132.477-98.7-24.83 155.937z"/><path d="M1691.11 471.367l52.688-67.88-71.962 74.283zM1743.798 403.486l-47.13-81.654-24.832 155.938zM2026.402 775.89l-13.537-52.687 18.854 16.416z"/><path d="M2026.402 775.89l34.274-40.033-28.957 3.762z"/><path d="M2012.865 723.203l22.244-17.8-3.39 34.216z"/><path d="M2047.053 725.645l13.623 10.212-28.957 3.762z"/><path d="M2047.053 725.645l-11.944-20.243-3.39 34.217zM1608.86 1015.72l52.68-13.724-.08-38.764z"/><path d="M1608.86 1015.72l-2.565-78.497 55.166 26.01zM1661.54 1001.996l41.353-47.572-41.432 8.808zM1606.295 937.223l89.27-10.313-34.104 36.322z"/><path d="M1702.893 954.424l-7.327-27.514-34.105 36.322zM1677.533 824.863l31.17-39.08 16.504 14.207zM1708.703 785.783l86.348-121.387-69.843 135.594zM1816.543 852.227l51.793-75.166-143.13 22.93zM1868.336 777.06l-73.285-112.664-69.843 135.594z"/><path d="M1677.533 824.863l47.674-24.873 6.145 80.57zM1725.207 799.99l91.336 52.237-85.19 28.332z"/><path d="M1828.652 895.838l-12.11-43.61-85.19 28.33z"/><path d="M1702.893 954.424l125.76-58.586-97.3-15.28z"/><path d="M1702.893 954.424l5.35-50.43 23.11-23.435zM1708.242 903.994l-30.71-79.13 53.82 55.695zM1677.425 259.918l81.38 1.62 10.3-38.042zM1758.806 261.54l51.224 18.44-40.924-56.484zM1872.56 521.816l57.1-3.125-37.795-17.434zM2131.646 521.37l57.65 17.478-39.19 7.59zM1891.865 501.256l37.795 17.435 57.468-116.53z"/><path d="M1929.66 518.69l60.184-71.155-2.716-45.375zM1989.844 447.535l141.802 73.834-144.518-119.21zM1783.666 1172.127l20.314-42.825 55.368-18.94z"/><path d="M1803.98 1129.302l-10.21-31.51 65.578 12.57z"/><path d="M1793.77 1097.792l55.46-61.41 10.118 73.98z"/><path d="M1849.23 1036.38l52.422 32.464-42.304 41.52zM1810.03 279.98l-40.924-56.484L2024.66 353.36z"/><path d="M1810.03 279.98l45.21 2.473 169.42 70.908zM1987.128 402.16l144.518 119.21-106.985-168.01z"/><path d="M1874.23 309.314l-18.99-26.86 169.42 70.907zM2131.646 521.37l57.65 17.478L2024.66 353.36zM1868.336 777.06l-73.285-112.664 38.58.12z"/><path d="M1868.336 777.06l37.496-70.54-72.203-42.004zM1795.05 664.396l42.532-73.546-3.953 73.666z"/><path d="M1905.832 706.52l-32.39-69.1-39.813 27.096z"/><path d="M1873.44 637.42l-35.858-46.57-3.953 73.666zM1872.56 521.816l19.305-20.56-2.513-52.652zM1872.56 521.816l-17.42-88.576 34.212 15.364z"/><path d="M1891.865 501.256l95.263-99.096-97.776 46.444z"/><path d="M1855.14 433.24l63.23-43.793-29.018 59.157z"/><path d="M1918.37 389.447l11.918 7.324-40.936 51.834z"/><path d="M1930.288 396.77l56.84 5.39-97.776 46.444zM1837.042 386.588l81.328 2.86 4.197-11.534zM1837.042 386.588l37.19-77.274 48.335 68.6z"/><path d="M1918.37 389.447l11.918 7.324-7.72-18.856zM1930.288 396.77l56.84 5.39-64.56-24.246z"/><path d="M1987.128 402.16l37.533-48.8-102.093 24.554z"/><path d="M1874.23 309.314l150.43 44.047-102.093 24.554zM1511.89 533.914l52.07-54.275-35.39-16.466z"/><path d="M1563.96 479.64l.23-59.107-35.62 42.64zM1952.5 933.465l-48.754-72.86 122.78 34.047zM1952.5 933.465l174.834 37.146-100.807-75.958z"/><path d="M1903.746 860.604l122.656-84.713.125 118.762zM2026.527 894.652l100.807 75.96-65.832-117.915z"/><path d="M2026.527 894.652l-.125-118.76 35.1 76.805zM2127.334 970.61l31.33-128.55-97.162 10.637z"/><path d="M2070.543 828.945l-44.14-53.054 35.1 76.807z"/><path d="M2070.543 828.945l88.12 13.114-97.16 10.637zM2067.82 645.846l17.092 14.76 51.625-98.536z"/><path d="M2067.82 645.846l1.268-73.606 67.45-10.17z"/><path d="M2084.912 660.605l115.49-34.7-63.865-63.835z"/><path d="M2069.088 572.24l8.672-24.094 58.777 13.924zM2077.76 548.146l53.886-26.777 4.89 40.7zM2200.402 625.906l-11.107-87.058-52.758 23.222z"/><path d="M2150.107 546.44l-18.46-25.07 4.89 40.7zM2150.107 546.44l39.188-7.592-52.758 23.222zM1935.484 984.547l191.85-13.936-217.12 98.535z"/><path d="M1901.652 1068.844l33.832-84.297-25.27 84.598zM1608.86 1015.72l-2.565-78.497-41.492 10.045zM1606.295 937.223l-32.225-45.735-9.267 55.78z"/><path d="M1574.07 891.488l-25.09-10.95 15.823 66.73zM1437.547 620.147l40.394 27.615-8.694-37.825z"/><path d="M1477.94 647.762l36.966-72.326-45.66 34.5z"/><path d="M1514.906 575.436l-3.017-41.522-42.644 76.023z"/><path d="M1469.246 609.937l42.643-76.023-51.724-34.383zM1511.89 533.914l16.68-70.74-68.404 36.357z"/></g><g fill="#FFF"><circle cx="2250.636" cy="702.837" r="3.74"/><circle cx="2202.394" cy="694.836" r="3.74"/><circle cx="2200.401" cy="625.905" r="3.74"/><circle cx="2158.664" cy="842.059" r="3.74"/><circle cx="2127.334" cy="970.612" r="3.741"/><circle cx="2095.722" cy="813.901" r="3.742"/><circle cx="2070.543" cy="828.946" r="3.74"/><path d="M2064.062 849.97c-1.506-1.413-3.87-1.34-5.287.17-1.414 1.505-1.34 3.87.166 5.284 1.51 1.416 3.874 1.342 5.29-.164 1.415-1.508 1.34-3.875-.168-5.29z"/><circle cx="2026.904" cy="895.008" r="3.74"/><circle cx="2026.906" cy="775.354" r="3.741"/><circle cx="2032.895" cy="740.723" r="3.74"/><circle cx="2047.053" cy="725.645" r="3.74"/><circle cx="2060.676" cy="735.858" r="3.74"/><circle cx="2071.311" cy="717.473" r="3.74"/><circle cx="2048.033" cy="713.671" r="3.741"/><circle cx="2035.108" cy="705.403" r="3.742"/><circle cx="2012.865" cy="723.204" r="3.741"/><circle cx="2084.912" cy="660.607" r="3.74"/><path d="M2070.38 643.12c-1.507-1.415-3.874-1.34-5.286.165-1.416 1.506-1.342 3.873.164 5.29 1.508 1.41 3.873 1.34 5.287-.17 1.416-1.505 1.34-3.872-.166-5.286z"/><circle cx="1995.914" cy="691.812" r="3.74"/><circle cx="1987.943" cy="692.063" r="3.741"/><circle cx="1967.262" cy="733.256" r="3.74"/><circle cx="1931.371" cy="724.056" r="3.741"/><path d="M1908.39 703.793c-1.503-1.414-3.87-1.34-5.284.168-1.416 1.507-1.342 3.874.164 5.288 1.508 1.414 3.875 1.34 5.29-.166 1.413-1.508 1.338-3.875-.17-5.29z"/><circle cx="1868.336" cy="777.06" r="3.741"/><path d="M1864.387 823.645c-1.508-1.414-3.873-1.34-5.29.166-1.413 1.507-1.34 3.874.17 5.29 1.503 1.412 3.872 1.34 5.284-.168 1.417-1.506 1.343-3.873-.163-5.287z"/><circle cx="1870.675" cy="860.503" r="3.742"/><circle cx="1903.676" cy="861.854" r="3.74"/><circle cx="1952.5" cy="933.467" r="3.74"/><circle cx="1935.484" cy="984.546" r="3.741"/><circle cx="1898.572" cy="967.94" r="3.741"/><circle cx="1887.879" cy="899.867" r="3.74"/><circle cx="1828.652" cy="895.839" r="3.741"/><path d="M1819.105 849.5c-1.508-1.414-3.875-1.34-5.29.166s-1.34 3.873.17 5.29c1.503 1.41 3.872 1.34 5.286-.167s1.34-3.876-.165-5.29z"/><circle cx="1873.441" cy="637.419" r="3.741"/><circle cx="1833.629" cy="664.516" r="3.74"/><circle cx="1795.051" cy="664.396" r="3.74"/><circle cx="1838.842" cy="592.032" r="3.741"/><circle cx="1847.992" cy="550.333" r="3.741"/><path d="M1875.12 519.09c-1.507-1.414-3.874-1.34-5.288.166s-1.34 3.873.168 5.29c1.504 1.41 3.873 1.337 5.285-.17 1.414-1.505 1.34-3.872-.164-5.286z"/><circle cx="1892.611" cy="500.462" r="3.741"/><circle cx="1929.66" cy="518.691" r="3.74"/><circle cx="1951.673" cy="559.995" r="3.742"/><circle cx="1994.239" cy="546.449" r="3.741"/><circle cx="2028.914" cy="571.913" r="3.741"/><circle cx="2017.442" cy="574.711" r="3.741"/><circle cx="1983.268" cy="594.794" r="3.741"/><circle cx="1932.053" cy="627.977" r="3.74"/><circle cx="1908.03" cy="631.192" r="3.742"/><path d="M2071.838 569.312c-1.506-1.414-3.873-1.344-5.29.164-1.413 1.506-1.337 3.873.17 5.29 1.505 1.41 3.872 1.337 5.286-.17s1.338-3.87-.166-5.284z"/><circle cx="2077.762" cy="548.145" r="3.74"/><circle cx="2046.377" cy="510.936" r="3.74"/><circle cx="1989.844" cy="447.536" r="3.741"/><path d="M1989.167 401.488c-1.506-1.416-3.873-1.342-5.29.164-1.413 1.506-1.337 3.873.17 5.29 1.505 1.41 3.872 1.337 5.284-.17 1.417-1.506 1.34-3.87-.163-5.284z"/><circle cx="2024.66" cy="353.361" r="3.74"/><circle cx="1922.567" cy="377.914" r="3.74"/><circle cx="1918.369" cy="389.447" r="3.741"/><path d="M1932.85 394.043c-1.507-1.416-3.876-1.342-5.29.166-1.413 1.503-1.34 3.872.168 5.286 1.504 1.414 3.874 1.34 5.287-.166 1.414-1.506 1.34-3.875-.165-5.287z"/><circle cx="1889.234" cy="448.729" r="3.74"/><circle cx="1855.14" cy="433.241" r="3.741"/><circle cx="1835.066" cy="436.96" r="3.739"/><circle cx="1837.043" cy="386.589" r="3.741"/><circle cx="1809.296" cy="350.215" r="3.74"/><circle cx="1749.016" cy="389.688" r="3.742"/><circle cx="1742.622" cy="402.385" r="3.74"/><circle cx="1696.783" cy="321.709" r="3.741"/><circle cx="1678.067" cy="260.523" r="3.74"/><circle cx="1758.599" cy="261.342" r="3.74"/><circle cx="1725.038" cy="290.439" r="3.74"/><circle cx="1788.679" cy="332.147" r="3.739"/><circle cx="1809.696" cy="280.334" r="3.74"/><circle cx="1768.075" cy="224.594" r="3.74"/><circle cx="1856.037" cy="283.201" r="3.741"/><circle cx="1848.036" cy="292.479" r="3.741"/><circle cx="1868.54" cy="300.072" r="3.74"/><circle cx="1875.197" cy="310.22" r="3.742"/><path d="M1744.874 420.002c-1.508-1.416-3.875-1.342-5.29.164s-1.34 3.873.17 5.287c1.503 1.414 3.872 1.34 5.286-.166s1.338-3.873-.166-5.285z"/><circle cx="1732.054" cy="486.626" r="3.742"/><circle cx="1724.477" cy="559.441" r="3.74"/><circle cx="1773.972" cy="534.986" r="3.741"/><circle cx="1717.084" cy="641.479" r="3.741"/><circle cx="1701.223" cy="626.586" r="3.74"/><path d="M1691.8 603.66c-1.507-1.416-3.876-1.342-5.29.164s-1.34 3.875.168 5.29c1.504 1.413 3.873 1.34 5.287-.17 1.414-1.505 1.34-3.87-.166-5.284z"/><circle cx="1657.451" cy="524.872" r="3.741"/><circle cx="1671.248" cy="477.219" r="3.74"/><circle cx="1562.072" cy="480.473" r="3.74"/><circle cx="1510.923" cy="534.942" r="3.741"/><path d="M1462.727 496.805c-1.508-1.415-3.873-1.342-5.29.164-1.41 1.506-1.34 3.874.17 5.29 1.505 1.41 3.872 1.337 5.286-.17s1.34-3.872-.166-5.285z"/><circle cx="1380.115" cy="576.537" r="3.741"/><circle cx="1528.571" cy="463.174" r="3.74"/><circle cx="1564.19" cy="420.534" r="3.741"/><circle cx="1561.94" cy="547.713" r="3.74"/><circle cx="1583.527" cy="615.369" r="3.74"/><circle cx="1575.412" cy="632.251" r="3.741"/><circle cx="1514.906" cy="575.436" r="3.74"/><circle cx="1469.857" cy="610.51" r="3.741"/><circle cx="1477.941" cy="647.762" r="3.741"/><circle cx="1428.242" cy="656.546" r="3.74"/><circle cx="1397.02" cy="637.543" r="3.741"/><circle cx="1436.904" cy="620.833" r="3.741"/><path d="M1362.78 647.976c-1.507-1.414-3.876-1.342-5.29.166-1.414 1.506-1.34 3.873.168 5.29 1.504 1.41 3.873 1.338 5.287-.168 1.414-1.507 1.338-3.874-.166-5.288z"/><circle cx="1325.441" cy="674.79" r="3.74"/><circle cx="1389.07" cy="721.643" r="3.741"/><circle cx="1376.99" cy="767.042" r="3.74"/><circle cx="1442.205" cy="747.034" r="3.741"/><circle cx="1444.287" cy="768.36" r="3.741"/><circle cx="1513.513" cy="781.752" r="3.74"/><circle cx="1564.461" cy="752.218" r="3.741"/><path d="M1588.867 794.504c-1.508-1.412-3.875-1.342-5.29.166-1.413 1.506-1.34 3.873.17 5.29 1.503 1.41 3.872 1.337 5.286-.17s1.338-3.872-.166-5.286z"/><circle cx="1616.504" cy="813.337" r="3.741"/><path d="M1596.707 775.684c-1.508-1.416-3.875-1.342-5.29.164s-1.34 3.875.17 5.29c1.503 1.413 3.872 1.34 5.284-.17 1.415-1.505 1.34-3.872-.163-5.284z"/><circle cx="1548.98" cy="880.539" r="3.74"/><circle cx="1565.75" cy="946.26" r="3.74"/><circle cx="1606.293" cy="937.223" r="3.74"/><circle cx="1661.461" cy="963.232" r="3.74"/><circle cx="1608.859" cy="1015.719" r="3.741"/><circle cx="1662.17" cy="1001.325" r="3.74"/><circle cx="1718.276" cy="1006.319" r="3.741"/><circle cx="1744.482" cy="1050.221" r="3.74"/><circle cx="1793.771" cy="1097.793" r="3.741"/><circle cx="1748.384" cy="1077.097" r="3.741"/><circle cx="1744.032" cy="1087.195" r="3.742"/><circle cx="1673.112" cy="1097.976" r="3.741"/><circle cx="1692.919" cy="1106.312" r="3.741"/><circle cx="1745.287" cy="1167.039" r="3.74"/><circle cx="1849.229" cy="1036.382" r="3.741"/><circle cx="1911.811" cy="1069.402" r="3.74"/><path d="M1786.227 1169.4c-1.506-1.415-3.875-1.34-5.29.165s-1.34 3.875.17 5.29c1.503 1.41 3.872 1.338 5.286-.168 1.414-1.506 1.337-3.874-.166-5.288zM1808.213 1151.657c-1.506-1.413-3.873-1.34-5.29.166-1.413 1.507-1.337 3.875.17 5.29 1.503 1.413 3.872 1.34 5.286-.167 1.415-1.507 1.34-3.875-.167-5.29z"/><circle cx="1901.652" cy="1068.844" r="3.74"/><path d="M1863.004 1106.47c-1.506-1.413-3.875-1.34-5.29.167s-1.34 3.875.17 5.29c1.503 1.41 3.872 1.34 5.286-.17 1.414-1.505 1.34-3.872-.166-5.286z"/><circle cx="1803.981" cy="1129.303" r="3.742"/><circle cx="1701.607" cy="953.86" r="3.741"/><circle cx="1695.566" cy="926.91" r="3.74"/><circle cx="1708.453" cy="904.191" r="3.74"/><path d="M1733.914 877.832c-1.508-1.414-3.875-1.34-5.29.166-1.41 1.506-1.34 3.875.17 5.29 1.503 1.413 3.872 1.34 5.286-.17 1.414-1.505 1.338-3.872-.166-5.286z"/><circle cx="1647.263" cy="837.088" r="3.741"/><path d="M1646.898 858.668c-1.508-1.414-3.875-1.34-5.29.166s-1.34 3.873.17 5.287c1.503 1.415 3.872 1.34 5.284-.165 1.417-1.506 1.34-3.873-.164-5.287z"/><circle cx="1677.533" cy="824.863" r="3.74"/><circle cx="1669.562" cy="798.034" r="3.741"/><circle cx="1708.914" cy="785.98" r="3.74"/><circle cx="1725.924" cy="799.227" r="3.74"/><circle cx="1575.455" cy="892.79" r="3.741"/><circle cx="1611.993" cy="743.977" r="3.741"/><circle cx="1451.412" cy="822.738" r="3.741"/><circle cx="1374.286" cy="864.43" r="3.742"/><path d="M1693.672 468.64c-1.506-1.413-3.873-1.34-5.287.165-1.414 1.508-1.34 3.875.166 5.29 1.507 1.413 3.876 1.34 5.29-.167 1.412-1.506 1.338-3.873-.168-5.287z"/><circle cx="1676.334" cy="668.984" r="3.74"/><path d="M2134.342 518.498c-1.506-1.416-3.873-1.342-5.285.164-1.416 1.506-1.342 3.873.164 5.29 1.51 1.413 3.876 1.34 5.292-.17 1.412-1.505 1.336-3.872-.17-5.284z"/><circle cx="2150.108" cy="546.44" r="3.742"/><circle cx="2136.539" cy="562.07" r="3.74"/><circle cx="2189.295" cy="538.849" r="3.74"/></g><path fill="none" stroke="#FFF" stroke-width=".6" stroke-miterlimit="10" d="M1450.45 821.835l-76.163 43.3 2.088-100.517M1805.377 1154.41l53.7 40.936"/></g></svg>