<svg xmlns="http://www.w3.org/2000/svg" xmlns:xlink="http://www.w3.org/1999/xlink" width="2000" height="810" viewBox="0 0 2000 810"><defs><path id="a" d="M0 0h2000v810H0z"/></defs><clipPath id="b"><use xlink:href="#a" overflow="visible"/></clipPath><g clip-path="url(#b)"><g fill="none" stroke="#FFF" stroke-width=".563" stroke-miterlimit="10"><path d="M42.752 469.152l-72.383 61.444 1.82-49.448zM181.587 1033.11l-26.657 19.806 2.144 78.048z"/><path d="M154.93 1052.916l-90.266-67.36 23.843-3.148z"/><path d="M83.735 963.73l-19.07 21.825 23.842-3.147zM185.45 551.846l-54.305 6.838 7.7 23.424zM-27.81 481.148l-1.82 49.448-71.263-16.995zM-29.63 530.596l-98.106 86.756 26.843-103.75zM358.473 512.893l-21.786-.456-15.817-41.92z"/><path d="M-27.81 481.148l-73.083 32.453-20.766-6.792zM-8.734 950.833l8.023 24.28 68.455-32.654zM138.845 582.108L33.62 686.174l-30.832-90.76zM-29.63 530.596l-98.106 86.756 130.524-21.94z"/><path d="M-53.755 692.812l-73.98-75.46 130.523-21.94zM185.45 551.846l-54.305 6.838-17.985-20.524zM322.202 600.693L185.45 551.846l105.86-36.043zM336.687 512.437l-15.817-41.92-29.56 45.286zM417.69 280.874L368.48 340.4l-2.98-65.188zM635.357 734.142l1.08 23.97-81.987 29.962z"/><path d="M635.357 734.142l-114.496 7.12 33.59 46.812zM368.478 340.4l-119.328-5.687 123.713 95.705z"/><path d="M358.473 512.893l-37.603-42.376 51.993-40.1z"/><path d="M320.87 470.517l-71.72-135.804 123.713 95.705zM185.45 551.846l-72.29-13.686 56.31-107.066z"/><path d="M113.16 538.16l-70.408-69.008 126.717-38.058zM-186.617 422.093l-56.41-46.984 11.27 63.036zM-243.027 375.11l-33.606 85.82 44.876-22.784zM-100.893 513.6l-20.766-6.792-58.122 90.196z"/><path d="M-100.893 513.6l-26.843 103.752-52.046-20.348zM635.357 734.142L577.2 631.258l-37.207 49.145z"/><path d="M635.357 734.142l-114.496 7.12 19.133-60.86zM520.86 741.26l-48.557-38.24 67.69-22.617zM580.43 802.65l-25.98-14.576 28.375 72.186zM157.074 1130.964l-2.144-78.048-170.273 61.324z"/><path d="M154.93 1052.916l-90.266-67.36-80.007 128.684z"/><path d="M64.664 985.555L-.71 975.113l-14.633 139.127zM33.62 686.174l10.65 91.552-93.41 14.766zM44.27 777.726l-12.8 23.36-80.61-8.594zM-186.617 422.093l-45.14 16.053 16.013 84.655z"/><path d="M-231.757 438.146l-44.876 22.783 60.89 61.87zM520.86 741.26l-48.557-38.24L356.48 809.134zM356.48 809.135L301.29 837.76l14.828-60.207z"/><path d="M301.292 837.76l-30.84-24.448 45.668-35.76z"/><path d="M270.45 813.312l-55.415-14.198 101.085-21.56zM-.71 975.113l-14.633 139.127-71.76-33.39zM291.31 515.803l30.892 84.89 40.515-49.418zM358.473 512.893l-21.786-.456 26.03 38.838z"/><path d="M336.687 512.437l-45.377 3.366 71.407 35.472zM249.15 334.713L157.47 342l33.177 87.93zM291.31 515.803l-105.86 36.043 5.197-121.916z"/><path d="M157.47 342l12 89.094 21.177-1.164z"/><path d="M169.47 431.094l15.98 120.752 5.197-121.916zM320.87 470.517l-71.72-135.804-58.503 95.217zM320.87 470.517l-29.56 45.286-100.663-85.873zM157.074 1130.964l-172.417-16.724-13.1 52.727zM-15.343 1114.24l-71.76-33.39 58.66 86.117zM273.207 244.693l-35.416 35.793-20.698-78.984zM443.133 381.472l-70.27 48.946 88.928 79.575zM372.863 430.418l-14.39 82.475 103.318-2.9z"/><path d="M358.473 512.893l4.244 38.382 99.074-41.282zM131.145 558.684l7.7 23.424-89.012-27.854z"/><path d="M131.145 558.684L113.16 538.16l-63.327 16.094z"/><path d="M138.845 582.108L2.788 595.413l47.045-41.16z"/><path d="M113.16 538.16l-70.408-69.008 7.08 85.102z"/><path d="M42.752 469.152l-72.383 61.444 79.463 23.658z"/><path d="M2.788 595.413l-32.42-64.817 79.465 23.658zM215.035 799.114l-88.82 84.223 6.04-41.285zM126.214 883.337l-51.96 4.003 58-45.288zM33.62 686.174l10.65 91.552 22.5-33.844zM83.735 963.73l-15.99-21.27 2.488 15.638zM83.735 963.73l-19.07 21.825 5.568-27.457z"/><path d="M67.745 942.46L-.71 975.112l70.943-17.015zM64.664 985.555L-.71 975.113l70.943-17.015zM-215.744 522.8l-60.89-61.87-2.935 61.573zM301.292 837.76l-30.84-24.448 16.6 59.077zM270.45 813.312l-55.415-14.198 72.017 73.275zM215.035 799.114l-88.82 84.223L287.05 872.39zM-53.755 692.812l-73.98-75.46-11.104 18.818z"/><path d="M-127.736 617.352l-52.046-20.348 40.943 39.166z"/><path d="M-179.782 597.004l-32.29 86.3 73.233-47.134zM401.077 912.258l-58.967 42.73 60.805 4.362z"/><path d="M342.11 954.988l-36.99 198.972 97.795-194.61zM-179.782 597.004l-96.954 5.373 70.948-50.174zM-215.744 522.8l-63.825-.297 73.782 29.7zM237.79 280.486l11.36 54.227 30.907-47.745zM365.498 275.212l2.98 65.188-88.42-53.432z"/><path d="M365.498 275.212l-92.29-30.52 6.85 42.276zM368.478 340.4l-119.328-5.687 30.907-47.745zM273.207 244.693l-35.416 35.793 42.267 6.482zM356.48 809.135L310.08 852l-6.182-10.35zM356.48 809.135L301.29 837.76l2.606 3.89z"/><path d="M310.08 852l-23.028 20.39 16.846-30.74z"/><path d="M301.292 837.76l-14.24 34.63 16.846-30.74zM401.077 912.258L356.48 809.135l138.065 82.487zM401.077 912.258l1.838 47.092 91.63-67.728zM582.825 860.26l-28.375-72.186-59.905 103.548z"/><path d="M554.45 788.074l-33.59-46.813-26.315 150.362zM520.86 741.26l-164.38 67.875 138.065 82.487zM157.47 342l12 89.094-62.648-51.456z"/><path d="M157.47 342l-42.118-21.168-8.53 58.806zM169.47 431.094L42.75 469.152l64.07-89.514z"/><path d="M115.352 320.832L35.998 351.75l70.824 27.888zM35.998 351.75l6.754 117.402 64.07-89.514zM496.214 594.525l-49.51 88.895-45.797-82.19zM472.303 703.02l-25.598-19.6-29.465 3.316z"/><path d="M446.705 683.42l-45.798-82.19 16.333 85.506z"/><path d="M400.907 601.23L347.8 620.293l69.44 66.443zM126.214 883.337l-51.96 4.003-3.72 8.23zM67.745 942.46l-76.48 8.373 79.268-55.263zM2.788 595.413l30.83 90.76-46.89-6.685zM2.788 595.413l-56.543 97.4 40.483-13.325z"/><path d="M33.62 686.174l-82.76 106.318 35.868-113.004zM-53.755 692.812l-28.037 58.365 68.52-71.69z"/><path d="M-49.14 792.492l-32.652-41.315 68.52-71.69zM494.545 891.622l-91.63 67.728 102.84 1.18zM401.077 912.258L356.48 809.135 335 872.825z"/><path d="M401.077 912.258l-58.967 42.73-7.11-82.163zM356.48 809.135L310.08 852 335 872.825z"/><path d="M310.08 852l-23.028 20.39 47.95.435z"/><path d="M342.11 954.988l-55.058-82.6 47.95.437zM126.214 883.337l-55.68 12.233 25.478 31.346zM70.533 895.57l-2.788 46.89 28.267-15.544zM664.954 881.935l-53.602 2.67 65.264-44.13z"/><path d="M611.352 884.605l-28.527-24.345 93.79-19.784zM-86.27 920.23l-28.96-1.38-25.304-48.965z"/><path d="M-115.23 918.85l-51.382 44.744 26.078-93.71zM-182.32 783.256l15.708 180.338 26.078-93.71zM-28.442 1166.967l-58.66-86.117-86.235-49.38zM347.8 620.293l-25.598-19.6-28.797 35.246z"/><path d="M322.202 600.693L185.45 551.846l107.955 84.093z"/><path d="M185.45 551.846l-46.605 30.262 154.56 53.83zM-205.788 552.203l-73.78-29.7-17.024 48.358zM-205.788 552.203l-70.948 50.174-19.856-31.516zM287.052 872.39l-160.838 10.947 19.03 80.59zM126.214 883.337l-30.202 43.58 49.232 37.01zM181.587 1033.11l-26.657 19.806-9.686-88.988z"/><path d="M154.93 1052.916l-66.423-70.508 56.737-18.48zM417.69 280.874l25.443 100.598-53.275-29.634z"/><path d="M417.69 280.874L368.48 340.4l21.38 11.438zM443.133 381.472l-70.27 48.946 16.995-78.58z"/><path d="M368.478 340.4l4.385 90.018 16.995-78.58zM-49.14 792.492l-32.652-41.315 1.513 79.394zM-81.792 751.177l-100.53 32.08 102.043 47.314z"/><path d="M-140.534 869.885l-41.787-86.63 102.04 47.316zM293.405 635.94l-154.56-53.832-9.853 91.487z"/><path d="M138.845 582.108L33.62 686.174l95.372-12.58zM496.214 594.525l-95.307 6.705 61.454-60.248z"/><path d="M400.907 601.23l-38.19-49.955 99.644-10.293zM343.568 186.94l21.93 88.272-62.527-63.202zM343.568 186.94L217.092 201.5l85.88 10.508zM365.498 275.212l-92.29-30.52 29.763-32.682z"/><path d="M273.207 244.693l-56.115-43.19 85.88 10.507zM347.8 620.293l-25.598-19.6 52.988-7.312zM400.907 601.23l-38.19-49.955 12.473 42.106z"/><path d="M362.717 551.275l-40.515 49.418 52.988-7.312zM74.253 887.34l-3.72 8.23-95.014-55.82zM74.253 887.34L31.47 801.086l-55.95 38.664z"/><path d="M70.533 895.57l-79.267 55.263L-24.48 839.75zM31.47 801.086l-80.61-8.594 24.66 47.258zM-49.14 792.492l-31.14 38.08 55.8 9.178z"/><path d="M-8.734 950.833l-52.07-83.726 36.323-27.357z"/><path d="M-60.803 867.107L-80.28 830.57l55.8 9.18zM-8.734 950.833l-52.07-83.726-8.38 10.962z"/><path d="M-8.734 950.833L-86.27 920.23l17.087-42.16zM-60.803 867.107L-80.28 830.57l11.097 47.5zM-80.28 830.57l-60.254 39.315 71.35 8.184zM-86.27 920.23l-54.264-50.345 71.35 8.184zM676.616 840.476l-93.79 19.784 10.49-56.62z"/><path d="M580.43 802.65l2.395 57.61 10.492-56.62zM215.035 799.114l-82.78 42.938-7.262-34.32z"/><path d="M132.254 842.052l-58 45.288 50.74-79.608zM66.77 743.882l-22.5 33.844 80.723 30.006z"/><path d="M44.27 777.726l-12.8 23.36 93.523 6.646zM74.253 887.34L31.47 801.086l93.523 6.646zM-121.66 506.808l-64.957-84.715 47.763 84.375zM-121.66 506.808l-58.122 90.196 40.928-90.536zM-186.617 422.093L-215.744 522.8l76.89-16.332zM-179.782 597.004l-26.006-44.8 66.934-45.736z"/><path d="M-215.744 522.8l9.956 29.403 66.934-45.735zM35.998 351.75l6.754 117.402-55.504-5.387z"/><path d="M35.998 351.75l-61.916-25.4 13.166 137.415zM42.752 469.152l-70.56 11.996 15.056-17.383z"/><path d="M-25.918 326.35l-160.7 95.743 173.866 41.672zM-27.81 481.148l-93.85 25.66 108.908-43.043z"/><path d="M-121.66 506.808l-64.957-84.715 173.865 41.672zM145.244 963.928l-49.232-37.012 8.99 26.84z"/><path d="M145.244 963.928l-56.737 18.48 16.495-28.653zM96.012 926.916L67.745 942.46l37.257 11.295z"/><path d="M83.735 963.73l4.772 18.678 16.495-28.653z"/><path d="M83.735 963.73l-15.99-21.27 37.257 11.295zM577.2 631.258l-37.207 49.145-40.507-16.898z"/><path d="M577.2 631.258l-80.986-36.733 3.272 68.98z"/><path d="M539.993 680.403l-67.69 22.616 27.183-39.515z"/><path d="M496.214 594.525l-49.51 88.895 52.782-19.915z"/><path d="M472.303 703.02l-25.598-19.6 52.78-19.915zM347.8 620.293l-54.395 15.646 7.7 23.425z"/><path d="M293.405 635.94l-164.413 37.655 172.114-14.23z"/><path d="M316.12 777.553l-101.085 21.56 86.07-139.748z"/><path d="M215.035 799.114l-86.043-125.52 172.114-14.23zM347.8 620.293l-46.694 39.072 81.6 41.378z"/><path d="M301.106 659.365l15.014 118.188 66.586-76.81zM356.48 809.135l-40.36-31.582 66.586-76.81z"/><path d="M472.303 703.02L356.48 809.134l26.226-108.392z"/><path d="M472.303 703.02l-55.063-16.284-34.534 14.007z"/><path d="M417.24 686.736l-69.44-66.443 34.906 80.45zM-243.027 375.11l-33.606 85.82-44.258-5.73z"/><path d="M-276.633 460.93l-2.936 61.573-41.32-67.304zM-53.755 692.812l-28.037 58.365-1.84-47.094zM-166.612 963.594l-6.725 67.875 24.94-37.694zM-83.633 704.083l1.84 47.094-146.81 9.558zM-81.792 751.177l-100.53 32.08-46.28-22.522z"/><path d="M-182.32 783.256l15.708 180.338-61.99-202.86zM664.954 881.935l-53.602 2.67-43.822 49.693z"/><path d="M611.352 884.605l-28.527-24.345-15.295 74.038z"/><path d="M582.825 860.26l-88.28 31.362 72.985 42.676z"/><path d="M494.545 891.622l11.21 68.91 61.775-26.234zM-279.57 522.503l-41.32-67.304 24.97 323.618z"/><path d="M-279.57 522.503l-17.022 48.358.672 207.958z"/><path d="M-228.603 760.735l61.99 202.86-129.307-184.777z"/><path d="M-276.736 602.377l-19.856-31.516.672 207.958z"/><path d="M-166.612 963.594l-6.725 67.875-122.583-252.652zM215.035 799.114l-86.043-125.52-16.613 40.4zM215.035 799.114l-90.042 8.618-12.614-93.737z"/><path d="M128.992 673.595l-95.373 12.58 78.76 27.82zM124.993 807.732l-58.223-63.85 45.61-29.887z"/><path d="M66.77 743.882l-33.15-57.708 78.76 27.82zM-53.755 692.812l-29.878 11.27-53.98-25.467z"/><path d="M-53.755 692.812l-85.084-56.642 1.226 42.445zM-83.633 704.083l-144.97 56.652 90.99-82.12zM-138.84 636.17l-73.23 47.135 74.456-4.69zM-212.07 683.305l2.488 15.64 71.968-20.33z"/><path d="M-209.582 698.946l-19.02 61.79 90.988-82.12zM-179.782 597.004l-32.29 86.3-13.883-.612zM-179.782 597.004l-96.954 5.373 50.78 80.315z"/><path d="M-212.07 683.305l2.488 15.64-16.373-16.253zM-209.582 698.946l-19.02 61.79 2.647-78.044zM-228.603 760.735l-67.317 18.083 69.965-96.126zM-276.736 602.377l-19.184 176.44 69.965-96.125zM115.352 320.832L35.998 351.75l-1.87-44.156z"/><path d="M35.998 351.75l-61.916-25.4 60.047-18.756zM342.11 954.988l-55.058-82.6-17.65 143.19z"/><path d="M342.11 954.988l-36.99 198.972-35.718-138.382z"/><path d="M287.052 872.39l-141.808 91.538 124.158 51.65zM269.402 1015.578l35.718 138.382-94.77-120.003z"/><path d="M269.402 1015.578l-124.158-51.65 65.107 70.03z"/><path d="M305.12 1153.96l-148.046-22.996 53.277-97.007z"/><path d="M181.587 1033.11l-36.343-69.182 65.107 70.03z"/><path d="M181.587 1033.11l-24.513 97.854 53.277-97.007zM-8.734 950.833l8.023 24.28-125.455 11.25z"/><path d="M-8.734 950.833L-86.27 920.23l-39.895 66.134zM-.71 975.113l-86.393 105.737-39.062-94.486z"/><path d="M-86.27 920.23l-28.96-1.38-10.935 67.514zM-115.23 918.85l-51.382 44.744 40.447 22.77z"/><path d="M-87.103 1080.85l-86.234-49.38 47.172-45.106z"/><path d="M-148.398 993.776l-18.214-30.182 40.447 22.77z"/><path d="M-148.398 993.776l-24.94 37.693 47.173-45.106zM402.915 959.35l-97.795 194.61 197.236-184.345z"/><path d="M505.756 960.53l-102.84-1.18 99.44 10.265zM577.2 631.258l-80.986-36.733 28.504-39.037z"/><path d="M496.214 594.525l-33.853-53.543 62.358 14.506z"/><path d="M462.36 540.982l-.57-30.99 62.928 45.496zM237.79 280.486l11.36 54.227-35.79-25.504zM249.15 334.713L157.47 342l55.89-32.79zM157.47 342l-42.118-21.168 98.008-11.623z"/><path d="M213.36 309.21l-98.008 11.622-13.525-69.012zM115.352 320.832L34.13 307.594l67.697-55.774z"/></g><g fill="#FFF"><circle cx="-28.431" cy="1166.761" r="4.236"/><circle cx="-15.872" cy="1112.836" r="4.236"/><circle cx="-87.102" cy="1080.85" r="4.236"/><circle cx="157.075" cy="1130.964" r="4.236"/><circle cx="305.12" cy="1153.96" r="4.236"/><circle cx="154.931" cy="1052.917" r="4.235"/><circle cx="181.587" cy="1033.11" r="4.235"/><circle cx="210.351" cy="1033.958" r="4.236"/><path d="M265.648 1017.62c-.827-2.188.277-4.632 2.466-5.456 2.19-.827 4.633.278 5.46 2.465.825 2.19-.28 4.632-2.47 5.46-2.187.825-4.63-.28-5.456-2.47z"/><circle cx="144.465" cy="964.221" r="4.236"/><circle cx="105.647" cy="955.462" r="4.236"/><circle cx="83.735" cy="963.73" r="4.235"/><circle cx="88.508" cy="982.409" r="4.235"/><circle cx="64.665" cy="985.554" r="4.235"/><circle cx="70.787" cy="959.561" r="4.236"/><path d="M63.784 943.953c-.827-2.19.277-4.632 2.466-5.46 2.188-.824 4.633.28 5.46 2.468.825 2.192-.28 4.634-2.47 5.46-2.187.827-4.63-.278-5.456-2.467z"/><circle cx="96.013" cy="926.915" r="4.236"/><path d="M-4.674 976.608c-.826-2.19.278-4.633 2.468-5.457 2.188-.828 4.632.278 5.458 2.47.827 2.186-.28 4.63-2.468 5.456-2.19.825-4.633-.278-5.458-2.468z"/><circle cx="-8.733" cy="950.833" r="4.235"/><circle cx="70.534" cy="895.571" r="4.235"/><circle cx="74.254" cy="887.34" r="4.235"/><circle cx="126.308" cy="883.58" r="4.236"/><circle cx="132.254" cy="842.05" r="4.236"/><path d="M121.03 809.23c-.825-2.19.28-4.634 2.468-5.462 2.19-.825 4.633.28 5.46 2.47.825 2.19-.28 4.63-2.47 5.458-2.19.825-4.63-.28-5.457-2.467z"/><circle cx="215.034" cy="799.114" r="4.235"/><circle cx="269.435" cy="813.697" r="4.236"/><circle cx="301.292" cy="837.758" r="4.236"/><circle cx="288.391" cy="872.858" r="4.236"/><circle cx="342.109" cy="954.987" r="4.236"/><circle cx="402.915" cy="959.349" r="4.235"/><path d="M397.596 915.036c-.826-2.188.28-4.634 2.468-5.458 2.188-.83 4.632.28 5.457 2.468.826 2.187-.278 4.63-2.466 5.456-2.188.826-4.632-.277-5.458-2.466z"/><circle cx="335" cy="872.826" r="4.236"/><circle cx="356.478" cy="809.136" r="4.235"/><path d="M312.155 779.05c-.826-2.19.28-4.634 2.47-5.46 2.187-.827 4.63.28 5.457 2.47.825 2.185-.28 4.63-2.468 5.456-2.19.825-4.634-.28-5.46-2.467z"/><circle cx="66.771" cy="743.881" r="4.236"/><circle cx="112.381" cy="713.995" r="4.235"/><circle cx="128.992" cy="673.595" r="4.236"/><circle cx="34.31" cy="688.004" r="4.236"/><path d="M-17.235 680.982c-.826-2.188.278-4.633 2.466-5.46 2.19-.824 4.635.28 5.46 2.47.826 2.186-.28 4.63-2.47 5.456-2.187.828-4.63-.277-5.455-2.466z"/><circle cx="-53.753" cy="692.81" r="4.236"/><circle cx="-84.788" cy="704.521" r="4.236"/><circle cx="-81.791" cy="751.176" r="4.236"/><circle cx="-48.142" cy="792.116" r="4.235"/><circle cx="-80.775" cy="830.759" r="4.236"/><circle cx="-69.182" cy="878.07" r="4.235"/><path d="M-65.244 868.783c-.826-2.188.28-4.633 2.468-5.46 2.19-.825 4.63.28 5.458 2.47.825 2.188-.28 4.63-2.468 5.458-2.188.825-4.632-.28-5.458-2.467z"/><circle cx="-25.451" cy="840.255" r="4.236"/><circle cx="31.47" cy="801.085" r="4.235"/><circle cx="45.254" cy="777.355" r="4.236"/><circle cx="-86.562" cy="920.339" r="4.235"/><circle cx="-115.23" cy="918.851" r="4.236"/><circle cx="-140.533" cy="869.884" r="4.236"/><circle cx="-182.32" cy="783.256" r="4.236"/><circle cx="-226.227" cy="761.077" r="4.235"/><path d="M-299.883 780.316c-.827-2.19.278-4.633 2.467-5.458 2.188-.828 4.633.276 5.46 2.468.824 2.186-.282 4.63-2.47 5.457-2.188.825-4.632-.28-5.457-2.467zM-229.916 684.188c-.827-2.188.278-4.633 2.466-5.46 2.19-.825 4.633.28 5.46 2.47.825 2.187-.28 4.63-2.47 5.455-2.187.827-4.63-.278-5.456-2.465z"/><circle cx="-212.069" cy="683.304" r="4.235"/><path d="M-213.544 700.44c-.826-2.188.278-4.632 2.466-5.457 2.19-.827 4.633.278 5.46 2.468.824 2.187-.282 4.63-2.47 5.46-2.188.824-4.63-.28-5.456-2.47zM-141.393 680.042c-.826-2.19.277-4.632 2.467-5.458 2.19-.827 4.633.28 5.46 2.47.823 2.185-.282 4.63-2.47 5.456-2.19.824-4.632-.28-5.457-2.468z"/><circle cx="-138.839" cy="636.17" r="4.236"/><circle cx="-126.24" cy="616.787" r="4.235"/><path d="M-183.744 598.5c-.826-2.19.278-4.633 2.466-5.458 2.19-.828 4.633.277 5.46 2.468.825 2.186-.28 4.63-2.47 5.457-2.188.825-4.63-.28-5.456-2.467z"/><circle cx="-205.788" cy="552.203" r="4.236"/><circle cx="-138.355" cy="506.28" r="4.235"/><circle cx="-122.303" cy="505.1" r="4.235"/><circle cx="-186.797" cy="422.16" r="4.236"/><circle cx="-242.672" cy="376.045" r="4.235"/><circle cx="-276.747" cy="460.627" r="4.235"/><circle cx="-231.756" cy="438.148" r="4.236"/><circle cx="-215.743" cy="522.801" r="4.236"/><circle cx="-279.05" cy="522.309" r="4.236"/><circle cx="-319.294" cy="454.597" r="4.236"/><circle cx="-296.154" cy="572.018" r="4.236"/><circle cx="-282.98" cy="567.676" r="4.236"/><path d="M-287.895 593.91c-.826-2.19.277-4.633 2.467-5.457 2.188-.83 4.633.277 5.46 2.467.824 2.188-.28 4.633-2.47 5.457-2.187.828-4.63-.277-5.457-2.468z"/><circle cx="-276.205" cy="603.78" r="4.236"/><circle cx="-100.892" cy="513.6" r="4.236"/><circle cx="-29.612" cy="530.589" r="4.235"/><path d="M45.872 555.748c-.827-2.19.277-4.633 2.465-5.46 2.19-.824 4.634.28 5.46 2.47.825 2.187-.28 4.633-2.47 5.458-2.188.825-4.63-.28-5.455-2.468z"/><circle cx="2.786" cy="595.411" r="4.236"/><circle cx="138.843" cy="582.108" r="4.236"/><circle cx="130.147" cy="559.06" r="4.235"/><circle cx="114.22" cy="537.76" r="4.236"/><circle cx="42.753" cy="469.152" r="4.235"/><circle cx="-13.073" cy="462.911" r="4.235"/><circle cx="37.69" cy="350.136" r="4.236"/><circle cx="116.846" cy="320.27" r="4.235"/><circle cx="101.828" cy="251.821" r="4.236"/><circle cx="217.091" cy="201.503" r="4.235"/><circle cx="34.129" cy="307.594" r="4.236"/><circle cx="-25.918" cy="326.351" r="4.236"/><circle cx="108.073" cy="379.167" r="4.235"/><circle cx="169.469" cy="431.093" r="4.236"/><circle cx="190.647" cy="429.93" r="4.235"/><circle cx="157.47" cy="342.001" r="4.235"/><path d="M209.732 311.593c-.826-2.188.276-4.633 2.466-5.458 2.19-.827 4.635.28 5.46 2.467.825 2.187-.28 4.633-2.47 5.457-2.187.828-4.63-.28-5.456-2.467zM245.187 336.21c-.826-2.19.277-4.634 2.466-5.46 2.19-.826 4.634.28 5.46 2.468.824 2.187-.28 4.63-2.47 5.458-2.187.826-4.63-.28-5.456-2.467z"/><circle cx="279.896" cy="286.543" r="4.236"/><circle cx="273.565" cy="245.644" r="4.236"/><circle cx="238.787" cy="280.111" r="4.236"/><circle cx="303.292" cy="212.863" r="4.236"/><circle cx="343.569" cy="186.939" r="4.236"/><circle cx="364.969" cy="273.813" r="4.236"/><circle cx="417.691" cy="280.873" r="4.235"/><circle cx="368.477" cy="340.401" r="4.235"/><circle cx="389.879" cy="351.829" r="4.236"/><circle cx="373.859" cy="430.042" r="4.236"/><circle cx="320.869" cy="470.516" r="4.236"/><path d="M354.51 514.39c-.826-2.19.278-4.635 2.467-5.46 2.188-.826 4.633.278 5.458 2.468.825 2.187-.28 4.63-2.467 5.457-2.19.826-4.633-.28-5.458-2.466z"/><circle cx="362.219" cy="551.463" r="4.235"/><circle cx="335.388" cy="512.926" r="4.236"/><circle cx="461.79" cy="509.993" r="4.236"/><circle cx="523.25" cy="556.041" r="4.235"/><circle cx="496.212" cy="594.525" r="4.235"/><path d="M495.525 665c-.826-2.187.278-4.63 2.466-5.458 2.19-.824 4.634.28 5.46 2.47.825 2.187-.28 4.63-2.47 5.455-2.187.828-4.63-.28-5.455-2.466z"/><circle cx="577.197" cy="631.259" r="4.236"/><circle cx="539.018" cy="680.772" r="4.236"/><circle cx="519.906" cy="741.619" r="4.235"/><path d="M550.49 789.57c-.828-2.19.275-4.633 2.465-5.46 2.188-.825 4.633.28 5.458 2.47.825 2.186-.278 4.63-2.468 5.458-2.188.824-4.63-.28-5.456-2.47z"/><circle cx="582.824" cy="860.262" r="4.236"/><circle cx="580.867" cy="803.812" r="4.236"/><circle cx="593.317" cy="803.642" r="4.236"/><circle cx="635.355" cy="734.142" r="4.236"/><path d="M631.52 759.97c-.826-2.19.277-4.632 2.467-5.458 2.188-.826 4.633.278 5.458 2.467.827 2.188-.278 4.632-2.468 5.458-2.187.825-4.63-.28-5.457-2.467z"/><circle cx="676.28" cy="839.587" r="4.236"/><circle cx="494.543" cy="891.623" r="4.235"/><circle cx="501.934" cy="971.399" r="4.235"/><path d="M660.992 883.43c-.828-2.187.277-4.632 2.465-5.457 2.19-.825 4.633.28 5.46 2.468.824 2.19-.28 4.635-2.47 5.46-2.188.823-4.63-.28-5.455-2.47z"/><circle cx="505.755" cy="960.532" r="4.235"/><circle cx="565.833" cy="934.938" r="4.235"/><circle cx="611.351" cy="884.606" r="4.236"/><circle cx="472.272" cy="701.428" r="4.235"/><circle cx="446.705" cy="683.42" r="4.235"/><circle cx="417.354" cy="687.042" r="4.235"/><circle cx="382.706" cy="700.742" r="4.236"/><circle cx="373.717" cy="593.936" r="4.236"/><path d="M396.445 602.914c-.825-2.187.278-4.632 2.467-5.46 2.188-.825 4.632.28 5.458 2.47s-.28 4.634-2.468 5.458c-2.188.826-4.632-.28-5.457-2.468z"/><circle cx="347.8" cy="620.293" r="4.236"/><circle cx="323.197" cy="600.318" r="4.235"/><circle cx="293.52" cy="636.246" r="4.236"/><circle cx="299.996" cy="659.784" r="4.235"/><path d="M459.156 544.49c-.825-2.187.28-4.632 2.468-5.457s4.632.278 5.458 2.468c.825 2.19-.28 4.634-2.47 5.458-2.187.83-4.63-.278-5.456-2.468z"/><circle cx="291.631" cy="516.657" r="4.236"/><circle cx="443.66" cy="382.869" r="4.235"/><circle cx="-27.809" cy="481.148" r="4.235"/><circle cx="185.288" cy="551.419" r="4.236"/><circle cx="-166.822" cy="963.672" r="4.236"/><circle cx="-148.397" cy="993.779" r="4.236"/><circle cx="-126.164" cy="986.365" r="4.235"/><circle cx="-173.337" cy="1031.47" r="4.236"/></g></g><g clip-path="url(#b)"><g fill="none" stroke="#FFF" stroke-width=".563" stroke-miterlimit="10"><path d="M1771.783 580.405l87.954-35.758-44.683-21.254zM2207.58 964.33l29.896-14.474 68.205 37.998zM2237.476 949.856l-17.98-111.187-13.816 19.683z"/><path d="M2191.327 845.48l28.17-6.81-13.817 19.683zM1779.102 745.163l31.175-44.984 17.21 17.662zM1815.054 523.393l44.683 21.254 17.89-71.043z"/><path d="M1859.737 544.647l122.29-46.86-104.4-24.183zM1664.54 880.558l9.674-19.53-29.853-33.41zM1815.054 523.393l62.573-49.79 3.582-21.552zM2222.66 757.533l17.818 18.345-60.617 45.59zM1827.486 717.842l140.936-45.164-66.21-69.313zM1859.737 544.647l122.29-46.86-79.816 105.578zM2014.717 598.283l-32.69-100.495-79.816 105.577zM1779.102 745.163l31.175-44.984-9.877-25.436zM1759.16 889.008l19.942-143.845-80.92 77.192z"/><path d="M1674.214 861.027l-29.853-33.41 53.823-5.262zM1431.437 825.756l75.542-16.103-56.42-32.794zM1732.64 1228.38l20.754 12.045 64.48-58.833z"/><path d="M1732.64 1228.38l59.264-98.226 25.97 51.438zM1506.98 809.653l50.15-108.432 27.632 153.952zM1664.54 880.558l-20.18-52.94-59.598 27.554z"/><path d="M1644.36 827.617l-87.23-126.396 27.632 153.952zM1779.102 745.163l21.298-70.42-120.967.41z"/><path d="M1800.4 674.744l-28.617-94.34-92.35 94.748zM1836.145 355.275l-15.564-71.737 50.677 39.146z"/><path d="M1820.58 283.538l91.633 9.89-40.956 29.256zM1877.627 473.604l3.582-21.553 106.85-9.82zM1877.627 473.604l104.4 24.184 6.034-55.557zM1732.64 1228.38l-64.322-99.148 60.78-10.258zM1732.64 1228.38l59.264-98.226-62.805-11.18zM1791.904 1130.154l-11.445-60.737-51.36 49.557zM1818.784 1211.368l-.91-29.776 50.88 58.542zM2305.68 987.854l-68.204-37.998 133.118-122.608z"/><path d="M2237.476 949.856l-17.98-111.187 151.098-11.422z"/><path d="M2219.496 838.67l20.982-62.792 130.116 51.37zM1968.422 672.678l76.244 51.788 56.294-75.99z"/><path d="M2044.666 724.466l26.63-.546 29.664-75.444zM1836.145 355.275l35.112-32.59 67.65 53.347zM1871.257 322.684l40.956-29.255 26.693 82.602zM1791.904 1130.154l-11.445-60.737 147.657-53.613zM1928.117 1015.804l50.9-35.695-60.236-14.698z"/><path d="M1979.018 980.11l-7.41-38.65-52.827 23.952z"/><path d="M1971.607 941.46l13.042-55.697-65.87 79.65zM2240.478 775.878l130.116 51.37 3.588-79.064zM1698.183 822.355l60.978 66.653-62.554 13.065zM1664.54 880.558l9.674-19.53 22.392 41.045z"/><path d="M1674.214 861.027l23.97-38.672-1.578 79.718zM1557.13 701.22l48.86-77.912 62.616 70.085zM1698.183 822.355l80.92-77.192-110.497-51.77zM1605.99 623.308l73.443 51.844-10.827 18.24zM1679.433 675.152l99.67 70.01-110.497-51.77zM1644.36 827.617l-87.23-126.396 111.476-7.827z"/><path d="M1644.36 827.617l53.823-5.262-29.577-128.962zM2305.68 987.854l64.914-160.606 52.808 12.773z"/><path d="M2370.594 827.248l3.588-79.064 49.22 91.837zM1466.186 680.915l48.117-14.843-60.455-54.884zM1508.863 894.84l75.9-39.668 29.417 115.65z"/><path d="M1584.762 855.172l79.778 25.386-50.36 90.263zM1664.54 880.558l32.066 21.515-82.426 68.748zM1810.277 700.18l17.21 17.662 16.473-91.802z"/><path d="M1810.277 700.18l-9.877-25.436 43.56-48.704zM1827.486 717.842l74.725-114.477-58.25 22.675z"/><path d="M1800.4 674.744l-28.617-94.34 72.177 45.636z"/><path d="M1771.783 580.405l87.954-35.758-15.777 81.393zM1902.21 603.365l-42.473-58.718-15.777 81.393zM1984.65 885.763l115.752-39.798-39.398-13.74z"/><path d="M2100.402 845.965l27.58-44.22-66.978 30.48zM1968.422 672.678l76.244 51.788-40.414 4.296zM2191.327 845.48l-11.466-24.012 12.717 9.44z"/><path d="M2191.327 845.48l28.17-6.81-26.92-7.763z"/><path d="M2179.86 821.468l60.618-45.59-47.9 55.03z"/><path d="M2219.496 838.67l20.982-62.792-47.9 55.03zM1938.906 376.032l-26.693-82.603 55.947 25.875zM1979.018 980.11l-7.41-38.65 44.7 42.042z"/><path d="M1971.607 941.46l13.042-55.697 31.657 97.74zM1984.65 885.763l115.752-39.798-84.095 137.537zM2014.717 598.283l-32.69-100.495 21.823-1.14z"/><path d="M1982.027 497.788l6.034-55.557 15.79 54.42z"/><path d="M1988.06 442.23l91.448 11.29-75.658 43.13zM1998.92 1103.04l65.156-32.52-24.256 55.93z"/><path d="M2064.076 1070.52l193.522 59.227-217.778-3.298zM1988.06 442.23l49.606-83.47-77.3 39.696zM1938.906 376.032l29.254-56.727-7.793 79.15zM1514.303 666.072l42.826 35.15-56.627 5.322z"/><path d="M1450.56 776.86l56.42 32.793-6.477-103.11z"/><path d="M1450.56 776.86l15.626-95.945 34.317 25.63zM1506.98 809.653l50.15-108.432-56.627 5.324zM1466.186 680.915l48.117-14.843-13.8 40.472zM1928.117 1015.804l59.462-21.32-6.316-10.26zM1928.117 1015.804l50.9-35.695 2.247 4.113zM1987.58 994.485l28.727-10.983-35.043.72z"/><path d="M1979.018 980.11l37.29 3.392-35.044.72zM1998.92 1103.04l-70.803-87.236 9.278 160.562z"/><path d="M1998.92 1103.04l40.9 23.41-102.425 49.916zM1868.754 1240.134l-50.88-58.542 119.52-5.226z"/><path d="M1817.875 1181.592l-25.97-51.438 145.49 46.212z"/><path d="M1791.904 1130.154l136.213-114.35 9.278 160.562zM1605.99 623.308l73.443 51.844-16.648-79.343zM1605.99 623.308l.714-47.132 56.08 19.633z"/><path d="M1679.433 675.152l92.35-94.747-108.998 15.404zM1606.704 576.176l64.108-56.06-8.027 75.693zM1670.812 520.117l100.97 60.288-108.997 15.404zM1673.207 1040.44l101.715-2.785-51.69-78.62zM1780.46 1069.417l-5.538-31.762 16.57-24.59z"/><path d="M1774.922 1037.655l-51.69-78.62 68.26 54.03z"/><path d="M1723.232 959.035l41.465-38.27 26.795 92.3zM2100.402 845.965l27.58-44.22 9.02.51zM2179.86 821.468l42.8-63.935-85.658 44.723zM1902.21 603.365l66.212 69.313 15.758-44.667z"/><path d="M1902.21 603.365l112.507-5.082-30.537 29.728zM1968.422 672.678l132.538-24.202-116.78-20.465zM2014.717 598.283l64.714 2.135-95.25 27.593z"/><path d="M2100.96 648.476l-21.53-48.058-95.25 27.593zM1937.395 1176.366l102.425-49.917-46.515 91.726zM1998.92 1103.04l-70.803-87.236 66.4 10.413z"/><path d="M1998.92 1103.04l65.156-32.52-69.56-44.303zM1928.117 1015.804l59.462-21.32 6.937 31.733zM1987.58 994.485l28.727-10.983-21.79 42.715z"/><path d="M2064.076 1070.52l-47.77-87.018-21.79 42.715zM2100.402 845.965l36.6-43.71 16.006 37.087z"/><path d="M2137.002 802.256l42.86 19.212-26.854 17.874zM1849.985 1322.977l27.16-46.29-69.312 37.456z"/><path d="M1877.146 1276.687l-8.392-36.553-60.92 74.01zM2231.388 674.637l12.17-26.316-31.712-45.08z"/><path d="M2243.56 648.32l63.435-24.862-95.15-20.218z"/><path d="M2154.365 526.124l152.63 97.334-95.15-20.218zM2423.402 840.02l-49.22-91.836-3.9-99.297zM1764.697 920.765l-5.536-31.757 44.57-9.234zM1759.16 889.008l19.942-143.845 24.63 134.61z"/><path d="M1779.102 745.163l48.384-27.32-23.755 161.93zM1960.367 398.456l7.793-79.15 50.748 7.272z"/><path d="M1960.367 398.456l77.3-39.697-18.76-32.182zM2016.307 983.502l84.095-137.537 62.653 54.146z"/><path d="M2100.402 845.965l52.606-6.623 10.047 60.77zM2207.58 964.33l29.896-14.474-74.42-49.745z"/><path d="M2237.476 949.856l-31.796-91.503-42.625 41.758zM1431.437 825.756l77.426 69.083-1.633-60.943z"/><path d="M1431.437 825.756l75.542-16.103.25 24.244zM1508.863 894.84l75.9-39.668-77.533-21.275z"/><path d="M1506.98 809.653l77.782 45.52-77.532-21.276zM2100.96 648.476l-21.53-48.058 69.695 38.06z"/><path d="M2079.43 600.418l74.935-74.294-5.24 112.355zM2211.846 603.24l-57.48-77.116-5.24 112.355zM1803.73 879.774l23.756-161.932 85.67 33.578z"/><path d="M1827.486 717.842l140.936-45.164-55.266 78.742zM1673.207 1040.44l50.025-81.405-81.837 26.625z"/><path d="M1723.232 959.035l-26.626-56.962-55.21 83.587zM1382.438 716.592l68.123 60.267-27.115-84.672z"/><path d="M1382.438 716.592l71.41-105.404-30.403 81zM1450.56 776.86l15.626-95.945-42.74 11.273z"/><path d="M1466.186 680.915l-12.338-69.727-30.403 81zM1764.697 920.765l-5.536-31.757-30.99 43.593zM1723.232 959.035l-26.626-56.962 31.564 30.528z"/><path d="M1696.606 902.073l62.555-13.065-30.99 43.593zM2127.982 801.744l9.02.512-5.547-110.06z"/><path d="M2127.982 801.744l-56.685-77.824 60.158-31.723zM2137.002 802.256l85.66-44.723-91.207-65.336zM2071.297 723.92l29.663-75.444 30.495 43.72z"/><path d="M2100.96 648.476l48.165-9.997-17.67 53.717zM2222.66 757.533l-50.152-84.89-41.053 19.554z"/><path d="M2172.508 672.644l-23.383-34.165-17.67 53.717zM2222.66 757.533l-50.152-84.89 13.6-2.357z"/><path d="M2222.66 757.533l8.728-82.896-45.28-4.35zM2172.508 672.644l-23.383-34.165 36.982 31.806z"/><path d="M2149.125 638.48l62.72-35.24-25.738 67.046z"/><path d="M2231.388 674.637l-19.542-71.397-25.74 67.046zM1807.833 1314.143l60.92-74.01-55.052-16.883z"/><path d="M1818.784 1211.368l49.97 28.766-55.053-16.884zM1984.65 885.763l76.354-53.538-27.07-22.31zM2061.004 832.225l66.978-30.48-94.048 8.17zM2004.252 728.762l40.414-4.296-10.732 85.448z"/><path d="M2044.666 724.466l26.63-.546-37.362 85.994zM2127.982 801.744l-56.685-77.824-37.363 85.994zM1881.21 452.05l-45.065-96.775 52.715 81.376z"/><path d="M1881.21 452.05l106.85-9.82-99.2-5.58z"/><path d="M1836.145 355.275l102.76 20.757-50.045 60.62z"/><path d="M1988.06 442.23l-27.693-43.774-71.507 38.195zM1938.906 376.032l21.46 22.424-71.506 38.195zM1670.812 520.117l100.97 60.288 20.896-51.703zM1670.812 520.117l6.12-66.643 115.746 75.228zM1771.783 580.405l43.27-57.012-22.375 5.31z"/><path d="M1676.933 453.474l159.212-98.2-43.467 173.428zM1815.054 523.393l66.155-71.342-88.532 76.652zM1881.21 452.05l-45.065-96.775-43.467 173.427zM2163.055 900.11l-10.047-60.768 19.638 20.385zM2163.055 900.11l42.625-41.757-33.034 1.374z"/><path d="M2153.008 839.342l26.853-17.874-7.214 38.26z"/><path d="M2191.327 845.48l14.353 12.873-33.034 1.374z"/><path d="M2191.327 845.48l-11.466-24.012-7.214 38.26zM1668.318 1129.232l60.78-10.258 3.754-43.732z"/><path d="M1668.318 1129.232l4.89-88.79 59.644 34.8z"/><path d="M1729.1 1118.974l51.36-49.557-47.608 5.825z"/><path d="M1673.207 1040.44l101.715-2.785-42.07 37.587z"/><path d="M1780.46 1069.417l-5.538-31.762-42.07 37.587zM1764.697 920.765l39.034-40.99 17.208 17.663z"/><path d="M1803.73 879.774l109.426-128.354-92.218 146.018zM1918.78 965.412l65.87-79.65-163.712 11.676z"/><path d="M1984.65 885.763l-71.494-134.343-92.218 146.018zM1764.697 920.765l56.24-23.327-1.053 91.483z"/><path d="M1820.938 897.438l97.843 67.974-98.896 23.51z"/><path d="M1928.117 1015.804l-9.336-50.392-98.896 23.51z"/><path d="M1780.46 1069.417l147.657-53.613-108.233-26.883z"/><path d="M1780.46 1069.417l11.032-56.35 28.392-24.146zM1791.492 1013.066l-26.795-92.3 55.187 68.155zM1820.58 283.538l91.633 9.89 15.39-41.886z"/><path d="M1912.213 293.43l55.947 25.875-40.558-67.763zM2014.717 598.283l64.714 2.135-40.9-23.413zM2306.995 623.458l63.287 25.43-44.95 4.68z"/><path d="M2038.53 577.005l40.9 23.413 76.373-125.747zM2079.43 600.418l74.935-74.294 1.438-51.453z"/><path d="M2154.365 526.124l152.63 97.334-151.192-148.787zM1849.985 1322.977l27.16-46.29 64.326-15.874z"/><path d="M1877.146 1276.687l-8.392-36.553 72.717 20.68zM1868.754 1240.134l68.64-63.768 4.077 84.447zM1937.395 1176.366l55.91 41.81-51.834 42.637zM1968.16 319.305l-40.558-67.763 275.373 171.81z"/><path d="M1968.16 319.305l50.748 7.273 184.067 96.773zM2155.803 474.67l151.192 148.788-104.02-200.107z"/><path d="M2037.666 358.76l-18.758-32.182 184.067 96.773zM2306.995 623.458l63.287 25.43-167.307-225.537zM1984.65 885.763l-71.494-134.343 43.505 3.956zM1984.65 885.763l49.284-75.85-77.273-54.537zM1913.156 751.42l55.266-78.742-11.76 82.698z"/><path d="M2033.934 809.914l-29.682-81.152-47.59 26.614zM2004.252 728.762l-35.83-56.084-11.76 82.698zM2014.717 598.283l23.812-21.278 2.386-59.64z"/><path d="M2014.717 598.283L2003.85 496.65l37.066 20.716zM2038.53 577.005l117.273-102.334-114.887 42.696z"/><path d="M2003.85 496.65l75.658-43.13-38.592 63.846z"/><path d="M2079.508 453.52l12.718 9.44-51.31 54.406zM2092.226 462.96l63.577 11.71-114.887 42.696z"/><path d="M1988.06 442.23l91.448 11.29 5.877-12.595z"/><path d="M1988.06 442.23l49.606-83.47 47.72 82.165z"/><path d="M2079.508 453.52l12.718 9.44-6.84-22.035z"/><path d="M2092.226 462.96l63.577 11.71-70.418-33.745z"/><path d="M2155.803 474.67l47.172-51.32-117.59 17.575z"/><path d="M2037.666 358.76l165.31 64.59-117.59 17.575zM1606.704 576.176l64.108-56.06-38.28-22.077z"/><path d="M1670.812 520.117l6.12-66.643-44.4 44.565zM2064.076 1070.52l-47.77-87.018 135.118 50.576z"/><path d="M2064.076 1070.52l193.522 59.227-106.174-95.67z"/><path d="M2016.307 983.502l146.748-83.39-11.63 133.966z"/><path d="M2151.424 1034.078l106.174 95.67-62.565-139.523z"/><path d="M2151.424 1034.078l11.63-133.967 31.98 90.115zM2257.598 1129.747l48.083-141.893-110.647 2.37z"/><path d="M2207.58 964.33l-44.525-64.22 31.978 90.115z"/><path d="M2207.58 964.33l98.1 23.524-110.647 2.37zM2222.66 757.533l17.818 18.345 68-106.027z"/><path d="M2222.66 757.533l8.728-82.896 77.09-4.786z"/><path d="M2240.478 775.878l133.704-27.694-65.705-78.333z"/><path d="M2231.388 674.637l12.17-26.316 64.92 21.53z"/><path d="M2243.56 648.32l63.435-24.862 1.482 46.393zM2374.182 748.184l-3.9-99.297-61.805 20.964z"/><path d="M2325.332 653.568l-18.337-30.11 1.482 46.393z"/><path d="M2325.332 653.568l44.95-4.68-61.805 20.963zM2039.82 1126.45l217.778 3.297-254.666 89.618zM1993.305 1218.176l46.515-91.727-36.888 92.915zM1668.318 1129.232l4.89-88.79-47.794 7.214z"/><path d="M1673.207 1040.44l-31.812-54.78-15.98 61.996zM1641.395 985.66l-27.215-14.84 11.234 76.836zM1514.303 666.072l42.826 35.15-6.06-43.527zM1557.13 701.22l48.86-77.912-54.92 34.387z"/><path d="M1605.99 623.308l.714-47.132-55.635 81.52z"/><path d="M1551.07 657.695l55.634-81.52-54.933-43.91z"/><path d="M1606.704 576.176l25.828-78.137-80.76 34.226z"/></g><g fill="#FFF"><path d="M2426.375 837.116c-1.562-1.744-4.234-1.897-5.98-.336-1.746 1.56-1.898 4.235-.335 5.98 1.555 1.744 4.232 1.893 5.98.336 1.742-1.558 1.892-4.235.335-5.98z"/><circle cx="2369.596" cy="826.132" r="4.235"/><path d="M2377.338 745.362c-1.557-1.744-4.232-1.896-5.98-.337-1.743 1.56-1.895 4.237-.337 5.98 1.562 1.745 4.238 1.896 5.983.337 1.743-1.557 1.893-4.233.335-5.98zM2308.838 985.03c-1.56-1.743-4.234-1.894-5.98-.336-1.745 1.56-1.896 4.235-.335 5.98 1.556 1.745 4.23 1.897 5.98.336 1.743-1.555 1.893-4.235.335-5.98zM2260.756 1126.926c-1.56-1.743-4.238-1.895-5.982-.338-1.74 1.56-1.895 4.237-.334 5.983 1.558 1.743 4.234 1.894 5.98.336 1.743-1.557 1.895-4.234.336-5.98zM2240.633 947.033c-1.56-1.744-4.237-1.896-5.98-.336-1.746 1.558-1.896 4.237-.335 5.98 1.557 1.743 4.236 1.896 5.978.337 1.745-1.557 1.895-4.236.337-5.98zM2210.742 961.506c-1.562-1.744-4.238-1.895-5.98-.335-1.746 1.556-1.896 4.235-.34 5.98 1.56 1.747 4.24 1.895 5.984.34 1.744-1.563 1.89-4.236.336-5.984zM2198.19 987.402c-1.556-1.744-4.235-1.896-5.978-.338-1.748 1.562-1.9 4.234-.34 5.98 1.56 1.746 4.238 1.897 5.982.336 1.745-1.558 1.894-4.234.335-5.978z"/><circle cx="2151.812" cy="1034.516" r="4.235"/><path d="M2166.83 896.733c-1.556-1.745-4.232-1.898-5.978-.34-1.743 1.563-1.897 4.24-.337 5.983s4.238 1.896 5.98.336c1.746-1.558 1.897-4.233.336-5.98zM2177.02 858.265c-1.558-1.744-4.233-1.894-5.98-.336-1.745 1.558-1.896 4.233-.337 5.98 1.56 1.742 4.236 1.892 5.982.334 1.745-1.556 1.895-4.234.336-5.98zM2194.487 842.66c-1.56-1.744-4.235-1.893-5.98-.338-1.746 1.56-1.896 4.236-.34 5.982 1.56 1.743 4.24 1.895 5.985.336 1.744-1.558 1.893-4.234.335-5.98z"/><circle cx="2205.68" cy="858.354" r="4.235"/><path d="M2222.654 835.846c-1.557-1.74-4.233-1.895-5.98-.336-1.745 1.56-1.895 4.235-.34 5.98 1.562 1.744 4.24 1.898 5.983.337 1.747-1.556 1.9-4.235.337-5.98zM2196.778 829.253c-1.56-1.745-4.236-1.896-5.978-.338-1.748 1.56-1.898 4.237-.34 5.98 1.56 1.745 4.238 1.896 5.98.337 1.75-1.56 1.898-4.235.338-5.98zM2183.02 818.647c-1.56-1.746-4.236-1.897-5.978-.34-1.744 1.56-1.895 4.24-.338 5.982 1.56 1.746 4.238 1.895 5.98.335 1.746-1.56 1.895-4.234.337-5.978z"/><circle cx="2153.008" cy="839.342" r="4.235"/><path d="M2243.634 773.054c-1.558-1.743-4.235-1.895-5.978-.337-1.746 1.56-1.896 4.236-.34 5.98 1.56 1.745 4.236 1.897 5.98.338 1.747-1.557 1.898-4.236.338-5.98zM2225.818 754.713c-1.557-1.746-4.234-1.896-5.98-.342-1.744 1.565-1.895 4.24-.336 5.988 1.558 1.744 4.236 1.894 5.98.332 1.744-1.557 1.895-4.23.336-5.977zM2140.16 799.433c-1.56-1.747-4.234-1.896-5.98-.34-1.746 1.56-1.896 4.24-.34 5.983 1.562 1.745 4.238 1.894 5.98.335 1.748-1.557 1.9-4.233.34-5.977z"/><path d="M2131.143 798.923c-1.562-1.742-4.236-1.896-5.98-.336-1.746 1.56-1.897 4.237-.337 5.982 1.56 1.74 4.237 1.894 5.98.334 1.743-1.558 1.895-4.235.337-5.98zM2103.734 843.338c-1.56-1.745-4.238-1.9-5.982-.34-1.746 1.56-1.896 4.24-.336 5.982 1.56 1.74 4.236 1.895 5.982.335 1.745-1.558 1.894-4.233.336-5.977z"/><circle cx="2061.004" cy="832.224" r="4.235"/><circle cx="2033.934" cy="809.915" r="4.236"/><path d="M1987.81 882.938c-1.562-1.75-4.24-1.896-5.985-.335-1.74 1.56-1.893 4.23-.333 5.98 1.56 1.743 4.236 1.895 5.98.334 1.747-1.557 1.894-4.233.337-5.98z"/><circle cx="1972.417" cy="940.735" r="4.236"/><path d="M1982.177 977.29c-1.56-1.745-4.236-1.897-5.98-.338-1.746 1.56-1.898 4.236-.337 5.98 1.557 1.744 4.235 1.896 5.98.337 1.742-1.56 1.894-4.235.337-5.98zM2019.264 982.085c-1.56-1.746-4.235-1.896-5.98-.338-1.747 1.557-1.896 4.237-.338 5.98 1.56 1.746 4.235 1.894 5.98.337s1.895-4.236.338-5.98z"/><circle cx="2064.078" cy="1070.518" r="4.235"/><path d="M2042.98 1123.625c-1.557-1.744-4.235-1.895-5.98-.335-1.743 1.56-1.894 4.237-.336 5.98 1.558 1.746 4.233 1.897 5.98.336 1.745-1.555 1.895-4.236.335-5.98zM2002.99 1101.235c-1.558-1.74-4.234-1.894-5.98-.336-1.742 1.56-1.896 4.235-.335 5.98 1.56 1.742 4.234 1.895 5.98.338 1.745-1.56 1.895-4.24.336-5.983zM1997.677 1023.395c-1.556-1.746-4.235-1.897-5.982-.336-1.742 1.555-1.892 4.236-.334 5.98 1.56 1.745 4.238 1.895 5.982.338 1.743-1.56 1.894-4.24.335-5.983zM1931.276 1012.98c-1.56-1.745-4.24-1.895-5.983-.338-1.743 1.558-1.894 4.236-.332 5.98 1.556 1.744 4.233 1.896 5.978.338 1.746-1.557 1.897-4.236.338-5.98zM1921.94 962.587c-1.56-1.74-4.237-1.89-5.983-.333-1.745 1.56-1.893 4.232-.336 5.976 1.562 1.746 4.237 1.897 5.98.34 1.747-1.56 1.897-4.24.34-5.983zM2007.41 725.938c-1.56-1.745-4.238-1.894-5.98-.34-1.742 1.56-1.896 4.24-.338 5.984 1.56 1.747 4.24 1.896 5.982.34 1.744-1.562 1.895-4.238.336-5.984zM1959.817 752.556c-1.56-1.746-4.236-1.895-5.98-.34-1.745 1.56-1.895 4.236-.337 5.983 1.56 1.744 4.24 1.894 5.982.337 1.744-1.56 1.893-4.238.335-5.98zM1916.314 748.6c-1.556-1.744-4.234-1.897-5.982-.34-1.743 1.558-1.894 4.236-.333 5.983 1.555 1.74 4.234 1.893 5.977.334 1.747-1.56 1.896-4.237.337-5.978zM1972.882 671.315c-1.56-1.743-4.236-1.896-5.98-.336-1.744 1.558-1.897 4.234-.34 5.978 1.563 1.747 4.24 1.896 5.983.337 1.744-1.558 1.893-4.235.337-5.98zM1987.338 625.188c-1.56-1.743-4.234-1.896-5.98-.338-1.746 1.56-1.896 4.237-.338 5.985 1.56 1.74 4.236 1.893 5.98.33 1.745-1.554 1.895-4.233.338-5.977z"/><circle cx="2014.715" cy="598.281" r="4.237"/><circle cx="2039.449" cy="576.182" r="4.235"/><path d="M2082.588 597.597c-1.56-1.747-4.236-1.897-5.982-.34-1.74 1.56-1.894 4.237-.333 5.98 1.56 1.745 4.238 1.897 5.98.34 1.747-1.56 1.893-4.24.335-5.98z"/><circle cx="2100.165" cy="649.185" r="4.235"/><circle cx="2149.52" cy="638.127" r="4.235"/><path d="M2189.263 667.465c-1.558-1.745-4.235-1.896-5.98-.338-1.743 1.56-1.896 4.238-.335 5.98 1.557 1.742 4.236 1.895 5.98.336s1.896-4.234.335-5.978zM2176.05 669.483c-1.56-1.745-4.236-1.896-5.98-.336-1.747 1.558-1.897 4.234-.337 5.98 1.56 1.743 4.236 1.895 5.98.333 1.74-1.555 1.894-4.234.336-5.977z"/><circle cx="2132.352" cy="691.569" r="4.235"/><path d="M2074.452 721.095c-1.556-1.74-4.233-1.894-5.98-.335-1.743 1.56-1.894 4.236-.334 5.982 1.558 1.742 4.236 1.896 5.984.336 1.743-1.557 1.894-4.235.33-5.983zM2047.04 722.343c-1.56-1.743-4.236-1.896-5.98-.335-1.746 1.557-1.895 4.235-.338 5.982 1.557 1.74 4.238 1.893 5.982.334s1.894-4.234.335-5.98z"/><circle cx="2231.621" cy="674.429" r="4.236"/><path d="M2246.717 645.498c-1.557-1.742-4.235-1.895-5.983-.337-1.74 1.56-1.894 4.237-.335 5.98 1.56 1.745 4.237 1.894 5.98.338 1.745-1.558 1.893-4.234.337-5.98zM2215.005 600.418c-1.557-1.744-4.235-1.896-5.98-.338-1.747 1.56-1.895 4.238-.337 5.98 1.56 1.744 4.237 1.895 5.98.336 1.746-1.557 1.897-4.234.337-5.978zM2157.526 523.3c-1.56-1.74-4.235-1.895-5.98-.335s-1.897 4.234-.337 5.98c1.556 1.745 4.236 1.895 5.98.336 1.743-1.556 1.894-4.234.336-5.98zM2158.17 474.114c-1.56-1.742-4.234-1.896-5.982-.337-1.74 1.558-1.895 4.24-.336 5.982 1.557 1.744 4.236 1.895 5.982.336 1.743-1.56 1.894-4.237.335-5.982zM2206.133 420.534c-1.557-1.747-4.235-1.898-5.98-.343-1.746 1.56-1.895 4.238-.338 5.983 1.56 1.744 4.238 1.895 5.982.336 1.746-1.558 1.894-4.238.336-5.976zM2088.544 438.104c-1.56-1.744-4.236-1.895-5.98-.336-1.747 1.557-1.893 4.236-.335 5.98 1.558 1.745 4.233 1.893 5.978.336s1.896-4.236.336-5.98zM2082.666 450.7c-1.56-1.747-4.234-1.9-5.98-.34-1.744 1.557-1.895 4.236-.337 5.98 1.56 1.743 4.234 1.892 5.98.337 1.742-1.56 1.892-4.24.336-5.978zM2095.383 460.138c-1.557-1.743-4.234-1.896-5.98-.337-1.744 1.56-1.895 4.235-.338 5.98 1.56 1.745 4.237 1.896 5.98.34 1.746-1.56 1.894-4.24.338-5.982zM2043.927 514.675c-1.557-1.746-4.237-1.896-5.98-.34-1.745 1.56-1.895 4.238-.337 5.983 1.56 1.743 4.238 1.893 5.982.336 1.743-1.56 1.893-4.236.335-5.98z"/><circle cx="2003.848" cy="496.648" r="4.235"/><path d="M1983.995 496.03c-1.56-1.74-4.233-1.895-5.982-.337-1.743 1.56-1.893 4.238-.336 5.98 1.56 1.743 4.237 1.895 5.982.337 1.743-1.557 1.89-4.238.335-5.98zM1991.22 439.412c-1.56-1.747-4.24-1.895-5.983-.338-1.74 1.558-1.892 4.236-.336 5.98 1.558 1.744 4.238 1.897 5.98.336 1.746-1.558 1.894-4.236.34-5.978zM1963.53 395.634c-1.563-1.743-4.24-1.894-5.985-.336-1.742 1.556-1.894 4.236-.335 5.98 1.56 1.747 4.236 1.897 5.98.335 1.748-1.556 1.894-4.233.34-5.98zM1891.623 434.183c-1.556-1.745-4.235-1.898-5.98-.34s-1.896 4.238-.338 5.983c1.56 1.74 4.237 1.894 5.983.337 1.746-1.56 1.894-4.237.335-5.98zM1883.155 447.868c-1.562-1.746-4.24-1.897-5.984-.336-1.742 1.558-1.894 4.234-.335 5.98s4.238 1.893 5.98.338c1.747-1.56 1.894-4.238.34-5.982zM1839.446 352.328c-1.56-1.744-4.234-1.894-5.98-.338-1.747 1.56-1.894 4.237-.335 5.982 1.558 1.743 4.235 1.894 5.98.335 1.744-1.56 1.894-4.237.336-5.98zM1824.402 281.46c-1.558-1.745-4.234-1.895-5.98-.337-1.746 1.56-1.895 4.24-.337 5.983 1.56 1.742 4.234 1.893 5.98.336 1.747-1.56 1.898-4.238.337-5.98z"/><circle cx="1911.995" cy="293.189" r="4.237"/><path d="M1874.416 319.86c-1.56-1.744-4.237-1.897-5.98-.337-1.746 1.56-1.896 4.236-.336 5.98 1.56 1.747 4.236 1.896 5.978.337 1.747-1.558 1.894-4.236.338-5.98zM1942.065 373.21c-1.56-1.744-4.236-1.897-5.982-.338-1.742 1.56-1.896 4.237-.336 5.982 1.556 1.743 4.235 1.894 5.98.334 1.745-1.556 1.897-4.235.338-5.978zM1970.905 316.854c-1.557-1.747-4.235-1.9-5.98-.34-1.748 1.557-1.898 4.24-.337 5.98 1.56 1.747 4.237 1.896 5.98.337 1.746-1.558 1.897-4.233.337-5.976zM1929.487 249.856c-1.557-1.745-4.236-1.896-5.982-.337-1.743 1.557-1.895 4.235-.335 5.98 1.555 1.745 4.236 1.895 5.98.336 1.746-1.558 1.893-4.235.337-5.98z"/><circle cx="2019.732" cy="327.501" r="4.235"/><path d="M2012.948 334.35c-1.56-1.743-4.238-1.896-5.98-.335-1.746 1.558-1.896 4.237-.335 5.98 1.56 1.744 4.235 1.897 5.98.337 1.743-1.56 1.892-4.235.335-5.983zM2035.32 344.95c-1.558-1.747-4.235-1.898-5.98-.34-1.744 1.56-1.896 4.237-.338 5.98 1.56 1.746 4.237 1.898 5.98.337 1.75-1.558 1.898-4.236.337-5.978zM2041.824 357.055c-1.56-1.746-4.236-1.896-5.98-.336-1.745 1.557-1.895 4.233-.34 5.98 1.56 1.74 4.237 1.892 5.983.334 1.747-1.56 1.895-4.236.337-5.98zM1880.785 470.78c-1.555-1.74-4.235-1.894-5.98-.336-1.74 1.56-1.894 4.236-.335 5.98 1.56 1.745 4.235 1.896 5.982.34 1.742-1.56 1.894-4.237.333-5.983z"/><circle cx="1859.722" cy="544.66" r="4.236"/><path d="M1847.117 623.22c-1.56-1.744-4.236-1.897-5.98-.336-1.744 1.555-1.896 4.235-.335 5.98 1.555 1.74 4.233 1.894 5.98.335 1.743-1.558 1.894-4.236.335-5.98zM1905.37 600.54c-1.562-1.743-4.24-1.894-5.982-.334-1.745 1.556-1.896 4.234-.338 5.98 1.56 1.74 4.235 1.894 5.982.334 1.74-1.556 1.895-4.236.337-5.98z"/><circle cx="1827.488" cy="717.842" r="4.237"/><path d="M1814.233 696.65c-1.562-1.748-4.237-1.896-5.982-.34-1.743 1.56-1.892 4.236-.338 5.982 1.56 1.746 4.24 1.896 5.982.338 1.747-1.56 1.895-4.236.34-5.98zM1802.715 672.677c-1.56-1.745-4.236-1.898-5.98-.34-1.743 1.56-1.895 4.24-.34 5.984 1.563 1.744 4.24 1.895 5.983.34 1.747-1.56 1.893-4.238.337-5.983zM1774.94 577.582c-1.56-1.74-4.234-1.896-5.98-.335-1.745 1.557-1.895 4.236-.335 5.98 1.56 1.744 4.236 1.895 5.98.336 1.747-1.557 1.897-4.234.335-5.98zM1795.23 525.202c-1.562-1.746-4.24-1.898-5.983-.34-1.742 1.56-1.894 4.235-.335 5.982 1.557 1.745 4.235 1.895 5.978.335 1.745-1.558 1.896-4.235.34-5.978zM1671.763 518.05c-1.56-1.744-4.235-1.897-5.98-.34-1.745 1.56-1.896 4.24-.337 5.98 1.56 1.745 4.237 1.897 5.98.34 1.742-1.56 1.894-4.237.337-5.98zM1608.67 574.418c-1.555-1.745-4.235-1.895-5.978-.34-1.744 1.56-1.895 4.237-.336 5.983 1.556 1.745 4.234 1.895 5.98.337 1.746-1.56 1.893-4.236.335-5.98zM1554.93 529.444c-1.558-1.747-4.238-1.897-5.98-.34-1.744 1.56-1.895 4.237-.334 5.984 1.556 1.74 4.234 1.893 5.978.335 1.743-1.56 1.894-4.235.337-5.98zM1457.007 608.366c-1.56-1.743-4.234-1.898-5.98-.34-1.746 1.56-1.896 4.24-.336 5.982 1.556 1.745 4.235 1.895 5.978.338 1.748-1.56 1.897-4.237.34-5.98zM1635.69 495.216c-1.56-1.74-4.234-1.896-5.98-.338-1.745 1.56-1.896 4.238-.335 5.98 1.558 1.747 4.234 1.897 5.98.338 1.746-1.557 1.894-4.237.336-5.98zM1680.095 450.655c-1.562-1.747-4.237-1.9-5.983-.34-1.742 1.56-1.894 4.237-.337 5.98 1.56 1.746 4.24 1.896 5.982.338 1.745-1.56 1.894-4.236.338-5.978z"/><circle cx="1661.789" cy="596.699" r="4.235"/><path d="M1682.59 672.33c-1.556-1.744-4.235-1.896-5.98-.34-1.744 1.56-1.896 4.24-.336 5.984 1.56 1.744 4.238 1.894 5.98.335 1.746-1.558 1.897-4.235.336-5.98zM1671.766 690.568c-1.557-1.744-4.235-1.894-5.98-.336-1.744 1.56-1.894 4.235-.34 5.98 1.563 1.743 4.24 1.895 5.984.335 1.744-1.557 1.892-4.235.336-5.98zM1609.152 620.486c-1.56-1.746-4.24-1.897-5.98-.34-1.748 1.56-1.898 4.24-.338 5.982 1.56 1.744 4.236 1.896 5.98.337 1.745-1.56 1.893-4.236.338-5.98z"/><circle cx="1551.702" cy="658.402" r="4.236"/><path d="M1560.288 698.4c-1.56-1.746-4.237-1.896-5.98-.338-1.747 1.558-1.897 4.236-.338 5.983 1.562 1.742 4.24 1.895 5.98.333 1.746-1.558 1.897-4.234.338-5.98zM1503.357 703.38c-1.558-1.746-4.234-1.895-5.98-.337-1.746 1.558-1.897 4.238-.336 5.982 1.56 1.744 4.236 1.895 5.98.336 1.748-1.558 1.896-4.237.337-5.98z"/><circle cx="1466.866" cy="681.674" r="4.237"/><path d="M1516.67 663.956c-1.56-1.74-4.237-1.895-5.98-.335-1.746 1.56-1.897 4.237-.338 5.983 1.557 1.74 4.234 1.894 5.982.334 1.742-1.556 1.894-4.236.336-5.98zM1427.21 690.05c-1.56-1.748-4.235-1.9-5.98-.34-1.743 1.558-1.894 4.237-.335 5.982 1.556 1.743 4.237 1.896 5.98.336 1.746-1.56 1.895-4.235.334-5.98z"/><circle cx="1382.438" cy="716.593" r="4.235"/><path d="M1452.722 772.92c-1.556-1.742-4.234-1.895-5.978-.335-1.748 1.56-1.895 4.235-.34 5.98 1.56 1.745 4.24 1.896 5.982.337 1.745-1.557 1.894-4.236.336-5.982zM1434.598 822.935c-1.56-1.746-4.236-1.897-5.98-.34-1.745 1.562-1.894 4.24-.338 5.982 1.562 1.745 4.237 1.895 5.98.334 1.745-1.554 1.894-4.233.338-5.975zM1510.14 806.828c-1.56-1.742-4.233-1.896-5.98-.335-1.745 1.556-1.896 4.24-.336 5.98 1.558 1.743 4.236 1.895 5.98.336 1.743-1.56 1.895-4.236.335-5.982zM1510.37 831.093c-1.556-1.748-4.232-1.898-5.977-.34-1.748 1.562-1.896 4.238-.337 5.98 1.558 1.747 4.234 1.896 5.98.34 1.746-1.56 1.895-4.24.335-5.98zM1587.126 853.06c-1.558-1.745-4.237-1.897-5.98-.338-1.743 1.562-1.896 4.236-.335 5.98 1.558 1.745 4.236 1.896 5.98.338 1.746-1.56 1.898-4.238.336-5.98zM1647.518 824.796c-1.556-1.743-4.23-1.896-5.98-.338-1.745 1.56-1.892 4.238-.333 5.983 1.557 1.742 4.234 1.895 5.98.337 1.745-1.558 1.895-4.235.333-5.98zM1667.7 877.733c-1.56-1.74-4.237-1.896-5.983-.337-1.743 1.56-1.893 4.236-.334 5.98 1.555 1.746 4.234 1.895 5.98.338 1.742-1.558 1.894-4.235.336-5.98z"/><circle cx="1697.003" cy="901.715" r="4.236"/><path d="M1678.403 857.282c-1.557-1.744-4.235-1.896-5.98-.336-1.745 1.56-1.894 4.235-.335 5.98 1.56 1.743 4.237 1.895 5.98.336 1.747-1.56 1.896-4.234.335-5.98zM1617.338 968c-1.557-1.745-4.234-1.897-5.975-.34-1.748 1.562-1.9 4.235-.34 5.983 1.558 1.743 4.236 1.893 5.978.335 1.75-1.558 1.896-4.235.338-5.98zM1629.738 1043.79c-1.56-1.74-4.233-1.895-5.98-.336-1.742 1.56-1.892 4.238-.336 5.98 1.562 1.744 4.238 1.897 5.98.337 1.75-1.558 1.898-4.234.336-5.98zM1676.366 1037.615c-1.56-1.743-4.235-1.895-5.98-.335-1.743 1.555-1.894 4.237-.338 5.98 1.56 1.744 4.237 1.894 5.98.336 1.745-1.56 1.896-4.236.338-5.98zM1736.012 1072.423c-1.558-1.745-4.236-1.897-5.98-.337-1.742 1.556-1.895 4.234-.336 5.98 1.555 1.744 4.235 1.895 5.98.336 1.744-1.558 1.892-4.236.336-5.98zM1671.48 1126.408c-1.56-1.744-4.235-1.896-5.98-.338-1.746 1.56-1.898 4.238-.336 5.982 1.555 1.743 4.232 1.893 5.98.337 1.744-1.56 1.895-4.238.335-5.982zM1733.034 1115.46c-1.556-1.746-4.234-1.897-5.98-.34-1.743 1.56-1.895 4.24-.336 5.984 1.56 1.74 4.237 1.893 5.982.332 1.743-1.558 1.894-4.235.334-5.977zM1795.824 1126.655c-1.558-1.745-4.234-1.896-5.98-.34-1.745 1.56-1.895 4.24-.335 5.982 1.554 1.744 4.234 1.895 5.98.336 1.742-1.557 1.893-4.235.334-5.978zM1821.033 1178.77c-1.56-1.745-4.235-1.896-5.98-.34-1.745 1.56-1.897 4.238-.337 5.983 1.56 1.74 4.234 1.892 5.98.333 1.746-1.555 1.895-4.234.337-5.975zM1871.91 1237.31c-1.558-1.743-4.233-1.892-5.977-.335-1.746 1.558-1.896 4.236-.338 5.98 1.56 1.742 4.237 1.895 5.98.337 1.748-1.558 1.897-4.235.336-5.98zM1822.768 1209.47c-1.557-1.745-4.234-1.897-5.98-.34-1.745 1.56-1.895 4.238-.338 5.984 1.56 1.742 4.238 1.894 5.983.333 1.747-1.555 1.893-4.234.335-5.977zM1816.86 1220.43c-1.558-1.746-4.237-1.896-5.98-.34-1.747 1.56-1.895 4.24-.335 5.984 1.556 1.74 4.234 1.893 5.98.334 1.742-1.56 1.895-4.236.335-5.978zM1735.8 1225.557c-1.56-1.744-4.236-1.895-5.984-.338-1.745 1.56-1.896 4.24-.336 5.984 1.558 1.74 4.236 1.892 5.98.337 1.747-1.56 1.896-4.24.34-5.983zM1757.313 1236.924c-1.56-1.744-4.235-1.895-5.98-.334-1.744 1.556-1.9 4.234-.337 5.98 1.557 1.738 4.236 1.89 5.98.333 1.745-1.556 1.895-4.235.337-5.98zM1810.36 1310.61c-1.562-1.743-4.24-1.895-5.982-.337-1.744 1.56-1.894 4.238-.336 5.98 1.558 1.746 4.238 1.896 5.983.338 1.742-1.555 1.893-4.23.336-5.98zM1940.554 1173.542c-1.56-1.74-4.238-1.897-5.982-.34s-1.896 4.24-.336 5.98c1.558 1.747 4.234 1.9 5.98.34 1.743-1.56 1.895-4.237.338-5.98zM2007.865 1216.99c-1.56-1.745-4.237-1.896-5.98-.336-1.747 1.56-1.895 4.237-.336 5.98 1.558 1.747 4.235 1.897 5.98.336 1.745-1.557 1.895-4.235.335-5.98zM1853.146 1320.153c-1.56-1.743-4.237-1.894-5.98-.34-1.745 1.562-1.897 4.24-.34 5.986 1.562 1.742 4.237 1.895 5.982.334 1.745-1.558 1.896-4.234.338-5.98zM1996.463 1215.354c-1.56-1.747-4.235-1.896-5.978-.338-1.747 1.56-1.897 4.235-.34 5.98 1.56 1.743 4.24 1.896 5.982.337 1.745-1.558 1.896-4.233.336-5.98z"/><circle cx="1942.823" cy="1259.607" r="4.237"/><path d="M1880.303 1273.866c-1.555-1.745-4.234-1.896-5.98-.34-1.744 1.56-1.895 4.236-.336 5.982 1.556 1.744 4.237 1.896 5.98.336 1.746-1.56 1.897-4.235.336-5.978zM1782.225 1065.834c-1.558-1.747-4.236-1.898-5.982-.34-1.744 1.56-1.895 4.236-.336 5.98 1.56 1.747 4.238 1.896 5.98.338 1.744-1.56 1.893-4.238.338-5.978zM1778.082 1034.832c-1.557-1.745-4.236-1.896-5.98-.337-1.746 1.56-1.895 4.237-.337 5.98 1.558 1.748 4.236 1.895 5.983.335 1.742-1.555 1.893-4.232.334-5.978z"/><circle cx="1791.71" cy="1013.308" r="4.235"/><path d="M1823.04 986.1c-1.556-1.743-4.235-1.895-5.983-.337-1.742 1.56-1.89 4.236-.334 5.98 1.558 1.746 4.237 1.897 5.982.336 1.746-1.56 1.894-4.237.335-5.98zM1732.5 928.732c-1.558-1.743-4.234-1.896-5.98-.336-1.742 1.558-1.894 4.237-.336 5.98 1.56 1.746 4.236 1.895 5.98.335 1.746-1.555 1.895-4.234.337-5.978z"/><circle cx="1723.634" cy="958.679" r="4.234"/><path d="M1767.857 917.944c-1.56-1.744-4.235-1.897-5.98-.337-1.747 1.556-1.896 4.237-.335 5.98 1.557 1.74 4.235 1.894 5.98.338 1.743-1.562 1.894-4.237.335-5.98z"/><circle cx="1758.369" cy="889.715" r="4.236"/><path d="M1807.105 877.198c-1.56-1.75-4.235-1.9-5.98-.34-1.745 1.56-1.895 4.24-.335 5.983 1.56 1.742 4.235 1.895 5.98.336 1.747-1.558 1.894-4.238.335-5.978zM1824.98 893.826c-1.558-1.745-4.236-1.897-5.982-.34-1.742 1.562-1.894 4.24-.335 5.983 1.558 1.743 4.235 1.894 5.98.333 1.744-1.558 1.895-4.237.338-5.977z"/><circle cx="1642.828" cy="987.263" r="4.236"/><path d="M1701.95 820.212c-1.56-1.743-4.235-1.896-5.98-.337-1.744 1.56-1.895 4.236-.337 5.982 1.557 1.74 4.236 1.893 5.98.335 1.744-1.56 1.895-4.235.338-5.98zM1513.02 893.134c-1.562-1.746-4.238-1.896-5.982-.34-1.745 1.56-1.895 4.236-.336 5.985 1.56 1.74 4.24 1.893 5.98.334 1.744-1.56 1.894-4.238.337-5.98zM1818.213 520.57c-1.56-1.745-4.236-1.896-5.98-.338-1.747 1.56-1.896 4.24-.337 5.983 1.56 1.742 4.237 1.894 5.98.335 1.746-1.56 1.895-4.236.337-5.98zM1781.956 742.006c-1.56-1.748-4.236-1.9-5.98-.342-1.745 1.56-1.896 4.24-.337 5.982 1.557 1.744 4.236 1.895 5.982.337 1.743-1.557 1.894-4.236.334-5.977zM2310.318 620.485c-1.56-1.745-4.236-1.895-5.98-.335-1.745 1.558-1.896 4.236-.337 5.98 1.557 1.745 4.24 1.896 5.98.334 1.748-1.555 1.894-4.235.338-5.98zM2328.488 650.747c-1.556-1.75-4.234-1.9-5.98-.34-1.742 1.56-1.895 4.238-.337 5.983 1.56 1.743 4.237 1.894 5.984.334 1.745-1.555 1.894-4.235.334-5.977z"/><circle cx="2308.476" cy="669.852" r="4.236"/><circle cx="2370.284" cy="648.889" r="4.235"/></g></g></svg>