<svg xmlns="http://www.w3.org/2000/svg" width="190" height="37" viewBox="0 0 190 37"><g fill="#3C4A5D"><path d="M2.855 9.87c0-.96.793-1.753 1.752-1.753S6.36 8.91 6.36 9.87v2.777h1.488c.827 0 1.488.66 1.488 1.488s-.66 1.488-1.488 1.488H6.36v8.002c0 .76.662 1.19 1.257 1.19.86 0 1.554.694 1.554 1.554 0 .86-.693 1.554-1.553 1.554-2.943 0-4.762-1.885-4.762-4.497v-7.804h-.76c-.827 0-1.488-.66-1.488-1.488s.662-1.488 1.488-1.488h.76V9.87zM18.296 12.184c5.588 0 6.613 4.298 6.613 6.58 0 1.224 0 2.646-2.018 2.646h-8.167c0 2.38 1.687 3.472 3.87 3.472 1.454 0 2.48-.496 3.272-1.025.364-.23.628-.363 1.058-.363.86 0 1.554.694 1.554 1.554 0 .53-.266.96-.563 1.224-.562.53-2.314 1.818-5.324 1.818-4.596 0-7.44-2.48-7.44-8.002 0-5.06 2.646-7.904 7.143-7.904zm-3.472 6.25h6.547c0-1.62-.925-3.208-3.074-3.208-1.918 0-3.306 1.09-3.472 3.207zM37.044 13.506V5.9c0-.99.793-1.785 1.786-1.785.992 0 1.785.794 1.785 1.786v15.575c0 4.398-2.843 6.613-6.844 6.613-4.463 0-7.075-2.546-7.075-7.936s2.546-7.97 6.712-7.97c1.587.002 2.975.663 3.637 1.324zm0 3.406s-1.29-1.686-3.273-1.686c-2.248 0-3.537 1.653-3.537 4.927 0 3.24 1.256 4.894 3.538 4.894 1.918 0 3.274-1.29 3.274-3.57V16.91z"/></g><g fill="#3C4A5D"><path d="M60.916 5.9v18.12c0 .398.397.597.628.597.926 0 1.653.728 1.653 1.653s-.728 1.653-1.653 1.653c-2.58 0-4.2-1.455-4.2-4.232V5.9c0-.99.794-1.785 1.786-1.785.993 0 1.786.794 1.786 1.786zM71.695 12.184c5.588 0 6.613 4.298 6.613 6.58 0 1.224 0 2.646-2.017 2.646h-8.166c0 2.38 1.687 3.472 3.87 3.472 1.454 0 2.48-.496 3.272-1.025.364-.23.628-.363 1.058-.363.86 0 1.554.694 1.554 1.554 0 .53-.265.96-.562 1.224-.562.53-2.314 1.818-5.324 1.818-4.596 0-7.44-2.48-7.44-8.002 0-5.06 2.646-7.904 7.143-7.904zm-3.472 6.25h6.547c0-1.62-.926-3.208-3.075-3.208-1.918 0-3.306 1.09-3.472 3.207zM84.36 14.333c.627-1.29 2.18-2.116 3.57-2.116.926 0 1.687.76 1.687 1.687s-.76 1.687-1.687 1.687c-2.28 0-3.57 1.456-3.57 3.67v6.878c0 .992-.795 1.786-1.787 1.786-.992 0-1.786-.794-1.786-1.786v-11.97c0-.993.793-1.787 1.786-1.787.992 0 1.786.794 1.786 1.787v.166zM114.646 17.937v8.266c0 .992-.794 1.72-1.786 1.72-1.058 0-1.785-.728-1.785-1.72v-7.605c0-1.885-.76-3.174-2.91-3.174-2.38 0-3.307 1.29-3.307 3.14v7.64c0 .99-.793 1.72-1.785 1.72-1.06 0-1.786-.73-1.786-1.72v-7.606c0-1.885-.76-3.174-2.91-3.174-2.48 0-3.306 1.455-3.306 3.406v7.374c0 .992-.76 1.72-1.785 1.72s-1.786-.728-1.786-1.72V14.167c0-.992.792-1.786 1.785-1.786.992 0 1.786.794 1.786 1.787.63-.96 2.018-1.984 4.233-1.984 2.71 0 4.066.86 4.894 2.15 1.058-1.423 2.48-2.15 4.73-2.15 4.496 0 5.72 2.877 5.72 5.754zM124.334 28.088c-4.464 0-7.24-2.546-7.24-7.936 0-5.423 2.776-7.97 7.24-7.97s7.24 2.547 7.24 7.97c0 5.39-2.776 7.936-7.24 7.936zm0-12.862c-2.38 0-3.637 1.653-3.637 4.927 0 3.24 1.256 4.894 3.637 4.894s3.638-1.653 3.638-4.894c0-3.274-1.257-4.927-3.638-4.927zM147.545 17.937v8.266c0 .992-.793 1.72-1.785 1.72-1.06 0-1.786-.728-1.786-1.72v-7.605c0-1.885-.76-3.174-2.91-3.174-2.48 0-3.306 1.455-3.306 3.406v7.374c0 .992-.76 1.72-1.786 1.72-1.024 0-1.785-.728-1.785-1.72V14.167c0-.992.794-1.786 1.785-1.786.992 0 1.786.794 1.786 1.787.628-.96 2.017-1.984 4.232-1.984 4.497 0 5.555 2.877 5.555 5.754zM151.843 9.87c0-.96.794-1.753 1.753-1.753s1.752.793 1.752 1.752v2.777h1.488c.826 0 1.487.66 1.487 1.488s-.66 1.488-1.487 1.488h-1.488v8.002c0 .76.66 1.19 1.257 1.19.86 0 1.554.694 1.554 1.554 0 .86-.695 1.554-1.555 1.554-2.943 0-4.762-1.885-4.762-4.497v-7.804h-.76c-.827 0-1.488-.66-1.488-1.488s.66-1.488 1.487-1.488h.76V9.87zM167.35 28.088c-4.463 0-7.24-2.546-7.24-7.936 0-5.423 2.777-7.97 7.24-7.97s7.242 2.547 7.242 7.97c0 5.39-2.778 7.936-7.24 7.936zm0-12.862c-2.38 0-3.636 1.653-3.636 4.927 0 3.24 1.256 4.894 3.637 4.894s3.64-1.653 3.64-4.894c-.002-3.274-1.26-4.927-3.64-4.927zM180.873 26.832l-5.29-11.97c-.066-.166-.133-.397-.133-.694 0-.992.794-1.786 1.786-1.786s1.487.694 1.653 1.124l3.636 9.192 3.638-9.192c.165-.43.66-1.124 1.653-1.124.99 0 1.785.793 1.785 1.786 0 .297-.066.53-.132.694l-5.29 11.97c-.3.66-.894 1.09-1.654 1.09s-1.355-.43-1.653-1.09z"/></g><circle fill="#E14A67" cx="49.063" cy="18.373" r="2.567"/></svg>