<svg xmlns="http://www.w3.org/2000/svg" xmlns:xlink="http://www.w3.org/1999/xlink" width="320" height="160" viewBox="0 0 320 160"><defs><path id="a" d="M152 26.76c0-1.105.89-2 2.006-2h85.988c1.107 0 2.006.893 2.006 2v117.714c0 1.104-.89 1.998-2.006 1.998h-85.988c-1.108 0-2.006-.893-2.006-1.998V26.76z"/></defs><clipPath id="b"><use xlink:href="#a" overflow="visible"/></clipPath><path clip-path="url(#b)" fill="none" stroke="#3C4B5D" stroke-width="4" stroke-miterlimit="10" d="M152 26.76c0-1.105.89-2 2.006-2h85.988c1.107 0 2.006.893 2.006 2v117.714c0 1.104-.89 1.998-2.006 1.998h-85.988c-1.108 0-2.006-.893-2.006-1.998V26.76z"/><defs><path id="c" d="M156.5 30.762c0-1.105.896-2 2.002-2h76.996c1.105 0 2.002.894 2.002 2V140c0 1.105-.896 2.002-2.002 2.002h-76.996c-1.106 0-2.002-.895-2.002-2.002V30.762z"/></defs><clipPath id="d"><use xlink:href="#c" overflow="visible"/></clipPath><path clip-path="url(#d)" fill="none" stroke="#3C4B5D" stroke-width="4" stroke-miterlimit="10" d="M156.5 30.762c0-1.105.896-2 2.002-2h76.996c1.105 0 2.002.894 2.002 2V140c0 1.105-.896 2.002-2.002 2.002h-76.996c-1.106 0-2.002-.895-2.002-2.002V30.762z"/><defs><path id="e" d="M171.25 44.998v81.007c0 1.653 1.346 2.997 3.002 2.997h45.496c1.653 0 3.002-1.343 3.002-2.997V44.998c0-1.653-1.346-2.997-3.002-2.997h-45.496c-1.653 0-3.002 1.343-3.002 2.998zm2 0c0-.547.45-.997 1.002-.997h45.496c.553 0 1.002.45 1.002.998v81.007c0 .548-.45.997-1.002.997h-45.496c-.553 0-1.002-.448-1.002-.997V44.998zM151.25 22h91.5v127.002h-91.5v-127z"/></defs><clipPath id="f"><use xlink:href="#e" overflow="visible"/></clipPath><g clip-path="url(#f)"><defs><path id="g" d="M172.25 44.998c0-1.103.9-1.997 2.002-1.997h45.496c1.105 0 2.002.898 2.002 1.998v81.007c0 1.104-.9 1.997-2.002 1.997h-45.496c-1.105 0-2.002-.897-2.002-1.997V44.998z"/></defs><clipPath id="h"><use xlink:href="#g" overflow="visible"/></clipPath><path clip-path="url(#h)" fill-rule="evenodd" clip-rule="evenodd" fill="#E2EDF4" d="M172.25 44.998c0-1.103.9-1.997 2.002-1.997h45.496c1.105 0 2.002.898 2.002 1.998v81.007c0 1.104-.9 1.997-2.002 1.997h-45.496c-1.105 0-2.002-.897-2.002-1.997V44.998z"/></g><defs><path id="i" d="M172.25 44.998c0-1.103.9-1.997 2.002-1.997h45.496c1.105 0 2.002.898 2.002 1.998v81.007c0 1.104-.9 1.997-2.002 1.997h-45.496c-1.105 0-2.002-.897-2.002-1.997V44.998z"/></defs><clipPath id="j"><use xlink:href="#i" overflow="visible"/></clipPath><path clip-path="url(#j)" fill="none" stroke="#3C4B5D" stroke-width="4" stroke-miterlimit="10" d="M172.25 44.998c0-1.103.9-1.997 2.002-1.997h45.496c1.105 0 2.002.898 2.002 1.998v81.007c0 1.104-.9 1.997-2.002 1.997h-45.496c-1.105 0-2.002-.897-2.002-1.997V44.998z"/><defs><path id="k" d="M-1 146v2.004c0 1.653 1.345 2.998 3.002 2.998h315.996c1.662 0 3.002-1.34 3.002-2.998V146c0-1.653-1.346-2.998-3.002-2.998H2.002C.34 143.002-1 144.342-1 146zm2 0c0-.554.444-.998 1.002-.998h315.996c.553 0 1.002.45 1.002.998v2.004c0 .554-.444.998-1.002.998H2.002c-.552 0-1.002-.45-1.002-.998V146zm-22-22.998h362v48H-21v-48z"/></defs><clipPath id="l"><use xlink:href="#k" overflow="visible"/></clipPath><g clip-path="url(#l)"><defs><path id="m" d="M0 146c0-1.104.89-1.998 2.002-1.998h315.996c1.105 0 2.002.898 2.002 1.998v2.004c0 1.104-.89 1.998-2.002 1.998H2.002c-1.106 0-2.002-.898-2.002-1.998V146z"/></defs><clipPath id="n"><use xlink:href="#m" overflow="visible"/></clipPath><path clip-path="url(#n)" fill-rule="evenodd" clip-rule="evenodd" fill="#FFF" d="M0 146c0-1.104.89-1.998 2.002-1.998h315.996c1.105 0 2.002.898 2.002 1.998v2.004c0 1.104-.89 1.998-2.002 1.998H2.002c-1.106 0-2.002-.898-2.002-1.998V146z"/></g><defs><path id="o" d="M0 146c0-1.104.89-1.998 2.002-1.998h315.996c1.105 0 2.002.898 2.002 1.998v2.004c0 1.104-.89 1.998-2.002 1.998H2.002c-1.106 0-2.002-.898-2.002-1.998V146z"/></defs><clipPath id="p"><use xlink:href="#o" overflow="visible"/></clipPath><path clip-path="url(#p)" fill="none" stroke="#3C4B5D" stroke-width="4" stroke-miterlimit="10" d="M0 146c0-1.104.89-1.998 2.002-1.998h315.996c1.105 0 2.002.898 2.002 1.998v2.004c0 1.104-.89 1.998-2.002 1.998H2.002c-1.106 0-2.002-.898-2.002-1.998V146z"/><defs><path id="q" d="M20 150.01c0-1.108.898-2.008 1.998-2.008h2.004c1.104 0 1.998.902 1.998 2.01v7.98c0 1.11-.898 2.01-1.998 2.01h-2.004c-1.104 0-1.998-.902-1.998-2.01v-7.98z"/></defs><clipPath id="r"><use xlink:href="#q" overflow="visible"/></clipPath><path clip-path="url(#r)" fill="none" stroke="#3C4B5D" stroke-width="4" stroke-miterlimit="10" d="M20 150.01c0-1.108.898-2.008 1.998-2.008h2.004c1.104 0 1.998.902 1.998 2.01v7.98c0 1.11-.898 2.01-1.998 2.01h-2.004c-1.104 0-1.998-.902-1.998-2.01v-7.98z"/><defs><path id="s" d="M294 150.01c0-1.108.898-2.008 1.998-2.008h2.004c1.104 0 1.998.902 1.998 2.01v7.98c0 1.11-.898 2.01-1.998 2.01h-2.004c-1.104 0-1.998-.902-1.998-2.01v-7.98z"/></defs><clipPath id="t"><use xlink:href="#s" overflow="visible"/></clipPath><path clip-path="url(#t)" fill="none" stroke="#3C4B5D" stroke-width="4" stroke-miterlimit="10" d="M294 150.01c0-1.108.898-2.008 1.998-2.008h2.004c1.104 0 1.998.902 1.998 2.01v7.98c0 1.11-.898 2.01-1.998 2.01h-2.004c-1.104 0-1.998-.902-1.998-2.01v-7.98z"/><defs><path id="u" d="M157 150.01c0-1.108.898-2.008 1.998-2.008h2.004c1.104 0 1.998.902 1.998 2.01v7.98c0 1.11-.898 2.01-1.998 2.01h-2.004c-1.104 0-1.998-.902-1.998-2.01v-7.98z"/></defs><clipPath id="v"><use xlink:href="#u" overflow="visible"/></clipPath><path clip-path="url(#v)" fill="none" stroke="#3C4B5D" stroke-width="4" stroke-miterlimit="10" d="M157 150.01c0-1.108.898-2.008 1.998-2.008h2.004c1.104 0 1.998.902 1.998 2.01v7.98c0 1.11-.898 2.01-1.998 2.01h-2.004c-1.104 0-1.998-.902-1.998-2.01v-7.98z"/><defs><path id="w" d="M39 89.998v54.008c0 1.66 1.34 2.996 2.998 2.996h15.005c1.658 0 2.998-1.34 2.998-2.996V89.998C60 88.338 58.66 87 57.004 87H41.998C40.34 87 39 88.344 39 90zm2 0c0-.55.444-.996.998-.996h15.005c.554 0 .998.442.998.996v54.008c0 .55-.443.996-.997.996H41.998c-.554 0-.998-.442-.998-.996V89.998zM19 67h61v100.002H19v-100z"/></defs><clipPath id="x"><use xlink:href="#w" overflow="visible"/></clipPath><g clip-path="url(#x)"><defs><path id="y" d="M40 89.998c0-1.103.89-1.996 1.998-1.996h15.005c1.104 0 1.998.888 1.998 1.996v54.008c0 1.103-.89 1.996-1.997 1.996H41.998c-1.104 0-1.998-.888-1.998-1.996V89.998z"/></defs><clipPath id="z"><use xlink:href="#y" overflow="visible"/></clipPath><path clip-path="url(#z)" fill-rule="evenodd" clip-rule="evenodd" fill="#E2EDF4" d="M40 89.998c0-1.103.89-1.996 1.998-1.996h15.005c1.104 0 1.998.888 1.998 1.996v54.008c0 1.103-.89 1.996-1.997 1.996H41.998c-1.104 0-1.998-.888-1.998-1.996V89.998z"/></g><g><defs><path id="A" d="M40 89.998c0-1.103.89-1.996 1.998-1.996h15.005c1.104 0 1.998.888 1.998 1.996v54.008c0 1.103-.89 1.996-1.997 1.996H41.998c-1.104 0-1.998-.888-1.998-1.996V89.998z"/></defs><clipPath id="B"><use xlink:href="#A" overflow="visible"/></clipPath><path clip-path="url(#B)" fill="none" stroke="#3C4B5D" stroke-width="4" stroke-miterlimit="10" d="M40 89.998c0-1.103.89-1.996 1.998-1.996h15.005c1.104 0 1.998.888 1.998 1.996v54.008c0 1.103-.89 1.996-1.997 1.996H41.998c-1.104 0-1.998-.888-1.998-1.996V89.998z"/></g><g><defs><path id="C" d="M57 104.007c0-1.107.9-2.005 1.992-2.005h7.016c1.1 0 1.992.898 1.992 2.005v39.99c0 1.107-.9 2.005-1.992 2.005h-7.016c-1.1 0-1.992-.898-1.992-2.005v-39.99z"/></defs><clipPath id="D"><use xlink:href="#C" overflow="visible"/></clipPath><path clip-path="url(#D)" fill="none" stroke="#3C4B5D" stroke-width="4" stroke-miterlimit="10" d="M57 104.007c0-1.107.9-2.005 1.992-2.005h7.016c1.1 0 1.992.898 1.992 2.005v39.99c0 1.107-.9 2.005-1.992 2.005h-7.016c-1.1 0-1.992-.898-1.992-2.005v-39.99z"/></g><g><defs><path id="E" d="M66 104.007c0-1.107.9-2.005 1.992-2.005h7.016c1.1 0 1.992.898 1.992 2.005v39.99c0 1.107-.9 2.005-1.992 2.005h-7.016c-1.1 0-1.992-.898-1.992-2.005v-39.99z"/></defs><clipPath id="F"><use xlink:href="#E" overflow="visible"/></clipPath><path clip-path="url(#F)" fill="none" stroke="#3C4B5D" stroke-width="4" stroke-miterlimit="10" d="M66 104.007c0-1.107.9-2.005 1.992-2.005h7.016c1.1 0 1.992.898 1.992 2.005v39.99c0 1.107-.9 2.005-1.992 2.005h-7.016c-1.1 0-1.992-.898-1.992-2.005v-39.99z"/></g><g><defs><path id="G" d="M31 111.004c0-1.105.9-2.002 1.992-2.002h7.016c1.1 0 1.992.896 1.992 2.002V144c0 1.105-.9 2.002-1.992 2.002h-7.016c-1.1 0-1.992-.896-1.992-2.002v-32.996z"/></defs><clipPath id="H"><use xlink:href="#G" overflow="visible"/></clipPath><path clip-path="url(#H)" fill="none" stroke="#3C4B5D" stroke-width="4" stroke-miterlimit="10" d="M31 111.004c0-1.105.9-2.002 1.992-2.002h7.016c1.1 0 1.992.896 1.992 2.002V144c0 1.105-.9 2.002-1.992 2.002h-7.016c-1.1 0-1.992-.896-1.992-2.002v-32.996z"/></g><g><defs><path id="I" d="M45 95.002c0-.553.446-1 .998-1h7.005c.55 0 .998.444.998 1 0 .553-.445 1-.997 1h-7.005c-.55 0-.998-.444-.998-1z"/></defs><clipPath id="J"><use xlink:href="#I" overflow="visible"/></clipPath><path clip-path="url(#J)" fill="none" stroke="#3C4B5D" stroke-width="4" stroke-miterlimit="10" d="M45 95.002c0-.553.446-1 .998-1h7.005c.55 0 .998.444.998 1 0 .553-.445 1-.997 1h-7.005c-.55 0-.998-.444-.998-1z"/></g><g><defs><path id="K" d="M34 115.002c0-.553.444-1 1-1h3c.552 0 1 .444 1 1 0 .553-.444 1-1 1h-3c-.552 0-1-.444-1-1z"/></defs><clipPath id="L"><use xlink:href="#K" overflow="visible"/></clipPath><path clip-path="url(#L)" fill="none" stroke="#3C4B5D" stroke-width="4" stroke-miterlimit="10" d="M34 115.002c0-.553.444-1 1-1h3c.552 0 1 .444 1 1 0 .553-.444 1-1 1h-3c-.552 0-1-.444-1-1z"/></g><g><defs><path id="M" d="M34 140.002c0-.553.444-1 1-1h3c.552 0 1 .444 1 1 0 .553-.444 1-1 1h-3c-.552 0-1-.444-1-1z"/></defs><clipPath id="N"><use xlink:href="#M" overflow="visible"/></clipPath><path clip-path="url(#N)" fill="none" stroke="#3C4B5D" stroke-width="4" stroke-miterlimit="10" d="M34 140.002c0-.553.444-1 1-1h3c.552 0 1 .444 1 1 0 .553-.444 1-1 1h-3c-.552 0-1-.444-1-1z"/></g><g><defs><path id="O" d="M76.917 111.99c-.286-1.068.35-2.167 1.406-2.45l6.777-1.815c1.063-.285 2.156.35 2.442 1.418l8.54 31.87c.286 1.07-.35 2.168-1.406 2.45L87.9 145.28c-1.064.284-2.157-.35-2.443-1.42l-8.54-31.87z"/></defs><clipPath id="P"><use xlink:href="#O" overflow="visible"/></clipPath><path clip-path="url(#P)" fill="none" stroke="#3C4B5D" stroke-width="4" stroke-miterlimit="10" d="M76.917 111.99c-.286-1.068.35-2.167 1.406-2.45l6.777-1.815c1.063-.285 2.156.35 2.442 1.418l8.54 31.87c.286 1.07-.35 2.168-1.406 2.45L87.9 145.28c-1.064.284-2.157-.35-2.443-1.42l-8.54-31.87z"/></g><g><defs><path id="Q" d="M80.85 115.075c-.143-.534.17-1.08.707-1.225l2.898-.777c.533-.143 1.08.17 1.225.708.143.534-.17 1.08-.707 1.226l-2.898.776c-.534.143-1.08-.17-1.225-.707z"/></defs><clipPath id="R"><use xlink:href="#Q" overflow="visible"/></clipPath><path clip-path="url(#R)" fill="none" stroke="#3C4B5D" stroke-width="4" stroke-miterlimit="10" d="M80.85 115.075c-.143-.534.17-1.08.707-1.225l2.898-.777c.533-.143 1.08.17 1.225.708.143.534-.17 1.08-.707 1.226l-2.898.776c-.534.143-1.08-.17-1.225-.707z"/></g><g><defs><path id="S" d="M87.32 139.223c-.143-.533.17-1.08.707-1.225l2.898-.776c.534-.143 1.08.17 1.225.707.143.533-.17 1.08-.707 1.224l-2.898.777c-.533.143-1.08-.17-1.225-.707z"/></defs><clipPath id="T"><use xlink:href="#S" overflow="visible"/></clipPath><path clip-path="url(#T)" fill="none" stroke="#3C4B5D" stroke-width="4" stroke-miterlimit="10" d="M87.32 139.223c-.143-.533.17-1.08.707-1.225l2.898-.776c.534-.143 1.08.17 1.225.707.143.533-.17 1.08-.707 1.224l-2.898.777c-.533.143-1.08-.17-1.225-.707z"/></g><g><defs><path id="U" d="M71.5 107.502c.552 0 1 .446 1 .997v7.005c0 .55-.444.997-1 .997-.552 0-1-.446-1-.997V108.5c0-.552.444-.998 1-.998z"/></defs><clipPath id="V"><use xlink:href="#U" overflow="visible"/></clipPath><path clip-path="url(#V)" fill="none" stroke="#3C4B5D" stroke-width="4" stroke-miterlimit="10" d="M71.5 107.502c.552 0 1 .446 1 .997v7.005c0 .55-.444.997-1 .997-.552 0-1-.446-1-.997V108.5c0-.552.444-.998 1-.998z"/></g><g><defs><path id="W" d="M62.5 107.502c.552 0 1 .446 1 .997v7.005c0 .55-.444.997-1 .997-.552 0-1-.446-1-.997V108.5c0-.552.444-.998 1-.998z"/></defs><clipPath id="X"><use xlink:href="#W" overflow="visible"/></clipPath><path clip-path="url(#X)" fill="none" stroke="#3C4B5D" stroke-width="4" stroke-miterlimit="10" d="M62.5 107.502c.552 0 1 .446 1 .997v7.005c0 .55-.444.997-1 .997-.552 0-1-.446-1-.997V108.5c0-.552.444-.998 1-.998z"/></g><g><defs><path id="Y" d="M45 139.002c0-.553.446-1 .998-1h7.005c.55 0 .998.444.998 1 0 .553-.445 1-.997 1h-7.005c-.55 0-.998-.444-.998-1z"/></defs><clipPath id="Z"><use xlink:href="#Y" overflow="visible"/></clipPath><path clip-path="url(#Z)" fill="none" stroke="#3C4B5D" stroke-width="4" stroke-miterlimit="10" d="M45 139.002c0-.553.446-1 .998-1h7.005c.55 0 .998.444.998 1 0 .553-.445 1-.997 1h-7.005c-.55 0-.998-.444-.998-1z"/></g><g><defs><path id="aa" d="M272 142c0-1.104.897-1.998 1.99-1.998h26.02c1.1 0 1.99.898 1.99 1.998v2.004c0 1.104-.897 1.998-1.99 1.998h-26.02c-1.1 0-1.99-.898-1.99-1.998V142z"/></defs><clipPath id="ab"><use xlink:href="#aa" overflow="visible"/></clipPath><path clip-path="url(#ab)" fill="none" stroke="#3C4B5D" stroke-width="4" stroke-miterlimit="10" d="M272 142c0-1.104.897-1.998 1.99-1.998h26.02c1.1 0 1.99.898 1.99 1.998v2.004c0 1.104-.897 1.998-1.99 1.998h-26.02c-1.1 0-1.99-.898-1.99-1.998V142z"/></g><g><defs><path id="ac" d="M284 117.01c0-1.11.898-2.008 1.998-2.008h2.004c1.104 0 1.998.898 1.998 2.008v22.984c0 1.11-.898 2.008-1.998 2.008h-2.004c-1.104 0-1.998-.898-1.998-2.008V117.01z"/></defs><clipPath id="ad"><use xlink:href="#ac" overflow="visible"/></clipPath><path clip-path="url(#ad)" fill="none" stroke="#3C4B5D" stroke-width="4" stroke-miterlimit="10" d="M284 117.01c0-1.11.898-2.008 1.998-2.008h2.004c1.104 0 1.998.898 1.998 2.008v22.984c0 1.11-.898 2.008-1.998 2.008h-2.004c-1.104 0-1.998-.898-1.998-2.008V117.01z"/></g><g><defs><path id="ae" d="M267.997 117.002c-1.103 0-1.997-.898-1.997-1.998V113c0-1.104.896-1.998 1.997-1.998h38.006c1.103 0 1.997.898 1.997 1.998v2.004c0 1.104-.896 1.998-1.997 1.998h-38.006z"/></defs><clipPath id="af"><use xlink:href="#ae" overflow="visible"/></clipPath><path clip-path="url(#af)" fill="none" stroke="#3C4B5D" stroke-width="4" stroke-miterlimit="10" d="M267.997 117.002c-1.103 0-1.997-.898-1.997-1.998V113c0-1.104.896-1.998 1.997-1.998h38.006c1.103 0 1.997.898 1.997 1.998v2.004c0 1.104-.896 1.998-1.997 1.998h-38.006z"/></g><g><defs><path id="ag" d="M304.973 112.002c.02-.33.027-.664.027-1 0-9.94-8.06-18-18-18s-18 8.06-18 18c0 .336.01.67.027 1h35.946z"/></defs><clipPath id="ah"><use xlink:href="#ag" overflow="visible"/></clipPath><path clip-path="url(#ah)" fill="#E2EDF4" d="M264 88.002h46v29h-46z"/></g><path fill="none" stroke="#3C4B5D" stroke-width="2" stroke-miterlimit="10" d="M304.973 112.002c.02-.33.027-.664.027-1 0-9.94-8.06-18-18-18s-18 8.06-18 18c0 .336.01.67.027 1h35.946z"/><circle fill="none" stroke="#3C4B5D" stroke-width="2" stroke-miterlimit="10" cx="287" cy="91.002" r="2"/></svg>