<svg xmlns="http://www.w3.org/2000/svg" xmlns:xlink="http://www.w3.org/1999/xlink" width="320" height="160" viewBox="0 0 320 160"><defs><path id="a" d="M-1 146v2.005c0 1.653 1.345 2.998 3.002 2.998h315.996c1.662 0 3.002-1.34 3.002-2.998V146c0-1.652-1.346-2.997-3.002-2.997H2.002C.34 143.003-1 144.343-1 146zm2 0c0-.553.444-.997 1.002-.997h315.996c.553 0 1.002.45 1.002.998v2.005c0 .554-.444.998-1.002.998H2.002c-.552 0-1.002-.45-1.002-.998V146zm-22-22.997h362v48H-21v-48z"/></defs><clipPath id="b"><use xlink:href="#a" overflow="visible"/></clipPath><g clip-path="url(#b)"><defs><path id="c" d="M0 146c0-1.103.89-1.997 2.002-1.997h315.996c1.105 0 2.002.898 2.002 1.998v2.005c0 1.104-.89 1.998-2.002 1.998H2.002c-1.106 0-2.002-.898-2.002-1.998V146z"/></defs><clipPath id="d"><use xlink:href="#c" overflow="visible"/></clipPath><path clip-path="url(#d)" fill-rule="evenodd" clip-rule="evenodd" fill="#FFF" d="M0 146c0-1.103.89-1.997 2.002-1.997h315.996c1.105 0 2.002.898 2.002 1.998v2.005c0 1.104-.89 1.998-2.002 1.998H2.002c-1.106 0-2.002-.898-2.002-1.998V146z"/></g><defs><path id="e" d="M0 146c0-1.103.89-1.997 2.002-1.997h315.996c1.105 0 2.002.898 2.002 1.998v2.005c0 1.104-.89 1.998-2.002 1.998H2.002c-1.106 0-2.002-.898-2.002-1.998V146z"/></defs><clipPath id="f"><use xlink:href="#e" overflow="visible"/></clipPath><path clip-path="url(#f)" fill="none" stroke="#3C4B5D" stroke-width="4" stroke-miterlimit="10" d="M0 146c0-1.103.89-1.997 2.002-1.997h315.996c1.105 0 2.002.898 2.002 1.998v2.005c0 1.104-.89 1.998-2.002 1.998H2.002c-1.106 0-2.002-.898-2.002-1.998V146z"/><defs><path id="g" d="M20 150.012c0-1.11.898-2.01 1.998-2.01h2.004c1.104 0 1.998.903 1.998 2.01v7.982c0 1.11-.898 2.01-1.998 2.01h-2.004c-1.104 0-1.998-.903-1.998-2.01v-7.982z"/></defs><clipPath id="h"><use xlink:href="#g" overflow="visible"/></clipPath><path clip-path="url(#h)" fill="none" stroke="#3C4B5D" stroke-width="4" stroke-miterlimit="10" d="M20 150.012c0-1.11.898-2.01 1.998-2.01h2.004c1.104 0 1.998.903 1.998 2.01v7.982c0 1.11-.898 2.01-1.998 2.01h-2.004c-1.104 0-1.998-.903-1.998-2.01v-7.982z"/><defs><path id="i" d="M294 150.012c0-1.11.898-2.01 1.998-2.01h2.004c1.104 0 1.998.903 1.998 2.01v7.982c0 1.11-.898 2.01-1.998 2.01h-2.004c-1.104 0-1.998-.903-1.998-2.01v-7.982z"/></defs><clipPath id="j"><use xlink:href="#i" overflow="visible"/></clipPath><path clip-path="url(#j)" fill="none" stroke="#3C4B5D" stroke-width="4" stroke-miterlimit="10" d="M294 150.012c0-1.11.898-2.01 1.998-2.01h2.004c1.104 0 1.998.903 1.998 2.01v7.982c0 1.11-.898 2.01-1.998 2.01h-2.004c-1.104 0-1.998-.903-1.998-2.01v-7.982z"/><defs><path id="k" d="M157 150.012c0-1.11.898-2.01 1.998-2.01h2.004c1.104 0 1.998.903 1.998 2.01v7.982c0 1.11-.898 2.01-1.998 2.01h-2.004c-1.104 0-1.998-.903-1.998-2.01v-7.982z"/></defs><clipPath id="l"><use xlink:href="#k" overflow="visible"/></clipPath><path clip-path="url(#l)" fill="none" stroke="#3C4B5D" stroke-width="4" stroke-miterlimit="10" d="M157 150.012c0-1.11.898-2.01 1.998-2.01h2.004c1.104 0 1.998.903 1.998 2.01v7.982c0 1.11-.898 2.01-1.998 2.01h-2.004c-1.104 0-1.998-.903-1.998-2.01v-7.982z"/><defs><path id="m" d="M52 106.003c0-1.104.89-2 1.99-2h18.02c1.1 0 1.99.89 1.99 2v32c0 1.104-.89 2-1.99 2H53.99c-1.1 0-1.99-.89-1.99-2v-32z"/></defs><clipPath id="n"><use xlink:href="#m" overflow="visible"/></clipPath><path clip-path="url(#n)" fill="none" stroke="#3C4B5D" stroke-width="4" stroke-miterlimit="10" d="M52 106.003c0-1.104.89-2 1.99-2h18.02c1.1 0 1.99.89 1.99 2v32c0 1.104-.89 2-1.99 2H53.99c-1.1 0-1.99-.89-1.99-2v-32z"/><defs><circle id="o" cx="63" cy="135.003" r="2"/></defs><clipPath id="p"><use xlink:href="#o" overflow="visible"/></clipPath><path clip-path="url(#p)" fill="#3C4B5D" d="M56 128.003h14v14H56z"/><defs><path id="q" d="M48 140c0-1.103.898-1.997 1.992-1.997H76.01c1.1 0 1.99.887 1.99 1.998v4.005c0 1.104-.897 1.998-1.99 1.998H49.99c-1.1 0-1.992-.887-1.992-1.998V140z"/></defs><clipPath id="r"><use xlink:href="#q" overflow="visible"/></clipPath><path clip-path="url(#r)" fill="none" stroke="#3C4B5D" stroke-width="4" stroke-miterlimit="10" d="M48 140c0-1.103.898-1.997 1.992-1.997H76.01c1.1 0 1.99.887 1.99 1.998v4.005c0 1.104-.897 1.998-1.99 1.998H49.99c-1.1 0-1.992-.887-1.992-1.998V140z"/><defs><path id="s" d="M55 110.008v19.99c0 1.66 1.346 3.005 3.006 3.005h9.988c1.66 0 3.006-1.345 3.006-3.005v-19.99c0-1.66-1.346-3.005-3.006-3.005h-9.988c-1.66 0-3.006 1.345-3.006 3.005zm2 0c0-.556.45-1.005 1.006-1.005h9.988c.556 0 1.006.45 1.006 1.005v19.99c0 .556-.45 1.005-1.006 1.005h-9.988c-.556 0-1.006-.45-1.006-1.005v-19.99zM35 87.002h56v66H35v-66z"/></defs><clipPath id="t"><use xlink:href="#s" overflow="visible"/></clipPath><g clip-path="url(#t)"><defs><path id="u" d="M56 110.008c0-1.107.897-2.005 2.006-2.005h9.988c1.108 0 2.006.897 2.006 2.005v19.99c0 1.107-.897 2.005-2.006 2.005h-9.988c-1.108 0-2.006-.897-2.006-2.005v-19.99z"/></defs><clipPath id="v"><use xlink:href="#u" overflow="visible"/></clipPath><path clip-path="url(#v)" fill-rule="evenodd" clip-rule="evenodd" fill="#E2EDF4" d="M56 110.008c0-1.107.897-2.005 2.006-2.005h9.988c1.108 0 2.006.897 2.006 2.005v19.99c0 1.107-.897 2.005-2.006 2.005h-9.988c-1.108 0-2.006-.897-2.006-2.005v-19.99z"/></g><defs><path id="w" d="M56 110.008c0-1.107.897-2.005 2.006-2.005h9.988c1.108 0 2.006.897 2.006 2.005v19.99c0 1.107-.897 2.005-2.006 2.005h-9.988c-1.108 0-2.006-.897-2.006-2.005v-19.99z"/></defs><clipPath id="x"><use xlink:href="#w" overflow="visible"/></clipPath><path clip-path="url(#x)" fill="none" stroke="#3C4B5D" stroke-width="4" stroke-miterlimit="10" d="M56 110.008c0-1.107.897-2.005 2.006-2.005h9.988c1.108 0 2.006.897 2.006 2.005v19.99c0 1.107-.897 2.005-2.006 2.005h-9.988c-1.108 0-2.006-.897-2.006-2.005v-19.99z"/><defs><path id="y" d="M152 53.993c0-1.1.89-1.99 2.006-1.99h85.988c1.107 0 2.006.89 2.006 1.99V72.01c0 1.1-.89 1.99-2.006 1.99h-85.988c-1.108 0-2.006-.89-2.006-1.99V53.993z"/></defs><clipPath id="z"><use xlink:href="#y" overflow="visible"/></clipPath><path clip-path="url(#z)" fill="none" stroke="#3C4B5D" stroke-width="4" stroke-miterlimit="10" d="M152 53.993c0-1.1.89-1.99 2.006-1.99h85.988c1.107 0 2.006.89 2.006 1.99V72.01c0 1.1-.89 1.99-2.006 1.99h-85.988c-1.108 0-2.006-.89-2.006-1.99V53.993z"/><defs><path id="A" d="M152 79.993c0-1.1.89-1.99 2.006-1.99h85.988c1.107 0 2.006.89 2.006 1.99V98.01c0 1.1-.89 1.992-2.006 1.992h-85.988c-1.108 0-2.006-.89-2.006-1.99V79.99z"/></defs><clipPath id="B"><use xlink:href="#A" overflow="visible"/></clipPath><path clip-path="url(#B)" fill="none" stroke="#3C4B5D" stroke-width="4" stroke-miterlimit="10" d="M152 79.993c0-1.1.89-1.99 2.006-1.99h85.988c1.107 0 2.006.89 2.006 1.99V98.01c0 1.1-.89 1.992-2.006 1.992h-85.988c-1.108 0-2.006-.89-2.006-1.99V79.99z"/><defs><path id="C" d="M152 106.003c0-1.104.89-2 2.006-2h85.988c1.107 0 2.006.89 2.006 2v32c0 1.104-.89 2-2.006 2h-85.988c-1.108 0-2.006-.89-2.006-2v-32z"/></defs><clipPath id="D"><use xlink:href="#C" overflow="visible"/></clipPath><path clip-path="url(#D)" fill="none" stroke="#3C4B5D" stroke-width="4" stroke-miterlimit="10" d="M152 106.003c0-1.104.89-2 2.006-2h85.988c1.107 0 2.006.89 2.006 2v32c0 1.104-.89 2-2.006 2h-85.988c-1.108 0-2.006-.89-2.006-2v-32z"/><defs><path id="E" d="M162 60c0-.552.444-.998 1-.998.553 0 1 .453 1 .997v6.005c0 .55-.444.997-1 .997-.553 0-1-.453-1-.997V60z"/></defs><clipPath id="F"><use xlink:href="#E" overflow="visible"/></clipPath><path clip-path="url(#F)" fill="#3C4B5D" d="M157 54h12v18h-12z"/><defs><path id="G" d="M168 60c0-.552.444-.998 1-.998.553 0 1 .453 1 .997v6.005c0 .55-.444.997-1 .997-.553 0-1-.453-1-.997V60z"/></defs><clipPath id="H"><use xlink:href="#G" overflow="visible"/></clipPath><path clip-path="url(#H)" fill="#3C4B5D" d="M163 54h12v18h-12z"/><defs><path id="I" d="M174 60c0-.552.444-.998 1-.998.553 0 1 .453 1 .997v6.005c0 .55-.444.997-1 .997-.553 0-1-.453-1-.997V60z"/></defs><clipPath id="J"><use xlink:href="#I" overflow="visible"/></clipPath><path clip-path="url(#J)" fill="#3C4B5D" d="M169 54h12v18h-12z"/><g><defs><path id="K" d="M162 86c0-.552.444-.998 1-.998.553 0 1 .453 1 .997v6.005c0 .55-.444.997-1 .997-.553 0-1-.453-1-.997V86z"/></defs><clipPath id="L"><use xlink:href="#K" overflow="visible"/></clipPath><path clip-path="url(#L)" fill="#3C4B5D" d="M157 80h12v18h-12z"/></g><g><defs><path id="M" d="M168 86c0-.552.444-.998 1-.998.553 0 1 .453 1 .997v6.005c0 .55-.444.997-1 .997-.553 0-1-.453-1-.997V86z"/></defs><clipPath id="N"><use xlink:href="#M" overflow="visible"/></clipPath><path clip-path="url(#N)" fill="#3C4B5D" d="M163 80h12v18h-12z"/></g><g><defs><path id="O" d="M174 86c0-.552.444-.998 1-.998.553 0 1 .453 1 .997v6.005c0 .55-.444.997-1 .997-.553 0-1-.453-1-.997V86z"/></defs><clipPath id="P"><use xlink:href="#O" overflow="visible"/></clipPath><path clip-path="url(#P)" fill="#3C4B5D" d="M169 80h12v18h-12z"/></g><g><defs><path id="Q" d="M162 117.998c0-.55.444-.995 1-.995.553 0 1 .456 1 .995v8.01c0 .55-.444.995-1 .995-.553 0-1-.456-1-.995v-8.01z"/></defs><clipPath id="R"><use xlink:href="#Q" overflow="visible"/></clipPath><path clip-path="url(#R)" fill="#3C4B5D" d="M157 112.003h12v20h-12z"/></g><g><defs><path id="S" d="M168 117.998c0-.55.444-.995 1-.995.553 0 1 .456 1 .995v8.01c0 .55-.444.995-1 .995-.553 0-1-.456-1-.995v-8.01z"/></defs><clipPath id="T"><use xlink:href="#S" overflow="visible"/></clipPath><path clip-path="url(#T)" fill="#3C4B5D" d="M163 112.003h12v20h-12z"/></g><g><defs><path id="U" d="M174 117.998c0-.55.444-.995 1-.995.553 0 1 .456 1 .995v8.01c0 .55-.444.995-1 .995-.553 0-1-.456-1-.995v-8.01z"/></defs><clipPath id="V"><use xlink:href="#U" overflow="visible"/></clipPath><path clip-path="url(#V)" fill="#3C4B5D" d="M169 112.003h12v20h-12z"/></g><g><defs><path id="W" d="M160 140.003c0-.553.444-1 1-1 .553 0 1 .443 1 1v3c0 .553-.444 1-1 1-.553 0-1-.443-1-1v-3z"/></defs><clipPath id="X"><use xlink:href="#W" overflow="visible"/></clipPath><path clip-path="url(#X)" fill="#3C4B5D" d="M155 134.003h12v15h-12z"/></g><g><defs><path id="Y" d="M232 140.003c0-.553.444-1 1-1 .553 0 1 .443 1 1v3c0 .553-.444 1-1 1-.553 0-1-.443-1-1v-3z"/></defs><clipPath id="Z"><use xlink:href="#Y" overflow="visible"/></clipPath><path clip-path="url(#Z)" fill="#3C4B5D" d="M227 134.003h12v15h-12z"/></g><g><defs><path id="aa" d="M160 99c0-.552.444-.998 1-.998.553 0 1 .453 1 .997v6.006c0 .55-.444.997-1 .997-.553 0-1-.453-1-.997V99z"/></defs><clipPath id="ab"><use xlink:href="#aa" overflow="visible"/></clipPath><path clip-path="url(#ab)" fill="#3C4B5D" d="M155 93.002h12v18h-12z"/></g><g><defs><path id="ac" d="M232 99c0-.552.444-.998 1-.998.553 0 1 .453 1 .997v6.006c0 .55-.444.997-1 .997-.553 0-1-.453-1-.997V99z"/></defs><clipPath id="ad"><use xlink:href="#ac" overflow="visible"/></clipPath><path clip-path="url(#ad)" fill="#3C4B5D" d="M227 93.002h12v18h-12z"/></g><g><defs><path id="ae" d="M160 73c0-.552.444-.998 1-.998.553 0 1 .453 1 .997v6.005c0 .55-.444.997-1 .997-.553 0-1-.453-1-.997V73z"/></defs><clipPath id="af"><use xlink:href="#ae" overflow="visible"/></clipPath><path clip-path="url(#af)" fill="#3C4B5D" d="M155 67h12v18h-12z"/></g><g><defs><path id="ag" d="M232 73c0-.552.444-.998 1-.998.553 0 1 .453 1 .997v6.005c0 .55-.444.997-1 .997-.553 0-1-.453-1-.997V73z"/></defs><clipPath id="ah"><use xlink:href="#ag" overflow="visible"/></clipPath><path clip-path="url(#ah)" fill="#3C4B5D" d="M227 67h12v18h-12z"/></g><circle fill="none" stroke="#3C4B5D" stroke-width="2" stroke-miterlimit="10" cx="225.5" cy="63.501" r="3.5"/><circle fill="none" stroke="#3C4B5D" stroke-width="2" stroke-miterlimit="10" cx="225.5" cy="89.502" r="3.5"/><circle fill="none" stroke="#3C4B5D" stroke-width="2" stroke-miterlimit="10" cx="226" cy="122.003" r="4"/><circle fill="none" stroke="#3C4B5D" stroke-width="2" stroke-miterlimit="10" cx="226" cy="122.003" r="7"/><g><defs><circle id="ai" cx="200" cy="119.003" r="2"/></defs><clipPath id="aj"><use xlink:href="#ai" overflow="visible"/></clipPath><path clip-path="url(#aj)" fill="#3C4B5D" d="M193 112.003h14v14h-14z"/></g><g><defs><circle id="ak" cx="206" cy="119.003" r="2"/></defs><clipPath id="al"><use xlink:href="#ak" overflow="visible"/></clipPath><path clip-path="url(#al)" fill="#3C4B5D" d="M199 112.003h14v14h-14z"/></g><g><defs><circle id="am" cx="212" cy="119.003" r="2"/></defs><clipPath id="an"><use xlink:href="#am" overflow="visible"/></clipPath><path clip-path="url(#an)" fill="#3C4B5D" d="M205 112.003h14v14h-14z"/></g><g><defs><circle id="ao" cx="200" cy="125.003" r="2"/></defs><clipPath id="ap"><use xlink:href="#ao" overflow="visible"/></clipPath><path clip-path="url(#ap)" fill="#3C4B5D" d="M193 118.003h14v14h-14z"/></g><g><defs><circle id="aq" cx="206" cy="125.003" r="2"/></defs><clipPath id="ar"><use xlink:href="#aq" overflow="visible"/></clipPath><path clip-path="url(#ar)" fill="#3C4B5D" d="M199 118.003h14v14h-14z"/></g><g><defs><circle id="as" cx="212" cy="125.003" r="2"/></defs><clipPath id="at"><use xlink:href="#as" overflow="visible"/></clipPath><path clip-path="url(#at)" fill="#3C4B5D" d="M205 118.003h14v14h-14z"/></g><g><defs><path id="au" d="M265 130.996v6.014c0 2.76 2.243 4.993 5.008 4.993h33.984c2.767 0 5.008-2.233 5.008-4.993v-6.014c0-2.76-2.243-4.993-5.008-4.993h-33.984c-2.767 0-5.008 2.233-5.008 4.993zm2 0c0-1.653 1.344-2.993 3.008-2.993h33.984c1.662 0 3.008 1.34 3.008 2.993v6.014c0 1.653-1.344 2.993-3.008 2.993h-33.984c-1.662 0-3.008-1.34-3.008-2.993v-6.014zm-22-24.993h84v56h-84v-56z"/></defs><clipPath id="av"><use xlink:href="#au" overflow="visible"/></clipPath><g clip-path="url(#av)"><defs><path id="aw" d="M266 130.996c0-2.205 1.79-3.993 4.008-3.993h33.984c2.213 0 4.008 1.787 4.008 3.993v6.014c0 2.205-1.79 3.993-4.008 3.993h-33.984c-2.213 0-4.008-1.787-4.008-3.993v-6.014z"/></defs><clipPath id="ax"><use xlink:href="#aw" overflow="visible"/></clipPath><path clip-path="url(#ax)" fill-rule="evenodd" clip-rule="evenodd" fill="#E2EDF4" d="M266 130.996c0-2.205 1.79-3.993 4.008-3.993h33.984c2.213 0 4.008 1.787 4.008 3.993v6.014c0 2.205-1.79 3.993-4.008 3.993h-33.984c-2.213 0-4.008-1.787-4.008-3.993v-6.014z"/></g></g><g><defs><path id="ay" d="M266 130.996c0-2.205 1.79-3.993 4.008-3.993h33.984c2.213 0 4.008 1.787 4.008 3.993v6.014c0 2.205-1.79 3.993-4.008 3.993h-33.984c-2.213 0-4.008-1.787-4.008-3.993v-6.014z"/></defs><clipPath id="az"><use xlink:href="#ay" overflow="visible"/></clipPath><path clip-path="url(#az)" fill="none" stroke="#3C4B5D" stroke-width="4" stroke-miterlimit="10" d="M266 130.996c0-2.205 1.79-3.993 4.008-3.993h33.984c2.213 0 4.008 1.787 4.008 3.993v6.014c0 2.205-1.79 3.993-4.008 3.993h-33.984c-2.213 0-4.008-1.787-4.008-3.993v-6.014z"/></g><g><defs><path id="aA" d="M278 113.01c0-.556.444-1.007 1-1.007.553 0 1 .45 1 1.007v11.986c0 .556-.444 1.007-1 1.007-.553 0-1-.45-1-1.007V113.01z"/></defs><clipPath id="aB"><use xlink:href="#aA" overflow="visible"/></clipPath><path clip-path="url(#aB)" fill="#3C4B5D" d="M273 107.003h12v24h-12z"/></g><g><defs><path id="aC" d="M272 131.994c0-.548.444-.99 1-.99.553 0 1 .45 1 .99v4.018c0 .548-.444.99-1 .99-.553 0-1-.45-1-.99v-4.018z"/></defs><clipPath id="aD"><use xlink:href="#aC" overflow="visible"/></clipPath><path clip-path="url(#aD)" fill="#3C4B5D" d="M267 126.003h12v16h-12z"/></g><circle fill="none" stroke="#3C4B5D" stroke-width="2" stroke-miterlimit="10" cx="299" cy="134.003" r="2"/><g><defs><path id="aE" d="M276 131.994c0-.548.444-.99 1-.99.553 0 1 .45 1 .99v4.018c0 .548-.444.99-1 .99-.553 0-1-.45-1-.99v-4.018z"/></defs><clipPath id="aF"><use xlink:href="#aE" overflow="visible"/></clipPath><path clip-path="url(#aF)" fill="#3C4B5D" d="M271 126.003h12v16h-12z"/></g><g><defs><path id="aG" d="M280 131.994c0-.548.444-.99 1-.99.553 0 1 .45 1 .99v4.018c0 .548-.444.99-1 .99-.553 0-1-.45-1-.99v-4.018z"/></defs><clipPath id="aH"><use xlink:href="#aG" overflow="visible"/></clipPath><path clip-path="url(#aH)" fill="#3C4B5D" d="M275 126.003h12v16h-12z"/></g><g><defs><path id="aI" d="M294 113.01c0-.556.444-1.007 1-1.007.553 0 1 .45 1 1.007v11.986c0 .556-.444 1.007-1 1.007-.553 0-1-.45-1-1.007V113.01z"/></defs><clipPath id="aJ"><use xlink:href="#aI" overflow="visible"/></clipPath><path clip-path="url(#aJ)" fill="#3C4B5D" d="M289 107.003h12v24h-12z"/></g><g><defs><path id="aK" d="M274 140.003c0-.553.444-1 1-1 .553 0 1 .443 1 1v3c0 .553-.444 1-1 1-.553 0-1-.443-1-1v-3z"/></defs><clipPath id="aL"><use xlink:href="#aK" overflow="visible"/></clipPath><path clip-path="url(#aL)" fill="#3C4B5D" d="M269 134.003h12v15h-12z"/></g><g><defs><path id="aM" d="M298 140.003c0-.553.444-1 1-1 .553 0 1 .443 1 1v3c0 .553-.444 1-1 1-.553 0-1-.443-1-1v-3z"/></defs><clipPath id="aN"><use xlink:href="#aM" overflow="visible"/></clipPath><path clip-path="url(#aN)" fill="#3C4B5D" d="M293 134.003h12v15h-12z"/></g></svg>