<svg xmlns="http://www.w3.org/2000/svg" xmlns:xlink="http://www.w3.org/1999/xlink" width="320" height="160" viewBox="0 0 320 160"><defs><path id="a" d="M205 144.002h112.998c1.105 0 2.002.888 2.002 2v6c0 1.104-.89 2-2.002 2H205v-10zm-37 0H2.002c-1.112 0-2.002.896-2.002 2v6c0 1.112.896 2 2.002 2H168v-10z"/></defs><clipPath id="b"><use xlink:href="#a" overflow="visible"/></clipPath><path clip-path="url(#b)" fill="none" stroke="#3C4B5D" stroke-width="4" stroke-miterlimit="10" d="M205 144.002h112.998c1.105 0 2.002.888 2.002 2v6c0 1.104-.89 2-2.002 2H205v-10zm-37 0H2.002c-1.112 0-2.002.896-2.002 2v6c0 1.112.896 2 2.002 2H168v-10z"/><defs><path id="c" d="M21 152.002c.552 0 1 .453 1 .997v6.005c0 .55-.444.997-1 .997-.552 0-1-.453-1-.997V153c0-.552.444-.998 1-.998z"/></defs><clipPath id="d"><use xlink:href="#c" overflow="visible"/></clipPath><path clip-path="url(#d)" fill="none" stroke="#3C4B5D" stroke-width="4" stroke-miterlimit="10" d="M21 152.002c.552 0 1 .453 1 .997v6.005c0 .55-.444.997-1 .997-.552 0-1-.453-1-.997V153c0-.552.444-.998 1-.998z"/><defs><path id="e" d="M31 152.002c.552 0 1 .453 1 .997v6.005c0 .55-.444.997-1 .997-.552 0-1-.453-1-.997V153c0-.552.444-.998 1-.998z"/></defs><clipPath id="f"><use xlink:href="#e" overflow="visible"/></clipPath><path clip-path="url(#f)" fill="none" stroke="#3C4B5D" stroke-width="4" stroke-miterlimit="10" d="M31 152.002c.552 0 1 .453 1 .997v6.005c0 .55-.444.997-1 .997-.552 0-1-.453-1-.997V153c0-.552.444-.998 1-.998z"/><defs><path id="g" d="M289 152.002c.553 0 1 .453 1 .997v6.005c0 .55-.444.997-1 .997-.553 0-1-.453-1-.997V153c0-.552.444-.998 1-.998z"/></defs><clipPath id="h"><use xlink:href="#g" overflow="visible"/></clipPath><path clip-path="url(#h)" fill="none" stroke="#3C4B5D" stroke-width="4" stroke-miterlimit="10" d="M289 152.002c.553 0 1 .453 1 .997v6.005c0 .55-.444.997-1 .997-.553 0-1-.453-1-.997V153c0-.552.443-.998 1-.998z"/><defs><path id="i" d="M299 152.002c.553 0 1 .453 1 .997v6.005c0 .55-.444.997-1 .997-.553 0-1-.453-1-.997V153c0-.552.444-.998 1-.998z"/></defs><clipPath id="j"><use xlink:href="#i" overflow="visible"/></clipPath><path clip-path="url(#j)" fill="none" stroke="#3C4B5D" stroke-width="4" stroke-miterlimit="10" d="M299 152.002c.553 0 1 .453 1 .997v6.005c0 .55-.444.997-1 .997-.553 0-1-.453-1-.997V153c0-.552.443-.998 1-.998z"/><defs><path id="k" d="M92.007 126.002H29.993c-1.65 0-2.993 1.344-2.993 2.997v15.005c0 1.657 1.34 2.997 2.993 2.997h62.014c1.65 0 2.993-1.344 2.993-2.997V129c0-1.658-1.34-2.998-2.993-2.998zm0 2c.55 0 .993.444.993.997v15.005c0 .55-.447.997-.993.997H29.993c-.55 0-.993-.444-.993-.997V129c0-.55.447-.998.993-.998h62.014zm22.993-22v61H7v-61h108z"/></defs><clipPath id="l"><use xlink:href="#k" overflow="visible"/></clipPath><g clip-path="url(#l)"><defs><path id="m" d="M92.007 127.002c1.1 0 1.993.89 1.993 1.997v15.005c0 1.103-.896 1.997-1.993 1.997H29.993c-1.1 0-1.993-.89-1.993-1.997V129c0-1.104.896-1.998 1.993-1.998h62.014z"/></defs><clipPath id="n"><use xlink:href="#m" overflow="visible"/></clipPath><path clip-path="url(#n)" fill-rule="evenodd" clip-rule="evenodd" fill="#E2EDF4" d="M92.007 127.002c1.1 0 1.993.89 1.993 1.997v15.005c0 1.103-.896 1.997-1.993 1.997H29.993c-1.1 0-1.993-.89-1.993-1.997V129c0-1.104.896-1.998 1.993-1.998h62.014z"/></g><defs><path id="o" d="M92.007 127.002c1.1 0 1.993.89 1.993 1.997v15.005c0 1.103-.896 1.997-1.993 1.997H29.993c-1.1 0-1.993-.89-1.993-1.997V129c0-1.104.896-1.998 1.993-1.998h62.014z"/></defs><clipPath id="p"><use xlink:href="#o" overflow="visible"/></clipPath><path clip-path="url(#p)" fill="none" stroke="#3C4B5D" stroke-width="4" stroke-miterlimit="10" d="M92.007 127.002c1.1 0 1.993.89 1.993 1.997v15.005c0 1.103-.896 1.997-1.993 1.997H29.993c-1.1 0-1.993-.89-1.993-1.997V129c0-1.104.896-1.998 1.993-1.998h62.014z"/><defs><path id="q" d="M87.5 132.502c.552 0 1 .446 1 .997v7.005c0 .55-.444.997-1 .997-.552 0-1-.446-1-.997V133.5c0-.552.444-.998 1-.998z"/></defs><clipPath id="r"><use xlink:href="#q" overflow="visible"/></clipPath><path clip-path="url(#r)" fill="none" stroke="#3C4B5D" stroke-width="4" stroke-miterlimit="10" d="M87.5 132.502c.552 0 1 .446 1 .997v7.005c0 .55-.444.997-1 .997-.552 0-1-.446-1-.997V133.5c0-.552.444-.998 1-.998z"/><defs><path id="s" d="M35.5 132.502c.552 0 1 .446 1 .997v7.005c0 .55-.444.997-1 .997-.552 0-1-.446-1-.997V133.5c0-.552.444-.998 1-.998z"/></defs><clipPath id="t"><use xlink:href="#s" overflow="visible"/></clipPath><path clip-path="url(#t)" fill="none" stroke="#3C4B5D" stroke-width="4" stroke-miterlimit="10" d="M35.5 132.502c.552 0 1 .446 1 .997v7.005c0 .55-.444.997-1 .997-.552 0-1-.446-1-.997V133.5c0-.552.444-.998 1-.998z"/><defs><path id="u" d="M85.124 115.002H38.008c-2.208 0-4.008 1.788-4.008 3.993v6.014c0 2.205 1.794 3.992 4.008 3.992h47.116c-2.46-1.364-4.124-3.988-4.124-7s1.665-5.636 4.124-7z"/></defs><clipPath id="v"><use xlink:href="#u" overflow="visible"/></clipPath><path clip-path="url(#v)" fill="none" stroke="#3C4B5D" stroke-width="4" stroke-miterlimit="10" d="M85.124 115.002H38.008c-2.208 0-4.008 1.788-4.008 3.993v6.014c0 2.205 1.794 3.992 4.008 3.992h47.116c-2.46-1.364-4.124-3.988-4.124-7s1.665-5.636 4.124-7z"/><defs><path id="w" d="M62.5 120.002c0 .553-.45 1-.996 1H40.996c-.55 0-.996-.444-.996-1 0-.553.45-1 .996-1h20.51c.548 0 .994.444.994 1z"/></defs><clipPath id="x"><use xlink:href="#w" overflow="visible"/></clipPath><path clip-path="url(#x)" fill="none" stroke="#3C4B5D" stroke-width="4" stroke-miterlimit="10" d="M62.5 120.002c0 .553-.45 1-.996 1H40.996c-.55 0-.996-.444-.996-1 0-.553.45-1 .996-1h20.51c.548 0 .994.444.994 1z"/><defs><path id="y" d="M73 120.002c0 .553-.453 1-.997 1h-6.006c-.55 0-.997-.444-.997-1 0-.553.453-1 .997-1h6.006c.55 0 .997.444.997 1z"/></defs><clipPath id="z"><use xlink:href="#y" overflow="visible"/></clipPath><path clip-path="url(#z)" fill="none" stroke="#3C4B5D" stroke-width="4" stroke-miterlimit="10" d="M73 120.002c0 .553-.453 1-.997 1h-6.006c-.55 0-.997-.444-.997-1 0-.553.453-1 .997-1h6.006c.55 0 .997.444.997 1z"/><defs><path id="A" d="M75 124.002c0 .553-.455 1-.996 1H50.996c-.55 0-.996-.444-.996-1 0-.553.455-1 .996-1h23.01c.548 0 .994.444.994 1z"/></defs><clipPath id="B"><use xlink:href="#A" overflow="visible"/></clipPath><path clip-path="url(#B)" fill="none" stroke="#3C4B5D" stroke-width="4" stroke-miterlimit="10" d="M75 124.002c0 .553-.455 1-.996 1H50.996c-.55 0-.996-.444-.996-1 0-.553.455-1 .996-1h23.01c.548 0 .994.444.994 1z"/><defs><path id="C" d="M48 124.002c0 .553-.45 1-.99 1h-4.02c-.547 0-.99-.444-.99-1 0-.553.45-1 .99-1h4.02c.547 0 .99.444.99 1z"/></defs><clipPath id="D"><use xlink:href="#C" overflow="visible"/></clipPath><path clip-path="url(#D)" fill="none" stroke="#3C4B5D" stroke-width="4" stroke-miterlimit="10" d="M48 124.002c0 .553-.45 1-.99 1h-4.02c-.547 0-.99-.444-.99-1 0-.553.45-1 .99-1h4.02c.547 0 .99.444.99 1z"/><defs><path id="E" d="M74.998 106.002c1.106 0 2.002.9 2.002 1.992v7.016c0 1.1-.896 1.992-2.002 1.992H42.002c-1.106 0-2.002-.9-2.002-1.992v-7.016c0-1.1.896-1.992 2.002-1.992h32.996z"/></defs><clipPath id="F"><use xlink:href="#E" overflow="visible"/></clipPath><path clip-path="url(#F)" fill="none" stroke="#3C4B5D" stroke-width="4" stroke-miterlimit="10" d="M74.998 106.002c1.106 0 2.002.9 2.002 1.992v7.016c0 1.1-.896 1.992-2.002 1.992H42.002c-1.106 0-2.002-.9-2.002-1.992v-7.016c0-1.1.896-1.992 2.002-1.992h32.996z"/><defs><path id="G" d="M71 109.002c.552 0 1 .443 1 1v3c0 .553-.444 1-1 1-.552 0-1-.443-1-1v-3c0-.553.444-1 1-1z"/></defs><clipPath id="H"><use xlink:href="#G" overflow="visible"/></clipPath><path clip-path="url(#H)" fill="none" stroke="#3C4B5D" stroke-width="4" stroke-miterlimit="10" d="M71 109.002c.552 0 1 .443 1 1v3c0 .553-.444 1-1 1-.552 0-1-.443-1-1v-3c0-.553.444-1 1-1z"/><defs><path id="I" d="M46 109.002c.552 0 1 .443 1 1v3c0 .553-.444 1-1 1-.552 0-1-.443-1-1v-3c0-.553.444-1 1-1z"/></defs><clipPath id="J"><use xlink:href="#I" overflow="visible"/></clipPath><path clip-path="url(#J)" fill="none" stroke="#3C4B5D" stroke-width="4" stroke-miterlimit="10" d="M46 109.002c.552 0 1 .443 1 1v3c0 .553-.444 1-1 1-.552 0-1-.443-1-1v-3c0-.553.444-1 1-1z"/><defs><path id="K" d="M215 135.528h35.007c2.756 0 4.993-2.24 4.993-5.002V45.002c0-2.758-2.235-5-4.993-5H121.993C119.238 40 117 42.24 117 45v85.524c0 2.758 2.235 5.002 4.993 5.002H158v-16.533c0-4.414 3.587-7.993 8-7.993h41c4.418 0 8 3.588 8 7.993v16.533z"/></defs><clipPath id="L"><use xlink:href="#K" overflow="visible"/></clipPath><path clip-path="url(#L)" fill="none" stroke="#3C4B5D" stroke-width="4" stroke-miterlimit="10" d="M215 135.528h35.007c2.756 0 4.993-2.24 4.993-5V45c0-2.758-2.235-5-4.993-5H121.993C119.238 40 117 42.24 117 45v85.525c0 2.757 2.235 5 4.993 5H158v-16.532c0-4.414 3.587-7.993 8-7.993h41c4.418 0 8 3.588 8 7.993v16.533z"/><defs><path id="M" d="M215 118.002v1h1v-.007c0-4.96-4.033-8.993-9-8.993h-41c-4.967 0-9 4.028-9 8.993v.007h1v-1h-28.993c-1.66 0-3.007-1.343-3.007-2.995v-63.01c0-1.654 1.347-2.996 3.007-2.996h113.986c1.66 0 3.007 1.344 3.007 2.996v63.01c0 1.654-1.347 2.996-3.007 2.996H215zm0 2h27.993c2.764 0 5.007-2.236 5.007-4.995v-63.01c0-2.76-2.243-4.996-5.007-4.996H129.007c-2.764 0-5.007 2.237-5.007 4.996v63.01c0 2.76 2.243 4.996 5.007 4.996H159v-1.007c0-3.86 3.138-6.993 7-6.993h41c3.862 0 7 3.137 7 6.993v1.007h1zm-111-93h164v113H104v-113z"/></defs><clipPath id="N"><use xlink:href="#M" overflow="visible"/></clipPath><g clip-path="url(#N)"><defs><path id="O" d="M215 119.002h27.993c2.212 0 4.007-1.79 4.007-3.995v-63.01c0-2.206-1.794-3.996-4.007-3.996H129.007c-2.212 0-4.007 1.79-4.007 3.996v63.01c0 2.205 1.794 3.996 4.007 3.996H158v-.007c0-4.414 3.587-7.993 8-7.993h41c4.418 0 8 3.588 8 7.993v.007z"/></defs><clipPath id="P"><use xlink:href="#O" overflow="visible"/></clipPath><path clip-path="url(#P)" fill-rule="evenodd" clip-rule="evenodd" fill="#E2EDF4" d="M215 119.002h27.993c2.212 0 4.007-1.79 4.007-3.995v-63.01c0-2.206-1.794-3.996-4.007-3.996H129.007c-2.212 0-4.007 1.79-4.007 3.996v63.01c0 2.205 1.794 3.996 4.007 3.996H158v-.007c0-4.414 3.587-7.993 8-7.993h41c4.418 0 8 3.588 8 7.993v.007z"/></g><g><defs><path id="Q" d="M215 119.002h27.993c2.212 0 4.007-1.79 4.007-3.995v-63.01c0-2.206-1.794-3.996-4.007-3.996H129.007c-2.212 0-4.007 1.79-4.007 3.996v63.01c0 2.205 1.794 3.996 4.007 3.996H158v-.007c0-4.414 3.587-7.993 8-7.993h41c4.418 0 8 3.588 8 7.993v.007z"/></defs><clipPath id="R"><use xlink:href="#Q" overflow="visible"/></clipPath><path clip-path="url(#R)" fill="none" stroke="#3C4B5D" stroke-width="4" stroke-miterlimit="10" d="M215 119.002h27.993c2.212 0 4.007-1.79 4.007-3.995v-63.01c0-2.206-1.794-3.996-4.007-3.996H129.007c-2.21 0-4.007 1.79-4.007 3.996v63.01c0 2.205 1.794 3.996 4.007 3.996H158v-.007c0-4.414 3.587-7.993 8-7.993h41c4.418 0 8 3.588 8 7.993v.007z"/></g><g><defs><path id="S" d="M276 117.002h22l-2.2 25.014c-.192 2.2-2.143 3.986-4.34 3.986h-8.77c-2.206 0-4.16-1.792-4.363-3.986L276 117.002z"/></defs><clipPath id="T"><use xlink:href="#S" overflow="visible"/></clipPath><path clip-path="url(#T)" fill="none" stroke="#3C4B5D" stroke-width="4" stroke-miterlimit="10" d="M276 117.002h22l-2.2 25.014c-.192 2.2-2.143 3.986-4.34 3.986h-8.77c-2.206 0-4.16-1.792-4.363-3.986L276 117.002z"/></g><g><defs><path id="U" d="M275 115c0-1.104.897-1.998 2.005-1.998h19.99c1.107 0 2.005.898 2.005 1.998v2.004c0 1.104-.897 1.998-2.005 1.998h-19.99c-1.107 0-2.005-.898-2.005-1.998V115z"/></defs><clipPath id="V"><use xlink:href="#U" overflow="visible"/></clipPath><path clip-path="url(#V)" fill="none" stroke="#3C4B5D" stroke-width="4" stroke-miterlimit="10" d="M275 115c0-1.104.897-1.998 2.005-1.998h19.99c1.107 0 2.005.898 2.005 1.998v2.004c0 1.104-.897 1.998-2.005 1.998h-19.99c-1.107 0-2.005-.898-2.005-1.998V115z"/></g><g><defs><path id="W" d="M277 111c0-1.104.898-1.998 1.99-1.998h16.02c1.1 0 1.99.898 1.99 1.998v2.004c0 1.104-.898 1.998-1.99 1.998h-16.02c-1.1 0-1.99-.898-1.99-1.998V111z"/></defs><clipPath id="X"><use xlink:href="#W" overflow="visible"/></clipPath><path clip-path="url(#X)" fill="none" stroke="#3C4B5D" stroke-width="4" stroke-miterlimit="10" d="M277 111c0-1.104.898-1.998 1.99-1.998h16.02c1.1 0 1.99.898 1.99 1.998v2.004c0 1.104-.898 1.998-1.99 1.998h-16.02c-1.1 0-1.99-.898-1.99-1.998V111z"/></g><g><defs><path id="Y" d="M298.438 123.463l.065-.792-.757-.242c-.878-.28-1.8-.426-2.738-.426h-16.016c-.927 0-1.835.14-2.702.414l-.766.24.07.8 1.356 15.564.07.8.797.105c.387.05.78.076 1.174.076h16.017c.437 0 .87-.03 1.296-.092l.788-.114.066-.793 1.282-15.537zm-1.994-.165l-1.28 15.54.996.08-.143-.988c-.332.048-.67.072-1.01.072H278.99c-.307 0-.612-.02-.914-.06l-.13.99.997-.085-1.357-15.565-.997.087.3.953c.674-.212 1.38-.32 2.102-.32h16.016c.73 0 1.446.11 2.13.33l.304-.952-.998-.082zm-40.92-21.296h62.98v58h-62.98v-58z"/></defs><clipPath id="Z"><use xlink:href="#Y" overflow="visible"/></clipPath><g clip-path="url(#Z)"><defs><path id="aa" d="M297.44 123.38l-1.28 15.54c-.376.054-.76.082-1.152.082h-16.016c-.354 0-.702-.023-1.045-.068l-1.357-15.564c.76-.238 1.565-.367 2.402-.367h16.016c.848 0 1.666.132 2.433.378z"/></defs><clipPath id="ab"><use xlink:href="#aa" overflow="visible"/></clipPath><path clip-path="url(#ab)" fill-rule="evenodd" clip-rule="evenodd" fill="#E2EDF4" d="M297.44 123.38l-1.28 15.54c-.376.054-.76.082-1.152.082h-16.016c-.354 0-.702-.023-1.045-.068l-1.357-15.564c.76-.238 1.565-.367 2.402-.367h16.016c.848 0 1.666.132 2.433.378z"/></g></g><g><defs><path id="ac" d="M297.44 123.38l-1.28 15.54c-.376.054-.76.082-1.152.082h-16.016c-.354 0-.702-.023-1.045-.068l-1.357-15.564c.76-.238 1.565-.367 2.402-.367h16.016c.848 0 1.666.132 2.433.378z"/></defs><clipPath id="ad"><use xlink:href="#ac" overflow="visible"/></clipPath><path clip-path="url(#ad)" fill="none" stroke="#3C4B5D" stroke-width="4" stroke-miterlimit="10" d="M297.44 123.38l-1.28 15.54c-.376.054-.76.082-1.152.082h-16.016c-.354 0-.702-.023-1.045-.068l-1.357-15.564c.76-.238 1.565-.367 2.402-.367h16.016c.848 0 1.666.132 2.433.378z"/></g><g><defs><circle id="ae" cx="287" cy="131.002" r="2"/></defs><clipPath id="af"><use xlink:href="#ae" overflow="visible"/></clipPath><path clip-path="url(#af)" fill="#FFF" d="M280 124.002h14v14h-14z"/></g><circle fill="none" stroke="#3C4B5D" stroke-width="2" stroke-miterlimit="10" cx="287" cy="131.002" r="2"/><g><defs><circle id="ag" cx="163.5" cy="82.501" r="4.5"/></defs><clipPath id="ah"><use xlink:href="#ag" overflow="visible"/></clipPath><path clip-path="url(#ah)" fill="#FCE7B4" d="M154 73h19v19.002h-19z"/></g><circle fill="none" stroke="#3C4B5D" stroke-width="2" stroke-miterlimit="10" cx="163.5" cy="82.501" r="4.5"/><g><defs><path id="ai" d="M206 119.002c.553 0 1 .446 1 .993v39.014c0 .548-.444.992-1 .992-.553 0-1-.446-1-.993v-39.015c0-.55.444-.993 1-.993z"/></defs><clipPath id="aj"><use xlink:href="#ai" overflow="visible"/></clipPath><path clip-path="url(#aj)" fill="none" stroke="#3C4B5D" stroke-width="4" stroke-miterlimit="10" d="M206 119.002c.553 0 1 .446 1 .993v39.014c0 .548-.444.992-1 .992-.553 0-1-.446-1-.993v-39.015c0-.55.444-.993 1-.993z"/></g><g><defs><path id="ak" d="M167 119.002c.553 0 1 .446 1 .993v39.014c0 .548-.444.992-1 .992-.553 0-1-.446-1-.993v-39.015c0-.55.444-.993 1-.993z"/></defs><clipPath id="al"><use xlink:href="#ak" overflow="visible"/></clipPath><path clip-path="url(#al)" fill="none" stroke="#3C4B5D" stroke-width="4" stroke-miterlimit="10" d="M167 119.002c.553 0 1 .446 1 .993v39.014c0 .548-.444.992-1 .992-.553 0-1-.446-1-.993v-39.015c0-.55.444-.993 1-.993z"/></g><g><defs><path id="am" d="M180 104v5.005c0 1.653 1.34 2.997 2.992 2.997h7.016c1.647 0 2.992-1.345 2.992-2.997V104c0-1.654-1.34-2.998-2.992-2.998h-7.016c-1.647 0-2.992 1.345-2.992 2.997zm2 0c0-.55.45-.998.992-.998h7.016c.547 0 .992.447.992.997v5.005c0 .548-.45.997-.992.997h-7.016c-.547 0-.992-.447-.992-.997V104zm-22-23h53v51.002h-53v-51z"/></defs><clipPath id="an"><use xlink:href="#am" overflow="visible"/></clipPath><g clip-path="url(#an)"><defs><path id="ao" d="M181 104c0-1.104.9-1.998 1.992-1.998h7.016c1.1 0 1.992.896 1.992 1.997v5.005c0 1.103-.9 1.997-1.992 1.997h-7.016c-1.1 0-1.992-.896-1.992-1.997V104z"/></defs><clipPath id="ap"><use xlink:href="#ao" overflow="visible"/></clipPath><path clip-path="url(#ap)" fill-rule="evenodd" clip-rule="evenodd" fill="#FCE7B4" d="M181 104c0-1.104.9-1.998 1.992-1.998h7.016c1.1 0 1.992.896 1.992 1.997v5.005c0 1.103-.9 1.997-1.992 1.997h-7.016c-1.1 0-1.992-.896-1.992-1.997V104z"/></g></g><g><defs><path id="aq" d="M181 104c0-1.104.9-1.998 1.992-1.998h7.016c1.1 0 1.992.896 1.992 1.997v5.005c0 1.103-.9 1.997-1.992 1.997h-7.016c-1.1 0-1.992-.896-1.992-1.997V104z"/></defs><clipPath id="ar"><use xlink:href="#aq" overflow="visible"/></clipPath><path clip-path="url(#ar)" fill="none" stroke="#3C4B5D" stroke-width="4" stroke-miterlimit="10" d="M181 104c0-1.104.9-1.998 1.992-1.998h7.016c1.1 0 1.992.896 1.992 1.997v5.005c0 1.103-.9 1.997-1.992 1.997h-7.016c-1.1 0-1.992-.896-1.992-1.997V104z"/></g><g><defs><path id="as" d="M216 131.496v4.5c0 4.97-4.032 9.003-9 9.006-.548-.002-1-.453-1-.994v-17.012c0-.546.45-.994 1.01-.994h7.98c.556 0 1.01.452 1.01.994v4.5zm2 0v-4.5c0-1.648-1.35-2.994-3.01-2.994h-7.98c-1.66 0-3.01 1.34-3.01 2.994v17.012c0 1.645 1.346 2.99 3 2.994 6.073-.004 11-4.933 11-11.006v-4.5zm-34-27.494h54v63h-54v-63z"/></defs><clipPath id="at"><use xlink:href="#as" overflow="visible"/></clipPath><g clip-path="url(#at)"><defs><path id="au" d="M217 131.496v-4.5c0-1.092-.9-1.994-2.01-1.994h-7.98c-1.107 0-2.01.893-2.01 1.994v17.012c0 1.09.896 1.99 2.002 1.994 5.517-.004 9.998-4.48 9.998-10.006v-4.5z"/></defs><clipPath id="av"><use xlink:href="#au" overflow="visible"/></clipPath><path clip-path="url(#av)" fill-rule="evenodd" clip-rule="evenodd" fill="#FCE7B4" d="M217 131.496v-4.5c0-1.092-.9-1.994-2.01-1.994h-7.98c-1.107 0-2.01.893-2.01 1.994v17.012c0 1.09.896 1.99 2.002 1.994 5.517-.004 9.998-4.48 9.998-10.006v-4.5z"/></g></g><g><defs><path id="aw" d="M217 131.496v-4.5c0-1.092-.9-1.994-2.01-1.994h-7.98c-1.107 0-2.01.893-2.01 1.994v17.012c0 1.09.896 1.99 2.002 1.994 5.517-.004 9.998-4.48 9.998-10.006v-4.5z"/></defs><clipPath id="ax"><use xlink:href="#aw" overflow="visible"/></clipPath><path clip-path="url(#ax)" fill="none" stroke="#3C4B5D" stroke-width="4" stroke-miterlimit="10" d="M217 131.496v-4.5c0-1.092-.9-1.994-2.01-1.994h-7.98c-1.107 0-2.01.893-2.01 1.994v17.012c0 1.09.896 1.99 2.002 1.994 5.517-.004 9.998-4.48 9.998-10.006v-4.5z"/></g><g><defs><path id="ay" d="M166 145.002c-4.97-.003-9-4.037-9-9.006v-9c0-.546.452-.994 1.008-.994h7.983c.556 0 1.01.452 1.01.994v17.012c0 .545-.45.992-1.005.994H166zm0 2c1.655-.005 3-1.344 3-2.994v-17.012c0-1.648-1.35-2.994-3.01-2.994h-7.982c-1.658 0-3.008 1.34-3.008 2.994v9c0 6.072 4.924 11.002 10.997 11.006H166zm-31-43h54v63h-54v-63z"/></defs><clipPath id="az"><use xlink:href="#ay" overflow="visible"/></clipPath><g clip-path="url(#az)"><defs><path id="aA" d="M165.998 146.002c1.104-.004 2.002-.896 2.002-1.994v-17.012c0-1.092-.9-1.994-2.01-1.994h-7.982c-1.106 0-2.008.893-2.008 1.994v9c0 5.52 4.476 10.002 9.998 10.006z"/></defs><clipPath id="aB"><use xlink:href="#aA" overflow="visible"/></clipPath><path clip-path="url(#aB)" fill-rule="evenodd" clip-rule="evenodd" fill="#FCE7B4" d="M165.998 146.002c1.104-.004 2.002-.896 2.002-1.994v-17.012c0-1.092-.9-1.994-2.01-1.994h-7.982c-1.106 0-2.008.893-2.008 1.994v9c0 5.52 4.476 10.002 9.998 10.006z"/></g></g><g><defs><path id="aC" d="M165.998 146.002c1.104-.004 2.002-.896 2.002-1.994v-17.012c0-1.092-.9-1.994-2.01-1.994h-7.982c-1.106 0-2.008.893-2.008 1.994v9c0 5.52 4.476 10.002 9.998 10.006z"/></defs><clipPath id="aD"><use xlink:href="#aC" overflow="visible"/></clipPath><path clip-path="url(#aD)" fill="none" stroke="#3C4B5D" stroke-width="4" stroke-miterlimit="10" d="M165.998 146.002c1.104-.004 2.002-.896 2.002-1.994v-17.012c0-1.092-.9-1.994-2.01-1.994h-7.982c-1.106 0-2.008.893-2.008 1.994v9c0 5.52 4.476 10.002 9.998 10.006z"/></g><g><defs><circle id="aE" cx="209.5" cy="82.501" r="4.5"/></defs><clipPath id="aF"><use xlink:href="#aE" overflow="visible"/></clipPath><path clip-path="url(#aF)" fill="#FCE7B4" d="M200 73h19v19.002h-19z"/></g><circle fill="none" stroke="#3C4B5D" stroke-width="2" stroke-miterlimit="10" cx="209.5" cy="82.501" r="4.5"/><g><defs><path id="aG" d="M161.912 80.47c.68 3.807 6.978 19.857 9.33 21.087 2.833 1.48 6.428.25 9.39 1.422 2.054.81 2.965 4.103 5.148 4.327 5.908.606 13.052-9.146 16.204-11.37 1.33-.94 4.207 1.025 4.768-.557 2.014-5.687 7.12-15.708 1.843-18.112-13.8-6.286-30.04-1.05-45.06-1.576l-1.623 4.778z"/></defs><clipPath id="aH"><use xlink:href="#aG" overflow="visible"/></clipPath><path clip-path="url(#aH)" fill="#3C4B5D" d="M156.913 69.144h59v43.19h-59z"/></g><g><defs><path id="aI" d="M212.893 67.103C211.68 53.59 200.328 43 186.5 43s-25.18 10.59-26.393 24.103c.29-.067.592-.102.9-.102h50.983c.31 0 .614.036.903.103z"/></defs><clipPath id="aJ"><use xlink:href="#aI" overflow="visible"/></clipPath><path clip-path="url(#aJ)" fill="#F8C445" d="M155.107 38h62.786v34.103h-62.786z"/></g><path fill="none" stroke="#3C4B5D" stroke-width="2" stroke-miterlimit="10" d="M212.893 67.103C211.68 53.59 200.328 43 186.5 43s-25.18 10.59-26.393 24.103c.29-.067.592-.102.9-.102h50.983c.31 0 .613.036.903.103z"/><g><defs><path id="aK" d="M156 70v7c0 2.76 2.244 5 5.01 5h50.98c2.765 0 5.01-2.238 5.01-5v-7c0-2.758-2.244-5-5.01-5h-50.98c-2.765 0-5.01 2.24-5.01 5zm2 0c0-1.654 1.35-3 3.01-3h50.98c1.662 0 3.01 1.347 3.01 3v7c0 1.656-1.35 3-3.01 3h-50.98c-1.662 0-3.01-1.345-3.01-3v-7zm-22-25h101v57.002H136v-57z"/></defs><clipPath id="aL"><use xlink:href="#aK" overflow="visible"/></clipPath><g clip-path="url(#aL)"><defs><path id="aM" d="M157 70c0-2.208 1.798-4 4.01-4h50.98c2.215 0 4.01 1.795 4.01 4v7c0 2.21-1.798 4-4.01 4h-50.98c-2.215 0-4.01-1.793-4.01-4v-7z"/></defs><clipPath id="aN"><use xlink:href="#aM" overflow="visible"/></clipPath><path clip-path="url(#aN)" fill-rule="evenodd" clip-rule="evenodd" fill="#F8C445" d="M157 70c0-2.208 1.798-4 4.01-4h50.98c2.215 0 4.01 1.795 4.01 4v7c0 2.21-1.798 4-4.01 4h-50.98c-2.215 0-4.01-1.793-4.01-4v-7z"/></g></g><g><defs><path id="aO" d="M157 70c0-2.208 1.798-4 4.01-4h50.98c2.215 0 4.01 1.795 4.01 4v7c0 2.21-1.798 4-4.01 4h-50.98c-2.215 0-4.01-1.793-4.01-4v-7z"/></defs><clipPath id="aP"><use xlink:href="#aO" overflow="visible"/></clipPath><path clip-path="url(#aP)" fill="none" stroke="#3C4B5D" stroke-width="4" stroke-miterlimit="10" d="M157 70c0-2.208 1.798-4 4.01-4h50.98c2.215 0 4.01 1.795 4.01 4v7c0 2.21-1.798 4-4.01 4h-50.98c-2.215 0-4.01-1.793-4.01-4v-7z"/></g><g><defs><circle id="aQ" cx="186.5" cy="39.501" r="3.5"/></defs><clipPath id="aR"><use xlink:href="#aQ" overflow="visible"/></clipPath><path clip-path="url(#aR)" fill="#F8C445" d="M178 31h17v17h-17z"/></g><circle fill="none" stroke="#3C4B5D" stroke-width="2" stroke-miterlimit="10" cx="186.5" cy="39.501" r="3.5"/><path fill="none" stroke="#3C4B5D" stroke-width="2" stroke-miterlimit="10" d="M157 131.02v-10.316s0-6.114 3.336-8.604 7.01-2.048 7.01-2.048 12.857.06 19.014 0c6.75-.065 19.65 0 19.65 0s3.305-.3 6.9 2.44 3.062 8.212 3.062 8.212v10.317"/><g><defs><path id="aS" d="M164.25 70.25c.553 0 1 .44 1 1.004v4.994c0 .554-.444 1.003-1 1.003-.553 0-1-.437-1-1.002v-4.994c0-.554.444-1.003 1-1.003z"/></defs><clipPath id="aT"><use xlink:href="#aS" overflow="visible"/></clipPath><path clip-path="url(#aT)" fill="none" stroke="#3C4B5D" stroke-width="4" stroke-miterlimit="10" d="M164.25 70.25c.553 0 1 .44 1 1.004v4.994c0 .554-.444 1.003-1 1.003-.553 0-1-.437-1-1.002v-4.994c0-.554.444-1.003 1-1.003z"/></g><g><defs><path id="aU" d="M169.25 70.25c.553 0 1 .44 1 1.004v4.994c0 .554-.444 1.003-1 1.003-.553 0-1-.437-1-1.002v-4.994c0-.554.444-1.003 1-1.003z"/></defs><clipPath id="aV"><use xlink:href="#aU" overflow="visible"/></clipPath><path clip-path="url(#aV)" fill="none" stroke="#3C4B5D" stroke-width="4" stroke-miterlimit="10" d="M169.25 70.25c.553 0 1 .44 1 1.004v4.994c0 .554-.444 1.003-1 1.003-.553 0-1-.437-1-1.002v-4.994c0-.554.444-1.003 1-1.003z"/></g><g><defs><path id="aW" d="M174.25 70.25c.553 0 1 .44 1 1.004v4.994c0 .554-.444 1.003-1 1.003-.553 0-1-.437-1-1.002v-4.994c0-.554.444-1.003 1-1.003z"/></defs><clipPath id="aX"><use xlink:href="#aW" overflow="visible"/></clipPath><path clip-path="url(#aX)" fill="none" stroke="#3C4B5D" stroke-width="4" stroke-miterlimit="10" d="M174.25 70.25c.553 0 1 .44 1 1.004v4.994c0 .554-.444 1.003-1 1.003-.553 0-1-.437-1-1.002v-4.994c0-.554.444-1.003 1-1.003z"/></g><g><defs><path id="aY" d="M179.25 70.25c.553 0 1 .44 1 1.004v4.994c0 .554-.444 1.003-1 1.003-.553 0-1-.437-1-1.002v-4.994c0-.554.444-1.003 1-1.003z"/></defs><clipPath id="aZ"><use xlink:href="#aY" overflow="visible"/></clipPath><path clip-path="url(#aZ)" fill="none" stroke="#3C4B5D" stroke-width="4" stroke-miterlimit="10" d="M179.25 70.25c.553 0 1 .44 1 1.004v4.994c0 .554-.444 1.003-1 1.003-.553 0-1-.437-1-1.002v-4.994c0-.554.444-1.003 1-1.003z"/></g><g><defs><path id="ba" d="M184.25 70.25c.553 0 1 .44 1 1.004v4.994c0 .554-.444 1.003-1 1.003-.553 0-1-.437-1-1.002v-4.994c0-.554.444-1.003 1-1.003z"/></defs><clipPath id="bb"><use xlink:href="#ba" overflow="visible"/></clipPath><path clip-path="url(#bb)" fill="none" stroke="#3C4B5D" stroke-width="4" stroke-miterlimit="10" d="M184.25 70.25c.553 0 1 .44 1 1.004v4.994c0 .554-.444 1.003-1 1.003-.553 0-1-.437-1-1.002v-4.994c0-.554.444-1.003 1-1.003z"/></g><g><defs><path id="bc" d="M189.25 70.25c.553 0 1 .44 1 1.004v4.994c0 .554-.444 1.003-1 1.003-.553 0-1-.437-1-1.002v-4.994c0-.554.444-1.003 1-1.003z"/></defs><clipPath id="bd"><use xlink:href="#bc" overflow="visible"/></clipPath><path clip-path="url(#bd)" fill="none" stroke="#3C4B5D" stroke-width="4" stroke-miterlimit="10" d="M189.25 70.25c.553 0 1 .44 1 1.004v4.994c0 .554-.444 1.003-1 1.003-.553 0-1-.437-1-1.002v-4.994c0-.554.444-1.003 1-1.003z"/></g><g><defs><path id="be" d="M194.25 70.25c.553 0 1 .44 1 1.004v4.994c0 .554-.444 1.003-1 1.003-.553 0-1-.437-1-1.002v-4.994c0-.554.444-1.003 1-1.003z"/></defs><clipPath id="bf"><use xlink:href="#be" overflow="visible"/></clipPath><path clip-path="url(#bf)" fill="none" stroke="#3C4B5D" stroke-width="4" stroke-miterlimit="10" d="M194.25 70.25c.553 0 1 .44 1 1.004v4.994c0 .554-.444 1.003-1 1.003-.553 0-1-.437-1-1.002v-4.994c0-.554.444-1.003 1-1.003z"/></g><g><defs><path id="bg" d="M199.25 70.25c.553 0 1 .44 1 1.004v4.994c0 .554-.444 1.003-1 1.003-.553 0-1-.437-1-1.002v-4.994c0-.554.444-1.003 1-1.003z"/></defs><clipPath id="bh"><use xlink:href="#bg" overflow="visible"/></clipPath><path clip-path="url(#bh)" fill="none" stroke="#3C4B5D" stroke-width="4" stroke-miterlimit="10" d="M199.25 70.25c.553 0 1 .44 1 1.004v4.994c0 .554-.444 1.003-1 1.003-.553 0-1-.437-1-1.002v-4.994c0-.554.444-1.003 1-1.003z"/></g><g><defs><path id="bi" d="M204.25 70.25c.553 0 1 .44 1 1.004v4.994c0 .554-.444 1.003-1 1.003-.553 0-1-.437-1-1.002v-4.994c0-.554.444-1.003 1-1.003z"/></defs><clipPath id="bj"><use xlink:href="#bi" overflow="visible"/></clipPath><path clip-path="url(#bj)" fill="none" stroke="#3C4B5D" stroke-width="4" stroke-miterlimit="10" d="M204.25 70.25c.553 0 1 .44 1 1.004v4.994c0 .554-.444 1.003-1 1.003-.553 0-1-.437-1-1.002v-4.994c0-.554.444-1.003 1-1.003z"/></g><g><defs><path id="bk" d="M209.25 70.25c.553 0 1 .44 1 1.004v4.994c0 .554-.444 1.003-1 1.003-.553 0-1-.437-1-1.002v-4.994c0-.554.444-1.003 1-1.003z"/></defs><clipPath id="bl"><use xlink:href="#bk" overflow="visible"/></clipPath><path clip-path="url(#bl)" fill="none" stroke="#3C4B5D" stroke-width="4" stroke-miterlimit="10" d="M209.25 70.25c.553 0 1 .44 1 1.004v4.994c0 .554-.444 1.003-1 1.003-.553 0-1-.437-1-1.002v-4.994c0-.554.444-1.003 1-1.003z"/></g></svg>