<svg xmlns="http://www.w3.org/2000/svg" xmlns:xlink="http://www.w3.org/1999/xlink" width="320" height="160" viewBox="0 0 320 160"><defs><path id="a" d="M6 90.425c0-1.104.897-1.998 2.007-1.998h115.985c1.108 0 2.007.895 2.007 1.998v57.62c0 1.104-.898 1.998-2.008 1.998H8.007c-1.108 0-2.007-.895-2.007-1.998v-57.62z"/></defs><clipPath id="b"><use xlink:href="#a" overflow="visible"/></clipPath><path clip-path="url(#b)" fill="none" stroke="#3C4B5D" stroke-width="4" stroke-miterlimit="10" d="M6 90.425c0-1.104.897-1.998 2.007-1.998h115.985c1.108 0 2.007.895 2.007 1.998v57.62c0 1.104-.898 1.998-2.008 1.998H8.007c-1.108 0-2.007-.895-2.007-1.998v-57.62z"/><defs><path id="c" d="M9.82 94.002c0-1.105.904-2.002 1.996-2.002h108.19c1.1 0 1.994.893 1.994 2.002v49.996c0 1.105-.903 2.002-1.995 2.002H11.815c-1.1 0-1.994-.893-1.994-2.002V94.002z"/></defs><clipPath id="d"><use xlink:href="#c" overflow="visible"/></clipPath><path clip-path="url(#d)" fill="none" stroke="#3C4B5D" stroke-width="4" stroke-miterlimit="10" d="M9.82 94.002c0-1.105.904-2.002 1.996-2.002h108.19c1.1 0 1.994.893 1.994 2.002v49.996c0 1.105-.903 2.002-1.995 2.002H11.815c-1.1 0-1.994-.893-1.994-2.002V94.002z"/><defs><path id="e" d="M23 107.997v22.006c0 1.654 1.34 2.997 2.994 2.997h80.013c1.658 0 2.994-1.34 2.994-2.997v-22.006c0-1.654-1.34-2.997-2.993-2.997H25.994c-1.66 0-2.994 1.34-2.994 2.997zm2 0c0-.554.442-.997.994-.997h80.013c.548 0 .994.446.994.997v22.006c0 .554-.44.997-.993.997H25.994c-.548 0-.994-.446-.994-.997v-22.006zM3 85h126v68H3V85z"/></defs><clipPath id="f"><use xlink:href="#e" overflow="visible"/></clipPath><g clip-path="url(#f)"><defs><path id="g" d="M24 107.997c0-1.103.887-1.997 1.994-1.997h80.013c1.1 0 1.994.895 1.994 1.997v22.006c0 1.103-.886 1.997-1.993 1.997H25.994c-1.1 0-1.994-.895-1.994-1.997v-22.006z"/></defs><clipPath id="h"><use xlink:href="#g" overflow="visible"/></clipPath><path clip-path="url(#h)" fill-rule="evenodd" clip-rule="evenodd" fill="#E2EDF4" d="M24 107.997c0-1.103.887-1.997 1.994-1.997h80.013c1.1 0 1.994.895 1.994 1.997v22.006c0 1.103-.886 1.997-1.993 1.997H25.994c-1.1 0-1.994-.895-1.994-1.997v-22.006z"/></g><defs><path id="i" d="M24 107.997c0-1.103.887-1.997 1.994-1.997h80.013c1.1 0 1.994.895 1.994 1.997v22.006c0 1.103-.886 1.997-1.993 1.997H25.994c-1.1 0-1.994-.895-1.994-1.997v-22.006z"/></defs><clipPath id="j"><use xlink:href="#i" overflow="visible"/></clipPath><path clip-path="url(#j)" fill="none" stroke="#3C4B5D" stroke-width="4" stroke-miterlimit="10" d="M24 107.997c0-1.103.887-1.997 1.994-1.997h80.013c1.1 0 1.994.895 1.994 1.997v22.006c0 1.103-.886 1.997-1.993 1.997H25.994c-1.1 0-1.994-.895-1.994-1.997v-22.006z"/><path fill="none" stroke="#CFD3D7" stroke-width="2" stroke-linecap="square" stroke-miterlimit="10" d="M25 9.98v77.4M107 9.98v77.4"/><defs><path id="k" d="M152 40.76c0-1.105.898-2 1.998-2h76.005c1.103 0 1.997.904 1.997 2v117c0 1.105-.898 2-1.997 2h-76.005c-1.103 0-1.998-.904-1.998-2v-117z"/></defs><clipPath id="l"><use xlink:href="#k" overflow="visible"/></clipPath><path clip-path="url(#l)" fill="none" stroke="#3C4B5D" stroke-width="4" stroke-miterlimit="10" d="M152 40.76c0-1.105.898-2 1.998-2h76.005c1.103 0 1.997.904 1.997 2v117c0 1.105-.898 2-1.997 2h-76.005c-1.103 0-1.998-.904-1.998-2v-117z"/><defs><path id="m" d="M156 44.77c0-1.11.897-2.01 2-2.01h68c1.104 0 2 .893 2 2.01v108.98c0 1.11-.897 2.01-2 2.01h-68c-1.104 0-2-.894-2-2.01V44.77z"/></defs><clipPath id="n"><use xlink:href="#m" overflow="visible"/></clipPath><path clip-path="url(#n)" fill="none" stroke="#3C4B5D" stroke-width="4" stroke-miterlimit="10" d="M156 44.77c0-1.11.897-2.01 2-2.01h68c1.104 0 2 .893 2 2.01v108.98c0 1.11-.897 2.01-2 2.01h-68c-1.104 0-2-.893-2-2.01V44.77z"/><defs><path id="o" d="M169 58.997v81.006c0 1.654 1.347 2.997 3.005 2.997h39.99c1.657 0 3.005-1.34 3.005-2.997V58.997c0-1.654-1.347-2.997-3.005-2.997h-39.99c-1.657 0-3.005 1.34-3.005 2.997zm2 0c0-.55.45-.997 1.005-.997h39.99c.555 0 1.005.45 1.005.997v81.006c0 .55-.45.997-1.005.997h-39.99c-.555 0-1.005-.45-1.005-.997V58.997zM149 36h86v127h-86V36z"/></defs><clipPath id="p"><use xlink:href="#o" overflow="visible"/></clipPath><g clip-path="url(#p)"><defs><path id="q" d="M170 58.997c0-1.103.898-1.997 2.005-1.997h39.99c1.107 0 2.005.897 2.005 1.997v81.006c0 1.104-.898 1.997-2.005 1.997h-39.99c-1.107 0-2.005-.897-2.005-1.997V58.997z"/></defs><clipPath id="r"><use xlink:href="#q" overflow="visible"/></clipPath><path clip-path="url(#r)" fill-rule="evenodd" clip-rule="evenodd" fill="#E2EDF4" d="M170 58.997c0-1.103.898-1.997 2.005-1.997h39.99c1.107 0 2.005.897 2.005 1.997v81.006c0 1.104-.898 1.997-2.005 1.997h-39.99c-1.107 0-2.005-.897-2.005-1.997V58.997z"/></g><g><defs><path id="s" d="M170 58.997c0-1.103.898-1.997 2.005-1.997h39.99c1.107 0 2.005.897 2.005 1.997v81.006c0 1.104-.898 1.997-2.005 1.997h-39.99c-1.107 0-2.005-.897-2.005-1.997V58.997z"/></defs><clipPath id="t"><use xlink:href="#s" overflow="visible"/></clipPath><path clip-path="url(#t)" fill="none" stroke="#3C4B5D" stroke-width="4" stroke-miterlimit="10" d="M170 58.997c0-1.103.898-1.997 2.005-1.997h39.99c1.107 0 2.005.897 2.005 1.997v81.006c0 1.104-.898 1.997-2.005 1.997h-39.99c-1.107 0-2.005-.897-2.005-1.997V58.997z"/></g><path fill="none" stroke="#CFD3D7" stroke-width="2" stroke-linecap="square" stroke-miterlimit="10" d="M171 9.98v27.79M213 9.98v27.79"/><g><defs><path id="u" d="M259 50.757c0-1.103.895-1.998 1.996-1.998h56.008c1.103 0 1.996.894 1.996 1.997v57.62c0 1.105-.895 2-1.996 2h-56.008c-1.103 0-1.996-.896-1.996-2v-57.62z"/></defs><clipPath id="v"><use xlink:href="#u" overflow="visible"/></clipPath><path clip-path="url(#v)" fill="none" stroke="#3C4B5D" stroke-width="4" stroke-miterlimit="10" d="M259 50.757c0-1.103.895-1.998 1.996-1.998h56.008c1.103 0 1.996.894 1.996 1.997v57.62c0 1.105-.895 2-1.996 2h-56.008c-1.103 0-1.996-.896-1.996-2v-57.62z"/></g><g><defs><path id="w" d="M263 54.762c0-1.105.902-2.002 2.007-2.002h47.986c1.108 0 2.007.892 2.007 2.002v49.996c0 1.105-.902 2.002-2.007 2.002h-47.986c-1.108 0-2.007-.893-2.007-2.002V54.762z"/></defs><clipPath id="x"><use xlink:href="#w" overflow="visible"/></clipPath><path clip-path="url(#x)" fill="none" stroke="#3C4B5D" stroke-width="4" stroke-miterlimit="10" d="M263 54.762c0-1.105.902-2.002 2.007-2.002h47.986c1.108 0 2.007.892 2.007 2.002v49.996c0 1.105-.902 2.002-2.007 2.002h-47.986c-1.108 0-2.007-.893-2.007-2.002V54.762z"/></g><g><defs><path id="y" d="M276 68.997v22.006c0 1.655 1.347 2.997 3.005 2.997h19.99c1.66 0 3.005-1.34 3.005-2.997V68.997c0-1.655-1.347-2.997-3.005-2.997h-19.99c-1.66 0-3.005 1.34-3.005 2.997zm2 0c0-.55.448-.997 1.005-.997h19.99c.556 0 1.005.448 1.005.997v22.006c0 .55-.448.997-1.005.997h-19.99c-.556 0-1.005-.448-1.005-.997V68.997zM256 46h66v68h-66V46z"/></defs><clipPath id="z"><use xlink:href="#y" overflow="visible"/></clipPath><g clip-path="url(#z)"><defs><path id="A" d="M277 68.997c0-1.103.897-1.997 2.005-1.997h19.99c1.107 0 2.005.895 2.005 1.997v22.006c0 1.103-.897 1.997-2.005 1.997h-19.99c-1.107 0-2.005-.895-2.005-1.997V68.997z"/></defs><clipPath id="B"><use xlink:href="#A" overflow="visible"/></clipPath><path clip-path="url(#B)" fill-rule="evenodd" clip-rule="evenodd" fill="#E2EDF4" d="M277 68.997c0-1.103.897-1.997 2.005-1.997h19.99c1.107 0 2.005.895 2.005 1.997v22.006c0 1.103-.897 1.997-2.005 1.997h-19.99c-1.107 0-2.005-.895-2.005-1.997V68.997z"/></g></g><g><defs><path id="C" d="M277 68.997c0-1.103.897-1.997 2.005-1.997h19.99c1.107 0 2.005.895 2.005 1.997v22.006c0 1.103-.897 1.997-2.005 1.997h-19.99c-1.107 0-2.005-.895-2.005-1.997V68.997z"/></defs><clipPath id="D"><use xlink:href="#C" overflow="visible"/></clipPath><path clip-path="url(#D)" fill="none" stroke="#3C4B5D" stroke-width="4" stroke-miterlimit="10" d="M277 68.997c0-1.103.897-1.997 2.005-1.997h19.99c1.107 0 2.005.895 2.005 1.997v22.006c0 1.103-.897 1.997-2.005 1.997h-19.99c-1.107 0-2.005-.895-2.005-1.997V68.997z"/></g><path fill="none" stroke="#CFD3D7" stroke-width="2" stroke-linecap="square" stroke-miterlimit="10" d="M278 9.98v37.812M300 9.98v37.812"/><g><defs><path id="E" d="M4 4.998C4 3.895 4.895 3 5.992 3h308.016c1.1 0 1.992.898 1.992 1.998v2.004C316 8.105 315.105 9 314.008 9H5.992C4.892 9 4 8.102 4 7.002V4.998z"/></defs><clipPath id="F"><use xlink:href="#E" overflow="visible"/></clipPath><path clip-path="url(#F)" fill="none" stroke="#3C4B5D" stroke-width="4" stroke-miterlimit="10" d="M4 4.998C4 3.895 4.895 3 5.992 3h308.016c1.1 0 1.992.898 1.992 1.998v2.004C316 8.105 315.105 9 314.008 9H5.992C4.892 9 4 8.102 4 7.002V4.998z"/></g><g><defs><path id="G" d="M0 2.008C0 .898.898 0 1.998 0h2.004C5.105 0 6 .902 6 2.008V9.99C6 11.1 5.102 12 4.002 12H1.998C.895 12 0 11.098 0 9.992V2.008z"/></defs><clipPath id="H"><use xlink:href="#G" overflow="visible"/></clipPath><path clip-path="url(#H)" fill="none" stroke="#3C4B5D" stroke-width="4" stroke-miterlimit="10" d="M0 2.01C0 .9.898 0 1.998 0h2.004C5.105 0 6 .902 6 2.01V9.99C6 11.102 5.102 12 4.002 12H1.998C.895 12 0 11.098 0 9.992V2.01z"/></g><g><defs><path id="I" d="M314 2.008c0-1.11.898-2.008 1.998-2.008h2.004C319.105 0 320 .902 320 2.008V9.99c0 1.11-.898 2.01-1.998 2.01h-2.004C314.895 12 314 11.097 314 9.99V2.008z"/></defs><clipPath id="J"><use xlink:href="#I" overflow="visible"/></clipPath><path clip-path="url(#J)" fill="none" stroke="#3C4B5D" stroke-width="4" stroke-miterlimit="10" d="M314 2.01c0-1.11.898-2.01 1.998-2.01h2.004C319.105 0 320 .902 320 2.01V9.99c0 1.11-.898 2.008-1.998 2.008h-2.004c-1.103 0-1.998-.902-1.998-2.008V2.01z"/></g></svg>