<?xml version="1.0" encoding="utf-8"?>
<!-- Generator: Adobe Illustrator 16.0.0, SVG Export Plug-In . SVG Version: 6.00 Build 0)  -->
<!DOCTYPE svg PUBLIC "-//W3C//DTD SVG 1.1//EN" "http://www.w3.org/Graphics/SVG/1.1/DTD/svg11.dtd">
<svg version="1.1" id="Layer_1" xmlns="http://www.w3.org/2000/svg" xmlns:xlink="http://www.w3.org/1999/xlink" x="0px" y="0px"
	 width="550px" height="550px" viewBox="0 0 550 550" enable-background="new 0 0 550 550" xml:space="preserve">
<rect display="none" width="550" height="550"/>
<g display="none">
	<g display="inline">
		<g>
			<g>
				<path fill="#513830" d="M275.864,109.617c-0.516,0-1.007-0.072-1.451-0.198c-2.165-0.607-3.582-2.408-3.447-4.377
					c0.085-1.256,0.534-2.207,1.332-2.827c1.323-1.025,3.099-0.709,3.173-0.695c0.308,0.056,0.511,0.352,0.454,0.661
					c-0.057,0.309-0.352,0.511-0.66,0.458c-0.014-0.002-1.362-0.233-2.274,0.479c-0.529,0.414-0.829,1.086-0.89,2
					c-0.098,1.427,0.979,2.747,2.62,3.208c1.786,0.502,4.274-0.065,5.892-3.175c1.309-2.512,0.893-5.222-1.11-7.246
					c-2.471-2.497-7.581-3.938-12.964-1.207c-1.599,0.811-3.483,1.969-5.478,3.196c-7.049,4.332-15.82,9.72-23.185,7.283
					c-3.436-1.137-5.519-3.251-5.714-5.803c-0.151-1.973,0.913-3.896,2.647-4.783c1.781-0.911,3.827-0.566,5.61,0.944
					c0.24,0.202,0.271,0.562,0.068,0.802s-0.561,0.269-0.801,0.066c-1.417-1.199-3.007-1.492-4.36-0.799
					c-1.332,0.681-2.148,2.161-2.03,3.684c0.158,2.071,1.957,3.824,4.937,4.81c6.863,2.274,15.385-2.965,22.232-7.173
					c2.014-1.238,3.918-2.409,5.558-3.242c5.892-2.989,11.536-1.357,14.288,1.421c2.368,2.395,2.858,5.6,1.31,8.572
					C280.093,108.61,277.803,109.617,275.864,109.617z"/>
			</g>
			<g>
				<path fill="#513830" d="M255.413,101.25c-3.277,0-7.539-1.031-9.014-6.01c-1.112-3.76-0.029-7.119,2.898-8.986
					c2.708-1.727,6.175-1.653,8.247,0.174c2.343,2.068,2.192,4.341,1.352,5.66c-1,1.568-2.993,2.097-4.844,1.288
					c-0.288-0.125-0.418-0.46-0.293-0.748c0.125-0.289,0.46-0.42,0.749-0.293c1.558,0.68,2.846,0.06,3.43-0.858
					c0.6-0.94,0.66-2.604-1.146-4.197c-1.671-1.476-4.631-1.505-6.882-0.067c-1.189,0.757-3.803,3.027-2.419,7.703
					c2.187,7.387,11.356,4.839,11.745,4.729c0.298-0.086,0.616,0.086,0.703,0.389s-0.088,0.617-0.39,0.704
					C259.505,100.749,257.698,101.25,255.413,101.25z"/>
			</g>
			<g>
				<path fill="#513830" d="M259.907,109.65c-1.222,0-2.434-0.449-3.168-1.48c-0.958-1.345-1.276-2.731-0.945-4.124
					c0.724-3.034,4.304-4.946,4.457-5.026c0.278-0.147,0.621-0.039,0.767,0.238c0.146,0.277,0.04,0.622-0.238,0.768
					c-0.033,0.018-3.28,1.757-3.88,4.287c-0.251,1.057,0.007,2.133,0.765,3.197c0.842,1.179,2.72,1.231,3.979,0.602
					c0.613-0.308,1.975-1.229,1.359-3.153c-0.096-0.299,0.07-0.619,0.369-0.714c0.3-0.099,0.62,0.069,0.715,0.368
					c0.602,1.887-0.139,3.617-1.935,4.515C261.483,109.464,260.693,109.65,259.907,109.65z"/>
			</g>
			<circle fill="#513830" cx="254.845" cy="92.028" r="1.563"/>
			<circle fill="#513830" cx="262.617" cy="105.077" r="1.564"/>
			<circle fill="#513830" cx="275.108" cy="103.044" r="1.564"/>
			<circle fill="#513830" cx="239.292" cy="98.609" r="1.564"/>
		</g>
		<g>
			<g>
				<path fill="#513830" d="M288.122,109.617c-1.938,0-4.229-1.006-5.758-3.941c-1.548-2.973-1.058-6.178,1.311-8.572
					c2.753-2.781,8.396-4.411,14.288-1.421c1.642,0.833,3.545,2.003,5.56,3.242c6.849,4.208,15.371,9.444,22.233,7.173
					c2.981-0.986,4.78-2.738,4.938-4.81c0.116-1.523-0.699-3.003-2.031-3.684c-1.351-0.693-2.942-0.401-4.36,0.799
					c-0.24,0.202-0.598,0.173-0.801-0.067c-0.203-0.239-0.172-0.599,0.067-0.801c1.783-1.51,3.83-1.854,5.611-0.944
					c1.734,0.886,2.799,2.81,2.647,4.783c-0.195,2.551-2.277,4.666-5.714,5.803c-7.365,2.435-16.139-2.952-23.187-7.283
					c-1.995-1.227-3.88-2.385-5.479-3.196c-5.382-2.732-10.493-1.29-12.964,1.207c-2.004,2.024-2.42,4.734-1.111,7.246
					c1.62,3.107,4.106,3.677,5.894,3.175c1.641-0.461,2.718-1.78,2.619-3.206c-0.062-0.92-0.362-1.592-0.894-2.006
					c-0.908-0.704-2.255-0.479-2.268-0.475c-0.312,0.053-0.606-0.147-0.664-0.456c-0.057-0.309,0.146-0.605,0.455-0.663
					c0.074-0.015,1.851-0.33,3.173,0.695c0.799,0.62,1.247,1.571,1.333,2.827c0.135,1.97-1.283,3.77-3.447,4.377
					C289.129,109.544,288.638,109.617,288.122,109.617z"/>
			</g>
			<g>
				<path fill="#513830" d="M308.575,101.25c-2.287,0-4.094-0.501-4.135-0.513c-0.303-0.087-0.478-0.402-0.391-0.704
					c0.088-0.301,0.401-0.473,0.703-0.389c0.392,0.111,9.565,2.646,11.746-4.729c1.385-4.675-1.23-6.945-2.42-7.703
					c-2.251-1.436-5.21-1.408-6.882,0.067c-1.807,1.592-1.747,3.256-1.146,4.197c0.584,0.917,1.872,1.537,3.431,0.858
					c0.287-0.127,0.623,0.005,0.748,0.293c0.126,0.288-0.006,0.623-0.293,0.748c-1.854,0.811-3.846,0.28-4.845-1.288
					c-0.841-1.319-0.991-3.592,1.353-5.66c2.072-1.829,5.539-1.9,8.246-0.174c2.929,1.868,4.013,5.226,2.9,8.986
					C316.115,100.219,311.853,101.25,308.575,101.25z"/>
			</g>
			<g>
				<path fill="#513830" d="M304.08,109.65c-0.786,0-1.574-0.186-2.246-0.522c-1.795-0.898-2.536-2.628-1.934-4.515
					c0.095-0.298,0.412-0.467,0.715-0.368c0.298,0.095,0.464,0.415,0.368,0.714c-0.615,1.924,0.747,2.845,1.359,3.153
					c1.26,0.632,3.139,0.579,3.979-0.602c0.76-1.065,1.017-2.143,0.766-3.2c-0.605-2.539-3.847-4.267-3.88-4.285
					c-0.278-0.146-0.386-0.489-0.238-0.767c0.146-0.279,0.488-0.386,0.767-0.239c0.152,0.08,3.733,1.992,4.458,5.026
					c0.331,1.393,0.014,2.778-0.945,4.124C306.515,109.201,305.302,109.65,304.08,109.65z"/>
			</g>
			<circle fill="#513830" cx="309.143" cy="92.028" r="1.563"/>
			<circle fill="#513830" cx="301.37" cy="105.077" r="1.563"/>
			<circle fill="#513830" cx="288.877" cy="103.044" r="1.564"/>
			<circle fill="#513830" cx="324.697" cy="98.609" r="1.564"/>
		</g>
		<g>
			<path fill="#513830" d="M282.051,96.024c-0.131,0-0.263-0.044-0.369-0.136c-2.61-2.223-4.109-5.457-4.109-8.874
				c0-3.417,1.499-6.651,4.109-8.875c0.214-0.181,0.524-0.181,0.737,0c2.611,2.223,4.11,5.457,4.11,8.875
				c0,3.417-1.499,6.651-4.11,8.874C282.312,95.979,282.182,96.024,282.051,96.024z M282.051,79.334
				c-2.13,1.99-3.341,4.761-3.341,7.68c0,2.918,1.211,5.689,3.341,7.679c2.128-1.99,3.341-4.761,3.341-7.679
				C285.392,84.095,284.179,81.325,282.051,79.334z"/>
		</g>
		<g>
			<path fill="#513830" d="M288.329,93.119c-0.244,0-0.465-0.158-0.542-0.396c-0.711-2.222-0.415-4.628,0.812-6.603
				c1.228-1.974,3.254-3.305,5.56-3.651c0.274-0.04,0.541,0.122,0.626,0.388c0.71,2.222,0.415,4.629-0.812,6.601
				c-1.226,1.975-3.251,3.306-5.56,3.654C288.385,93.116,288.356,93.119,288.329,93.119z M293.837,83.686
				c-1.771,0.4-3.309,1.486-4.271,3.034c-0.963,1.55-1.256,3.411-0.83,5.175c1.771-0.399,3.31-1.487,4.271-3.036
				C293.969,87.311,294.262,85.45,293.837,83.686z"/>
		</g>
		<g>
			<path fill="#513830" d="M275.857,93.119c-0.029,0-0.058-0.002-0.085-0.007c-2.307-0.348-4.334-1.679-5.56-3.654
				c-1.228-1.975-1.522-4.38-0.812-6.601c0.085-0.266,0.355-0.429,0.627-0.388c2.307,0.346,4.333,1.678,5.559,3.651
				c1.226,1.976,1.523,4.382,0.811,6.603C276.321,92.961,276.101,93.119,275.857,93.119z M270.348,83.686
				c-0.426,1.764-0.133,3.624,0.83,5.173c0.962,1.549,2.5,2.637,4.271,3.036c0.426-1.763,0.133-3.625-0.83-5.175
				C273.658,85.171,272.12,84.085,270.348,83.686z"/>
		</g>
	</g>
	<g display="inline">
		<g>
			<path fill="#513830" d="M355.979,110.658H208.012c-0.313,0-0.568-0.254-0.568-0.568s0.255-0.568,0.568-0.568h147.967
				c0.314,0,0.569,0.254,0.569,0.568S356.293,110.658,355.979,110.658z"/>
		</g>
		<circle fill="#513830" cx="208.012" cy="110.09" r="1.85"/>
		<circle fill="#513830" cx="355.979" cy="110.09" r="1.85"/>
	</g>
</g>
<g display="none">
	<g display="inline">
		<g>
			<g>
				<path fill="#513830" d="M289.135,473.011c-2.522,0-4.682-0.979-5.985-2.296c-1.817-1.837-2.193-4.294-1.007-6.572
					c1.486-2.854,3.917-3.33,5.553-2.87c1.685,0.473,2.786,1.878,2.681,3.42c-0.068,0.98-0.421,1.727-1.052,2.215
					c-1.039,0.804-2.426,0.557-2.483,0.548c-0.309-0.058-0.513-0.354-0.455-0.663c0.057-0.309,0.354-0.514,0.661-0.455
					c0.027,0.004,0.962,0.156,1.585-0.331c0.361-0.282,0.565-0.751,0.609-1.391c0.067-0.998-0.694-1.923-1.853-2.248
					c-1.285-0.362-3.069,0.055-4.237,2.301c-0.961,1.846-0.668,3.758,0.806,5.245c1.81,1.83,5.561,2.883,9.519,0.876
					c1.19-0.604,2.598-1.469,4.085-2.384c5.291-3.252,11.875-7.298,17.442-5.454c2.625,0.868,4.217,2.495,4.366,4.46
					c0.118,1.533-0.708,3.024-2.055,3.712c-1.387,0.709-2.974,0.445-4.352-0.722c-0.239-0.203-0.271-0.562-0.067-0.802
					c0.203-0.24,0.563-0.269,0.801-0.066c1.014,0.856,2.141,1.068,3.101,0.578c0.943-0.483,1.521-1.532,1.439-2.613
					c-0.114-1.486-1.423-2.75-3.591-3.467c-5.065-1.678-11.399,2.216-16.489,5.344c-1.509,0.926-2.935,1.804-4.166,2.428
					C292.312,472.655,290.657,473.011,289.135,473.011z"/>
			</g>
			<g>
				<path fill="#513830" d="M298.041,469.374c-0.205,0-0.401-0.109-0.502-0.303c-0.146-0.278-0.04-0.623,0.237-0.77
					c0.023-0.013,2.395-1.283,2.826-3.11c0.18-0.759,0-1.501-0.549-2.271c-0.585-0.819-1.904-0.848-2.792-0.404
					c-0.426,0.214-1.369,0.854-0.942,2.184c0.096,0.3-0.069,0.619-0.369,0.715c-0.303,0.098-0.62-0.07-0.716-0.368
					c-0.473-1.482,0.108-2.841,1.518-3.547c1.335-0.667,3.281-0.566,4.229,0.762c0.741,1.039,0.985,2.116,0.728,3.197
					c-0.556,2.331-3.287,3.79-3.403,3.851C298.221,469.353,298.131,469.374,298.041,469.374z"/>
			</g>
			<circle fill="#513830" cx="296.47" cy="464.655" r="1.168"/>
			<circle fill="#513830" cx="287.136" cy="466.173" r="1.168"/>
			<circle fill="#513830" cx="313.898" cy="469.488" r="1.168"/>
		</g>
		<g>
			<g>
				<path fill="#513830" d="M274.851,473.011c-1.521,0-3.176-0.355-4.855-1.208c-1.23-0.624-2.654-1.5-4.163-2.428
					c-5.091-3.127-11.427-7.02-16.49-5.344c-2.168,0.717-3.476,1.98-3.59,3.467c-0.083,1.081,0.496,2.13,1.439,2.613
					c0.958,0.49,2.088,0.279,3.101-0.578c0.239-0.202,0.598-0.174,0.801,0.066c0.203,0.239,0.172,0.599-0.068,0.802
					c-1.379,1.166-2.965,1.431-4.351,0.722c-1.346-0.688-2.172-2.179-2.055-3.712c0.15-1.965,1.741-3.592,4.365-4.46
					c5.567-1.844,12.152,2.203,17.443,5.456c1.488,0.914,2.894,1.778,4.083,2.382c3.955,2.007,7.707,0.952,9.517-0.876
					c1.474-1.487,1.767-3.399,0.806-5.245c-1.168-2.246-2.953-2.662-4.236-2.301c-1.158,0.325-1.92,1.25-1.852,2.248
					c0.043,0.644,0.249,1.113,0.613,1.394c0.629,0.487,1.569,0.33,1.58,0.328c0.307-0.062,0.604,0.146,0.662,0.455
					s-0.146,0.605-0.456,0.663c-0.057,0.009-1.444,0.256-2.483-0.548c-0.631-0.488-0.983-1.234-1.052-2.215
					c-0.105-1.542,0.996-2.947,2.68-3.42c1.633-0.458,4.067,0.017,5.553,2.87c1.187,2.278,0.811,4.735-1.006,6.572
					C279.533,472.032,277.374,473.011,274.851,473.011z"/>
			</g>
			<g>
				<path fill="#513830" d="M265.946,469.374c-0.089,0-0.18-0.021-0.265-0.065c-0.115-0.061-2.847-1.52-3.402-3.851
					c-0.258-1.081-0.013-2.158,0.728-3.197c0.947-1.328,2.895-1.431,4.229-0.762c1.408,0.706,1.989,2.064,1.516,3.547
					c-0.096,0.298-0.415,0.467-0.715,0.368c-0.3-0.096-0.464-0.415-0.368-0.715c0.426-1.33-0.517-1.97-0.942-2.184
					c-0.889-0.444-2.208-0.417-2.793,0.405c-0.549,0.771-0.728,1.515-0.547,2.274c0.437,1.833,2.801,3.094,2.825,3.106
					c0.278,0.146,0.386,0.49,0.239,0.769C266.349,469.265,266.151,469.374,265.946,469.374z"/>
			</g>
			<circle fill="#513830" cx="267.517" cy="464.655" r="1.168"/>
			<circle fill="#513830" cx="276.849" cy="466.173" r="1.168"/>
			<circle fill="#513830" cx="250.09" cy="469.488" r="1.168"/>
		</g>
		<g>
			<path fill="#513830" d="M281.949,485.027c-0.131,0-0.262-0.046-0.368-0.136c-1.983-1.688-3.121-4.145-3.121-6.741
				c0-2.595,1.138-5.052,3.121-6.738c0.213-0.183,0.524-0.183,0.737,0c1.983,1.687,3.12,4.144,3.12,6.738
				c0,2.597-1.137,5.053-3.12,6.741C282.212,484.981,282.08,485.027,281.949,485.027z M281.949,472.611
				c-1.5,1.452-2.352,3.444-2.352,5.539c0,2.097,0.852,4.09,2.352,5.54c1.5-1.45,2.353-3.443,2.353-5.54
				C284.302,476.056,283.449,474.063,281.949,472.611z"/>
		</g>
		<g>
			<path fill="#513830" d="M272.84,481.695c-0.244,0-0.465-0.156-0.542-0.396c-0.543-1.699-0.317-3.54,0.621-5.051
				c0.939-1.511,2.49-2.53,4.254-2.796c0.275-0.04,0.541,0.124,0.627,0.389c0.544,1.7,0.318,3.543-0.621,5.053
				c-0.938,1.511-2.489,2.53-4.254,2.795C272.896,481.693,272.869,481.695,272.84,481.695z M276.848,474.68
				c-1.227,0.313-2.288,1.086-2.961,2.17c-0.673,1.083-0.895,2.376-0.634,3.616c1.228-0.315,2.288-1.088,2.96-2.171
				C276.888,477.211,277.109,475.918,276.848,474.68z"/>
		</g>
		<g>
			<path fill="#513830" d="M290.997,481.695c-0.028,0-0.056-0.002-0.085-0.006c-1.764-0.265-3.314-1.284-4.254-2.795
				c-0.94-1.51-1.166-3.353-0.621-5.053c0.084-0.266,0.354-0.426,0.626-0.389c1.765,0.266,3.315,1.284,4.255,2.795
				c0.938,1.512,1.165,3.353,0.621,5.052C291.462,481.539,291.241,481.695,290.997,481.695z M286.99,474.68
				c-0.263,1.238-0.04,2.531,0.634,3.615c0.674,1.083,1.734,1.855,2.961,2.171c0.261-1.24,0.04-2.534-0.634-3.616
				C289.277,475.766,288.217,474.992,286.99,474.68z"/>
		</g>
	</g>
	<g display="inline">
		<g>
			<path fill="#513830" d="M355.979,461.05H208.012c-0.313,0-0.568-0.255-0.568-0.568c0-0.314,0.255-0.569,0.568-0.569h147.967
				c0.314,0,0.569,0.255,0.569,0.569C356.548,460.795,356.293,461.05,355.979,461.05z"/>
		</g>
		<circle fill="#513830" cx="208.012" cy="460.481" r="1.85"/>
		<circle fill="#513830" cx="355.979" cy="460.481" r="1.85"/>
	</g>
</g>
<g opacity="0.15">
	<path fill="#FFFFFF" d="M239.697,96.325c-1.772,1.625-4.582,0.81-4.267-1.673c0.311-2.483,4.559-3.157,6.468,0.132
		c1.909,3.292-0.431,8.49-7.554,9.295c-7.125,0.806-11.623-7.772-9.666-13.849c1.956-6.072,11.476-10.597,23.313-3.382
		c11.838,7.214,28.314,9.981,41.481,1.883c-12.718,10.484-30.655,5.689-42.352-0.581c-11.698-6.266-19.129-1.301-20.384,3.136
		c-1.286,4.558,1.964,9.715,7.088,10.609C238.945,102.796,240.269,98.066,239.697,96.325z"/>
	<path fill="#FFFFFF" d="M237.799,82.15c-8.632-0.894-12.252,2.216-14.434,5.649c-2.562,4.023-0.984,9.989,1.262,14.393
		c-5.114-3.898-5.594-11.647-3.244-15.497C223.667,82.948,229.154,79.495,237.799,82.15z"/>
	<path fill="#FFFFFF" d="M223.652,81.349c4.534-2.604,11.353-2.406,17.95-0.205c-6.467-3.36-14.703-4.198-19.236-1.502
		c-4.534,2.7-6.787,8.056-5.833,13.654C217.395,88.063,219.114,83.954,223.652,81.349z"/>
	<path fill="#FFFFFF" d="M312.333,96.325c1.773,1.625,4.584,0.81,4.27-1.673c-0.313-2.483-4.559-3.157-6.47,0.132
		c-1.91,3.292,0.431,8.49,7.554,9.295c7.124,0.806,11.624-7.772,9.668-13.849c-1.957-6.072-11.476-10.597-23.315-3.382
		c-11.837,7.214-28.311,9.981-41.482,1.883c12.72,10.484,30.658,5.689,42.351-0.581c11.7-6.266,19.132-1.301,20.385,3.136
		c1.285,4.558-1.963,9.715-7.086,10.609C313.085,102.796,311.764,98.066,312.333,96.325z"/>
	<path fill="#FFFFFF" d="M314.234,82.15c8.629-0.894,12.25,2.216,14.434,5.649c2.562,4.023,0.984,9.989-1.262,14.393
		c5.112-3.898,5.59-11.647,3.245-15.497C328.366,82.948,322.877,79.495,314.234,82.15z"/>
	<path fill="#FFFFFF" d="M328.38,81.349c-4.537-2.604-11.353-2.406-17.951-0.205c6.466-3.36,14.703-4.198,19.237-1.502
		c4.534,2.7,6.787,8.056,5.833,13.654C334.636,88.063,332.917,83.954,328.38,81.349z"/>
	<path fill="#FFFFFF" d="M276.016,99.961c-7.948,0-18.888-4.623-25.072-8.388c4.551,4.138,13.216,10.916,25.072,10.916
		s20.522-6.778,25.07-10.916C294.904,95.338,283.965,99.961,276.016,99.961z"/>
	<g>
		<path fill="#FFFFFF" d="M275.4,97.507c-4.447-10.5-11.122-10.025-13.561-9.917c-2.444,0.107-4.961-0.729-5.542-2.698
			c-0.584-1.968,2.118-4.136,6.852-3.79C267.886,81.448,273.505,84.455,275.4,97.507z"/>
		<path fill="#FFFFFF" d="M276.016,70.003c-3.604,0-5.865,4.99-4.116,9.932c1.751,4.941,3.575,8.312,4.116,17.8
			c0.542-9.487,2.364-12.858,4.114-17.8C281.88,74.993,279.621,70.003,276.016,70.003z"/>
		<path fill="#FFFFFF" d="M276.631,97.507c4.448-10.5,11.121-10.025,13.562-9.917c2.441,0.107,4.959-0.729,5.542-2.698
			c0.584-1.968-2.118-4.136-6.854-3.79C284.144,81.448,278.527,84.455,276.631,97.507z"/>
	</g>
</g>
<g opacity="0.15">
	<path fill="#FFFFFF" d="M276.011,450.073c7.926,0,18.836,4.61,25.001,8.365c-4.538-4.126-13.179-10.885-25.001-10.885
		c-11.821,0-20.464,6.759-24.999,10.885C257.176,454.684,268.085,450.073,276.011,450.073z"/>
	<g>
		<path fill="#FFFFFF" d="M276.624,452.521c4.435,10.471,11.091,9.997,13.522,9.89c2.437-0.107,4.946,0.727,5.525,2.69
			c0.583,1.962-2.111,4.124-6.831,3.779C284.118,468.535,278.515,465.536,276.624,452.521z"/>
		<path fill="#FFFFFF" d="M276.011,479.947c3.594,0,5.849-4.975,4.104-9.903c-1.746-4.928-3.565-8.289-4.104-17.75
			c-0.541,9.461-2.356,12.822-4.102,17.75C270.164,474.973,272.417,479.947,276.011,479.947z"/>
		<path fill="#FFFFFF" d="M275.397,452.521c-4.435,10.471-11.089,9.997-13.523,9.89c-2.435-0.107-4.945,0.727-5.526,2.69
			c-0.582,1.962,2.112,4.124,6.834,3.779C267.907,468.535,273.507,465.536,275.397,452.521z"/>
	</g>
</g>
</svg>
