<?xml version="1.0" encoding="utf-8"?>
<!-- Generator: Adobe Illustrator 16.0.0, SVG Export Plug-In . SVG Version: 6.00 Build 0)  -->
<!DOCTYPE svg PUBLIC "-//W3C//DTD SVG 1.1//EN" "http://www.w3.org/Graphics/SVG/1.1/DTD/svg11.dtd">
<svg version="1.1" id="Layer_1" xmlns="http://www.w3.org/2000/svg" xmlns:xlink="http://www.w3.org/1999/xlink" x="0px" y="0px"
	 width="106px" height="134px" viewBox="0 0 106 134" enable-background="new 0 0 106 134" xml:space="preserve">
<g>
	<defs>
		<rect id="SVGID_1_" x="2" y="2" width="46" height="36"/>
	</defs>
	<clipPath id="SVGID_2_">
		<use xlink:href="#SVGID_1_"  overflow="visible"/>
	</clipPath>
	
		<rect x="2" y="2" clip-path="url(#SVGID_2_)" fill="none" stroke="#78B4D2" stroke-width="4" stroke-miterlimit="10" stroke-dasharray="5,4" width="46" height="36"/>
</g>
<g>
	<defs>
		<rect id="SVGID_3_" x="2" y="2" width="21" height="19"/>
	</defs>
	<clipPath id="SVGID_4_">
		<use xlink:href="#SVGID_3_"  overflow="visible"/>
	</clipPath>
	
		<rect x="2" y="2" clip-path="url(#SVGID_4_)" fill="none" stroke="#78B4D2" stroke-width="4" stroke-miterlimit="10" width="21" height="19"/>
</g>
<g>
	<defs>
		<path id="SVGID_5_" d="M0-1h-1v1v6v1h1h6h1V6V0v-1H6H0z M0,1h6L5,0v6l1-1H0l1,1V0L0,1z M-21-21h48v48h-48V-21z"/>
	</defs>
	<clipPath id="SVGID_6_">
		<use xlink:href="#SVGID_5_"  overflow="visible"/>
	</clipPath>
	<g clip-path="url(#SVGID_6_)">
		<defs>
			<rect id="SVGID_7_" width="6" height="6"/>
		</defs>
		<clipPath id="SVGID_8_">
			<use xlink:href="#SVGID_7_"  overflow="visible"/>
		</clipPath>
		<rect clip-path="url(#SVGID_8_)" fill-rule="evenodd" clip-rule="evenodd" fill="#FFFFFF" width="6" height="6"/>
	</g>
</g>
<g>
	<defs>
		<rect id="SVGID_9_" width="6" height="6"/>
	</defs>
	<clipPath id="SVGID_10_">
		<use xlink:href="#SVGID_9_"  overflow="visible"/>
	</clipPath>
	<rect clip-path="url(#SVGID_10_)" fill="none" stroke="#78B4D2" stroke-width="4" stroke-miterlimit="10" width="6" height="6"/>
</g>
<g>
	<defs>
		<path id="SVGID_11_" d="M19-1h-1v1v6v1h1h6h1V6V0v-1h-1H19z M19,1h6l-1-1v6l1-1h-6l1,1V0L19,1z M-2-21h48v48H-2V-21z"/>
	</defs>
	<clipPath id="SVGID_12_">
		<use xlink:href="#SVGID_11_"  overflow="visible"/>
	</clipPath>
	<g clip-path="url(#SVGID_12_)">
		<defs>
			<rect id="SVGID_13_" x="19" width="6" height="6"/>
		</defs>
		<clipPath id="SVGID_14_">
			<use xlink:href="#SVGID_13_"  overflow="visible"/>
		</clipPath>
		<rect x="19" clip-path="url(#SVGID_14_)" fill-rule="evenodd" clip-rule="evenodd" fill="#FFFFFF" width="6" height="6"/>
	</g>
</g>
<g>
	<defs>
		<rect id="SVGID_15_" x="19" width="6" height="6"/>
	</defs>
	<clipPath id="SVGID_16_">
		<use xlink:href="#SVGID_15_"  overflow="visible"/>
	</clipPath>
	
		<rect x="19" clip-path="url(#SVGID_16_)" fill="none" stroke="#78B4D2" stroke-width="4" stroke-miterlimit="10" width="6" height="6"/>
</g>
<g>
	<defs>
		<path id="SVGID_17_" d="M19,16h-1v1v6v1h1h6h1v-1v-6v-1h-1H19z M19,18h6l-1-1v6l1-1h-6l1,1v-6L19,18z M-2-4h48v48H-2V-4z"/>
	</defs>
	<clipPath id="SVGID_18_">
		<use xlink:href="#SVGID_17_"  overflow="visible"/>
	</clipPath>
	<g clip-path="url(#SVGID_18_)">
		<defs>
			<rect id="SVGID_19_" x="19" y="17" width="6" height="6"/>
		</defs>
		<clipPath id="SVGID_20_">
			<use xlink:href="#SVGID_19_"  overflow="visible"/>
		</clipPath>
		<rect x="19" y="17" clip-path="url(#SVGID_20_)" fill-rule="evenodd" clip-rule="evenodd" fill="#FFFFFF" width="6" height="6"/>
	</g>
</g>
<g>
	<defs>
		<rect id="SVGID_21_" x="19" y="17" width="6" height="6"/>
	</defs>
	<clipPath id="SVGID_22_">
		<use xlink:href="#SVGID_21_"  overflow="visible"/>
	</clipPath>
	
		<rect x="19" y="17" clip-path="url(#SVGID_22_)" fill="none" stroke="#78B4D2" stroke-width="4" stroke-miterlimit="10" width="6" height="6"/>
</g>
<g>
	<defs>
		<path id="SVGID_23_" d="M0,16h-1v1v6v1h1h6h1v-1v-6v-1H6H0z M0,18h6l-1-1v6l1-1H0l1,1v-6L0,18z M-21-4h48v48h-48V-4z"/>
	</defs>
	<clipPath id="SVGID_24_">
		<use xlink:href="#SVGID_23_"  overflow="visible"/>
	</clipPath>
	<g clip-path="url(#SVGID_24_)">
		<defs>
			<rect id="SVGID_25_" y="17" width="6" height="6"/>
		</defs>
		<clipPath id="SVGID_26_">
			<use xlink:href="#SVGID_25_"  overflow="visible"/>
		</clipPath>
		<rect y="17" clip-path="url(#SVGID_26_)" fill-rule="evenodd" clip-rule="evenodd" fill="#FFFFFF" width="6" height="6"/>
	</g>
</g>
<g>
	<defs>
		<rect id="SVGID_27_" y="17" width="6" height="6"/>
	</defs>
	<clipPath id="SVGID_28_">
		<use xlink:href="#SVGID_27_"  overflow="visible"/>
	</clipPath>
	
		<rect y="17" clip-path="url(#SVGID_28_)" fill="none" stroke="#78B4D2" stroke-width="4" stroke-miterlimit="10" width="6" height="6"/>
</g>
<g>
	<defs>
		<rect id="SVGID_29_" y="48" width="30" height="25"/>
	</defs>
	<clipPath id="SVGID_30_">
		<use xlink:href="#SVGID_29_"  overflow="visible"/>
	</clipPath>
	
		<rect y="48" clip-path="url(#SVGID_30_)" fill="none" stroke="#78B4D2" stroke-width="4" stroke-miterlimit="10" width="30" height="25"/>
</g>
<g>
	<defs>
		<rect id="SVGID_31_" x="33" y="48" width="15" height="11"/>
	</defs>
	<clipPath id="SVGID_32_">
		<use xlink:href="#SVGID_31_"  overflow="visible"/>
	</clipPath>
	
		<rect x="33" y="48" clip-path="url(#SVGID_32_)" fill="none" stroke="#78B4D2" stroke-width="4" stroke-miterlimit="10" width="15" height="11"/>
</g>
<g>
	<defs>
		<rect id="SVGID_33_" x="33" y="62" width="15" height="11"/>
	</defs>
	<clipPath id="SVGID_34_">
		<use xlink:href="#SVGID_33_"  overflow="visible"/>
	</clipPath>
	
		<rect x="33" y="62" clip-path="url(#SVGID_34_)" fill="none" stroke="#78B4D2" stroke-width="4" stroke-miterlimit="10" width="15" height="11"/>
</g>
<g>
	<defs>
		<rect id="SVGID_35_" y="76" width="48" height="10"/>
	</defs>
	<clipPath id="SVGID_36_">
		<use xlink:href="#SVGID_35_"  overflow="visible"/>
	</clipPath>
	
		<rect y="76" clip-path="url(#SVGID_36_)" fill="none" stroke="#78B4D2" stroke-width="4" stroke-miterlimit="10" width="48" height="10"/>
</g>
<g>
	<defs>
		<path id="SVGID_37_" d="M0,105.994C0,103.236,2.235,101,5.001,101h37.998c2.762,0,5.001,2.242,5.001,4.994v23.012
			c0,2.758-2.234,4.994-5.001,4.994H5.001C2.239,134,0,131.758,0,129.006V105.994z"/>
	</defs>
	<clipPath id="SVGID_38_">
		<use xlink:href="#SVGID_37_"  overflow="visible"/>
	</clipPath>
	<path clip-path="url(#SVGID_38_)" fill="none" stroke="#78B4D2" stroke-width="4" stroke-miterlimit="10" d="M0,105.994
		C0,103.236,2.235,101,5.001,101h37.998c2.762,0,5.001,2.242,5.001,4.994v23.012c0,2.758-2.234,4.994-5.001,4.994H5.001
		C2.239,134,0,131.758,0,129.006V105.994z"/>
</g>
<g>
	<defs>
		<path id="SVGID_39_" d="M33,104.003v-3.008C33,98.233,30.766,96,28.01,96h-8.02c-2.747,0-4.99,2.236-4.99,4.995v3.008V103h18
			V104.003z"/>
	</defs>
	<clipPath id="SVGID_40_">
		<use xlink:href="#SVGID_39_"  overflow="visible"/>
	</clipPath>
	<path clip-path="url(#SVGID_40_)" fill="none" stroke="#78B4D2" stroke-width="4" stroke-miterlimit="10" d="M33,104.003v-3.008
		C33,98.233,30.766,96,28.01,96h-8.02c-2.747,0-4.99,2.236-4.99,4.995v3.008V103h18V104.003z"/>
</g>
<line fill="none" stroke="#78B4D2" stroke-width="2" stroke-linecap="square" stroke-miterlimit="10" x1="20" y1="118" x2="2" y2="118"/>
<line fill="none" stroke="#78B4D2" stroke-width="2" stroke-linecap="square" stroke-miterlimit="10" x1="45" y1="118" x2="28" y2="118"/>
<g>
	<defs>
		<rect id="SVGID_41_" x="20" y="114" width="8" height="8"/>
	</defs>
	<clipPath id="SVGID_42_">
		<use xlink:href="#SVGID_41_"  overflow="visible"/>
	</clipPath>
	
		<rect x="20" y="114" clip-path="url(#SVGID_42_)" fill="none" stroke="#78B4D2" stroke-width="4" stroke-miterlimit="10" width="8" height="8"/>
</g>
<g>
	<defs>
		<path id="SVGID_43_" d="M58,52.994C58,50.236,60.234,48,63.001,48h37.998c2.762,0,5.001,2.242,5.001,4.994v23.012
			c0,2.758-2.234,4.994-5.001,4.994H63.001C60.239,81,58,78.758,58,76.006V52.994z"/>
	</defs>
	<clipPath id="SVGID_44_">
		<use xlink:href="#SVGID_43_"  overflow="visible"/>
	</clipPath>
	<path clip-path="url(#SVGID_44_)" fill="none" stroke="#78B4D2" stroke-width="4" stroke-miterlimit="10" d="M58,52.994
		C58,50.236,60.234,48,63.001,48h37.998c2.762,0,5.001,2.242,5.001,4.994v23.012c0,2.758-2.234,4.994-5.001,4.994H63.001
		C60.239,81,58,78.758,58,76.006V52.994z"/>
</g>
<line fill="none" stroke="#78B4D2" stroke-width="2" stroke-linecap="square" stroke-miterlimit="10" x1="104.5" y1="72" x2="59.5" y2="72"/>
<line fill="none" stroke="#78B4D2" stroke-width="2" stroke-linecap="square" stroke-miterlimit="10" x1="73" y1="55" x2="65" y2="55"/>
<line fill="none" stroke="#78B4D2" stroke-width="2" stroke-linecap="square" stroke-miterlimit="10" x1="89" y1="59" x2="65" y2="59"/>
<line fill="none" stroke="#78B4D2" stroke-width="2" stroke-linecap="square" stroke-miterlimit="10" x1="83" y1="63" x2="65" y2="63"/>
<line fill="none" stroke="#78B4D2" stroke-width="2" stroke-linecap="square" stroke-miterlimit="10" x1="77" y1="67" x2="65" y2="67"/>
<g>
	<defs>
		<circle id="SVGID_45_" cx="82" cy="76" r="2"/>
	</defs>
	<clipPath id="SVGID_46_">
		<use xlink:href="#SVGID_45_"  overflow="visible"/>
	</clipPath>
	<rect x="75" y="69" clip-path="url(#SVGID_46_)" fill="#78B4D2" width="14" height="14"/>
</g>
<line fill="none" stroke="#78B4D2" stroke-width="2" stroke-linecap="square" stroke-miterlimit="10" x1="92" y1="85" x2="72" y2="85"/>
<line fill="none" stroke="#78B4D2" stroke-width="2" stroke-linecap="square" stroke-miterlimit="10" x1="76" y1="83" x2="76" y2="81"/>
<line fill="none" stroke="#78B4D2" stroke-width="2" stroke-linecap="square" stroke-miterlimit="10" x1="88" y1="83" x2="88" y2="81"/>
<g>
	<defs>
		<rect id="SVGID_47_" x="58" y="22" width="26" height="16"/>
	</defs>
	<clipPath id="SVGID_48_">
		<use xlink:href="#SVGID_47_"  overflow="visible"/>
	</clipPath>
	
		<rect x="58" y="22" clip-path="url(#SVGID_48_)" fill="none" stroke="#78B4D2" stroke-width="4" stroke-miterlimit="10" width="26" height="16"/>
</g>
<g>
	<defs>
		<rect id="SVGID_49_" x="88" y="13" width="18" height="12"/>
	</defs>
	<clipPath id="SVGID_50_">
		<use xlink:href="#SVGID_49_"  overflow="visible"/>
	</clipPath>
	
		<rect x="88" y="13" clip-path="url(#SVGID_50_)" fill="none" stroke="#78B4D2" stroke-width="4" stroke-miterlimit="10" width="18" height="12"/>
</g>
<line fill="none" stroke="#78B4D2" stroke-width="2" stroke-linecap="square" stroke-miterlimit="10" x1="98" y1="19" x2="101" y2="19"/>
<g>
	<defs>
		<circle id="SVGID_51_" cx="94" cy="19" r="2"/>
	</defs>
	<clipPath id="SVGID_52_">
		<use xlink:href="#SVGID_51_"  overflow="visible"/>
	</clipPath>
	<rect x="87" y="12" clip-path="url(#SVGID_52_)" fill="#78B4D2" width="14" height="14"/>
</g>
<line fill="none" stroke="#78B4D2" stroke-width="2" stroke-linecap="square" stroke-miterlimit="10" x1="68" y1="28" x2="71" y2="28"/>
<line fill="none" stroke="#78B4D2" stroke-width="2" stroke-linecap="square" stroke-miterlimit="10" x1="80" y1="6" x2="83" y2="6"/>
<g>
	<defs>
		<circle id="SVGID_53_" cx="64" cy="28" r="2"/>
	</defs>
	<clipPath id="SVGID_54_">
		<use xlink:href="#SVGID_53_"  overflow="visible"/>
	</clipPath>
	<rect x="57" y="21" clip-path="url(#SVGID_54_)" fill="#78B4D2" width="14" height="14"/>
</g>
<g>
	<defs>
		<circle id="SVGID_55_" cx="76" cy="6" r="2"/>
	</defs>
	<clipPath id="SVGID_56_">
		<use xlink:href="#SVGID_55_"  overflow="visible"/>
	</clipPath>
	<rect x="69" y="-1" clip-path="url(#SVGID_56_)" fill="#78B4D2" width="14" height="14"/>
</g>
<line fill="none" stroke="#78B4D2" stroke-width="2" stroke-linecap="square" stroke-miterlimit="10" x1="90" y1="3" x2="90" y2="8"/>
<line fill="none" stroke="#78B4D2" stroke-width="2" stroke-linecap="square" stroke-miterlimit="10" x1="97" y1="8" x2="97" y2="12"/>
<line fill="none" stroke="#78B4D2" stroke-width="2" stroke-linecap="square" stroke-miterlimit="10" x1="97" y1="26" x2="97" y2="32"/>
<line fill="none" stroke="#78B4D2" stroke-width="2" stroke-linecap="square" stroke-miterlimit="10" x1="71" y1="1" x2="71" y2="21"/>
<line fill="none" stroke="#78B4D2" stroke-width="2" stroke-linecap="square" stroke-miterlimit="10" x1="95" y1="8" x2="90" y2="8"/>
<line fill="none" stroke="#78B4D2" stroke-width="2" stroke-linecap="square" stroke-miterlimit="10" x1="96.6" y1="7" x2="91" y2="1.4"/>
<line fill="none" stroke="#78B4D2" stroke-width="2" stroke-linecap="square" stroke-miterlimit="10" x1="97" y1="34" x2="85" y2="34"/>
<line fill="none" stroke="#78B4D2" stroke-width="2" stroke-linecap="square" stroke-miterlimit="10" x1="90" y1="1" x2="71" y2="1"/>
<g>
	<defs>
		<path id="SVGID_57_" d="M63,104.989c0,0.003,0,0.006,0,0.009v16.004c0,2.759,2.237,4.998,4.997,4.998h6.006
			c2.756,0,4.997-2.237,4.997-4.998v-16.004c0-0.003,0-0.006,0-0.009C78.994,100.576,75.415,97,71,97S63.006,100.576,63,104.989z"/>
	</defs>
	<clipPath id="SVGID_58_">
		<use xlink:href="#SVGID_57_"  overflow="visible"/>
	</clipPath>
	<path clip-path="url(#SVGID_58_)" fill="none" stroke="#78B4D2" stroke-width="4" stroke-miterlimit="10" d="M63,104.989
		c0,0.003,0,0.006,0,0.009v16.004c0,2.759,2.237,4.998,4.997,4.998h6.006c2.756,0,4.997-2.237,4.997-4.998v-16.004
		c0-0.003,0-0.006,0-0.009C78.994,100.576,75.415,97,71,97S63.006,100.576,63,104.989z"/>
</g>
<line fill="none" stroke="#78B4D2" stroke-width="2" stroke-linecap="square" stroke-miterlimit="10" x1="69" y1="120" x2="69" y2="108"/>
<line fill="none" stroke="#78B4D2" stroke-width="2" stroke-linecap="square" stroke-miterlimit="10" x1="73" y1="120" x2="73" y2="108"/>
<g>
	<defs>
		<path id="SVGID_59_" d="M74,123.502v7.495c0,1.658-1.347,3.003-3,3.003c-1.657,0-3-1.343-3-3.003v-7.495V124h6V123.502z"/>
	</defs>
	<clipPath id="SVGID_60_">
		<use xlink:href="#SVGID_59_"  overflow="visible"/>
	</clipPath>
	<path clip-path="url(#SVGID_60_)" fill="none" stroke="#78B4D2" stroke-width="4" stroke-miterlimit="10" d="M74,123.502v7.495
		c0,1.658-1.347,3.003-3,3.003c-1.657,0-3-1.343-3-3.003v-7.495V124h6V123.502z"/>
</g>
<g>
	<defs>
		<path id="SVGID_61_" d="M100.047,100.9c0.608,1.312,0.953,2.814,0.953,4.41c0,0.171-0.004,0.342-0.012,0.511
			c0.008,0.114,0.012,0.229,0.012,0.346v14.839c0,2.758-2.241,4.994-4.997,4.994h-6.006c-2.76,0-4.997-2.247-4.997-4.994v-14.839
			c0-0.116,0.004-0.231,0.012-0.346c-0.008-0.17-0.012-0.34-0.012-0.511C85,100.168,88.582,96,93,96
			c0.628,0,1.238,0.084,1.824,0.243C94.311,96.853,94,97.64,94,98.5c0,1.933,1.567,3.5,3.5,3.5
			C98.504,102,99.409,101.577,100.047,100.9z"/>
	</defs>
	<clipPath id="SVGID_62_">
		<use xlink:href="#SVGID_61_"  overflow="visible"/>
	</clipPath>
	<path clip-path="url(#SVGID_62_)" fill="none" stroke="#78B4D2" stroke-width="4" stroke-miterlimit="10" d="M100.047,100.9
		c0.608,1.312,0.953,2.814,0.953,4.41c0,0.171-0.004,0.342-0.012,0.511c0.008,0.114,0.012,0.229,0.012,0.346v14.839
		c0,2.758-2.241,4.994-4.997,4.994h-6.006c-2.76,0-4.997-2.247-4.997-4.994v-14.839c0-0.116,0.004-0.231,0.012-0.346
		c-0.008-0.17-0.012-0.34-0.012-0.511C85,100.168,88.582,96,93,96c0.628,0,1.238,0.084,1.824,0.243C94.311,96.853,94,97.64,94,98.5
		c0,1.933,1.567,3.5,3.5,3.5C98.504,102,99.409,101.577,100.047,100.9z"/>
</g>
<g>
	<defs>
		<path id="SVGID_63_" d="M96,123.502v7.495c0,1.658-1.347,3.003-3,3.003c-1.657,0-3-1.343-3-3.003v-7.495V124h6V123.502z"/>
	</defs>
	<clipPath id="SVGID_64_">
		<use xlink:href="#SVGID_63_"  overflow="visible"/>
	</clipPath>
	<path clip-path="url(#SVGID_64_)" fill="none" stroke="#78B4D2" stroke-width="4" stroke-miterlimit="10" d="M96,123.502v7.495
		c0,1.658-1.347,3.003-3,3.003c-1.657,0-3-1.343-3-3.003v-7.495V124h6V123.502z"/>
</g>
<line fill="none" stroke="#78B4D2" stroke-width="2" stroke-linecap="square" stroke-miterlimit="10" x1="100" y1="119.998" x2="86" y2="119.998"/>
</svg>
