<?xml version="1.0" encoding="utf-8"?>
<!-- Generator: Adobe Illustrator 16.0.0, SVG Export Plug-In . SVG Version: 6.00 Build 0)  -->
<!DOCTYPE svg PUBLIC "-//W3C//DTD SVG 1.1//EN" "http://www.w3.org/Graphics/SVG/1.1/DTD/svg11.dtd">
<svg version="1.1" id="Layer_1" xmlns="http://www.w3.org/2000/svg" xmlns:xlink="http://www.w3.org/1999/xlink" x="0px" y="0px"
	 width="320px" height="160px" viewBox="0 0 320 160" enable-background="new 0 0 320 160" xml:space="preserve">
<g>
	<defs>
		<path id="SVGID_1_" d="M205,144.002h112.998c1.105,0,2.002,0.888,2.002,2v6c0,1.104-0.89,2-2.002,2H205V144.002z M168,144.002
			H2.002c-1.112,0-2.002,0.896-2.002,2v6c0,1.112,0.896,2,2.002,2H168V144.002z"/>
	</defs>
	<clipPath id="SVGID_2_">
		<use xlink:href="#SVGID_1_"  overflow="visible"/>
	</clipPath>
	<path clip-path="url(#SVGID_2_)" fill="none" stroke="#3C4B5D" stroke-width="4" stroke-miterlimit="10" d="M205,144.002h112.998
		c1.105,0,2.002,0.888,2.002,2v6c0,1.104-0.89,2-2.002,2H205V144.002z M168,144.002H2.002c-1.112,0-2.002,0.896-2.002,2v6
		c0,1.112,0.896,2,2.002,2H168V144.002z"/>
</g>
<g>
	<defs>
		<path id="SVGID_3_" d="M21,152.002c0.552,0,1,0.453,1,0.997v6.006c0,0.551-0.444,0.997-1,0.997c-0.552,0-1-0.453-1-0.997v-6.006
			C20,152.448,20.444,152.002,21,152.002z"/>
	</defs>
	<clipPath id="SVGID_4_">
		<use xlink:href="#SVGID_3_"  overflow="visible"/>
	</clipPath>
	<path clip-path="url(#SVGID_4_)" fill="none" stroke="#3C4B5D" stroke-width="4" stroke-miterlimit="10" d="M21,152.002
		c0.552,0,1,0.453,1,0.997v6.006c0,0.551-0.444,0.997-1,0.997c-0.552,0-1-0.453-1-0.997v-6.006
		C20,152.448,20.444,152.002,21,152.002z"/>
</g>
<g>
	<defs>
		<path id="SVGID_5_" d="M31,152.002c0.552,0,1,0.453,1,0.997v6.006c0,0.551-0.444,0.997-1,0.997c-0.552,0-1-0.453-1-0.997v-6.006
			C30,152.448,30.444,152.002,31,152.002z"/>
	</defs>
	<clipPath id="SVGID_6_">
		<use xlink:href="#SVGID_5_"  overflow="visible"/>
	</clipPath>
	<path clip-path="url(#SVGID_6_)" fill="none" stroke="#3C4B5D" stroke-width="4" stroke-miterlimit="10" d="M31,152.002
		c0.552,0,1,0.453,1,0.997v6.006c0,0.551-0.444,0.997-1,0.997c-0.552,0-1-0.453-1-0.997v-6.006
		C30,152.448,30.444,152.002,31,152.002z"/>
</g>
<g>
	<defs>
		<path id="SVGID_7_" d="M289,152.002c0.553,0,1,0.453,1,0.997v6.006c0,0.551-0.444,0.997-1,0.997c-0.553,0-1-0.453-1-0.997v-6.006
			C288,152.448,288.444,152.002,289,152.002z"/>
	</defs>
	<clipPath id="SVGID_8_">
		<use xlink:href="#SVGID_7_"  overflow="visible"/>
	</clipPath>
	<path clip-path="url(#SVGID_8_)" fill="none" stroke="#3C4B5D" stroke-width="4" stroke-miterlimit="10" d="M289,152.002
		c0.553,0,1,0.453,1,0.997v6.006c0,0.551-0.444,0.997-1,0.997c-0.553,0-1-0.453-1-0.997v-6.006
		C288,152.448,288.443,152.002,289,152.002z"/>
</g>
<g>
	<defs>
		<path id="SVGID_9_" d="M299,152.002c0.553,0,1,0.453,1,0.997v6.006c0,0.551-0.444,0.997-1,0.997c-0.553,0-1-0.453-1-0.997v-6.006
			C298,152.448,298.444,152.002,299,152.002z"/>
	</defs>
	<clipPath id="SVGID_10_">
		<use xlink:href="#SVGID_9_"  overflow="visible"/>
	</clipPath>
	<path clip-path="url(#SVGID_10_)" fill="none" stroke="#3C4B5D" stroke-width="4" stroke-miterlimit="10" d="M299,152.002
		c0.553,0,1,0.453,1,0.997v6.006c0,0.551-0.444,0.997-1,0.997c-0.553,0-1-0.453-1-0.997v-6.006
		C298,152.448,298.443,152.002,299,152.002z"/>
</g>
<g>
	<defs>
		<path id="SVGID_11_" d="M92.007,126.002H29.993c-1.651,0-2.993,1.344-2.993,2.997v15.006c0,1.657,1.339,2.997,2.993,2.997h62.014
			c1.651,0,2.993-1.344,2.993-2.997v-15.006C95,127.342,93.661,126.002,92.007,126.002z M92.007,128.002
			c0.549,0,0.993,0.444,0.993,0.997v15.006c0,0.55-0.447,0.997-0.993,0.997H29.993c-0.549,0-0.993-0.444-0.993-0.997v-15.006
			c0-0.55,0.447-0.997,0.993-0.997H92.007z M115,106.002v61H7v-61H115z"/>
	</defs>
	<clipPath id="SVGID_12_">
		<use xlink:href="#SVGID_11_"  overflow="visible"/>
	</clipPath>
	<g clip-path="url(#SVGID_12_)">
		<defs>
			<path id="SVGID_13_" d="M92.007,127.002c1.101,0,1.993,0.891,1.993,1.997v15.006c0,1.103-0.896,1.997-1.993,1.997H29.993
				c-1.101,0-1.993-0.891-1.993-1.997v-15.006c0-1.103,0.896-1.997,1.993-1.997H92.007z"/>
		</defs>
		<clipPath id="SVGID_14_">
			<use xlink:href="#SVGID_13_"  overflow="visible"/>
		</clipPath>
		<path clip-path="url(#SVGID_14_)" fill-rule="evenodd" clip-rule="evenodd" fill="#E2EDF4" d="M92.007,127.002
			c1.101,0,1.993,0.891,1.993,1.997v15.006c0,1.103-0.896,1.997-1.993,1.997H29.993c-1.101,0-1.993-0.891-1.993-1.997v-15.006
			c0-1.103,0.896-1.997,1.993-1.997H92.007z"/>
	</g>
</g>
<g>
	<defs>
		<path id="SVGID_15_" d="M92.007,127.002c1.101,0,1.993,0.891,1.993,1.997v15.006c0,1.103-0.896,1.997-1.993,1.997H29.993
			c-1.101,0-1.993-0.891-1.993-1.997v-15.006c0-1.103,0.896-1.997,1.993-1.997H92.007z"/>
	</defs>
	<clipPath id="SVGID_16_">
		<use xlink:href="#SVGID_15_"  overflow="visible"/>
	</clipPath>
	<path clip-path="url(#SVGID_16_)" fill="none" stroke="#3C4B5D" stroke-width="4" stroke-miterlimit="10" d="M92.007,127.002
		c1.101,0,1.993,0.891,1.993,1.997v15.006c0,1.103-0.896,1.997-1.993,1.997H29.993c-1.101,0-1.993-0.891-1.993-1.997v-15.006
		c0-1.103,0.896-1.997,1.993-1.997H92.007z"/>
</g>
<g>
	<defs>
		<path id="SVGID_17_" d="M87.5,132.502c0.552,0,1,0.446,1,0.997v7.006c0,0.551-0.444,0.997-1,0.997c-0.552,0-1-0.446-1-0.997
			v-7.006C86.5,132.948,86.944,132.502,87.5,132.502z"/>
	</defs>
	<clipPath id="SVGID_18_">
		<use xlink:href="#SVGID_17_"  overflow="visible"/>
	</clipPath>
	<path clip-path="url(#SVGID_18_)" fill="none" stroke="#3C4B5D" stroke-width="4" stroke-miterlimit="10" d="M87.5,132.502
		c0.552,0,1,0.446,1,0.997v7.006c0,0.551-0.444,0.997-1,0.997c-0.552,0-1-0.446-1-0.997v-7.006
		C86.5,132.948,86.944,132.502,87.5,132.502z"/>
</g>
<g>
	<defs>
		<path id="SVGID_19_" d="M35.5,132.502c0.552,0,1,0.446,1,0.997v7.006c0,0.551-0.444,0.997-1,0.997c-0.552,0-1-0.446-1-0.997
			v-7.006C34.5,132.948,34.944,132.502,35.5,132.502z"/>
	</defs>
	<clipPath id="SVGID_20_">
		<use xlink:href="#SVGID_19_"  overflow="visible"/>
	</clipPath>
	<path clip-path="url(#SVGID_20_)" fill="none" stroke="#3C4B5D" stroke-width="4" stroke-miterlimit="10" d="M35.5,132.502
		c0.552,0,1,0.446,1,0.997v7.006c0,0.551-0.444,0.997-1,0.997c-0.552,0-1-0.446-1-0.997v-7.006
		C34.5,132.948,34.944,132.502,35.5,132.502z"/>
</g>
<g>
	<defs>
		<path id="SVGID_21_" d="M85.124,115.002H38.008c-2.208,0-4.008,1.788-4.008,3.993v6.014c0,2.206,1.794,3.993,4.008,3.993h47.116
			c-2.459-1.364-4.124-3.988-4.124-7S82.665,116.366,85.124,115.002z"/>
	</defs>
	<clipPath id="SVGID_22_">
		<use xlink:href="#SVGID_21_"  overflow="visible"/>
	</clipPath>
	<path clip-path="url(#SVGID_22_)" fill="none" stroke="#3C4B5D" stroke-width="4" stroke-miterlimit="10" d="M85.124,115.002
		H38.008c-2.208,0-4.008,1.788-4.008,3.993v6.014c0,2.206,1.794,3.993,4.008,3.993h47.116c-2.459-1.364-4.124-3.988-4.124-7
		S82.665,116.366,85.124,115.002z"/>
</g>
<g>
	<defs>
		<path id="SVGID_23_" d="M62.5,120.002c0,0.553-0.449,1-0.996,1H40.996c-0.55,0-0.996-0.444-0.996-1c0-0.553,0.449-1,0.996-1
			h20.509C62.054,119.002,62.5,119.446,62.5,120.002z"/>
	</defs>
	<clipPath id="SVGID_24_">
		<use xlink:href="#SVGID_23_"  overflow="visible"/>
	</clipPath>
	<path clip-path="url(#SVGID_24_)" fill="none" stroke="#3C4B5D" stroke-width="4" stroke-miterlimit="10" d="M62.5,120.002
		c0,0.553-0.449,1-0.996,1H40.996c-0.55,0-0.996-0.444-0.996-1c0-0.553,0.449-1,0.996-1h20.509
		C62.054,119.002,62.5,119.446,62.5,120.002z"/>
</g>
<g>
	<defs>
		<path id="SVGID_25_" d="M73,120.002c0,0.553-0.453,1-0.997,1h-6.006c-0.551,0-0.997-0.444-0.997-1c0-0.553,0.453-1,0.997-1h6.006
			C72.554,119.002,73,119.446,73,120.002z"/>
	</defs>
	<clipPath id="SVGID_26_">
		<use xlink:href="#SVGID_25_"  overflow="visible"/>
	</clipPath>
	<path clip-path="url(#SVGID_26_)" fill="none" stroke="#3C4B5D" stroke-width="4" stroke-miterlimit="10" d="M73,120.002
		c0,0.553-0.453,1-0.997,1h-6.006c-0.551,0-0.997-0.444-0.997-1c0-0.553,0.453-1,0.997-1h6.006
		C72.554,119.002,73,119.446,73,120.002z"/>
</g>
<g>
	<defs>
		<path id="SVGID_27_" d="M75,124.002c0,0.553-0.455,1-0.996,1H50.996c-0.55,0-0.996-0.444-0.996-1c0-0.553,0.455-1,0.996-1h23.009
			C74.554,123.002,75,123.446,75,124.002z"/>
	</defs>
	<clipPath id="SVGID_28_">
		<use xlink:href="#SVGID_27_"  overflow="visible"/>
	</clipPath>
	<path clip-path="url(#SVGID_28_)" fill="none" stroke="#3C4B5D" stroke-width="4" stroke-miterlimit="10" d="M75,124.002
		c0,0.553-0.455,1-0.996,1H50.996c-0.55,0-0.996-0.444-0.996-1c0-0.553,0.455-1,0.996-1h23.009
		C74.554,123.002,75,123.446,75,124.002z"/>
</g>
<g>
	<defs>
		<path id="SVGID_29_" d="M48,124.002c0,0.553-0.451,1-0.991,1h-4.019c-0.547,0-0.991-0.444-0.991-1c0-0.553,0.451-1,0.991-1h4.019
			C47.557,123.002,48,123.446,48,124.002z"/>
	</defs>
	<clipPath id="SVGID_30_">
		<use xlink:href="#SVGID_29_"  overflow="visible"/>
	</clipPath>
	<path clip-path="url(#SVGID_30_)" fill="none" stroke="#3C4B5D" stroke-width="4" stroke-miterlimit="10" d="M48,124.002
		c0,0.553-0.451,1-0.991,1h-4.019c-0.547,0-0.991-0.444-0.991-1c0-0.553,0.451-1,0.991-1h4.019
		C47.557,123.002,48,123.446,48,124.002z"/>
</g>
<g>
	<defs>
		<path id="SVGID_31_" d="M74.998,106.002c1.106,0,2.002,0.9,2.002,1.992v7.016c0,1.101-0.896,1.992-2.002,1.992H42.002
			c-1.106,0-2.002-0.9-2.002-1.992v-7.016c0-1.101,0.896-1.992,2.002-1.992H74.998z"/>
	</defs>
	<clipPath id="SVGID_32_">
		<use xlink:href="#SVGID_31_"  overflow="visible"/>
	</clipPath>
	<path clip-path="url(#SVGID_32_)" fill="none" stroke="#3C4B5D" stroke-width="4" stroke-miterlimit="10" d="M74.998,106.002
		c1.106,0,2.002,0.9,2.002,1.992v7.016c0,1.101-0.896,1.992-2.002,1.992H42.002c-1.106,0-2.002-0.9-2.002-1.992v-7.016
		c0-1.101,0.896-1.992,2.002-1.992H74.998z"/>
</g>
<g>
	<defs>
		<path id="SVGID_33_" d="M71,109.002c0.552,0,1,0.443,1,1v3c0,0.553-0.444,1-1,1c-0.552,0-1-0.443-1-1v-3
			C70,109.449,70.444,109.002,71,109.002z"/>
	</defs>
	<clipPath id="SVGID_34_">
		<use xlink:href="#SVGID_33_"  overflow="visible"/>
	</clipPath>
	<path clip-path="url(#SVGID_34_)" fill="none" stroke="#3C4B5D" stroke-width="4" stroke-miterlimit="10" d="M71,109.002
		c0.552,0,1,0.443,1,1v3c0,0.553-0.444,1-1,1c-0.552,0-1-0.443-1-1v-3C70,109.449,70.444,109.002,71,109.002z"/>
</g>
<g>
	<defs>
		<path id="SVGID_35_" d="M46,109.002c0.552,0,1,0.443,1,1v3c0,0.553-0.444,1-1,1c-0.552,0-1-0.443-1-1v-3
			C45,109.449,45.444,109.002,46,109.002z"/>
	</defs>
	<clipPath id="SVGID_36_">
		<use xlink:href="#SVGID_35_"  overflow="visible"/>
	</clipPath>
	<path clip-path="url(#SVGID_36_)" fill="none" stroke="#3C4B5D" stroke-width="4" stroke-miterlimit="10" d="M46,109.002
		c0.552,0,1,0.443,1,1v3c0,0.553-0.444,1-1,1c-0.552,0-1-0.443-1-1v-3C45,109.449,45.444,109.002,46,109.002z"/>
</g>
<g>
	<defs>
		<path id="SVGID_37_" d="M215,135.528h35.007c2.756,0,4.993-2.239,4.993-5.002V45.002c0-2.758-2.235-5.001-4.993-5.001H121.993
			c-2.755,0-4.993,2.239-4.993,5.001v85.524c0,2.758,2.235,5.002,4.993,5.002H158v-16.533c0-4.414,3.587-7.993,8.001-7.993h40.998
			c4.419,0,8.001,3.588,8.001,7.993V135.528z"/>
	</defs>
	<clipPath id="SVGID_38_">
		<use xlink:href="#SVGID_37_"  overflow="visible"/>
	</clipPath>
	<path clip-path="url(#SVGID_38_)" fill="none" stroke="#3C4B5D" stroke-width="4" stroke-miterlimit="10" d="M215,135.528h35.007
		c2.756,0,4.993-2.239,4.993-5.001V45.002c0-2.758-2.235-5.001-4.993-5.001H121.993c-2.755,0-4.993,2.239-4.993,5.001v85.525
		c0,2.757,2.235,5.001,4.993,5.001H158v-16.533c0-4.414,3.587-7.993,8.001-7.993h40.998c4.419,0,8.001,3.588,8.001,7.993V135.528z"
		/>
</g>
<g>
	<defs>
		<path id="SVGID_39_" d="M215,118.002v1h1v-0.007c0-4.961-4.033-8.993-9.001-8.993h-40.998c-4.968,0-9.001,4.028-9.001,8.993v0.007
			h1v-1h-28.993c-1.661,0-3.007-1.343-3.007-2.995V51.996c0-1.653,1.347-2.995,3.007-2.995h113.986c1.66,0,3.007,1.343,3.007,2.995
			v63.011c0,1.653-1.347,2.995-3.007,2.995H215z M215,120.002h27.993c2.764,0,5.007-2.236,5.007-4.995V51.996
			c0-2.758-2.243-4.995-5.007-4.995H129.007c-2.764,0-5.007,2.236-5.007,4.995v63.011c0,2.758,2.243,4.995,5.007,4.995H158h1v-1
			v-0.007c0-3.86,3.138-6.993,7.001-6.993h40.998c3.863,0,7.001,3.137,7.001,6.993v0.007v1H215z M104,27.001h164v113.001H104V27.001
			z"/>
	</defs>
	<clipPath id="SVGID_40_">
		<use xlink:href="#SVGID_39_"  overflow="visible"/>
	</clipPath>
	<g clip-path="url(#SVGID_40_)">
		<defs>
			<path id="SVGID_41_" d="M215,119.002h27.993c2.212,0,4.007-1.789,4.007-3.995V51.996c0-2.205-1.794-3.995-4.007-3.995H129.007
				c-2.212,0-4.007,1.789-4.007,3.995v63.011c0,2.204,1.794,3.995,4.007,3.995H158v-0.007c0-4.414,3.587-7.993,8.001-7.993h40.998
				c4.419,0,8.001,3.588,8.001,7.993V119.002z"/>
		</defs>
		<clipPath id="SVGID_42_">
			<use xlink:href="#SVGID_41_"  overflow="visible"/>
		</clipPath>
		<path clip-path="url(#SVGID_42_)" fill-rule="evenodd" clip-rule="evenodd" fill="#E2EDF4" d="M215,119.002h27.993
			c2.212,0,4.007-1.789,4.007-3.995V51.996c0-2.205-1.794-3.995-4.007-3.995H129.007c-2.212,0-4.007,1.789-4.007,3.995v63.011
			c0,2.204,1.794,3.995,4.007,3.995H158v-0.007c0-4.414,3.587-7.993,8.001-7.993h40.998c4.419,0,8.001,3.588,8.001,7.993V119.002z"
			/>
	</g>
</g>
<g>
	<defs>
		<path id="SVGID_43_" d="M215,119.002h27.993c2.212,0,4.007-1.789,4.007-3.995V51.996c0-2.205-1.794-3.995-4.007-3.995H129.007
			c-2.212,0-4.007,1.789-4.007,3.995v63.011c0,2.204,1.794,3.995,4.007,3.995H158v-0.007c0-4.414,3.587-7.993,8.001-7.993h40.998
			c4.419,0,8.001,3.588,8.001,7.993V119.002z"/>
	</defs>
	<clipPath id="SVGID_44_">
		<use xlink:href="#SVGID_43_"  overflow="visible"/>
	</clipPath>
	<path clip-path="url(#SVGID_44_)" fill="none" stroke="#3C4B5D" stroke-width="4" stroke-miterlimit="10" d="M215,119.002h27.993
		c2.212,0,4.007-1.789,4.007-3.995V51.996c0-2.205-1.794-3.995-4.007-3.995H129.007c-2.211,0-4.007,1.789-4.007,3.995v63.011
		c0,2.204,1.794,3.995,4.007,3.995H158v-0.007c0-4.414,3.587-7.993,8.001-7.993h40.998c4.419,0,8.001,3.588,8.001,7.993V119.002z"/>
</g>
<g>
	<defs>
		<path id="SVGID_45_" d="M276,117.002h22l-2.199,25.014c-0.193,2.201-2.144,3.986-4.342,3.986h-8.77
			c-2.205,0-4.158-1.792-4.362-3.986L276,117.002z"/>
	</defs>
	<clipPath id="SVGID_46_">
		<use xlink:href="#SVGID_45_"  overflow="visible"/>
	</clipPath>
	<path clip-path="url(#SVGID_46_)" fill="none" stroke="#3C4B5D" stroke-width="4" stroke-miterlimit="10" d="M276,117.002h22
		l-2.199,25.014c-0.193,2.201-2.144,3.986-4.342,3.986h-8.77c-2.205,0-4.158-1.792-4.362-3.986L276,117.002z"/>
</g>
<g>
	<defs>
		<path id="SVGID_47_" d="M275,115c0-1.104,0.897-1.998,2.005-1.998h19.99c1.107,0,2.005,0.898,2.005,1.998v2.004
			c0,1.104-0.897,1.998-2.005,1.998h-19.99c-1.107,0-2.005-0.898-2.005-1.998V115z"/>
	</defs>
	<clipPath id="SVGID_48_">
		<use xlink:href="#SVGID_47_"  overflow="visible"/>
	</clipPath>
	<path clip-path="url(#SVGID_48_)" fill="none" stroke="#3C4B5D" stroke-width="4" stroke-miterlimit="10" d="M275,115
		c0-1.104,0.897-1.998,2.005-1.998h19.99c1.107,0,2.005,0.898,2.005,1.998v2.004c0,1.104-0.897,1.998-2.005,1.998h-19.99
		c-1.107,0-2.005-0.898-2.005-1.998V115z"/>
</g>
<g>
	<defs>
		<path id="SVGID_49_" d="M277,111c0-1.104,0.898-1.998,1.991-1.998h16.018c1.1,0,1.991,0.898,1.991,1.998v2.004
			c0,1.104-0.898,1.998-1.991,1.998h-16.018c-1.1,0-1.991-0.898-1.991-1.998V111z"/>
	</defs>
	<clipPath id="SVGID_50_">
		<use xlink:href="#SVGID_49_"  overflow="visible"/>
	</clipPath>
	<path clip-path="url(#SVGID_50_)" fill="none" stroke="#3C4B5D" stroke-width="4" stroke-miterlimit="10" d="M277,111
		c0-1.104,0.898-1.998,1.991-1.998h16.018c1.1,0,1.991,0.898,1.991,1.998v2.004c0,1.104-0.898,1.998-1.991,1.998h-16.018
		c-1.1,0-1.991-0.898-1.991-1.998V111z"/>
</g>
<g>
	<defs>
		<path id="SVGID_51_" d="M298.438,123.463l0.065-0.792l-0.757-0.243c-0.878-0.281-1.799-0.426-2.738-0.426h-16.016
			c-0.927,0-1.835,0.141-2.702,0.414l-0.766,0.241l0.069,0.799l1.357,15.564l0.07,0.801l0.797,0.104
			c0.387,0.051,0.779,0.076,1.174,0.076h16.016c0.437,0,0.869-0.031,1.296-0.093l0.788-0.114l0.065-0.793L298.438,123.463z
			 M296.444,123.298l-1.28,15.539l0.996,0.082l-0.143-0.989c-0.332,0.048-0.67,0.072-1.01,0.072h-16.016
			c-0.308,0-0.613-0.02-0.915-0.06l-0.13,0.991l0.997-0.086l-1.357-15.565l-0.997,0.087l0.301,0.954
			c0.674-0.212,1.38-0.321,2.102-0.321h16.016c0.731,0,1.446,0.112,2.129,0.331l0.305-0.952L296.444,123.298z M255.524,102.002
			h62.979v58h-62.979V102.002z"/>
	</defs>
	<clipPath id="SVGID_52_">
		<use xlink:href="#SVGID_51_"  overflow="visible"/>
	</clipPath>
	<g clip-path="url(#SVGID_52_)">
		<defs>
			<path id="SVGID_53_" d="M297.441,123.381l-1.281,15.538c-0.376,0.055-0.761,0.083-1.152,0.083h-16.016
				c-0.354,0-0.702-0.023-1.045-0.068l-1.357-15.564c0.759-0.238,1.565-0.367,2.402-0.367h16.016
				C295.856,123.002,296.674,123.135,297.441,123.381z"/>
		</defs>
		<clipPath id="SVGID_54_">
			<use xlink:href="#SVGID_53_"  overflow="visible"/>
		</clipPath>
		<path clip-path="url(#SVGID_54_)" fill-rule="evenodd" clip-rule="evenodd" fill="#E2EDF4" d="M297.441,123.381l-1.281,15.538
			c-0.376,0.055-0.761,0.083-1.152,0.083h-16.016c-0.354,0-0.702-0.023-1.045-0.068l-1.357-15.564
			c0.759-0.238,1.565-0.367,2.402-0.367h16.016C295.856,123.002,296.674,123.135,297.441,123.381z"/>
	</g>
</g>
<g>
	<defs>
		<path id="SVGID_55_" d="M297.441,123.381l-1.281,15.538c-0.376,0.055-0.761,0.083-1.152,0.083h-16.016
			c-0.354,0-0.702-0.023-1.045-0.068l-1.357-15.564c0.759-0.238,1.565-0.367,2.402-0.367h16.016
			C295.856,123.002,296.674,123.135,297.441,123.381z"/>
	</defs>
	<clipPath id="SVGID_56_">
		<use xlink:href="#SVGID_55_"  overflow="visible"/>
	</clipPath>
	<path clip-path="url(#SVGID_56_)" fill="none" stroke="#3C4B5D" stroke-width="4" stroke-miterlimit="10" d="M297.441,123.381
		l-1.281,15.538c-0.376,0.055-0.761,0.083-1.152,0.083h-16.016c-0.354,0-0.702-0.023-1.045-0.068l-1.357-15.564
		c0.759-0.238,1.565-0.367,2.402-0.367h16.016C295.856,123.002,296.674,123.135,297.441,123.381z"/>
</g>
<g>
	<defs>
		<circle id="SVGID_57_" cx="287" cy="131.002" r="2"/>
	</defs>
	<clipPath id="SVGID_58_">
		<use xlink:href="#SVGID_57_"  overflow="visible"/>
	</clipPath>
	<rect x="280" y="124.002" clip-path="url(#SVGID_58_)" fill="#FFFFFF" width="14" height="14"/>
</g>
<circle fill="none" stroke="#3C4B5D" stroke-width="2" stroke-miterlimit="10" cx="287" cy="131.002" r="2"/>
<g>
	<defs>
		<circle id="SVGID_59_" cx="163.5" cy="82.501" r="4.5"/>
	</defs>
	<clipPath id="SVGID_60_">
		<use xlink:href="#SVGID_59_"  overflow="visible"/>
	</clipPath>
	<rect x="154" y="73.001" clip-path="url(#SVGID_60_)" fill="#FCE7B4" width="19" height="19.001"/>
</g>
<circle fill="none" stroke="#3C4B5D" stroke-width="2" stroke-miterlimit="10" cx="163.5" cy="82.501" r="4.5"/>
<g>
	<defs>
		<path id="SVGID_61_" d="M206,119.002c0.553,0,1,0.446,1,0.993v39.014c0,0.549-0.444,0.993-1,0.993c-0.553,0-1-0.446-1-0.993
			v-39.014C205,119.446,205.444,119.002,206,119.002z"/>
	</defs>
	<clipPath id="SVGID_62_">
		<use xlink:href="#SVGID_61_"  overflow="visible"/>
	</clipPath>
	<path clip-path="url(#SVGID_62_)" fill="none" stroke="#3C4B5D" stroke-width="4" stroke-miterlimit="10" d="M206,119.002
		c0.553,0,1,0.446,1,0.993v39.014c0,0.549-0.444,0.993-1,0.993c-0.553,0-1-0.446-1-0.993v-39.014
		C205,119.446,205.444,119.002,206,119.002z"/>
</g>
<g>
	<defs>
		<path id="SVGID_63_" d="M167,119.002c0.553,0,1,0.446,1,0.993v39.014c0,0.549-0.444,0.993-1,0.993c-0.553,0-1-0.446-1-0.993
			v-39.014C166,119.446,166.444,119.002,167,119.002z"/>
	</defs>
	<clipPath id="SVGID_64_">
		<use xlink:href="#SVGID_63_"  overflow="visible"/>
	</clipPath>
	<path clip-path="url(#SVGID_64_)" fill="none" stroke="#3C4B5D" stroke-width="4" stroke-miterlimit="10" d="M167,119.002
		c0.553,0,1,0.446,1,0.993v39.014c0,0.549-0.444,0.993-1,0.993c-0.553,0-1-0.446-1-0.993v-39.014
		C166,119.446,166.444,119.002,167,119.002z"/>
</g>
<g>
	<defs>
		<path id="SVGID_65_" d="M180,103.999v5.006c0,1.653,1.34,2.997,2.992,2.997h7.016c1.647,0,2.992-1.345,2.992-2.997v-5.006
			c0-1.653-1.34-2.997-2.992-2.997h-7.016C181.345,101.002,180,102.347,180,103.999z M182,103.999c0-0.548,0.449-0.997,0.992-0.997
			h7.016c0.547,0,0.992,0.447,0.992,0.997v5.006c0,0.548-0.449,0.997-0.992,0.997h-7.016c-0.547,0-0.992-0.447-0.992-0.997V103.999z
			 M160,81.001h53v51.001h-53V81.001z"/>
	</defs>
	<clipPath id="SVGID_66_">
		<use xlink:href="#SVGID_65_"  overflow="visible"/>
	</clipPath>
	<g clip-path="url(#SVGID_66_)">
		<defs>
			<path id="SVGID_67_" d="M181,103.999c0-1.103,0.9-1.997,1.992-1.997h7.016c1.101,0,1.992,0.896,1.992,1.997v5.006
				c0,1.103-0.9,1.997-1.992,1.997h-7.016c-1.101,0-1.992-0.896-1.992-1.997V103.999z"/>
		</defs>
		<clipPath id="SVGID_68_">
			<use xlink:href="#SVGID_67_"  overflow="visible"/>
		</clipPath>
		<path clip-path="url(#SVGID_68_)" fill-rule="evenodd" clip-rule="evenodd" fill="#FCE7B4" d="M181,103.999
			c0-1.103,0.9-1.997,1.992-1.997h7.016c1.101,0,1.992,0.896,1.992,1.997v5.006c0,1.103-0.9,1.997-1.992,1.997h-7.016
			c-1.101,0-1.992-0.896-1.992-1.997V103.999z"/>
	</g>
</g>
<g>
	<defs>
		<path id="SVGID_69_" d="M181,103.999c0-1.103,0.9-1.997,1.992-1.997h7.016c1.101,0,1.992,0.896,1.992,1.997v5.006
			c0,1.103-0.9,1.997-1.992,1.997h-7.016c-1.101,0-1.992-0.896-1.992-1.997V103.999z"/>
	</defs>
	<clipPath id="SVGID_70_">
		<use xlink:href="#SVGID_69_"  overflow="visible"/>
	</clipPath>
	<path clip-path="url(#SVGID_70_)" fill="none" stroke="#3C4B5D" stroke-width="4" stroke-miterlimit="10" d="M181,103.999
		c0-1.103,0.9-1.997,1.992-1.997h7.016c1.101,0,1.992,0.896,1.992,1.997v5.006c0,1.103-0.9,1.997-1.992,1.997h-7.016
		c-1.101,0-1.992-0.896-1.992-1.997V103.999z"/>
</g>
<g>
	<defs>
		<path id="SVGID_71_" d="M216,131.496v4.5c0,4.97-4.032,9.003-8.999,9.006C206.452,145,206,144.549,206,144.008v-17.012
			c0-0.546,0.451-0.994,1.009-0.994h7.982c0.555,0,1.009,0.452,1.009,0.994V131.496z M218,131.496v-4.5
			c0-1.648-1.351-2.994-3.009-2.994h-7.982c-1.658,0-3.009,1.34-3.009,2.994v17.012c0,1.645,1.346,2.989,2.999,2.994
			c6.074-0.004,11.001-4.933,11.001-11.006V131.496z M184,104.002h54v63h-54V104.002z"/>
	</defs>
	<clipPath id="SVGID_72_">
		<use xlink:href="#SVGID_71_"  overflow="visible"/>
	</clipPath>
	<g clip-path="url(#SVGID_72_)">
		<defs>
			<path id="SVGID_73_" d="M217,131.496v-4.5c0-1.092-0.899-1.994-2.009-1.994h-7.982c-1.106,0-2.009,0.893-2.009,1.994v17.012
				c0,1.09,0.896,1.99,2.002,1.994c5.517-0.004,9.998-4.481,9.998-10.006V131.496z"/>
		</defs>
		<clipPath id="SVGID_74_">
			<use xlink:href="#SVGID_73_"  overflow="visible"/>
		</clipPath>
		<path clip-path="url(#SVGID_74_)" fill-rule="evenodd" clip-rule="evenodd" fill="#FCE7B4" d="M217,131.496v-4.5
			c0-1.092-0.899-1.994-2.009-1.994h-7.982c-1.106,0-2.009,0.893-2.009,1.994v17.012c0,1.09,0.896,1.99,2.002,1.994
			c5.517-0.004,9.998-4.481,9.998-10.006V131.496z"/>
	</g>
</g>
<g>
	<defs>
		<path id="SVGID_75_" d="M217,131.496v-4.5c0-1.092-0.899-1.994-2.009-1.994h-7.982c-1.106,0-2.009,0.893-2.009,1.994v17.012
			c0,1.09,0.896,1.99,2.002,1.994c5.517-0.004,9.998-4.481,9.998-10.006V131.496z"/>
	</defs>
	<clipPath id="SVGID_76_">
		<use xlink:href="#SVGID_75_"  overflow="visible"/>
	</clipPath>
	<path clip-path="url(#SVGID_76_)" fill="none" stroke="#3C4B5D" stroke-width="4" stroke-miterlimit="10" d="M217,131.496v-4.5
		c0-1.092-0.899-1.994-2.009-1.994h-7.982c-1.106,0-2.009,0.893-2.009,1.994v17.012c0,1.09,0.896,1.99,2.002,1.994
		c5.517-0.004,9.998-4.481,9.998-10.006V131.496z"/>
</g>
<g>
	<defs>
		<path id="SVGID_77_" d="M165.999,145.002c-4.969-0.003-8.999-4.037-8.999-9.006v-4.5v-4.5c0-0.546,0.452-0.994,1.008-0.994h7.983
			c0.555,0,1.009,0.452,1.009,0.994v17.012c0,0.545-0.449,0.992-1.005,0.994H165.999z M166.001,147.002
			c1.654-0.005,2.999-1.344,2.999-2.994v-17.012c0-1.648-1.351-2.994-3.009-2.994h-7.983c-1.658,0-3.008,1.34-3.008,2.994v4.5v4.5
			c0,6.072,4.924,11.002,10.997,11.006H166.001z M135,104.002h54v63h-54V104.002z"/>
	</defs>
	<clipPath id="SVGID_78_">
		<use xlink:href="#SVGID_77_"  overflow="visible"/>
	</clipPath>
	<g clip-path="url(#SVGID_78_)">
		<defs>
			<path id="SVGID_79_" d="M165.998,146.002c1.104-0.004,2.002-0.896,2.002-1.994v-17.012c0-1.092-0.899-1.994-2.009-1.994h-7.983
				c-1.106,0-2.008,0.893-2.008,1.994v4.5v4.5C156,141.516,160.476,145.998,165.998,146.002z"/>
		</defs>
		<clipPath id="SVGID_80_">
			<use xlink:href="#SVGID_79_"  overflow="visible"/>
		</clipPath>
		<path clip-path="url(#SVGID_80_)" fill-rule="evenodd" clip-rule="evenodd" fill="#FCE7B4" d="M165.998,146.002
			c1.104-0.004,2.002-0.896,2.002-1.994v-17.012c0-1.092-0.899-1.994-2.009-1.994h-7.983c-1.106,0-2.008,0.893-2.008,1.994v4.5v4.5
			C156,141.516,160.476,145.998,165.998,146.002z"/>
	</g>
</g>
<g>
	<defs>
		<path id="SVGID_81_" d="M165.998,146.002c1.104-0.004,2.002-0.896,2.002-1.994v-17.012c0-1.092-0.899-1.994-2.009-1.994h-7.983
			c-1.106,0-2.008,0.893-2.008,1.994v4.5v4.5C156,141.516,160.476,145.998,165.998,146.002z"/>
	</defs>
	<clipPath id="SVGID_82_">
		<use xlink:href="#SVGID_81_"  overflow="visible"/>
	</clipPath>
	<path clip-path="url(#SVGID_82_)" fill="none" stroke="#3C4B5D" stroke-width="4" stroke-miterlimit="10" d="M165.998,146.002
		c1.104-0.004,2.002-0.896,2.002-1.994v-17.012c0-1.092-0.899-1.994-2.009-1.994h-7.983c-1.106,0-2.008,0.893-2.008,1.994v4.5v4.5
		C156,141.516,160.476,145.998,165.998,146.002z"/>
</g>
<g>
	<defs>
		<circle id="SVGID_83_" cx="209.5" cy="82.501" r="4.5"/>
	</defs>
	<clipPath id="SVGID_84_">
		<use xlink:href="#SVGID_83_"  overflow="visible"/>
	</clipPath>
	<rect x="200" y="73.001" clip-path="url(#SVGID_84_)" fill="#FCE7B4" width="19" height="19.001"/>
</g>
<circle fill="none" stroke="#3C4B5D" stroke-width="2" stroke-miterlimit="10" cx="209.5" cy="82.501" r="4.5"/>
<g>
	<defs>
		<path id="SVGID_85_" d="M161.912,80.47c0.679,3.807,6.978,19.857,9.329,21.087c2.834,1.48,6.429,0.251,9.39,1.422
			c2.055,0.812,2.966,4.104,5.149,4.328c5.908,0.606,13.052-9.146,16.204-11.371c1.329-0.938,4.207,1.026,4.768-0.556
			c2.014-5.687,7.12-15.708,1.843-18.112c-13.801-6.286-30.04-1.05-45.061-1.576L161.912,80.47z"/>
	</defs>
	<clipPath id="SVGID_86_">
		<use xlink:href="#SVGID_85_"  overflow="visible"/>
	</clipPath>
	<rect x="156.913" y="69.144" clip-path="url(#SVGID_86_)" fill="#3C4B5D" width="59" height="43.189"/>
</g>
<g>
	<defs>
		<path id="SVGID_87_" d="M212.893,67.103c-1.212-13.512-12.565-24.102-26.393-24.102s-25.181,10.59-26.393,24.102
			c0.29-0.067,0.592-0.102,0.901-0.102h50.982C212.301,67.001,212.604,67.036,212.893,67.103z"/>
	</defs>
	<clipPath id="SVGID_88_">
		<use xlink:href="#SVGID_87_"  overflow="visible"/>
	</clipPath>
	<rect x="155.107" y="38.001" clip-path="url(#SVGID_88_)" fill="#F8C445" width="62.786" height="34.102"/>
</g>
<path fill="none" stroke="#3C4B5D" stroke-width="2" stroke-miterlimit="10" d="M212.893,67.103
	c-1.212-13.512-12.565-24.102-26.393-24.102s-25.181,10.59-26.393,24.102c0.289-0.067,0.592-0.102,0.901-0.102h50.982
	C212.301,67.001,212.603,67.036,212.893,67.103z"/>
<g>
	<defs>
		<path id="SVGID_89_" d="M156,70.001v7c0,2.76,2.244,5,5.009,5h50.982c2.764,0,5.009-2.239,5.009-5v-7c0-2.759-2.244-5-5.009-5
			h-50.982C158.245,65.001,156,67.24,156,70.001z M158,70.001c0-1.655,1.349-3,3.009-3h50.982c1.661,0,3.009,1.346,3.009,3v7
			c0,1.655-1.349,3-3.009,3h-50.982c-1.661,0-3.009-1.346-3.009-3V70.001z M136,45.001h101v57.001H136V45.001z"/>
	</defs>
	<clipPath id="SVGID_90_">
		<use xlink:href="#SVGID_89_"  overflow="visible"/>
	</clipPath>
	<g clip-path="url(#SVGID_90_)">
		<defs>
			<path id="SVGID_91_" d="M157,70.001c0-2.209,1.798-4,4.009-4h50.982c2.214,0,4.009,1.794,4.009,4v7c0,2.209-1.798,4-4.009,4
				h-50.982c-2.214,0-4.009-1.794-4.009-4V70.001z"/>
		</defs>
		<clipPath id="SVGID_92_">
			<use xlink:href="#SVGID_91_"  overflow="visible"/>
		</clipPath>
		<path clip-path="url(#SVGID_92_)" fill-rule="evenodd" clip-rule="evenodd" fill="#F8C445" d="M157,70.001
			c0-2.209,1.798-4,4.009-4h50.982c2.214,0,4.009,1.794,4.009,4v7c0,2.209-1.798,4-4.009,4h-50.982c-2.214,0-4.009-1.794-4.009-4
			V70.001z"/>
	</g>
</g>
<g>
	<defs>
		<path id="SVGID_93_" d="M157,70.001c0-2.209,1.798-4,4.009-4h50.982c2.214,0,4.009,1.794,4.009,4v7c0,2.209-1.798,4-4.009,4
			h-50.982c-2.214,0-4.009-1.794-4.009-4V70.001z"/>
	</defs>
	<clipPath id="SVGID_94_">
		<use xlink:href="#SVGID_93_"  overflow="visible"/>
	</clipPath>
	<path clip-path="url(#SVGID_94_)" fill="none" stroke="#3C4B5D" stroke-width="4" stroke-miterlimit="10" d="M157,70.001
		c0-2.209,1.798-4,4.009-4h50.982c2.214,0,4.009,1.794,4.009,4v7c0,2.209-1.798,4-4.009,4h-50.982c-2.214,0-4.009-1.794-4.009-4
		V70.001z"/>
</g>
<g>
	<defs>
		<circle id="SVGID_95_" cx="186.5" cy="39.501" r="3.5"/>
	</defs>
	<clipPath id="SVGID_96_">
		<use xlink:href="#SVGID_95_"  overflow="visible"/>
	</clipPath>
	<rect x="178" y="31.001" clip-path="url(#SVGID_96_)" fill="#F8C445" width="17" height="17"/>
</g>
<circle fill="none" stroke="#3C4B5D" stroke-width="2" stroke-miterlimit="10" cx="186.5" cy="39.501" r="3.5"/>
<path fill="none" stroke="#3C4B5D" stroke-width="2" stroke-miterlimit="10" d="M157,131.021v-10.317c0,0,0-6.114,3.336-8.604
	s7.011-2.048,7.011-2.048s12.856,0.061,19.013,0c6.749-0.065,19.651,0,19.651,0s3.304-0.299,6.899,2.439s3.062,8.213,3.062,8.213
	v10.317"/>
<g>
	<defs>
		<path id="SVGID_97_" d="M164.25,70.251c0.553,0,1,0.438,1,1.003v4.994c0,0.554-0.444,1.003-1,1.003c-0.553,0-1-0.438-1-1.003
			v-4.994C163.25,70.7,163.694,70.251,164.25,70.251z"/>
	</defs>
	<clipPath id="SVGID_98_">
		<use xlink:href="#SVGID_97_"  overflow="visible"/>
	</clipPath>
	<path clip-path="url(#SVGID_98_)" fill="none" stroke="#3C4B5D" stroke-width="4" stroke-miterlimit="10" d="M164.25,70.251
		c0.553,0,1,0.438,1,1.003v4.994c0,0.554-0.444,1.003-1,1.003c-0.553,0-1-0.438-1-1.003v-4.994
		C163.25,70.7,163.694,70.251,164.25,70.251z"/>
</g>
<g>
	<defs>
		<path id="SVGID_99_" d="M169.25,70.251c0.553,0,1,0.438,1,1.003v4.994c0,0.554-0.444,1.003-1,1.003c-0.553,0-1-0.438-1-1.003
			v-4.994C168.25,70.7,168.694,70.251,169.25,70.251z"/>
	</defs>
	<clipPath id="SVGID_100_">
		<use xlink:href="#SVGID_99_"  overflow="visible"/>
	</clipPath>
	<path clip-path="url(#SVGID_100_)" fill="none" stroke="#3C4B5D" stroke-width="4" stroke-miterlimit="10" d="M169.25,70.251
		c0.553,0,1,0.438,1,1.003v4.994c0,0.554-0.444,1.003-1,1.003c-0.553,0-1-0.438-1-1.003v-4.994
		C168.25,70.7,168.694,70.251,169.25,70.251z"/>
</g>
<g>
	<defs>
		<path id="SVGID_101_" d="M174.25,70.251c0.553,0,1,0.438,1,1.003v4.994c0,0.554-0.444,1.003-1,1.003c-0.553,0-1-0.438-1-1.003
			v-4.994C173.25,70.7,173.694,70.251,174.25,70.251z"/>
	</defs>
	<clipPath id="SVGID_102_">
		<use xlink:href="#SVGID_101_"  overflow="visible"/>
	</clipPath>
	<path clip-path="url(#SVGID_102_)" fill="none" stroke="#3C4B5D" stroke-width="4" stroke-miterlimit="10" d="M174.25,70.251
		c0.553,0,1,0.438,1,1.003v4.994c0,0.554-0.444,1.003-1,1.003c-0.553,0-1-0.438-1-1.003v-4.994
		C173.25,70.7,173.694,70.251,174.25,70.251z"/>
</g>
<g>
	<defs>
		<path id="SVGID_103_" d="M179.25,70.251c0.553,0,1,0.438,1,1.003v4.994c0,0.554-0.444,1.003-1,1.003c-0.553,0-1-0.438-1-1.003
			v-4.994C178.25,70.7,178.694,70.251,179.25,70.251z"/>
	</defs>
	<clipPath id="SVGID_104_">
		<use xlink:href="#SVGID_103_"  overflow="visible"/>
	</clipPath>
	<path clip-path="url(#SVGID_104_)" fill="none" stroke="#3C4B5D" stroke-width="4" stroke-miterlimit="10" d="M179.25,70.251
		c0.553,0,1,0.438,1,1.003v4.994c0,0.554-0.444,1.003-1,1.003c-0.553,0-1-0.438-1-1.003v-4.994
		C178.25,70.7,178.694,70.251,179.25,70.251z"/>
</g>
<g>
	<defs>
		<path id="SVGID_105_" d="M184.25,70.251c0.553,0,1,0.438,1,1.003v4.994c0,0.554-0.444,1.003-1,1.003c-0.553,0-1-0.438-1-1.003
			v-4.994C183.25,70.7,183.694,70.251,184.25,70.251z"/>
	</defs>
	<clipPath id="SVGID_106_">
		<use xlink:href="#SVGID_105_"  overflow="visible"/>
	</clipPath>
	<path clip-path="url(#SVGID_106_)" fill="none" stroke="#3C4B5D" stroke-width="4" stroke-miterlimit="10" d="M184.25,70.251
		c0.553,0,1,0.438,1,1.003v4.994c0,0.554-0.444,1.003-1,1.003c-0.553,0-1-0.438-1-1.003v-4.994
		C183.25,70.7,183.694,70.251,184.25,70.251z"/>
</g>
<g>
	<defs>
		<path id="SVGID_107_" d="M189.25,70.251c0.553,0,1,0.438,1,1.003v4.994c0,0.554-0.444,1.003-1,1.003c-0.553,0-1-0.438-1-1.003
			v-4.994C188.25,70.7,188.694,70.251,189.25,70.251z"/>
	</defs>
	<clipPath id="SVGID_108_">
		<use xlink:href="#SVGID_107_"  overflow="visible"/>
	</clipPath>
	<path clip-path="url(#SVGID_108_)" fill="none" stroke="#3C4B5D" stroke-width="4" stroke-miterlimit="10" d="M189.25,70.251
		c0.553,0,1,0.438,1,1.003v4.994c0,0.554-0.444,1.003-1,1.003c-0.553,0-1-0.438-1-1.003v-4.994
		C188.25,70.7,188.694,70.251,189.25,70.251z"/>
</g>
<g>
	<defs>
		<path id="SVGID_109_" d="M194.25,70.251c0.553,0,1,0.438,1,1.003v4.994c0,0.554-0.444,1.003-1,1.003c-0.553,0-1-0.438-1-1.003
			v-4.994C193.25,70.7,193.694,70.251,194.25,70.251z"/>
	</defs>
	<clipPath id="SVGID_110_">
		<use xlink:href="#SVGID_109_"  overflow="visible"/>
	</clipPath>
	<path clip-path="url(#SVGID_110_)" fill="none" stroke="#3C4B5D" stroke-width="4" stroke-miterlimit="10" d="M194.25,70.251
		c0.553,0,1,0.438,1,1.003v4.994c0,0.554-0.444,1.003-1,1.003c-0.553,0-1-0.438-1-1.003v-4.994
		C193.25,70.7,193.694,70.251,194.25,70.251z"/>
</g>
<g>
	<defs>
		<path id="SVGID_111_" d="M199.25,70.251c0.553,0,1,0.438,1,1.003v4.994c0,0.554-0.444,1.003-1,1.003c-0.553,0-1-0.438-1-1.003
			v-4.994C198.25,70.7,198.694,70.251,199.25,70.251z"/>
	</defs>
	<clipPath id="SVGID_112_">
		<use xlink:href="#SVGID_111_"  overflow="visible"/>
	</clipPath>
	<path clip-path="url(#SVGID_112_)" fill="none" stroke="#3C4B5D" stroke-width="4" stroke-miterlimit="10" d="M199.25,70.251
		c0.553,0,1,0.438,1,1.003v4.994c0,0.554-0.444,1.003-1,1.003c-0.553,0-1-0.438-1-1.003v-4.994
		C198.25,70.7,198.694,70.251,199.25,70.251z"/>
</g>
<g>
	<defs>
		<path id="SVGID_113_" d="M204.25,70.251c0.553,0,1,0.438,1,1.003v4.994c0,0.554-0.444,1.003-1,1.003c-0.553,0-1-0.438-1-1.003
			v-4.994C203.25,70.7,203.694,70.251,204.25,70.251z"/>
	</defs>
	<clipPath id="SVGID_114_">
		<use xlink:href="#SVGID_113_"  overflow="visible"/>
	</clipPath>
	<path clip-path="url(#SVGID_114_)" fill="none" stroke="#3C4B5D" stroke-width="4" stroke-miterlimit="10" d="M204.25,70.251
		c0.553,0,1,0.438,1,1.003v4.994c0,0.554-0.444,1.003-1,1.003c-0.553,0-1-0.438-1-1.003v-4.994
		C203.25,70.7,203.694,70.251,204.25,70.251z"/>
</g>
<g>
	<defs>
		<path id="SVGID_115_" d="M209.25,70.251c0.553,0,1,0.438,1,1.003v4.994c0,0.554-0.444,1.003-1,1.003c-0.553,0-1-0.438-1-1.003
			v-4.994C208.25,70.7,208.694,70.251,209.25,70.251z"/>
	</defs>
	<clipPath id="SVGID_116_">
		<use xlink:href="#SVGID_115_"  overflow="visible"/>
	</clipPath>
	<path clip-path="url(#SVGID_116_)" fill="none" stroke="#3C4B5D" stroke-width="4" stroke-miterlimit="10" d="M209.25,70.251
		c0.553,0,1,0.438,1,1.003v4.994c0,0.554-0.444,1.003-1,1.003c-0.553,0-1-0.438-1-1.003v-4.994
		C208.25,70.7,208.694,70.251,209.25,70.251z"/>
</g>
</svg>
