<?xml version="1.0" encoding="utf-8"?>
<!-- Generator: Adobe Illustrator 16.0.0, SVG Export Plug-In . SVG Version: 6.00 Build 0)  -->
<!DOCTYPE svg PUBLIC "-//W3C//DTD SVG 1.1//EN" "http://www.w3.org/Graphics/SVG/1.1/DTD/svg11.dtd">
<svg version="1.1" id="Layer_1" xmlns="http://www.w3.org/2000/svg" xmlns:xlink="http://www.w3.org/1999/xlink" x="0px" y="0px"
	 width="190px" height="37px" viewBox="0 0 190 37" enable-background="new 0 0 190 37" xml:space="preserve">
<g>
	<g>
		<path fill="#3C4A5D" d="M2.855,9.869c0-0.959,0.793-1.752,1.752-1.752S6.36,8.91,6.36,9.869v2.778h1.488
			c0.827,0,1.488,0.661,1.488,1.488s-0.661,1.488-1.488,1.488H6.36v8.002c0,0.761,0.662,1.19,1.257,1.19
			c0.859,0,1.554,0.694,1.554,1.554c0,0.86-0.694,1.555-1.554,1.555c-2.943,0-4.762-1.885-4.762-4.497v-7.804h-0.76
			c-0.827,0-1.488-0.661-1.488-1.488s0.662-1.488,1.488-1.488h0.76V9.869z"/>
		<path fill="#3C4A5D" d="M18.296,12.184c5.588,0,6.613,4.298,6.613,6.58c0,1.224,0,2.646-2.017,2.646h-8.167
			c0,2.38,1.687,3.472,3.869,3.472c1.455,0,2.48-0.496,3.273-1.025c0.364-0.231,0.628-0.363,1.058-0.363
			c0.86,0,1.554,0.694,1.554,1.554c0,0.529-0.265,0.959-0.562,1.224c-0.562,0.529-2.314,1.818-5.324,1.818
			c-4.596,0-7.439-2.479-7.439-8.002C11.154,15.027,13.799,12.184,18.296,12.184z M14.824,18.433h6.547
			c0-1.62-0.926-3.207-3.075-3.207C16.378,15.226,14.99,16.316,14.824,18.433z"/>
		<path fill="#3C4A5D" d="M37.044,13.506V5.901c0-0.992,0.793-1.786,1.786-1.786c0.992,0,1.785,0.794,1.785,1.786v15.574
			c0,4.398-2.843,6.613-6.844,6.613c-4.464,0-7.076-2.546-7.076-7.936s2.546-7.969,6.712-7.969
			C34.994,12.184,36.382,12.845,37.044,13.506z M37.044,16.912c0,0-1.29-1.686-3.273-1.686c-2.249,0-3.538,1.653-3.538,4.927
			c0,3.24,1.256,4.894,3.538,4.894c1.917,0,3.273-1.289,3.273-3.571V16.912z"/>
	</g>
	<g>
		<path fill="#3C4A5D" d="M60.916,5.901v18.12c0,0.397,0.397,0.596,0.628,0.596c0.926,0,1.653,0.728,1.653,1.653
			s-0.728,1.653-1.653,1.653c-2.579,0-4.199-1.455-4.199-4.232V5.901c0-0.992,0.793-1.786,1.785-1.786
			C60.123,4.115,60.916,4.909,60.916,5.901z"/>
		<path fill="#3C4A5D" d="M71.695,12.184c5.588,0,6.613,4.298,6.613,6.58c0,1.224,0,2.646-2.017,2.646h-8.167
			c0,2.38,1.687,3.472,3.869,3.472c1.455,0,2.48-0.496,3.273-1.025c0.364-0.231,0.628-0.363,1.058-0.363
			c0.86,0,1.554,0.694,1.554,1.554c0,0.529-0.265,0.959-0.562,1.224c-0.562,0.529-2.314,1.818-5.324,1.818
			c-4.596,0-7.439-2.479-7.439-8.002C64.553,15.027,67.198,12.184,71.695,12.184z M68.223,18.433h6.547
			c0-1.62-0.926-3.207-3.075-3.207C69.777,15.226,68.389,16.316,68.223,18.433z"/>
		<path fill="#3C4A5D" d="M84.359,14.333c0.628-1.29,2.182-2.116,3.571-2.116c0.926,0,1.687,0.761,1.687,1.687
			s-0.761,1.687-1.687,1.687c-2.281,0-3.571,1.455-3.571,3.67v6.877c0,0.992-0.794,1.786-1.786,1.786
			c-0.992,0-1.786-0.794-1.786-1.786V14.167c0-0.992,0.793-1.786,1.786-1.786c0.992,0,1.786,0.793,1.786,1.786V14.333z"/>
		<path fill="#3C4A5D" d="M114.646,17.937v8.266c0,0.992-0.794,1.72-1.786,1.72c-1.058,0-1.785-0.728-1.785-1.72v-7.605
			c0-1.885-0.761-3.174-2.91-3.174c-2.381,0-3.307,1.29-3.307,3.141v7.638c0,0.992-0.793,1.72-1.785,1.72
			c-1.059,0-1.786-0.728-1.786-1.72v-7.605c0-1.885-0.76-3.174-2.909-3.174c-2.48,0-3.307,1.455-3.307,3.406v7.374
			c0,0.992-0.761,1.72-1.786,1.72c-1.025,0-1.786-0.728-1.786-1.72V14.167c0-0.992,0.793-1.786,1.786-1.786
			c0.992,0,1.786,0.793,1.786,1.786c0.628-0.959,2.017-1.984,4.232-1.984c2.711,0,4.066,0.859,4.894,2.149
			c1.058-1.422,2.479-2.149,4.729-2.149C113.423,12.184,114.646,15.06,114.646,17.937z"/>
		<path fill="#3C4A5D" d="M124.334,28.088c-4.464,0-7.241-2.546-7.241-7.936c0-5.423,2.777-7.969,7.241-7.969
			s7.241,2.546,7.241,7.969C131.575,25.542,128.798,28.088,124.334,28.088z M124.334,15.226c-2.381,0-3.637,1.653-3.637,4.927
			c0,3.24,1.256,4.894,3.637,4.894s3.638-1.653,3.638-4.894C127.972,16.879,126.715,15.226,124.334,15.226z"/>
		<path fill="#3C4A5D" d="M147.545,17.937v8.266c0,0.992-0.793,1.72-1.785,1.72c-1.059,0-1.786-0.728-1.786-1.72v-7.605
			c0-1.885-0.76-3.174-2.909-3.174c-2.48,0-3.307,1.455-3.307,3.406v7.374c0,0.992-0.761,1.72-1.786,1.72
			c-1.024,0-1.785-0.728-1.785-1.72V14.167c0-0.992,0.794-1.786,1.785-1.786c0.992,0,1.786,0.793,1.786,1.786
			c0.628-0.959,2.017-1.984,4.232-1.984C146.487,12.184,147.545,15.06,147.545,17.937z"/>
		<path fill="#3C4A5D" d="M151.843,9.869c0-0.959,0.794-1.752,1.753-1.752s1.752,0.793,1.752,1.752v2.778h1.488
			c0.826,0,1.487,0.661,1.487,1.488s-0.661,1.488-1.487,1.488h-1.488v8.002c0,0.761,0.661,1.19,1.257,1.19
			c0.859,0,1.554,0.694,1.554,1.554c0,0.86-0.694,1.555-1.554,1.555c-2.943,0-4.762-1.885-4.762-4.497v-7.804h-0.761
			c-0.826,0-1.487-0.661-1.487-1.488s0.661-1.488,1.487-1.488h0.761V9.869z"/>
		<path fill="#3C4A5D" d="M167.351,28.088c-4.464,0-7.241-2.546-7.241-7.936c0-5.423,2.777-7.969,7.241-7.969
			s7.241,2.546,7.241,7.969C174.592,25.542,171.814,28.088,167.351,28.088z M167.351,15.226c-2.381,0-3.637,1.653-3.637,4.927
			c0,3.24,1.256,4.894,3.637,4.894s3.638-1.653,3.638-4.894C170.988,16.879,169.731,15.226,167.351,15.226z"/>
		<path fill="#3C4A5D" d="M180.873,26.832l-5.29-11.97c-0.066-0.166-0.133-0.397-0.133-0.694c0-0.992,0.794-1.786,1.786-1.786
			s1.487,0.694,1.653,1.124l3.637,9.192l3.638-9.192c0.165-0.43,0.661-1.124,1.653-1.124c0.991,0,1.785,0.793,1.785,1.786
			c0,0.297-0.066,0.529-0.132,0.694l-5.291,11.97c-0.298,0.661-0.893,1.091-1.653,1.091S181.171,27.493,180.873,26.832z"/>
	</g>
	<circle fill="#E14A67" cx="49.063" cy="18.373" r="2.567"/>
</g>
</svg>
