<?xml version="1.0" encoding="utf-8"?>
<!-- Generator: Adobe Illustrator 18.1.0, SVG Export Plug-In . SVG Version: 6.00 Build 0)  -->
<!DOCTYPE svg PUBLIC "-//W3C//DTD SVG 1.1//EN" "http://www.w3.org/Graphics/SVG/1.1/DTD/svg11.dtd">
<svg version="1.1" id="Layer_1" xmlns="http://www.w3.org/2000/svg" xmlns:xlink="http://www.w3.org/1999/xlink" x="0px" y="0px"
	 viewBox="0 153.5 444 136.7" enable-background="new 0 153.5 444 136.7" xml:space="preserve">
<g>
	<path fill="#221E20" d="M105.8,263.5l9.4-24.6h3.5l10,24.6h-3.6l-2.9-7.4h-10.3l-2.6,7.4H105.8z M113,253.4h8.4l-2.6-6.8
		c-0.8-2.1-1.4-3.8-1.7-5.2c-0.3,1.5-0.8,3.2-1.4,4.7L113,253.4z"/>
	<path fill="#221E20" d="M142.7,263.5v-2.6c-1.4,2-3.3,3-5.6,3c-1.1,0-2-0.2-2.9-0.6c-0.9-0.5-1.5-0.9-2-1.5
		c-0.5-0.6-0.8-1.4-0.9-2.3c-0.2-0.6-0.2-1.5-0.2-2.9v-11.1h3v9.9c0,1.5,0,2.6,0.2,3.2c0.2,0.8,0.6,1.4,1.2,1.8
		c0.6,0.5,1.4,0.6,2.3,0.6c0.9,0,1.8-0.3,2.6-0.8c0.8-0.5,1.4-1.1,1.7-1.8c0.3-0.8,0.5-2,0.5-3.5v-9.6h3v17.8h-2.9V263.5z"/>
	<path fill="#221E20" d="M149,258.1l3-0.5c0.2,1.2,0.6,2.1,1.4,2.7c0.8,0.6,1.8,0.9,3.2,0.9s2.4-0.3,3-0.9s1.1-1.2,1.1-2
		c0-0.6-0.3-1.2-0.9-1.7c-0.5-0.3-1.5-0.6-3-1.1c-2.3-0.6-3.8-1.1-4.6-1.5c-0.8-0.5-1.5-0.9-2-1.7c-0.5-0.8-0.6-1.5-0.6-2.4
		c0-0.8,0.2-1.5,0.6-2.3c0.5-0.8,0.9-1.2,1.5-1.7c0.5-0.3,1.1-0.6,2-0.9c0.8-0.3,1.7-0.3,2.6-0.3c1.4,0,2.6,0.2,3.6,0.6
		c1.1,0.5,1.8,0.9,2.3,1.7c0.5,0.8,0.9,1.7,1.1,2.7l-2.9,0.5c-0.2-0.9-0.5-1.7-1.2-2.1c-0.6-0.5-1.5-0.8-2.7-0.8
		c-1.4,0-2.4,0.3-3,0.8c-0.6,0.5-0.9,1.1-0.9,1.7c0,0.5,0.2,0.8,0.3,1.1c0.3,0.3,0.6,0.6,1.2,0.8c0.3,0.2,1.2,0.3,2.7,0.8
		c2.1,0.6,3.6,1.1,4.4,1.4c0.9,0.3,1.5,0.9,2,1.5c0.5,0.8,0.8,1.5,0.8,2.6c0,1.1-0.3,2-0.9,2.9s-1.4,1.5-2.6,2.1
		c-1.1,0.5-2.4,0.8-3.8,0.8c-2.3,0-4.1-0.5-5.3-1.5C150.2,261.5,149.3,260.1,149,258.1z"/>
	<path fill="#221E20" d="M174,260.9l0.5,2.7c-0.9,0.2-1.7,0.3-2.3,0.3c-1.1,0-2-0.2-2.6-0.5c-0.6-0.3-1.1-0.8-1.2-1.4
		s-0.3-1.8-0.3-3.5v-10.3h-2.3V246h2.3v-4.4l3-1.8v6.2h3v2.3h-3v10.5c0,0.9,0,1.4,0.2,1.7c0.2,0.3,0.3,0.5,0.5,0.6
		c0.3,0.2,0.6,0.2,1.1,0.2C173,260.9,173.4,260.9,174,260.9z"/>
	<path fill="#221E20" d="M176.9,263.5v-17.8h2.7v2.7c0.8-1.2,1.4-2.1,2-2.4c0.6-0.5,1.2-0.6,2-0.6c1.1,0,2.1,0.3,3,0.9l-1.1,2.7
		c-0.8-0.5-1.5-0.6-2.3-0.6c-0.6,0-1.2,0.2-1.8,0.6s-0.9,0.9-1.1,1.7c-0.3,1.1-0.5,2.3-0.5,3.5v9.3H176.9L176.9,263.5z"/>
	<path fill="#221E20" d="M200,261.3c-1.1,0.9-2.1,1.7-3.2,2c-1.1,0.5-2.1,0.6-3.3,0.6c-2,0-3.5-0.5-4.6-1.4s-1.5-2.1-1.5-3.6
		c0-0.9,0.2-1.7,0.6-2.4c0.5-0.8,0.9-1.4,1.5-1.7c0.6-0.5,1.4-0.8,2.1-1.1c0.6-0.2,1.5-0.3,2.7-0.5c2.4-0.3,4.3-0.6,5.3-1.1
		c0-0.5,0-0.6,0-0.8c0-1.2-0.3-2.1-0.9-2.6c-0.8-0.6-2-1.1-3.5-1.1c-1.4,0-2.4,0.3-3.2,0.8c-0.8,0.5-1.2,1.4-1.5,2.6l-2.9-0.5
		c0.3-1.2,0.8-2.3,1.4-3c0.6-0.8,1.5-1.4,2.7-1.8s2.6-0.6,4.1-0.6s2.7,0.2,3.6,0.6c0.9,0.3,1.7,0.8,2.1,1.4c0.5,0.6,0.8,1.2,0.9,2.1
		c0.2,0.5,0.2,1.5,0.2,2.7v4.1c0,2.7,0,4.6,0.2,5.3c0.2,0.8,0.5,1.5,0.8,2.1h-3.2C200.3,262.8,200.1,262.1,200,261.3z M199.8,254.6
		c-1.1,0.5-2.7,0.8-4.9,1.2c-1.2,0.2-2.1,0.3-2.6,0.6c-0.5,0.2-0.9,0.6-1.2,0.9c-0.3,0.3-0.5,0.9-0.5,1.4c0,0.8,0.3,1.5,0.9,2
		c0.6,0.6,1.5,0.8,2.7,0.8c1.2,0,2.1-0.3,3-0.8c0.9-0.5,1.5-1.2,2-2.1c0.3-0.6,0.5-1.7,0.5-3V254.6z"/>
	<path fill="#221E20" d="M207.4,263.5v-24.6h3v24.6H207.4z"/>
	<path fill="#221E20" d="M215.2,242.3v-3.5h3v3.5H215.2z M215.2,263.5v-17.8h3v17.8H215.2z"/>
	<path fill="#221E20" d="M234.5,261.3c-1.1,0.9-2.1,1.7-3.2,2c-1.1,0.5-2.1,0.6-3.3,0.6c-2,0-3.5-0.5-4.6-1.4
		c-1.1-0.9-1.5-2.1-1.5-3.6c0-0.9,0.2-1.7,0.6-2.4c0.5-0.8,0.9-1.4,1.5-1.7c0.6-0.5,1.4-0.8,2.1-1.1c0.6-0.2,1.5-0.3,2.7-0.5
		c2.4-0.3,4.3-0.6,5.3-1.1c0-0.5,0-0.6,0-0.8c0-1.2-0.3-2.1-0.9-2.6c-0.8-0.6-2-1.1-3.5-1.1c-1.4,0-2.4,0.3-3.2,0.8
		c-0.8,0.5-1.2,1.4-1.5,2.6l-2.9-0.5c0.3-1.2,0.8-2.3,1.4-3c0.6-0.8,1.5-1.4,2.7-1.8c1.2-0.5,2.6-0.6,4.1-0.6s2.7,0.2,3.6,0.6
		c0.9,0.3,1.7,0.8,2.1,1.4c0.5,0.6,0.8,1.2,0.9,2.1c0.2,0.5,0.2,1.5,0.2,2.7v4.1c0,2.7,0,4.6,0.2,5.3c0.2,0.8,0.5,1.5,0.8,2.1h-3.2
		C234.6,262.8,234.5,262.1,234.5,261.3z M234.1,254.6c-1.1,0.5-2.7,0.8-4.9,1.2c-1.2,0.2-2.1,0.3-2.6,0.6c-0.5,0.2-0.9,0.6-1.2,0.9
		c-0.3,0.3-0.5,0.9-0.5,1.4c0,0.8,0.3,1.5,0.9,2c0.6,0.6,1.5,0.8,2.7,0.8s2.1-0.3,3-0.8c0.9-0.5,1.5-1.2,2-2.1
		c0.3-0.6,0.5-1.7,0.5-3L234.1,254.6L234.1,254.6z"/>
</g>
<path fill="#221E20" d="M105.8,212.6L105.8,212.6c0-8.8,6.5-15.9,15.9-15.9c5.8,0,9.3,2,12.1,4.7l-4.3,5c-2.4-2.1-4.7-3.5-7.9-3.5
	c-5.2,0-9,4.3-9,9.6v0.2c0,5.3,3.6,9.7,9,9.7c3.5,0,5.6-1.4,8-3.6l4.3,4.4c-3.2,3.3-6.7,5.5-12.6,5.5
	C112.5,228.4,105.8,221.4,105.8,212.6z"/>
<path fill="#221E20" d="M136.7,195.9h6.7v11.8c1.5-2,3.5-3.8,6.8-3.8c5,0,8,3.3,8,8.7v15.2h-6.7v-13.1c0-3.2-1.5-4.7-4.1-4.7
	s-4.1,1.7-4.1,4.7v13.1h-6.7V195.9z"/>
<path fill="#221E20" d="M160.7,216.2L160.7,216.2c0-6.8,5.5-12.3,12.8-12.3s12.6,5.5,12.6,12.1v0.2c0,6.7-5.5,12.3-12.8,12.3
	C166.1,228.4,160.7,222.9,160.7,216.2z M179.5,216.2L179.5,216.2c0-3.5-2.4-6.5-6.2-6.5s-6.1,2.9-6.1,6.4v0.2c0,3.5,2.4,6.5,6.2,6.5
	C177.2,222.6,179.5,219.7,179.5,216.2z"/>
<path fill="#221E20" d="M188.6,216.2L188.6,216.2c0-6.8,5.5-12.3,12.8-12.3c7.3,0,12.6,5.5,12.6,12.1v0.2c0,6.7-5.5,12.3-12.8,12.3
	C194.1,228.4,188.6,222.9,188.6,216.2z M207.4,216.2L207.4,216.2c0-3.5-2.4-6.5-6.2-6.5c-3.8,0-6.1,2.9-6.1,6.4v0.2
	c0,3.5,2.4,6.5,6.2,6.5C205.1,222.6,207.4,219.7,207.4,216.2z"/>
<path fill="#221E20" d="M214.9,224.7l2.9-4.4c2.6,1.8,5.2,2.7,7.4,2.7c2,0,2.7-0.8,2.7-1.8v-0.2c0-1.5-2.3-2-4.9-2.7
	c-3.3-0.9-7-2.4-7-7.1v-0.2c0-4.7,3.8-7.4,8.7-7.4c3,0,6.2,1.1,8.8,2.7l-2.6,4.6c-2.3-1.4-4.7-2.1-6.4-2.1c-1.7,0-2.4,0.8-2.4,1.7
	v0.2c0,1.4,2.3,2,4.7,2.7c3.3,1.1,7.1,2.7,7.1,7v0.2c0,5.2-3.9,7.6-9,7.6C221.7,228.2,217.9,227.2,214.9,224.7z"/>
<path fill="#221E20" d="M247.5,204.4h6.7v3.3c1.5-2,3.5-3.8,6.8-3.8c5,0,8,3.3,8,8.7v15.2h-6.7v-13.1c0-3.2-1.5-4.7-4.1-4.7
	c-2.6,0-4.1,1.7-4.1,4.7v13.1h-6.7V204.4z"/>
<path fill="#221E20" d="M272.9,232.5l2.3-5c2.4,1.4,4.9,2.1,7.9,2.1c4.6,0,6.7-2.1,6.7-6.4V222c-2,2.4-4.1,3.8-7.7,3.8
	c-5.5,0-10.5-3.9-10.5-10.9v-0.2c0-7,5-10.9,10.5-10.9c3.6,0,5.8,1.5,7.6,3.5v-3h6.7v18.2c0,4.3-1.1,7.3-3,9.3
	c-2.1,2.1-5.6,3.2-10.2,3.2C279.4,234.9,275.8,234,272.9,232.5z M289.7,215L289.7,215c0-3.3-2.4-5.5-5.8-5.5c-3.2,0-5.8,2.3-5.8,5.5
	v0.2c0,3.2,2.4,5.5,5.8,5.5C287.3,220.3,289.7,218.2,289.7,215z"/>
<path fill="#221E20" d="M307,196.6h7.3l6.4,20.8l6.8-20.8h5.8l6.8,20.8l6.4-20.8h7.1l-10.5,31h-5.9l-7-20l-7,20h-5.9L307,196.6z"/>
<path fill="#221E20" d="M355.2,195.3h7v5.9h-7V195.3z M355.3,203.8h6.7v23.5h-6.7V203.8z"/>
<path fill="#221E20" d="M236.7,195.3h7v5.9h-7V195.3z M237,203.8h6.7v23.5H237V203.8z"/>
<path fill="#221E20" d="M364.1,224.3l2.9-4.4c2.6,1.8,5.2,2.7,7.4,2.7c2,0,2.7-0.8,2.7-1.8v-0.2c0-1.5-2.3-2-4.9-2.7
	c-3.3-0.9-7-2.4-7-7v-0.2c0-4.7,3.8-7.4,8.7-7.4c3,0,6.2,1.1,8.8,2.7l-2.6,4.6c-2.3-1.4-4.7-2.1-6.4-2.1c-1.7,0-2.4,0.8-2.4,1.7v0.2
	c0,1.4,2.3,2,4.7,2.7c3.3,1.1,7.1,2.7,7.1,7v0.2c0,5.2-3.9,7.6-9,7.6C371,227.8,367.3,226.7,364.1,224.3z"/>
<path fill="#221E20" d="M384.8,215.8L384.8,215.8c0-6.8,4.7-12.3,11.7-12.3c7.9,0,11.4,6.1,11.4,12.8c0,0.5,0,1.2-0.2,1.8h-16.4
	c0.6,3,2.7,4.6,5.8,4.6c2.3,0,3.8-0.8,5.8-2.4l3.8,3.3c-2.1,2.7-5.3,4.4-9.6,4.4C389.9,227.9,384.8,222.9,384.8,215.8z M401.3,213.8
	c-0.5-3-2.1-5-5-5c-2.7,0-4.6,2-5,5H401.3z"/>
<path fill="#221E20" d="M410.9,195.3h6.7v32h-6.7V195.3z"/>
<path fill="#221E20" d="M437,203.8h7l-9.1,24.1c-1.8,4.7-3.8,6.5-7.7,6.5c-2.4,0-4.3-0.6-5.9-1.7l2.3-4.9c0.9,0.5,2,0.9,2.9,0.9
	c1.2,0,1.8-0.3,2.3-1.5l-9.3-23.5h7l5.3,15.9L437,203.8z"/>
<g>
	<polygon fill="#FCEE73" points="39,161.1 42.2,153.5 6.5,171 	"/>
	<polygon fill="#FCEE73" points="57.9,190.9 39,161.1 15.9,195.4 	"/>
	<polygon fill="#FCEE73" points="15.9,195.4 6.5,171 0,204.4 	"/>
	<polygon fill="#FDC60D" points="39,161.1 78,161.1 42.2,153.5 	"/>
	<polygon fill="#FFD727" points="39,161.1 6.5,171 15.9,195.4 	"/>
	<polygon fill="#F7AA21" points="66.1,224.4 25.8,229.7 69.2,216.1 	"/>
	<polygon fill="#E58924" points="66.1,224.4 69.2,216.1 96,232.9 	"/>
	<polygon fill="#E58924" points="69.2,216.1 93.4,192.4 83.8,211.7 	"/>
	<polygon fill="#B16328" points="69.2,216.1 83.8,211.7 96,232.9 	"/>
	<polygon fill="#FDC60D" points="25.8,229.7 57.9,190.9 15.9,195.4 	"/>
	<polygon fill="#FFD727" points="57.9,190.9 78,161.1 39,161.1 	"/>
	<polygon fill="#F7AA21" points="57.9,190.9 69.2,216.1 93.4,192.4 	"/>
	<polygon fill="#FDC60D" points="78,161.1 57.9,190.9 93.4,192.4 	"/>
	<polygon fill="#E58924" points="57.9,190.9 25.8,229.7 69.2,216.1 	"/>
	<polygon fill="#F7AA21" points="25.8,229.7 15.9,195.4 0,204.4 	"/>
</g>
<g>
	<g>
		<path fill="#221E20" d="M105.8,290l5.1-13.4h1.9l5.5,13.4h-2l-1.6-4h-5.6l-1.5,4H105.8z M109.7,284.5h4.5l-1.4-3.7
			c-0.4-1.1-0.7-2-0.9-2.8c-0.2,0.9-0.4,1.7-0.7,2.6L109.7,284.5z"/>
		<path fill="#221E20" d="M119.7,290v-9.7h1.5v1.4c0.7-1.1,1.7-1.6,3.1-1.6c0.6,0,1.1,0.1,1.6,0.3c0.5,0.2,0.9,0.5,1.1,0.8
			c0.2,0.3,0.4,0.7,0.5,1.2c0.1,0.3,0.1,0.8,0.1,1.6v6H126v-5.9c0-0.7-0.1-1.2-0.2-1.5c-0.1-0.3-0.4-0.6-0.7-0.8
			c-0.3-0.2-0.7-0.3-1.1-0.3c-0.7,0-1.3,0.2-1.8,0.7c-0.5,0.4-0.8,1.3-0.8,2.5v5.3H119.7z"/>
		<path fill="#221E20" d="M135.7,278.5v-1.9h1.6v1.9H135.7z M135.7,290v-9.7h1.6v9.7H135.7z"/>
		<path fill="#221E20" d="M140,290v-9.7h1.5v1.4c0.7-1.1,1.7-1.6,3.1-1.6c0.6,0,1.1,0.1,1.6,0.3c0.5,0.2,0.9,0.5,1.1,0.8
			c0.2,0.3,0.4,0.7,0.5,1.2c0.1,0.3,0.1,0.8,0.1,1.6v6h-1.6v-5.9c0-0.7-0.1-1.2-0.2-1.5c-0.1-0.3-0.4-0.6-0.7-0.8
			c-0.3-0.2-0.7-0.3-1.1-0.3c-0.7,0-1.3,0.2-1.8,0.7c-0.5,0.4-0.8,1.3-0.8,2.5v5.3H140z"/>
		<path fill="#221E20" d="M150.6,278.5v-1.9h1.6v1.9H150.6z M150.6,290v-9.7h1.6v9.7H150.6z"/>
		<path fill="#221E20" d="M158.5,288.5l0.2,1.4c-0.5,0.1-0.9,0.1-1.2,0.1c-0.6,0-1.1-0.1-1.4-0.3s-0.6-0.4-0.7-0.7
			c-0.1-0.3-0.2-1-0.2-1.9v-5.6H154v-1.3h1.2v-2.4l1.6-1v3.4h1.7v1.3h-1.7v5.7c0,0.5,0,0.8,0.1,0.9c0.1,0.1,0.2,0.2,0.3,0.3
			c0.1,0.1,0.3,0.1,0.6,0.1C158,288.6,158.2,288.6,158.5,288.5z"/>
		<path fill="#221E20" d="M160.3,278.5v-1.9h1.6v1.9H160.3z M160.3,290v-9.7h1.6v9.7H160.3z"/>
		<path fill="#221E20" d="M171,288.8c-0.6,0.5-1.2,0.9-1.8,1.1s-1.2,0.3-1.8,0.3c-1.1,0-1.9-0.3-2.5-0.8c-0.6-0.5-0.9-1.2-0.9-2
			c0-0.5,0.1-0.9,0.3-1.3c0.2-0.4,0.5-0.7,0.8-0.9s0.7-0.4,1.2-0.5c0.3-0.1,0.8-0.2,1.5-0.2c1.3-0.2,2.3-0.3,2.9-0.6
			c0-0.2,0-0.4,0-0.4c0-0.7-0.2-1.1-0.5-1.4c-0.4-0.4-1-0.6-1.9-0.6c-0.8,0-1.3,0.1-1.7,0.4c-0.4,0.3-0.6,0.8-0.8,1.4l-1.6-0.2
			c0.1-0.7,0.4-1.2,0.7-1.7c0.3-0.4,0.8-0.7,1.4-1c0.6-0.2,1.4-0.3,2.2-0.3c0.8,0,1.5,0.1,2,0.3c0.5,0.2,0.9,0.4,1.1,0.7
			c0.2,0.3,0.4,0.7,0.5,1.1c0.1,0.3,0.1,0.8,0.1,1.5v2.2c0,1.5,0,2.5,0.1,2.9s0.2,0.8,0.4,1.2h-1.7C171.1,289.7,171,289.3,171,288.8
			z M170.8,285.1c-0.6,0.2-1.5,0.4-2.7,0.6c-0.7,0.1-1.2,0.2-1.4,0.3c-0.3,0.1-0.5,0.3-0.6,0.5c-0.2,0.2-0.2,0.5-0.2,0.8
			c0,0.4,0.2,0.8,0.5,1.1c0.3,0.3,0.8,0.4,1.5,0.4c0.6,0,1.2-0.1,1.7-0.4c0.5-0.3,0.9-0.7,1.1-1.1c0.2-0.4,0.3-0.9,0.3-1.6V285.1z"
			/>
		<path fill="#221E20" d="M178.8,288.5l0.2,1.4c-0.5,0.1-0.9,0.1-1.2,0.1c-0.6,0-1.1-0.1-1.4-0.3s-0.6-0.4-0.7-0.7
			c-0.1-0.3-0.2-1-0.2-1.9v-5.6h-1.2v-1.3h1.2v-2.4l1.6-1v3.4h1.7v1.3h-1.7v5.7c0,0.5,0,0.8,0.1,0.9c0.1,0.1,0.2,0.2,0.3,0.3
			c0.1,0.1,0.3,0.1,0.6,0.1C178.3,288.6,178.5,288.6,178.8,288.5z"/>
		<path fill="#221E20" d="M180.6,278.5v-1.9h1.6v1.9H180.6z M180.6,290v-9.7h1.6v9.7H180.6z"/>
		<path fill="#221E20" d="M187.6,290l-3.7-9.7h1.7l2.1,5.8c0.2,0.6,0.4,1.3,0.6,2c0.1-0.5,0.3-1.1,0.6-1.8l2.2-5.9h1.7l-3.7,9.7
			H187.6z"/>
		<path fill="#221E20" d="M201.1,286.9l1.7,0.2c-0.3,1-0.8,1.8-1.5,2.3c-0.7,0.5-1.6,0.8-2.8,0.8c-1.4,0-2.5-0.4-3.4-1.3
			c-0.8-0.9-1.2-2.1-1.2-3.7c0-1.6,0.4-2.9,1.3-3.8c0.8-0.9,1.9-1.4,3.3-1.4c1.3,0,2.4,0.4,3.2,1.3c0.8,0.9,1.2,2.1,1.2,3.7
			c0,0.1,0,0.2,0,0.4h-7.2c0.1,1.1,0.4,1.9,0.9,2.4c0.5,0.6,1.2,0.8,2,0.8c0.6,0,1.1-0.2,1.5-0.5
			C200.5,288.1,200.8,287.6,201.1,286.9z M195.7,284.2h5.4c-0.1-0.8-0.3-1.4-0.6-1.8c-0.5-0.6-1.2-0.9-2-0.9c-0.8,0-1.4,0.3-1.9,0.8
			C196,282.7,195.7,283.4,195.7,284.2z"/>
		<path fill="#221E20" d="M209.8,285.2c0-1.8,0.5-3.1,1.5-4c0.8-0.7,1.8-1.1,3-1.1c1.3,0,2.4,0.4,3.3,1.3c0.8,0.9,1.3,2.1,1.3,3.6
			c0,1.2-0.2,2.2-0.6,2.9c-0.4,0.7-0.9,1.3-1.6,1.7c-0.7,0.4-1.5,0.6-2.3,0.6c-1.4,0-2.5-0.4-3.3-1.3S209.8,286.8,209.8,285.2z
			 M211.5,285.2c0,1.2,0.3,2.2,0.8,2.8c0.5,0.6,1.2,0.9,2,0.9c0.8,0,1.5-0.3,2-0.9c0.5-0.6,0.8-1.6,0.8-2.8c0-1.2-0.3-2.1-0.8-2.7
			c-0.5-0.6-1.2-0.9-2-0.9c-0.8,0-1.5,0.3-2,0.9C211.7,283,211.5,283.9,211.5,285.2z"/>
		<path fill="#221E20" d="M221.4,290v-8.4h-1.4v-1.3h1.4v-1c0-0.7,0.1-1.1,0.2-1.5c0.2-0.4,0.4-0.8,0.8-1c0.4-0.3,1-0.4,1.7-0.4
			c0.5,0,1,0.1,1.5,0.2l-0.2,1.4c-0.3-0.1-0.7-0.1-1-0.1c-0.5,0-0.9,0.1-1.1,0.3c-0.2,0.2-0.3,0.6-0.3,1.2v0.9h1.9v1.3H223v8.4
			H221.4z"/>
		<path fill="#221E20" d="M231.9,290v-13.4h1.8l7,10.5v-10.5h1.7V290h-1.8l-7-10.5V290H231.9z"/>
		<path fill="#221E20" d="M245.6,290v-13.4h5c0.9,0,1.6,0,2,0.1c0.7,0.1,1.2,0.3,1.7,0.6c0.4,0.3,0.8,0.7,1.1,1.3
			c0.3,0.6,0.4,1.2,0.4,1.8c0,1.1-0.4,2.1-1.1,2.9s-2,1.2-3.9,1.2h-3.4v5.4H245.6z M247.4,283h3.5c1.1,0,2-0.2,2.4-0.6
			s0.7-1,0.7-1.8c0-0.6-0.1-1-0.4-1.4c-0.3-0.4-0.7-0.7-1.1-0.8c-0.3-0.1-0.8-0.1-1.7-0.1h-3.4V283z"/>
		<path fill="#221E20" d="M257.6,285.7l1.7-0.1c0.1,0.7,0.3,1.2,0.6,1.6s0.7,0.8,1.3,1c0.6,0.3,1.3,0.4,2.1,0.4
			c0.7,0,1.3-0.1,1.8-0.3c0.5-0.2,0.9-0.5,1.2-0.8c0.3-0.3,0.4-0.7,0.4-1.1c0-0.4-0.1-0.8-0.4-1.1s-0.6-0.6-1.2-0.8
			c-0.4-0.1-1.2-0.4-2.4-0.7c-1.2-0.3-2.1-0.6-2.6-0.8c-0.6-0.3-1.1-0.7-1.4-1.2c-0.3-0.5-0.5-1-0.5-1.7c0-0.7,0.2-1.3,0.6-1.9
			c0.4-0.6,0.9-1,1.7-1.3c0.7-0.3,1.6-0.5,2.5-0.5c1,0,1.9,0.2,2.6,0.5c0.8,0.3,1.3,0.8,1.7,1.4s0.6,1.3,0.7,2.1l-1.7,0.1
			c-0.1-0.8-0.4-1.5-0.9-1.9c-0.5-0.4-1.3-0.6-2.3-0.6c-1.1,0-1.8,0.2-2.3,0.6c-0.5,0.4-0.7,0.9-0.7,1.4c0,0.5,0.2,0.9,0.5,1.2
			c0.3,0.3,1.2,0.6,2.7,1s2.4,0.6,3,0.9c0.8,0.4,1.4,0.8,1.7,1.4c0.4,0.5,0.6,1.2,0.6,1.9c0,0.7-0.2,1.4-0.6,2s-1,1.1-1.8,1.5
			c-0.8,0.3-1.6,0.5-2.6,0.5c-1.2,0-2.2-0.2-3-0.5c-0.8-0.4-1.5-0.9-1.9-1.6C257.9,287.4,257.7,286.6,257.6,285.7z"/>
		<path fill="#221E20" d="M276.2,290v-13.4h2.7l3.2,9.5c0.3,0.9,0.5,1.5,0.6,2c0.2-0.5,0.4-1.2,0.7-2.1l3.2-9.3h2.4V290h-1.7v-11.2
			l-3.9,11.2h-1.6l-3.9-11.4V290H276.2z"/>
		<path fill="#221E20" d="M298.4,286.9l1.7,0.2c-0.3,1-0.8,1.8-1.5,2.3c-0.7,0.5-1.6,0.8-2.8,0.8c-1.4,0-2.5-0.4-3.4-1.3
			s-1.2-2.1-1.2-3.7c0-1.6,0.4-2.9,1.3-3.8c0.8-0.9,1.9-1.4,3.3-1.4c1.3,0,2.4,0.4,3.2,1.3c0.8,0.9,1.2,2.1,1.2,3.7
			c0,0.1,0,0.2,0,0.4H293c0.1,1.1,0.4,1.9,0.9,2.4s1.2,0.8,2,0.8c0.6,0,1.1-0.2,1.5-0.5C297.8,288.1,298.2,287.6,298.4,286.9z
			 M293,284.2h5.4c-0.1-0.8-0.3-1.4-0.6-1.8c-0.5-0.6-1.2-0.9-2-0.9c-0.8,0-1.4,0.3-1.9,0.8C293.4,282.7,293.1,283.4,293,284.2z"/>
		<path fill="#221E20" d="M308.7,290v-1.2c-0.6,1-1.5,1.4-2.7,1.4c-0.8,0-1.5-0.2-2.1-0.6c-0.6-0.4-1.1-1-1.5-1.8s-0.5-1.6-0.5-2.6
			c0-1,0.2-1.8,0.5-2.6c0.3-0.8,0.8-1.4,1.4-1.8c0.6-0.4,1.4-0.6,2.2-0.6c0.6,0,1.1,0.1,1.6,0.4c0.5,0.2,0.8,0.6,1.1,1v-4.8h1.6V290
			H308.7z M303.5,285.2c0,1.2,0.3,2.2,0.8,2.8c0.5,0.6,1.1,0.9,1.9,0.9c0.7,0,1.3-0.3,1.8-0.9c0.5-0.6,0.8-1.5,0.8-2.7
			c0-1.3-0.3-2.3-0.8-2.9c-0.5-0.6-1.1-0.9-1.9-0.9c-0.7,0-1.3,0.3-1.8,0.9S303.5,283.9,303.5,285.2z"/>
		<path fill="#221E20" d="M313,278.5v-1.9h1.6v1.9H313z M313,290v-9.7h1.6v9.7H313z"/>
		<path fill="#221E20" d="M323.6,286.5l1.6,0.2c-0.2,1.1-0.6,2-1.4,2.6c-0.7,0.6-1.6,0.9-2.7,0.9c-1.3,0-2.4-0.4-3.2-1.3
			c-0.8-0.9-1.2-2.1-1.2-3.7c0-1,0.2-2,0.5-2.7c0.3-0.8,0.9-1.4,1.6-1.8c0.7-0.4,1.5-0.6,2.3-0.6c1.1,0,1.9,0.3,2.6,0.8
			c0.7,0.5,1.1,1.3,1.3,2.3l-1.6,0.2c-0.2-0.7-0.4-1.1-0.8-1.5c-0.4-0.3-0.9-0.5-1.4-0.5c-0.8,0-1.5,0.3-2,0.9
			c-0.5,0.6-0.8,1.5-0.8,2.8c0,1.3,0.2,2.2,0.7,2.8c0.5,0.6,1.1,0.9,2,0.9c0.6,0,1.2-0.2,1.6-0.6S323.5,287.3,323.6,286.5z"/>
		<path fill="#221E20" d="M326.8,278.5v-1.9h1.6v1.9H326.8z M326.8,290v-9.7h1.6v9.7H326.8z"/>
		<path fill="#221E20" d="M331.2,290v-9.7h1.5v1.4c0.7-1.1,1.7-1.6,3.1-1.6c0.6,0,1.1,0.1,1.6,0.3c0.5,0.2,0.9,0.5,1.1,0.8
			c0.2,0.3,0.4,0.7,0.5,1.2c0.1,0.3,0.1,0.8,0.1,1.6v6h-1.6v-5.9c0-0.7-0.1-1.2-0.2-1.5c-0.1-0.3-0.4-0.6-0.7-0.8
			c-0.3-0.2-0.7-0.3-1.1-0.3c-0.7,0-1.3,0.2-1.8,0.7s-0.8,1.3-0.8,2.5v5.3H331.2z"/>
		<path fill="#221E20" d="M348.4,286.9l1.7,0.2c-0.3,1-0.8,1.8-1.5,2.3c-0.7,0.5-1.6,0.8-2.8,0.8c-1.4,0-2.5-0.4-3.4-1.3
			s-1.2-2.1-1.2-3.7c0-1.6,0.4-2.9,1.3-3.8c0.8-0.9,1.9-1.4,3.3-1.4c1.3,0,2.4,0.4,3.2,1.3c0.8,0.9,1.2,2.1,1.2,3.7
			c0,0.1,0,0.2,0,0.4h-7.2c0.1,1.1,0.4,1.9,0.9,2.4s1.2,0.8,2,0.8c0.6,0,1.1-0.2,1.5-0.5C347.8,288.1,348.1,287.6,348.4,286.9z
			 M343,284.2h5.4c-0.1-0.8-0.3-1.4-0.6-1.8c-0.5-0.6-1.2-0.9-2-0.9c-0.8,0-1.4,0.3-1.9,0.8C343.3,282.7,343,283.4,343,284.2z"/>
		<path fill="#221E20" d="M354.8,290l-3.5-13.4h1.8l2,8.8c0.2,0.9,0.4,1.8,0.6,2.7c0.3-1.4,0.5-2.3,0.6-2.5l2.5-9h2.1l1.9,6.8
			c0.5,1.7,0.8,3.3,1,4.7c0.2-0.8,0.4-1.8,0.7-2.9l2.1-8.6h1.8l-3.7,13.4h-1.7l-2.8-10.2c-0.2-0.9-0.4-1.4-0.4-1.6
			c-0.1,0.6-0.3,1.1-0.4,1.6l-2.8,10.2H354.8z"/>
		<path fill="#221E20" d="M370.1,278.5v-1.9h1.6v1.9H370.1z M370.1,290v-9.7h1.6v9.7H370.1z"/>
		<path fill="#221E20" d="M373.8,287.1l1.6-0.3c0.1,0.7,0.3,1.1,0.8,1.5c0.4,0.3,1,0.5,1.7,0.5c0.8,0,1.3-0.2,1.7-0.5
			c0.4-0.3,0.5-0.7,0.5-1.1c0-0.4-0.2-0.7-0.5-0.9c-0.2-0.1-0.8-0.3-1.7-0.6c-1.2-0.3-2-0.6-2.5-0.8c-0.5-0.2-0.8-0.5-1.1-0.9
			c-0.2-0.4-0.4-0.8-0.4-1.3c0-0.4,0.1-0.8,0.3-1.2s0.5-0.7,0.8-0.9c0.3-0.2,0.6-0.3,1-0.5c0.4-0.1,0.9-0.2,1.4-0.2
			c0.8,0,1.4,0.1,2,0.3c0.6,0.2,1,0.5,1.3,0.9s0.5,0.9,0.6,1.5l-1.6,0.2c-0.1-0.5-0.3-0.9-0.6-1.2c-0.3-0.3-0.8-0.4-1.5-0.4
			c-0.8,0-1.3,0.1-1.6,0.4c-0.3,0.2-0.5,0.5-0.5,0.9c0,0.2,0.1,0.4,0.2,0.6c0.1,0.2,0.3,0.3,0.6,0.4c0.2,0.1,0.6,0.2,1.5,0.4
			c1.2,0.3,2,0.6,2.4,0.8s0.8,0.5,1.1,0.9c0.3,0.4,0.4,0.8,0.4,1.4c0,0.5-0.2,1.1-0.5,1.5c-0.3,0.5-0.8,0.9-1.4,1.1
			c-0.6,0.3-1.3,0.4-2,0.4c-1.3,0-2.2-0.3-2.9-0.8C374.4,288.9,374,288.1,373.8,287.1z"/>
		<path fill="#221E20" d="M390.6,286.9l1.7,0.2c-0.3,1-0.8,1.8-1.5,2.3c-0.7,0.5-1.6,0.8-2.8,0.8c-1.4,0-2.5-0.4-3.4-1.3
			s-1.2-2.1-1.2-3.7c0-1.6,0.4-2.9,1.3-3.8c0.8-0.9,1.9-1.4,3.3-1.4c1.3,0,2.4,0.4,3.2,1.3c0.8,0.9,1.2,2.1,1.2,3.7
			c0,0.1,0,0.2,0,0.4h-7.2c0.1,1.1,0.4,1.9,0.9,2.4s1.2,0.8,2,0.8c0.6,0,1.1-0.2,1.5-0.5C390,288.1,390.4,287.6,390.6,286.9z
			 M385.2,284.2h5.4c-0.1-0.8-0.3-1.4-0.6-1.8c-0.5-0.6-1.2-0.9-2-0.9c-0.8,0-1.4,0.3-1.9,0.8C385.6,282.7,385.3,283.4,385.2,284.2z
			"/>
	</g>
</g>
</svg>
