<svg xmlns="http://www.w3.org/2000/svg" xmlns:xlink="http://www.w3.org/1999/xlink" width="550" height="550" viewBox="0 0 550 550"><defs><path id="g" d="M275 82c-.552 0-1-.45-1-1.007V69.007c0-.556.444-1.007 1-1.007.552 0 1 .45 1 1.007v11.986c0 .556-.444 1.007-1 1.007z"/></defs><clipPath id="h"><use xlink:href="#g" overflow="visible"/></clipPath><path clip-path="url(#h)" fill="none" stroke="#FFF" stroke-width="4" stroke-miterlimit="10" d="M275 82c-.552 0-1-.45-1-1.007V69.007c0-.556.444-1.007 1-1.007.552 0 1 .45 1 1.007v11.986c0 .556-.444 1.007-1 1.007z"/><defs><path id="i" d="M274 0h2v60h-2z"/></defs><clipPath id="j"><use xlink:href="#i" overflow="visible"/></clipPath><path clip-path="url(#j)" fill="none" stroke="#FFF" stroke-width="4" stroke-miterlimit="10" d="M274 0h2v60h-2z"/><circle fill="none" stroke="#FFF" stroke-width="2" stroke-miterlimit="10" cx="275" cy="75" r="15"/><g><defs><path id="k" d="M268 75c0-.553.45-1 1.007-1h11.986c.556 0 1.007.444 1.007 1 0 .553-.45 1-1.007 1h-11.986c-.556 0-1.007-.444-1.007-1z"/></defs><clipPath id="l"><use xlink:href="#k" overflow="visible"/></clipPath><path clip-path="url(#l)" fill="none" stroke="#FFF" stroke-width="4" stroke-miterlimit="10" d="M268 75c0-.553.45-1 1.007-1h11.986c.556 0 1.007.444 1.007 1 0 .553-.45 1-1.007 1h-11.986c-.556 0-1.007-.444-1.007-1z"/></g></svg>