<svg xmlns="http://www.w3.org/2000/svg" xmlns:xlink="http://www.w3.org/1999/xlink" width="2000" height="810" viewBox="0 0 2000 810"><defs><path id="a" d="M0 0h2000v810H0z"/></defs><clipPath id="b"><use xlink:href="#a" overflow="visible"/></clipPath><path clip-path="url(#b)" fill="#7D7D7D" stroke="#231F20" stroke-miterlimit="10" d="M0 0h2000v810H0z"/><g clip-path="url(#b)"><g opacity=".3"><g opacity=".5" fill="none" stroke="#FFF" stroke-width=".45" stroke-miterlimit="10"><path d="M253.737 531.09l-67.428 34.97 10.26-38.234zM261.16 995.666l-24.33 10.68-12.282 61.24zM236.83 1006.345l-58.34-68.667 19.154 1.81z"/><path d="M197.262 924.07l-18.773 13.608 19.154 1.81zM350.22 621.085l-43.566-4.378 1.816 19.643zM196.57 527.826l-10.26 38.233-52.53-25.996zM186.31 566.06l-92.012 50.106 39.482-76.102zM492.104 621.647l-16.907-4.25-4.838-35.516z"/><path d="M196.57 527.826l-62.79 12.238-14.978-9.01zM127.465 897.48l1.914 20.368 59.218-13.223zM308.47 636.35l-100.658 62.332-7.814-76.286zM186.31 566.06l-92.012 50.106 105.7 6.23zM138.494 688.234l-44.196-72.068 105.7 6.23zM350.22 621.085l-43.566-4.378-10.354-19.22zM448.122 683.627l-97.9-62.542 88.99-9.177z"/><path d="M475.197 617.396l-4.838-35.515-31.148 30.028zM579.765 451.316l-49.018 37.618 9.332-51.365zM668.448 843.677l-3.444 18.885-69.288 8.704z"/><path d="M668.448 843.677l-90.553-14.92 17.82 42.51zM530.747 488.934l-92.03-25.77 79.354 96.746zM492.104 621.647L470.36 581.88l47.71-21.97z"/><path d="M470.36 581.88l-31.644-118.717 79.355 96.747zM350.22 621.085l-53.92-23.597 63.052-73.42z"/><path d="M296.3 597.488l-42.563-66.4 105.615-7.02zM83.297 453.382L47.713 406.66l-2.484 51.17z"/><path d="M47.713 406.66l-41.55 60.91 39.066-9.74zM133.78 540.064l-14.978-9.01-61.45 59.94zM133.78 540.064l-39.482 76.102-36.945-25.172zM668.448 843.677l-26.954-90.624-37.8 31.67z"/><path d="M668.448 843.677l-90.553-14.92 25.8-44.034zM577.895 828.756l-31.026-38.502 56.825-5.53zM613.37 887.277l-17.654-16.01 9.22 61.36zM224.548 1067.586l12.283-61.24-143.736 17.37z"/><path d="M236.83 1006.345l-58.34-68.667-85.396 86.04z"/><path d="M178.49 937.678l-49.11-19.83-36.286 105.87zM207.812 698.682l-8.064 73.293-75.478-5.188zM199.748 771.975l-14.16 15.926-61.318-21.113zM83.297 453.382L45.23 457.83l-2.65 68.873zM45.23 457.83L6.16 467.57l36.417 59.133zM577.895 828.756l-31.026-38.502-109.29 62.036z"/><path d="M437.58 852.29l-48.15 12.452 22.326-44.295zM389.43 864.742l-19.68-24.576 42.006-19.72z"/><path d="M369.75 840.166l-40.67-20.98 82.676 1.26zM129.38 917.848l-36.286 105.87L43.11 984.85zM439.212 611.908l8.91 71.72 40.428-31.292z"/><path d="M492.104 621.647l-16.907-4.25 13.353 34.94z"/><path d="M475.197 617.396l-35.985-5.488 49.338 40.428zM438.716 463.163l-72.79-10.71 10.147 74.496zM439.212 611.908l-88.99 9.177 25.85-94.136zM365.925 452.452l-6.573 71.617 16.72 2.88z"/><path d="M359.352 524.07l-9.13 97.015 25.85-94.136zM470.36 581.88l-31.644-118.717-62.643 63.786z"/><path d="M470.36 581.88L439.21 611.91l-63.14-84.96zM224.548 1067.586l-131.454-43.87-19.642 38.773z"/><path d="M93.094 1023.717L43.11 984.85l30.342 77.64zM473.57 397.27l-34.015 21.578-2.018-65.29zM581.617 534.308L518.07 559.91l55.115 77.95zM518.07 559.91l-25.966 61.737 81.08 16.213z"/><path d="M492.104 621.647l-3.554 30.69 84.635-14.477zM306.654 616.707l1.816 19.643-64.428-37.636zM306.654 616.707l-10.354-19.22-52.258 1.227z"/><path d="M308.47 636.35l-108.472-13.954 44.044-23.682zM296.3 597.488l-42.563-66.4-9.695 67.626z"/><path d="M253.737 531.09l-67.428 34.97 57.732 32.654z"/><path d="M199.998 622.396l-13.69-56.337 57.734 32.654zM329.08 819.186l-84.32 49.793 12.093-31.115z"/><path d="M244.76 868.98l-41.232-6.17 53.325-24.945zM207.812 698.682l-8.064 73.293 23.595-22.368zM197.262 924.07l-8.664-19.445-.857 12.64zM197.262 924.07l-18.773 13.608 9.25-20.414z"/><path d="M188.598 904.625l-59.22 13.223 58.363-.584z"/><path d="M178.49 937.678l-49.11-19.83 58.36-.584zM42.58 526.703L6.16 467.57l-13.298 47.49zM389.43 864.742l-19.68-24.576 2.384 49.033zM369.75 840.166l-40.67-20.98 43.054 70.013z"/><path d="M329.08 819.186l-84.32 49.793 127.374 20.22zM138.494 688.234l-44.196-72.068-12.022 12.688z"/><path d="M94.298 616.166l-36.945-25.172 24.923 37.86zM57.353 590.994l-40.608 61.52 65.53-23.66zM453.917 940.676l-53.62 22.775 46.634 14.275z"/><path d="M400.297 963.45l-64.42 148.538L446.93 977.725zM57.353 590.994l-76.56-13.146 64.292-26.438zM42.58 526.703L-7.137 515.06l52.22 36.35zM439.555 418.848l-.84 44.315 32.638-31.704zM540.08 437.57l-9.333 51.364-59.394-57.475z"/><path d="M540.08 437.57l-66.51-40.3-2.217 34.19z"/><path d="M530.747 488.934l-92.03-25.77 32.636-31.705zM473.57 397.27l-34.015 21.578 31.798 12.61zM437.58 852.29l-43.846 25.128-2.968-9.174zM437.58 852.29l-48.15 12.452 1.336 3.502z"/><path d="M393.734 877.418l-21.6 11.78 18.632-20.954z"/><path d="M389.43 864.742L372.134 889.2l18.632-20.956zM453.917 940.676L437.58 852.29l92.91 89.007z"/><path d="M453.917 940.676l-6.986 37.05 83.56-36.43z"/><path d="M604.935 932.627l-9.22-61.36-65.225 70.03z"/><path d="M595.716 871.266l-17.82-42.51-47.406 112.54z"/><path d="M577.895 828.756L437.58 852.29l92.91 89.007zM365.925 452.452l-6.573 71.617-39.65-51.325z"/><path d="M365.925 452.452l-29.058-24.036-17.166 44.33z"/><path d="M359.352 524.07l-105.615 7.02 65.964-58.345zM336.867 428.416l-67.404 9.918 50.238 34.41z"/><path d="M269.463 438.334l-15.726 92.755 65.964-58.345zM584.913 709.93l-54.5 60.465-21.016-72.277z"/><path d="M546.87 790.254l-16.456-19.86-23.57-2.68z"/><path d="M530.414 770.395l-21.017-72.277-2.552 69.595z"/><path d="M509.397 698.118l-44.82 5.368 42.268 64.227zM244.76 868.98l-41.232-6.17-4.373 5.752zM188.598 904.625l-61.133-7.145 71.69-28.918zM199.998 622.396l7.814 76.286-35.37-13.598z"/><path d="M199.998 622.396l-61.504 65.838 33.95-3.15z"/><path d="M207.812 698.682l-83.542 68.105 48.173-81.703zM138.494 688.234l-32.298 40.498 66.247-43.648zM124.27 766.787l-18.074-38.055 66.247-43.648zM530.49 941.297l-83.56 36.428 79.98 19.31zM453.917 940.676L437.58 852.29l-28.135 45.823zM453.917 940.676l-53.62 22.775 9.148-65.337zM437.58 852.29l-43.846 25.128 15.71 20.695z"/><path d="M393.734 877.418l-21.6 11.78 37.31 8.915zM400.297 963.45l-28.163-74.25 37.31 8.913zM244.76 868.98l-45.605-.418 14.263 28.998z"/><path d="M199.155 868.562l-10.557 36.063 24.82-7.065zM665.1 964.213l-42.274-7.502 58.78-22.74zM622.826 956.71l-17.89-24.083 76.67 1.343zM72.478 859.754L50.142 853.5l-10.976-42.706zM50.142 853.5L2.076 879.2l37.09-68.406z"/><path d="M22.07 735.77L2.077 879.2l37.09-68.406zM73.452 1062.49L43.11 984.85l-58.415-53.924zM464.578 703.486l-16.456-19.86-28.757 22.335z"/><path d="M448.122 683.627l-97.9-62.542 69.143 84.876z"/><path d="M350.22 621.085l-41.75 15.265 110.895 69.61zM45.085 551.41l-52.22-36.35-21.92 34.663zM45.085 551.41l-64.293 26.438-9.848-28.125zM372.134 889.2L244.76 868.98l.43 66.243zM244.76 868.98l-31.342 28.58 31.772 37.663zM261.16 995.666l-24.33 10.68 8.36-71.123zM236.83 1006.345l-39.186-66.857 47.546-4.265zM579.765 451.316l1.852 82.992-36.244-32.633zM579.765 451.316l-49.018 37.618 14.626 12.74z"/><path d="M581.617 534.308L518.07 559.91l27.303-58.235z"/><path d="M530.747 488.934L518.07 559.91l27.303-58.235zM124.27 766.787l-18.074-38.055-13.016 62.18z"/><path d="M106.196 728.732l-84.125 7.04 71.11 55.14z"/><path d="M39.166 810.794L22.07 735.77l71.11 55.142zM419.365 705.96L308.47 636.35l-24.04 69.576zM308.47 636.35l-100.658 62.332 76.617 7.244zM584.913 709.93l-75.516-11.812 58.692-35.99z"/><path d="M509.397 698.118l-20.847-45.782 79.54 9.79zM538.763 364.816l1.316 72.753-37.456-60.463z"/><path d="M538.763 364.816l-101.226-11.258 65.087 23.55z"/><path d="M540.08 437.57l-66.51-40.3 29.054-20.163z"/><path d="M473.57 397.27l-36.033-43.712 65.087 23.55zM464.578 703.486l-16.456-19.86 42.626 3.772zM509.397 698.118l-20.847-45.782 2.198 35.062z"/><path d="M488.55 652.336l-40.428 31.29 42.626 3.772zM203.528 862.81l-4.373 5.752-64.107-60.516z"/><path d="M203.528 862.81l-17.94-74.91-50.54 20.146zM199.155 868.562l-71.69 28.918 7.583-89.434z"/><path d="M185.59 787.9l-61.32-21.113 10.778 41.26z"/><path d="M124.27 766.787l-31.09 24.125 41.868 17.134z"/><path d="M127.465 897.48l-25.632-74.595 33.215-14.84z"/><path d="M101.833 822.885l-8.653-31.973 41.868 17.134zM127.465 897.48l-25.632-74.595-8.494 7.05zM127.465 897.48l-54.987-37.726 20.86-29.82z"/><path d="M101.833 822.885l-8.653-31.973.16 39.022z"/><path d="M93.18 790.912l-54.014 19.882 54.173 19.14zM72.478 859.754l-33.312-48.96 54.173 19.14zM681.607 933.97l-76.672-1.343 18.305-42.273z"/><path d="M613.37 887.277l-8.435 45.35 18.305-42.273zM329.08 819.186l-72.227 18.68.474-28.06z"/><path d="M256.853 837.865l-53.325 24.944 53.8-53.003z"/><path d="M223.343 749.607l-23.595 22.368 57.58 37.832zM199.748 771.975l-14.16 15.926 71.74 21.907z"/><path d="M203.528 862.81l-17.94-74.91 71.74 21.907zM118.802 531.055l-35.505-77.673 22.16 74.333zM118.802 531.055l-61.45 59.94 48.104-63.28zM83.297 453.382l-40.718 73.32 62.876 1.013z"/><path d="M57.353 590.994L45.085 551.41l60.37-23.695z"/><path d="M42.58 526.703l2.505 24.707 60.37-23.695zM269.463 438.334l-15.726 92.755-42.317-14.126z"/><path d="M269.463 438.334l-43.74-30.875-14.303 109.504zM253.737 531.09l-57.166-3.264 14.85-10.862z"/><path d="M225.724 407.46L83.297 453.38l128.123 63.582zM196.57 527.826l-77.768 3.23 92.618-14.092zM118.802 531.055l-35.505-77.673 128.123 63.582zM245.19 935.223l-31.772-37.663 2.21 22.535z"/><path d="M245.19 935.223l-47.546 4.265 17.985-19.393zM213.418 897.56l-24.82 7.065 27.03 15.47z"/><path d="M197.262 924.07l.382 15.418 17.985-19.393zM197.262 924.07l-8.664-19.445 27.03 15.47zM641.494 753.053l-37.8 31.67-28.564-20.42z"/><path d="M641.494 753.053l-56.58-43.122-9.784 54.373z"/><path d="M603.695 784.723l-56.826 5.53 28.26-25.95z"/><path d="M584.913 709.93l-54.5 60.465 44.717-6.092z"/><path d="M546.87 790.254l-16.456-19.86 44.716-6.09zM464.578 703.486l-45.213 2.475 1.816 19.644z"/><path d="M419.365 705.96l-134.936-.034 136.75 19.678zM411.756 820.447l-82.677-1.26 92.1-93.583z"/><path d="M329.08 819.186l-44.65-113.26 136.75 19.678zM464.578 703.486l-43.397 22.118 56.232 46.855zM421.18 725.604l-9.424 94.843 65.656-47.988z"/><path d="M437.58 852.29l-25.824-31.843 65.656-47.988zM546.87 790.254L437.58 852.29l39.832-79.83zM546.87 790.254l-40.025-22.54-29.433 4.745zM506.845 767.713l-42.267-64.227 12.834 68.973zM47.713 406.66l-41.55 60.91-33.487-12.38z"/><path d="M6.162 467.57l-13.298 47.49-20.188-59.87zM138.494 688.234l-32.298 40.498 6.984-37.05zM2.076 879.2l-17.38 51.726 26.185-24.932zM113.18 691.682l-6.984 37.05L-9.99 709.936z"/><path d="M106.196 728.732l-84.125 7.04-32.06-25.836z"/><path d="M22.07 735.77L2.077 879.2-9.99 709.937zM665.1 964.213l-42.274-7.502-43.056 30.913zM622.826 956.71l-17.89-24.083-25.166 54.996zM604.935 932.627l-74.445 8.67 49.28 46.326zM530.49 941.297l-3.58 55.737 52.86-9.41zM-7.136 515.06l-20.188-59.87L-65.714 712z"/><path d="M-7.136 515.06l-21.92 34.663L-65.716 712zM-9.99 709.936L2.076 879.2-65.714 712z"/><path d="M-19.208 577.848l-9.848-28.125L-65.716 712zM2.076 879.2l-17.38 51.726L-65.715 712zM329.08 819.186l-44.65-113.26-20.178 28.532z"/><path d="M329.08 819.186l-71.753-9.38 6.925-75.348zM284.43 705.926l-76.618-7.244 56.44 35.776z"/><path d="M257.327 809.807l-33.984-60.2 40.91-15.15z"/><path d="M223.343 749.607l-15.53-50.925 56.44 35.776zM138.494 688.234l-25.314 3.448-37.537-29.51zM138.494 688.234l-56.218-59.38-6.633 33.317z"/><path d="M113.18 691.682L-9.99 709.936l85.633-47.765zM82.276 628.854l-65.53 23.66 58.897 9.657zM16.745 652.515l-.856 12.64 59.753-2.984z"/><path d="M15.89 665.156l-25.88 44.78 85.633-47.765zM57.353 590.994l-40.608 61.52-10.717-2.96z"/><path d="M57.353 590.994l-76.56-13.146 25.235 71.707zM16.745 652.515l-.856 12.64-9.862-15.6z"/><path d="M15.89 665.156l-25.88 44.78 16.018-60.38z"/><path d="M-9.99 709.936L-65.715 712l71.743-62.445z"/><path d="M-19.208 577.848L-65.715 712l71.743-62.445zM336.867 428.416l-67.404 9.918 6.437-34.764zM269.463 438.334l-43.74-30.875 50.177-3.89zM400.297 963.45l-28.163-74.25-39.365 108.497zM400.297 963.45l-64.42 148.538-3.108-114.29z"/><path d="M372.134 889.2L245.19 935.222l87.58 62.474zM332.77 997.697l3.107 114.29-52.44-110.517zM332.77 997.697l-87.58-62.474 38.246 66.247zM335.877 1111.988l-111.33-44.402 58.89-66.116zM261.16 995.666l-15.97-60.443 38.246 66.247z"/><path d="M261.16 995.666l-36.612 71.92 58.888-66.116zM127.465 897.48l1.914 20.368-99.836-13.66z"/><path d="M127.465 897.48l-54.987-37.726-42.934 44.435zM129.38 917.848L43.11 984.85l-13.566-80.66z"/><path d="M72.478 859.754L50.142 853.5l-20.598 50.69zM50.142 853.5L2.076 879.2l27.468 24.99z"/><path d="M43.11 984.85l-58.415-53.924 44.85-26.737z"/><path d="M10.88 905.994L2.077 879.2l27.468 24.99z"/><path d="M10.88 905.994l-26.185 24.932 44.85-26.737zM446.93 977.725l-111.053 134.263 186.76-108.478z"/><path d="M526.91 997.034l-79.98-19.31 75.706 25.786zM641.494 753.053l-56.58-43.122 29.205-25.342zM584.913 709.93l-16.824-47.803 46.03 22.46z"/><path d="M568.09 662.127l5.095-24.267 40.934 46.728zM439.555 418.848l-.84 44.315-23.346-26.286z"/><path d="M438.716 463.163l-72.79-10.71 49.443-15.576zM365.925 452.452l-29.058-24.036 78.502 8.46z"/><path d="M415.37 436.877l-78.503-8.46 1.794-56.232zM336.867 428.416L275.9 403.57l62.76-31.385z"/></g><g opacity=".5" fill="#FFF"><circle cx="73.498" cy="1062.331" r="3.389"/><circle cx="92.933" cy="1022.528" r="3.388"/><circle cx="43.109" cy="984.851" r="3.389"/><circle cx="224.549" cy="1067.586" r="3.388"/><circle cx="335.876" cy="1111.989" r="3.389"/><circle cx="236.832" cy="1006.345" r="3.388"/><circle cx="261.159" cy="995.666" r="3.388"/><circle cx="283.437" cy="1001.47" r="3.388"/><circle cx="332.833" cy="998.161" r="3.389"/><circle cx="244.53" cy="935.312" r="3.388"/><circle cx="215.827" cy="921.542" r="3.389"/><circle cx="197.263" cy="924.07" r="3.388"/><circle cx="197.645" cy="939.489" r="3.388"/><circle cx="178.49" cy="937.678" r="3.388"/><circle cx="187.911" cy="918.504" r="3.388"/><circle cx="188.599" cy="904.624" r="3.389"/><circle cx="213.419" cy="897.559" r="3.388"/><circle cx="129.379" cy="917.848" r="3.388"/><circle cx="127.465" cy="897.48" r="3.388"/><circle cx="199.156" cy="868.562" r="3.388"/><circle cx="203.529" cy="862.81" r="3.389"/><circle cx="244.79" cy="869.185" r="3.389"/><circle cx="256.853" cy="837.865" r="3.389"/><circle cx="257.327" cy="809.807" r="3.388"/><circle cx="329.079" cy="819.186" r="3.388"/><circle cx="368.89" cy="840.283" r="3.389"/><circle cx="389.429" cy="864.742" r="3.388"/><circle cx="373.094" cy="889.805" r="3.388"/><circle cx="400.296" cy="963.451" r="3.388"/><circle cx="446.93" cy="977.725" r="3.388"/><circle cx="454.064" cy="941.762" r="3.388"/><circle cx="409.444" cy="898.113" r="3.389"/><circle cx="437.579" cy="852.291" r="3.388"/><circle cx="411.755" cy="820.447" r="3.389"/><circle cx="223.344" cy="749.607" r="3.388"/><circle cx="264.253" cy="734.458" r="3.389"/><circle cx="284.429" cy="705.926" r="3.388"/><circle cx="208.023" cy="700.232" r="3.388"/><path d="M169.086 685.54c-.253-1.853 1.045-3.56 2.9-3.815 1.853-.252 3.562 1.047 3.814 2.902.253 1.852-1.046 3.56-2.9 3.812-1.855.253-3.562-1.045-3.814-2.9z"/><circle cx="138.495" cy="688.234" r="3.389"/><circle cx="112.202" cy="691.816" r="3.388"/><circle cx="106.196" cy="728.732" r="3.388"/><circle cx="125.114" cy="766.672" r="3.388"/><circle cx="92.759" cy="790.97" r="3.389"/><circle cx="93.34" cy="829.934" r="3.388"/><path d="M98.07 823.396c-.252-1.854 1.047-3.562 2.9-3.816 1.855-.252 3.563 1.047 3.815 2.902.252 1.853-1.045 3.56-2.9 3.814-1.853.253-3.56-1.046-3.814-2.9z"/><circle cx="134.201" cy="808.267" r="3.389"/><circle cx="185.59" cy="787.901" r="3.388"/><circle cx="200.581" cy="771.861" r="3.388"/><circle cx="72.23" cy="859.787" r="3.388"/><circle cx="50.142" cy="853.5" r="3.388"/><circle cx="39.167" cy="810.793" r="3.388"/><circle cx="22.072" cy="735.772" r="3.389"/><circle cx="-8.199" cy="710.627" r="3.388"/><circle cx="-65.716" cy="712.002" r="3.388"/><path d="M2.672 650.012c-.253-1.854 1.045-3.562 2.9-3.816 1.853-.252 3.56 1.047 3.814 2.902.252 1.853-1.047 3.56-2.9 3.812-1.854.254-3.562-1.045-3.814-2.898z"/><circle cx="16.746" cy="652.514" r="3.388"/><circle cx="15.889" cy="665.156" r="3.388"/><circle cx="75.798" cy="662.15" r="3.388"/><circle cx="82.276" cy="628.854" r="3.388"/><circle cx="95.566" cy="615.993" r="3.388"/><circle cx="57.354" cy="590.994" r="3.388"/><circle cx="45.085" cy="551.409" r="3.389"/><circle cx="105.877" cy="527.658" r="3.388"/><circle cx="118.605" cy="529.608" r="3.388"/><circle cx="83.146" cy="453.403" r="3.388"/><circle cx="47.822" cy="407.453" r="3.388"/><circle cx="6.127" cy="467.314" r="3.388"/><circle cx="45.229" cy="457.831" r="3.388"/><circle cx="42.58" cy="526.703" r="3.388"/><circle cx="-6.696" cy="515" r="3.388"/><circle cx="-25.971" cy="455.005" r="3.388"/><circle cx="-28.922" cy="550.703" r="3.388"/><circle cx="-17.873" cy="549.673" r="3.389"/><circle cx="-23.039" cy="568.793" r="3.388"/><circle cx="-19.046" cy="579.037" r="3.388"/><circle cx="133.781" cy="540.063" r="3.389"/><circle cx="186.326" cy="566.057" r="3.388"/><circle cx="244.043" cy="598.714" r="3.388"/><circle cx="199.998" cy="622.396" r="3.389"/><circle cx="308.469" cy="636.35" r="3.388"/><circle cx="305.809" cy="616.822" r="3.388"/><circle cx="297.198" cy="597.366" r="3.388"/><circle cx="253.738" cy="531.089" r="3.388"/><circle cx="211.322" cy="516.241" r="3.388"/><circle cx="271.07" cy="437.38" r="3.388"/><circle cx="338.133" cy="428.244" r="3.388"/><circle cx="338.661" cy="372.185" r="3.388"/><circle cx="437.536" cy="353.558" r="3.388"/><circle cx="275.9" cy="403.57" r="3.389"/><circle cx="225.724" cy="407.46" r="3.389"/><circle cx="320.762" cy="472.601" r="3.388"/><circle cx="359.351" cy="524.069" r="3.389"/><circle cx="376.073" cy="526.949" r="3.388"/><circle cx="365.925" cy="452.453" r="3.388"/><circle cx="415.471" cy="437.629" r="3.388"/><circle cx="438.716" cy="463.164" r="3.388"/><circle cx="471.303" cy="431.099" r="3.389"/><circle cx="473.68" cy="398.076" r="3.389"/><circle cx="440.398" cy="418.733" r="3.389"/><circle cx="502.721" cy="377.829" r="3.388"/><circle cx="538.763" cy="364.817" r="3.388"/><circle cx="539.917" cy="436.384" r="3.389"/><circle cx="579.765" cy="451.316" r="3.388"/><circle cx="530.746" cy="488.934" r="3.388"/><circle cx="545.391" cy="501.672" r="3.388"/><circle cx="518.914" cy="559.795" r="3.388"/><circle cx="470.359" cy="581.881" r="3.389"/><circle cx="492.104" cy="621.648" r="3.388"/><circle cx="488.128" cy="652.394" r="3.389"/><circle cx="474.097" cy="617.546" r="3.388"/><circle cx="573.185" cy="637.86" r="3.388"/><circle cx="612.876" cy="684.756" r="3.388"/><circle cx="584.912" cy="709.93" r="3.388"/><path d="M571.774 764.762c-.253-1.854 1.046-3.562 2.9-3.816 1.853-.252 3.56 1.047 3.814 2.902.253 1.853-1.047 3.56-2.9 3.812-1.854.254-3.56-1.046-3.814-2.898z"/><circle cx="641.492" cy="753.054" r="3.389"/><circle cx="602.869" cy="784.836" r="3.388"/><circle cx="577.087" cy="828.865" r="3.388"/><path d="M592.36 871.723c-.253-1.854 1.044-3.562 2.9-3.816 1.853-.252 3.56 1.047 3.813 2.902.253 1.85-1.045 3.56-2.9 3.813-1.853.252-3.56-1.047-3.813-2.9z"/><circle cx="604.934" cy="932.627" r="3.388"/><circle cx="613.501" cy="888.26" r="3.388"/><circle cx="623.24" cy="890.354" r="3.388"/><circle cx="668.447" cy="843.677" r="3.388"/><circle cx="664.195" cy="862.673" r="3.388"/><circle cx="681.504" cy="933.217" r="3.388"/><circle cx="530.489" cy="941.297" r="3.388"/><circle cx="521.987" cy="1004.825" r="3.388"/><circle cx="665.101" cy="964.213" r="3.388"/><circle cx="526.91" cy="997.035" r="3.388"/><circle cx="578.333" cy="987.819" r="3.389"/><circle cx="622.826" cy="956.711" r="3.388"/><circle cx="547.13" cy="789.009" r="3.388"/><circle cx="530.413" cy="770.396" r="3.388"/><circle cx="506.879" cy="767.971" r="3.388"/><circle cx="477.411" cy="772.459" r="3.388"/><circle cx="489.5" cy="687.568" r="3.388"/><circle cx="508.974" cy="698.175" r="3.388"/><circle cx="464.578" cy="703.486" r="3.388"/><circle cx="448.965" cy="683.512" r="3.388"/><circle cx="419.4" cy="706.22" r="3.389"/><circle cx="420.241" cy="725.732" r="3.388"/><circle cx="568.32" cy="663.832" r="3.388"/><circle cx="439.31" cy="612.632" r="3.389"/><circle cx="581.778" cy="535.492" r="3.388"/><circle cx="196.571" cy="527.827" r="3.388"/><circle cx="350.171" cy="620.724" r="3.389"/><circle cx="1.898" cy="879.225" r="3.388"/><circle cx="10.882" cy="905.995" r="3.389"/><circle cx="29.544" cy="904.189" r="3.388"/><circle cx="-15.305" cy="930.927" r="3.389"/></g></g><g opacity=".95" fill="none" stroke="#FFF" stroke-width=".6" stroke-miterlimit="10"><path d="M-56.892 622.27l-38.26 74.615-15.245-40.955zM247.182 1035.36l-15.045 25.18 28.156 62.944zM232.137 1060.54l-96.43-24.412 18.387-10.634z"/><path d="M143.88 1011.87l-8.173 24.258 18.387-10.634zM87.495 641.445l-41.988 23.953 14.207 16.504zM-110.397 655.93l15.245 40.955-63.885 10.248zM-95.152 696.885l-50.68 103.966-13.205-93.717zM215.467 551.12l-17.928 7.003-27.087-28.846zM-110.397 655.93l-48.64 51.203-19.24 1.484zM64.082 1032.64l14.76 17.09 44.796-49.802zM59.714 681.902L9.084 802.4l-55.86-63.61zM-95.152 696.885l-50.68 103.966 99.055-62.06z"/><path d="M-59.948 837.378l-85.885-36.527 99.056-62.06zM87.495 641.445l-41.988 23.953-21.615-10.657zM215.584 635.025l-128.09 6.42 74.165-65.222z"/><path d="M197.54 558.123l-27.087-28.846-8.794 46.946zM185.276 341.807L165.27 407.02l-24.49-52.17zM516.21 637.93l8.99 19.19-56.744 52.18z"/><path d="M516.21 637.93l-90.998 44.547 43.244 26.824zM165.27 407.02L65.996 442.76l133.305 36.215zM215.467 551.12l-45.014-21.843 28.85-50.304z"/><path d="M170.453 529.277l-104.456-86.52 133.305 36.216zM87.495 641.445L23.892 654.74l9.712-106.398zM23.892 654.74l-80.784-32.47 90.496-73.928zM-259.933 661.486l-61.914-19.242 30.523 47.612zM-321.847 642.244l1.622 81.383 28.9-33.77zM-159.037 707.133l-19.24 1.484-16.898 93.244z"/><path d="M-159.037 707.133l13.204 93.718-49.342 1.01zM516.21 637.93l-82.256-64.253-13.724 52.68zM516.21 637.93l-90.998 44.547-4.982-56.12zM425.212 682.477L372.66 667.71l47.57-41.352zM494.582 712.404l-26.126-3.103 47.57 49.29zM260.293 1123.484l-28.156-62.943-118.16 107.638zM232.137 1060.54l-96.43-24.412-21.73 132.05z"/><path d="M135.707 1036.128l-56.865 13.602 35.136 118.448zM9.085 802.4l39.666 71.084-71.206 43.65z"/><path d="M48.75 873.484l-2.54 23.387-68.666 20.265zM-259.933 661.486l-31.39 28.37 41.706 63.642z"/><path d="M-291.324 689.856l-28.9 33.77 70.607 29.872zM425.212 682.477L372.66 667.71l-58.587 125.763zM314.073 793.473l-35.335 42.02-8.275-54.13z"/><path d="M278.738 835.494l-33.43-9.507 25.155-44.625zM245.307 825.987l-50.012 7.167 75.168-51.792zM78.842 1049.73l35.136 118.448-69.836-2.957zM161.66 576.223l53.924 58.802L231.914 581zM215.467 551.12l-17.928 7.003L231.914 581z"/><path d="M197.54 558.123l-35.88 18.1L231.914 581zM65.997 442.758L-6.33 479.723l56.817 60.506zM161.66 576.223l-74.165 65.222L50.487 540.23zM-6.33 479.723l39.934 68.62 16.883-8.114z"/><path d="M33.604 548.342l53.89 93.103L50.488 540.23zM170.453 529.277l-104.456-86.52-15.51 97.472z"/><path d="M170.453 529.277l-8.794 46.946L50.486 540.23zM260.293 1123.484l-146.315 44.694 7.156 47.445zM113.978 1168.178l-69.836-2.957 76.992 50.403zM55.164 361.18l-16.782 41.183-43.61-57.43zM240.07 415.266L199.3 478.973l99.472 34.824z"/><path d="M199.302 478.973l16.165 72.148 83.307-37.323z"/><path d="M215.467 551.12L231.915 581l66.86-67.203zM45.507 665.398l14.207 16.504-82.037 7.395z"/><path d="M45.507 665.398L23.892 654.74l-46.215 34.557zM59.714 681.902l-106.49 56.89 24.453-49.495z"/><path d="M23.892 654.74l-80.784-32.47 34.57 67.027z"/><path d="M-56.892 622.27l-38.26 74.615 72.83-7.588zM-46.777 738.79l-48.375-41.905 72.83-7.588zM195.295 833.154l-43.96 98.762-9.044-35.725zM151.334 931.916l-41.036 20.845 31.993-56.57zM9.085 802.4l39.666 71.084 6.905-35.222zM143.88 1011.87l-20.242-11.942 7.322 11.916z"/><path d="M143.88 1011.87l-8.173 24.258-4.747-24.284z"/><path d="M123.638 999.928l-44.796 49.802 52.118-37.886z"/><path d="M135.707 1036.128l-56.865 13.602 52.118-37.886zM-249.617 753.498l-70.608-29.87 18.44 51.222zM278.738 835.494l-33.43-9.507 33.53 42.577z"/><path d="M245.307 825.987l-50.012 7.167 83.544 35.41z"/><path d="M195.295 833.154l-43.96 98.762 127.504-63.352zM-59.948 837.378l-85.885-36.527-2.692 19.11zM-145.833 800.85l-49.342 1.01 46.65 18.1z"/><path d="M-195.175 801.86l2.86 81.33 43.79-63.23zM385.348 862.51L351.7 917.316l51.082-17.014zM351.7 917.317l37.147 174.835 13.935-191.85zM-195.175 801.86l-77.276 37.19 40.902-64.936z"/><path d="M-249.617 753.498l-52.17 21.352 70.24-.736zM38.382 402.363l27.615 40.395 9.06-49.407zM140.78 354.85l24.49 52.17-90.214-13.67zM140.78 354.85l-85.616 6.33 19.892 32.17z"/><path d="M165.27 407.02L65.996 442.76l9.06-49.407zM55.164 361.18l-16.782 41.183 36.674-9.012zM314.073 793.473l-23.35 50.666-8.54-6.35zM314.073 793.473l-35.335 42.02 3.444 2.296zM290.724 844.14l-11.885 24.424 3.342-30.775z"/><path d="M278.738 835.494l.1 33.07 3.344-30.775zM385.348 862.51l-71.275-69.037 140.544 20.574zM385.348 862.51l17.434 37.793 51.835-86.256z"/><path d="M516.026 758.59l-47.57-49.29-13.84 104.747z"/><path d="M468.456 709.3l-43.244-26.823 29.405 131.57z"/><path d="M425.212 682.477l-111.14 110.996 140.545 20.574zM-6.33 479.723l39.934 68.62-68.517-20.78z"/><path d="M-6.33 479.723l-41.522-3.018 12.94 50.86z"/><path d="M33.604 548.342l-90.496 73.928 21.98-94.706zM-47.852 476.705l-54.274 52.07 67.213-1.21z"/><path d="M-102.126 528.774l45.234 93.496 21.98-94.706zM355.458 571.11l-10.313 89.275-65.172-51.552zM372.66 667.71l-27.515-7.325-22.916 12.676zM345.145 660.385l-65.172-51.552 42.256 64.228z"/><path d="M279.973 608.833l-36.874 33.52 79.13 30.708zM151.334 931.916l-41.036 20.845-.25 7.975z"/><path d="M123.638 999.928l-59.556 32.71 45.966-71.903zM-46.777 738.79L9.085 802.4l-40.517 10.412z"/><path d="M-46.777 738.79l-13.17 98.588 28.515-24.566zM9.085 802.4l-31.54 114.735-8.977-104.323z"/><path d="M-59.948 837.378l-3.124 57.1 31.64-81.666z"/><path d="M-22.456 917.135l-40.616-22.656 31.64-81.668zM454.617 814.047l-51.835 86.256 84.297-33.832zM385.348 862.51l-71.275-69.037 4.03 59.224z"/><path d="M385.348 862.51L351.7 917.316l-33.597-64.62zM314.073 793.473l-23.35 50.666 27.38 8.557zM290.724 844.14l-11.885 24.424 39.263-15.867zM351.7 917.317l-72.86-48.753 39.263-15.867zM151.334 931.916l-41.286 28.82 31.39 16.948z"/><path d="M110.048 960.735l13.59 39.193 17.8-22.244zM590.357 748.484L547.534 768.8l38.31-58.083zM547.534 768.8l-31.508-10.21 69.817-47.873zM-9.524 1033.906l-24.094 8.673-37.21-31.385zM-33.618 1042.58l-26.778 53.885-10.432-85.27zM-134.23 954.662l73.834 141.803-10.432-85.27zM121.134 1215.623l-76.992-50.402-87.06-11.107zM243.1 642.352l-27.516-7.327-11.566 38.496z"/><path d="M215.584 635.025l-128.09 6.42L204.02 673.52z"/><path d="M87.495 641.445l-27.78 40.457 144.303-8.38zM-231.548 774.114l-70.238.736 2.474 45.21zM-231.548 774.114l-40.903 64.937-26.862-18.99zM278.84 868.564l-127.506 63.352 42.792 59.305zM151.334 931.916l-9.895 45.768 52.686 13.537zM247.182 1035.36l-15.045 25.18-38.01-69.32zM232.137 1060.54l-78.043-35.046 40.032-34.273zM185.276 341.807l54.793 73.46-53.49-6.15z"/><path d="M185.276 341.807L165.27 407.02l21.31 2.097zM240.07 415.266L199.3 478.973l-12.72-69.856z"/><path d="M165.27 407.02l34.032 71.953-12.72-69.856zM-22.456 917.135l-40.616-22.656 28.1 64.256zM-63.072 894.48l-71.157 60.182 99.257 4.074z"/><path d="M-70.828 1011.195l-63.4-56.533 99.255 4.074zM204.018 673.52l-144.304 8.382 22.918 77.968zM59.714 681.902L9.084 802.4l73.548-42.53zM355.458 571.11l-75.485 37.723 29.752-69.946z"/><path d="M279.973 608.833L231.915 581l77.81-42.113zM93.024 290.257l47.757 64.593-72.394-30.402zM93.024 290.257L-5.23 344.932l73.616-20.484z"/><path d="M140.78 354.85l-85.616 6.33 13.222-36.732z"/><path d="M55.164 361.18L-5.23 344.932l73.616-20.484zM243.1 642.352l-27.516-7.327 40.753-23.895zM279.973 608.833L231.915 581l24.422 30.13z"/><path d="M231.915 581l-16.33 54.025 40.752-23.895zM110.298 952.76l-.25 7.975-96.398-13.39z"/><path d="M110.298 952.76L46.21 896.87l-32.56 50.476z"/><path d="M110.048 960.735l-45.966 71.904-50.432-85.294zM46.21 896.87l-68.666 20.265 36.106 30.21zM-22.456 917.135l-12.517 41.6 48.623-11.39zM64.082 1032.64l-70.807-50.687 20.375-34.607zM-6.725 981.953l-28.248-23.217 48.623-11.39z"/><path d="M64.082 1032.64l-70.807-50.687-3.126 11.78z"/><path d="M64.082 1032.64l-73.606 1.266-.327-40.174zM-6.725 981.953l-28.248-23.217 25.122 34.996z"/><path d="M-34.973 958.736l-35.855 52.46L-9.85 993.73z"/><path d="M-9.524 1033.906l-61.304-22.71L-9.85 993.73zM585.843 710.717l-69.817 47.873-10.596-49.738z"/><path d="M494.582 712.404l21.444 46.186-10.596-49.738zM195.295 833.154L142.29 896.19l-17.534-25.54z"/><path d="M142.29 896.19L110.3 952.76l14.458-82.11zM55.655 838.262l-6.904 35.222 76.006-2.834z"/><path d="M48.75 873.484l-2.54 23.387 78.546-26.22z"/><path d="M110.298 952.76L46.21 896.87l78.546-26.22zM-178.277 708.617l-81.656-47.13 67.514 52.67zM-178.277 708.617l-16.898 93.244 2.756-87.702z"/><path d="M-259.933 661.486l10.316 92.012 57.198-39.34zM-195.175 801.86l-36.373-27.746 39.13-59.956z"/><path d="M-249.617 753.498l18.07 20.616 39.128-59.956zM-102.126 528.774l45.234 93.496-47.103 14.384zM-102.126 528.774l-59.105.232 57.235 107.648z"/><path d="M-56.892 622.27l-53.505 33.66 6.402-19.276zM-161.23 529.006l-98.703 132.48 155.938-24.832z"/><path d="M-110.397 655.93l-67.88 52.687 74.282-71.963zM-178.277 708.617l-81.656-47.13 155.938-24.833zM194.126 991.22l-52.687-13.536 16.415 18.855z"/><path d="M194.126 991.22l-40.032 34.274 3.76-28.955zM141.44 977.684l-17.802 22.244 34.217-3.39zM143.88 1011.87l10.214 13.624 3.76-28.955z"/><path d="M143.88 1011.87l-20.242-11.942 34.217-3.39zM433.954 573.677l-13.724 52.68-38.762-.078z"/><path d="M433.954 573.677l-78.496-2.566 26.01 55.17zM420.23 626.358l-47.57 41.353 8.808-41.43z"/><path d="M355.458 571.11l-10.313 89.275 36.323-34.106zM372.66 667.71l-27.515-7.325 36.323-34.106zM243.1 642.352l-39.082 31.17 14.21 16.504z"/><path d="M204.018 673.52L82.632 759.87l135.595-69.844zM270.463 781.362l-75.168 51.792 22.932-143.128zM195.295 833.154L82.632 759.87l135.595-69.844zM243.1 642.352l-24.873 47.674 80.567 6.146zM218.227 690.026l52.236 91.336 28.33-85.19zM314.073 793.473l-43.61-12.11 28.33-85.19zM372.66 667.71l-58.587 125.763-15.28-97.3zM372.66 667.71l-50.43 5.35-23.436 23.112z"/><path d="M322.23 673.06l-79.13-30.708 55.694 53.82zM-321.847 642.244l1.622 81.383-38.044 10.3z"/><path d="M-320.225 723.627l18.44 51.223-56.484-40.924zM-59.948 837.378l-3.124 57.1-17.437-37.793zM-60.396 1096.465l17.48 57.648 7.59-39.187zM-80.51 856.685l17.438 37.794-116.534 57.47zM-63.072 894.48l-71.157 60.182-45.376-2.713zM-134.23 954.662l73.834 141.803-119.21-144.516zM590.357 748.484L547.534 768.8l-18.936 55.366z"/><path d="M547.534 768.8l-31.508-10.21 12.572 65.576zM516.026 758.59l-61.41 55.457 73.982 10.12z"/><path d="M454.617 814.047l32.462 52.424 41.518-42.304zM-301.786 774.85l-56.483-40.924 129.866 255.555z"/><path d="M-301.786 774.85l2.474 45.21 70.908 169.42zM-179.606 951.95l119.21 144.515-168.008-106.984z"/><path d="M-272.45 839.05l-26.862-18.99 70.908 169.42zM-60.396 1096.465l17.48 57.648-185.488-164.632zM195.295 833.154L82.632 759.87l.118 38.577zM195.295 833.154l-70.54 37.496-42.005-72.203z"/><path d="M82.632 759.87L9.085 802.4l73.665-3.953z"/><path d="M124.756 870.65l-69.1-32.388 27.094-39.815z"/><path d="M55.655 838.262L9.085 802.4l73.665-3.953zM-59.948 837.378l-20.56 19.307-52.654-2.514z"/><path d="M-59.948 837.378l-88.577-17.417 15.363 34.21z"/><path d="M-80.51 856.685l-99.096 95.264 46.444-97.78z"/><path d="M-148.525 819.96l-43.79 63.23 59.153-29.02z"/><path d="M-192.316 883.19l7.322 11.917 51.832-40.936z"/><path d="M-184.994 895.107l5.388 56.842 46.444-97.78zM-195.175 801.86l2.86 81.33-11.536 4.198zM-195.175 801.86l-77.276 37.19 68.6 48.338z"/><path d="M-192.316 883.19l7.322 11.917-18.857-7.72z"/><path d="M-184.994 895.107l5.388 56.842-24.245-64.562zM-179.606 951.95l-48.798 37.53 24.553-102.092z"/><path d="M-272.45 839.05l44.046 150.43 24.553-102.092zM-47.852 476.705l-54.274 52.07-16.464-35.388z"/><path d="M-102.126 528.774l-59.105.232 42.64-35.62zM351.7 917.317l-72.86-48.753 34.048 122.784z"/><path d="M351.7 917.317l37.147 174.835-75.96-100.804zM278.84 868.564L194.125 991.22l118.762.128z"/><path d="M312.888 991.348l75.96 100.804-117.915-65.83z"/><path d="M312.888 991.348l-118.762-.127 76.807 35.102z"/><path d="M388.847 1092.152l-128.554 31.332 10.64-97.162zM247.182 1035.36l-53.056-44.14 76.807 35.102z"/><path d="M247.182 1035.36l13.11 88.124 10.64-97.162zM64.082 1032.64l14.76 17.09-98.536 51.625z"/><path d="M64.082 1032.64l-73.606 1.266-10.17 67.45z"/><path d="M78.842 1049.73l-34.7 115.49-63.836-63.865zM-9.524 1033.906l-24.094 8.673 13.924 58.775zM-33.618 1042.58l-26.778 53.885 40.702 4.89z"/><path d="M44.142 1165.22l-87.06-11.107 23.224-52.758zM-35.325 1114.926l-25.07-18.46 40.7 4.89z"/><path d="M-35.325 1114.926l-7.592 39.187 23.223-52.758zM402.782 900.303l-13.935 191.85L487.38 875.03z"/><path d="M487.08 866.47l-84.298 33.833 84.598-25.273zM433.954 573.677l-78.496-2.566 10.045-41.49zM355.458 571.11l-45.733-32.223 55.778-9.268zM309.725 538.887l-10.95-25.09 66.728 15.822zM38.382 402.363l27.615 40.395-37.827-8.697zM65.997 442.758L-6.33 479.723l34.5-45.662zM-6.33 479.723l-41.522-3.018L28.17 434.06zM28.17 434.06l-76.022 42.645-34.38-51.724z"/><path d="M-47.852 476.705l-70.738 16.682 36.357-68.406z"/></g><g fill="#FFF"><circle cx="121.072" cy="1215.455" r="3.74"/><circle cx="113.072" cy="1167.213" r="3.741"/><circle cx="44.141" cy="1165.221" r="3.741"/><circle cx="260.293" cy="1123.484" r="3.74"/><circle cx="388.848" cy="1092.152" r="3.741"/><circle cx="232.137" cy="1060.541" r="3.741"/><circle cx="247.182" cy="1035.361" r="3.741"/><circle cx="270.933" cy="1026.322" r="3.741"/><circle cx="313.243" cy="991.724" r="3.741"/><circle cx="193.59" cy="991.725" r="3.741"/><circle cx="158.958" cy="997.714" r="3.741"/><circle cx="143.88" cy="1011.871" r="3.741"/><circle cx="154.094" cy="1025.496" r="3.741"/><circle cx="135.707" cy="1036.129" r="3.741"/><circle cx="131.906" cy="1012.854" r="3.741"/><circle cx="123.638" cy="999.927" r="3.741"/><circle cx="141.44" cy="977.685" r="3.741"/><circle cx="78.842" cy="1049.73" r="3.741"/><circle cx="64.082" cy="1032.638" r="3.741"/><circle cx="110.048" cy="960.734" r="3.741"/><circle cx="110.299" cy="952.762" r="3.741"/><circle cx="151.491" cy="932.082" r="3.741"/><circle cx="142.291" cy="896.191" r="3.74"/><circle cx="124.756" cy="870.65" r="3.741"/><circle cx="195.295" cy="833.154" r="3.74"/><circle cx="244.608" cy="826.644" r="3.741"/><circle cx="278.738" cy="835.494" r="3.741"/><circle cx="280.089" cy="868.494" r="3.741"/><circle cx="351.701" cy="917.318" r="3.741"/><circle cx="402.782" cy="900.304" r="3.741"/><circle cx="386.176" cy="863.391" r="3.741"/><circle cx="318.103" cy="852.697" r="3.741"/><circle cx="314.074" cy="793.472" r="3.741"/><circle cx="270.462" cy="781.363" r="3.741"/><path d="M52.928 840.822c-1.415-1.506-1.34-3.875.166-5.29 1.506-1.413 3.873-1.34 5.288.17 1.414 1.503 1.34 3.872-.166 5.286s-3.875 1.34-5.288-.166z"/><circle cx="82.75" cy="798.448" r="3.741"/><circle cx="82.632" cy="759.87" r="3.741"/><circle cx="10.267" cy="803.66" r="3.741"/><circle cx="-31.432" cy="812.812" r="3.742"/><circle cx="-59.948" cy="837.378" r="3.741"/><circle cx="-81.303" cy="857.431" r="3.741"/><circle cx="-63.073" cy="894.479" r="3.742"/><circle cx="-21.77" cy="916.491" r="3.741"/><path d="M-38.043 961.62c-1.414-1.507-1.34-3.876.166-5.29 1.506-1.413 3.874-1.338 5.288.168 1.415 1.504 1.34 3.873-.165 5.287-1.507 1.414-3.874 1.34-5.288-.166z"/><circle cx="-9.852" cy="993.732" r="3.741"/><path d="M-9.78 984.822c-1.416-1.506-1.342-3.873.165-5.29 1.506-1.413 3.875-1.34 5.29.17 1.412 1.503 1.338 3.872-.168 5.286-1.507 1.416-3.874 1.34-5.288-.166z"/><circle cx="13.029" cy="948.085" r="3.741"/><path d="M43.485 899.434c-1.415-1.508-1.34-3.875.166-5.29 1.506-1.413 3.875-1.34 5.29.17 1.413 1.503 1.338 3.872-.168 5.285-1.506 1.414-3.874 1.338-5.287-.166zM46.7 875.41c-1.414-1.506-1.34-3.875.167-5.29s3.874-1.337 5.288.17c1.413 1.503 1.34 3.872-.166 5.286-1.508 1.414-3.877 1.34-5.29-.165z"/><circle cx="-9.727" cy="1034.095" r="3.741"/><circle cx="-33.619" cy="1042.58" r="3.74"/><circle cx="-70.828" cy="1011.196" r="3.74"/><circle cx="-134.229" cy="954.662" r="3.741"/><circle cx="-177.551" cy="951.425" r="3.74"/><path d="M-231.13 992.04c-1.413-1.507-1.34-3.872.165-5.286 1.507-1.415 3.876-1.34 5.29.164 1.414 1.508 1.34 3.876-.167 5.29-1.507 1.415-3.873 1.34-5.287-.17z"/><circle cx="-203.851" cy="887.387" r="3.74"/><circle cx="-192.317" cy="883.189" r="3.741"/><circle cx="-184.995" cy="895.107" r="3.741"/><circle cx="-133.037" cy="854.054" r="3.741"/><circle cx="-148.524" cy="819.958" r="3.741"/><circle cx="-144.805" cy="799.885" r="3.741"/><circle cx="-195.177" cy="801.863" r="3.741"/><path d="M-234.276 776.676c-1.415-1.506-1.34-3.874.166-5.29 1.505-1.41 3.874-1.337 5.288.17 1.414 1.505 1.34 3.872-.167 5.286-1.505 1.415-3.872 1.34-5.286-.166z"/><circle cx="-192.077" cy="713.836" r="3.741"/><circle cx="-179.38" cy="707.442" r="3.741"/><circle cx="-260.056" cy="661.603" r="3.741"/><circle cx="-321.242" cy="642.888" r="3.74"/><circle cx="-320.422" cy="723.419" r="3.74"/><circle cx="-291.325" cy="689.858" r="3.741"/><circle cx="-249.618" cy="753.498" r="3.74"/><circle cx="-301.431" cy="774.516" r="3.74"/><circle cx="-357.171" cy="732.894" r="3.74"/><circle cx="-298.563" cy="820.857" r="3.741"/><circle cx="-289.285" cy="812.856" r="3.741"/><circle cx="-281.692" cy="833.359" r="3.74"/><circle cx="-271.544" cy="840.017" r="3.742"/><circle cx="-159.037" cy="707.133" r="3.741"/><circle cx="-95.139" cy="696.873" r="3.741"/><circle cx="-22.324" cy="689.295" r="3.741"/><circle cx="-46.778" cy="738.791" r="3.741"/><circle cx="59.715" cy="681.902" r="3.741"/><circle cx="44.822" cy="666.041" r="3.741"/><circle cx="24.622" cy="654.056" r="3.741"/><circle cx="-56.892" cy="622.269" r="3.741"/><circle cx="-104.546" cy="636.067" r="3.741"/><circle cx="-101.292" cy="526.888" r="3.741"/><circle cx="-46.823" cy="475.74" r="3.741"/><circle cx="-82.234" cy="424.981" r="3.74"/><circle cx="-5.229" cy="344.932" r="3.741"/><circle cx="-118.591" cy="493.387" r="3.741"/><circle cx="-161.23" cy="529.006" r="3.741"/><circle cx="-34.052" cy="526.756" r="3.741"/><circle cx="33.604" cy="548.344" r="3.741"/><circle cx="50.487" cy="540.229" r="3.741"/><circle cx="-6.329" cy="479.723" r="3.741"/><circle cx="28.744" cy="434.673" r="3.741"/><circle cx="65.996" cy="442.758" r="3.741"/><circle cx="74.781" cy="393.058" r="3.74"/><circle cx="55.778" cy="361.835" r="3.741"/><circle cx="39.067" cy="401.721" r="3.741"/><circle cx="68.937" cy="325.034" r="3.741"/><circle cx="93.025" cy="290.258" r="3.74"/><circle cx="139.877" cy="353.887" r="3.74"/><circle cx="185.277" cy="341.807" r="3.741"/><circle cx="165.268" cy="407.021" r="3.741"/><circle cx="186.594" cy="409.104" r="3.741"/><circle cx="199.988" cy="478.33" r="3.741"/><circle cx="170.453" cy="529.277" r="3.741"/><circle cx="215.467" cy="551.122" r="3.741"/><circle cx="231.572" cy="581.321" r="3.741"/><circle cx="196.645" cy="558.961" r="3.74"/><circle cx="298.774" cy="513.797" r="3.741"/><circle cx="364.495" cy="530.566" r="3.741"/><circle cx="355.458" cy="571.11" r="3.741"/><circle cx="381.468" cy="626.279" r="3.741"/><circle cx="433.954" cy="573.676" r="3.741"/><circle cx="419.56" cy="626.988" r="3.741"/><circle cx="424.555" cy="683.095" r="3.74"/><circle cx="468.455" cy="709.303" r="3.741"/><path d="M513.3 761.152c-1.414-1.506-1.34-3.873.165-5.29 1.506-1.412 3.875-1.337 5.29.17 1.413 1.503 1.338 3.873-.168 5.286-1.506 1.414-3.873 1.338-5.287-.166z"/><circle cx="495.332" cy="713.203" r="3.741"/><circle cx="505.43" cy="708.852" r="3.741"/><circle cx="516.209" cy="637.931" r="3.741"/><circle cx="524.545" cy="657.738" r="3.741"/><circle cx="585.269" cy="710.105" r="3.74"/><circle cx="454.617" cy="814.048" r="3.741"/><circle cx="487.638" cy="876.629" r="3.741"/><circle cx="590.357" cy="748.484" r="3.74"/><circle cx="572.616" cy="770.471" r="3.741"/><circle cx="487.079" cy="866.47" r="3.74"/><circle cx="527.433" cy="825.261" r="3.741"/><circle cx="547.535" cy="768.8" r="3.741"/><circle cx="372.095" cy="666.425" r="3.741"/><circle cx="345.146" cy="660.386" r="3.741"/><circle cx="322.426" cy="673.271" r="3.74"/><circle cx="298.795" cy="696.172" r="3.741"/><path d="M252.596 614.643c-1.414-1.506-1.34-3.875.165-5.29 1.508-1.413 3.876-1.34 5.29.17 1.415 1.503 1.34 3.872-.166 5.286-1.507 1.413-3.874 1.336-5.288-.167z"/><circle cx="279.63" cy="609.155" r="3.74"/><circle cx="243.099" cy="642.352" r="3.741"/><circle cx="216.27" cy="634.381" r="3.741"/><circle cx="204.215" cy="673.732" r="3.741"/><circle cx="217.463" cy="690.743" r="3.741"/><circle cx="311.025" cy="540.271" r="3.741"/><circle cx="162.211" cy="576.81" r="3.741"/><circle cx="240.973" cy="416.229" r="3.741"/><circle cx="282.664" cy="339.102" r="3.741"/><circle cx="-110.397" cy="655.931" r="3.741"/><circle cx="87.22" cy="641.153" r="3.74"/><circle cx="-60.541" cy="1096.601" r="3.74"/><circle cx="-35.325" cy="1114.928" r="3.741"/><circle cx="-19.695" cy="1101.357" r="3.741"/><circle cx="-42.916" cy="1154.115" r="3.741"/></g><path fill="none" stroke="#FFF" stroke-width=".6" stroke-miterlimit="10" d="M240.07 415.266l43.3-76.163-100.517 2.088M572.64 770.195l40.936 53.703"/></g><g clip-path="url(#b)"><g opacity=".3"><g opacity=".5" fill="none" stroke="#FFF" stroke-width=".45" stroke-miterlimit="10"><path d="M1876.306 521.986l67.427 34.97-10.26-38.232zM1868.884 986.56l24.328 10.68 12.283 61.24z"/><path d="M1893.212 997.24l58.342-68.668-19.155 1.81z"/><path d="M1932.78 914.965l18.774 13.607-19.155 1.81zM1779.822 611.98l43.568-4.38-1.817 19.644zM1933.473 518.724l10.26 38.23 52.53-25.993zM1943.733 556.955l92.012 50.106-39.482-76.1zM1637.938 612.543l16.91-4.252 4.837-35.513z"/><path d="M1933.473 518.724l62.79 12.237 14.978-9.008zM2002.58 888.375l-1.915 20.367-59.22-13.223zM1821.573 627.244l100.658 62.332 7.816-76.286z"/><path d="M1943.733 556.955l92.012 50.106-105.7 6.23z"/><path d="M1991.55 679.13l44.195-72.07-105.7 6.23zM1779.822 611.98l43.568-4.38 10.353-19.217z"/><path d="M1681.92 674.52l97.902-62.54-88.99-9.177zM1654.847 608.29l4.838-35.513 31.146 30.026zM1550.274 442.213l49.02 37.62-9.332-51.366zM1461.59 834.572l3.444 18.885 69.287 8.703z"/><path d="M1461.59 834.572l90.555-14.924-17.824 42.512zM1599.295 479.832l92.032-25.77-79.355 96.745zM1637.938 612.543l21.747-39.766-47.713-21.97z"/><path d="M1659.685 572.777l31.642-118.716-79.355 96.747zM1779.822 611.98l53.92-23.597-63.05-73.416z"/><path d="M1833.743 588.383l42.563-66.397-105.615-7.02zM2046.746 444.28l35.585-46.723 2.484 51.172z"/><path d="M2082.33 397.557l41.552 60.912-39.068-9.74zM1996.263 530.96l14.978-9.008 61.45 59.938zM1996.263 530.96l39.482 76.1 36.945-25.17zM1461.59 834.572l26.955-90.624 37.798 31.67zM1461.59 834.572l90.555-14.924-25.802-44.03zM1552.145 819.648l31.026-38.5-56.827-5.53zM1516.67 878.172l17.65-16.012-9.216 61.36zM1905.495 1058.48l-12.283-61.24 143.738 17.37z"/><path d="M1893.212 997.24l58.342-68.668 85.396 86.038zM1951.554 928.572l49.11-19.83 36.286 105.868zM1922.23 689.576l8.066 73.293 75.478-5.188zM1930.296 762.87l14.158 15.925 61.32-21.113zM2046.746 444.28l38.068 4.45 2.65 68.872z"/><path d="M2084.814 448.73l39.068 9.74-36.418 59.132zM1552.145 819.648l31.026-38.5 109.294 62.038z"/><path d="M1692.464 843.186l48.15 12.45-22.326-44.294z"/><path d="M1740.614 855.637l19.678-24.576-42.004-19.718zM1760.292 831.06l40.672-20.98-82.676 1.262zM2000.665 908.742l36.285 105.868 49.985-38.865zM1690.83 602.803l-8.91 71.718-40.427-31.29z"/><path d="M1637.938 612.543l16.91-4.252-13.355 34.94z"/><path d="M1654.847 608.29l35.984-5.487-49.337 40.427zM1691.327 454.06l72.79-10.71-10.147 74.497z"/><path d="M1690.83 602.803l88.992 9.176-25.852-94.133zM1764.118 443.35l6.573 71.617-16.72 2.88z"/><path d="M1770.69 514.967l9.132 97.012-25.852-94.133zM1659.685 572.777l31.642-118.716 62.643 63.787z"/><path d="M1659.685 572.777l31.146 30.026 63.14-84.956zM1905.495 1058.48l131.455-43.87 19.64 38.773zM2036.95 1014.61l49.985-38.865-30.344 77.638zM1656.472 388.167l34.016 21.578 2.02-65.29zM1548.423 525.205l63.55 25.602-55.12 77.947z"/><path d="M1611.972 550.807l25.966 61.736-81.084 16.21zM1637.938 612.543l3.555 30.687-84.64-14.476zM1823.39 607.6l-1.817 19.644L1886 589.61z"/><path d="M1823.39 607.6l10.353-19.217L1886 589.61zM1821.573 627.244l108.473-13.954L1886 589.61z"/><path d="M1833.743 588.383l42.563-66.397L1886 589.61zM1876.306 521.986l67.427 34.97L1886 589.608z"/><path d="M1930.046 613.29l13.687-56.335L1886 589.61zM1800.964 810.08l84.318 49.793-12.092-31.113z"/><path d="M1885.282 859.873l41.233-6.17-53.325-24.943zM1922.23 689.576l8.066 73.293L1906.7 740.5zM1932.78 914.965l8.665-19.446.857 12.638zM1932.78 914.965l18.774 13.607-9.252-20.414z"/><path d="M1941.445 895.52l59.22 13.222-58.363-.584zM1951.554 928.572l49.11-19.83-58.362-.584zM2087.464 517.602l36.418-59.133 13.297 47.486zM1740.614 855.637l19.678-24.576-2.383 49.034z"/><path d="M1760.292 831.06l40.672-20.98-43.055 70.014z"/><path d="M1800.964 810.08l84.318 49.793-127.373 20.22zM1991.55 679.13l44.195-72.07 12.022 12.69zM2035.745 607.06l36.945-25.17-24.923 37.86zM2072.69 581.89l40.608 61.518-65.53-23.658zM1676.126 931.57l53.62 22.776-46.634 14.273zM1729.746 954.346l64.42 148.537-111.054-134.264zM2072.69 581.89l76.56-13.146-64.292-26.437zM2087.464 517.602l49.715-11.646-52.222 36.35zM1690.488 409.745l.84 44.316-32.638-31.703zM1589.962 428.467l9.333 51.365 59.395-57.475z"/><path d="M1589.962 428.467l66.51-40.3 2.218 34.19zM1599.295 479.832l92.032-25.77-32.637-31.705z"/><path d="M1656.472 388.167l34.016 21.578-31.798 12.612zM1692.464 843.186l43.845 25.125 2.968-9.17zM1692.464 843.186l48.15 12.45-1.336 3.503z"/><path d="M1736.31 868.31l21.6 11.784-18.632-20.955z"/><path d="M1740.614 855.637l17.295 24.457-18.632-20.955zM1676.126 931.57l16.338-88.384-92.912 89.005z"/><path d="M1676.126 931.57l6.986 37.05-83.56-36.43z"/><path d="M1525.104 923.52l9.217-61.36 65.232 70.03z"/><path d="M1534.32 862.16l17.825-42.512 47.407 112.543z"/><path d="M1552.145 819.648l140.32 23.538-92.913 89.005zM1764.118 443.35l6.573 71.617 39.652-51.324z"/><path d="M1764.118 443.35l29.06-24.036 17.164 44.33z"/><path d="M1770.69 514.967l105.616 7.02-65.964-58.344z"/><path d="M1793.177 419.314l67.403 9.917-50.238 34.413z"/><path d="M1860.58 429.23l15.726 92.756-65.964-58.343zM1545.126 700.824l54.502 60.465 21.018-72.278z"/><path d="M1583.17 781.148l16.458-19.86 23.57-2.68z"/><path d="M1599.628 761.29l21.018-72.278 2.552 69.595z"/><path d="M1620.646 689.012l44.82 5.37-42.268 64.225zM1885.282 859.873l41.233-6.17 4.373 5.754z"/><path d="M1941.445 895.52l61.134-7.145-71.692-28.918zM1930.046 613.29l-7.815 76.286 35.37-13.597z"/><path d="M1930.046 613.29l61.503 65.84-33.95-3.15z"/><path d="M1922.23 689.576l83.544 68.106-48.173-81.703z"/><path d="M1991.55 679.13l32.298 40.497-66.247-43.648zM2005.774 757.682l18.074-38.055-66.247-43.648zM1599.552 932.19l83.56 36.43-79.98 19.31zM1676.126 931.57l16.338-88.384 28.135 45.822zM1676.126 931.57l53.62 22.776-9.147-65.338z"/><path d="M1692.464 843.186l43.845 25.125-15.71 20.698zM1736.31 868.31l21.6 11.784-37.31 8.914z"/><path d="M1729.746 954.346l28.163-74.252-37.31 8.914zM1885.282 859.873l45.606-.416-14.263 28.996z"/><path d="M1930.888 859.457l10.557 36.062-24.82-7.067zM1464.937 955.107l42.275-7.502-58.782-22.74z"/><path d="M1507.212 947.605l17.892-24.084-76.674 1.345zM2057.565 850.648l22.336-6.253 10.977-42.707z"/><path d="M2079.9 844.395l48.068 25.7-37.09-68.407z"/><path d="M2107.972 726.666l19.996 143.43-37.09-68.408zM2056.59 1053.383l30.345-77.638 58.414-53.925zM1665.466 694.38l16.455-19.86 28.76 22.335z"/><path d="M1681.92 674.52l97.902-62.54-69.143 84.875z"/><path d="M1779.822 611.98l41.75 15.264-110.893 69.61zM2084.958 542.307l52.22-36.35 21.922 34.663zM2084.958 542.307l64.293 26.437 9.85-28.124zM1757.91 880.094l127.372-20.22-.43 66.242z"/><path d="M1885.282 859.873l31.343 28.58-31.772 37.663zM1868.884 986.56l24.328 10.68-8.36-71.124z"/><path d="M1893.212 997.24l39.187-66.857-47.547-4.267zM1550.274 442.213l-1.85 82.992 36.244-32.633z"/><path d="M1550.274 442.213l49.02 37.62-14.626 12.74z"/><path d="M1548.423 525.205l63.55 25.602-27.305-58.235z"/><path d="M1599.295 479.832l12.677 70.975-27.304-58.235zM2005.774 757.682l18.074-38.055 13.016 62.18z"/><path d="M2023.848 719.627l84.124 7.04-71.108 55.14z"/><path d="M2090.877 801.688l17.095-75.022-71.108 55.14zM1710.68 696.855l110.893-69.61 24.04 69.575zM1821.573 627.244l100.658 62.332-76.616 7.244zM1545.126 700.824l75.52-11.812-58.695-35.99z"/><path d="M1620.646 689.012l20.847-45.782-79.542 9.792zM1591.278 355.714l-1.316 72.753 37.458-60.463z"/><path d="M1591.278 355.714l101.23-11.26-65.088 23.55z"/><path d="M1589.962 428.467l66.51-40.3-29.052-20.163z"/><path d="M1656.472 388.167l36.035-43.712-65.087 23.55zM1665.466 694.38l16.455-19.86-42.624 3.77zM1620.646 689.012l20.847-45.782-2.197 35.06z"/><path d="M1641.493 643.23l40.428 31.29-42.624 3.77zM1926.515 853.703l4.373 5.754 64.107-60.516zM1926.515 853.703l17.94-74.908 50.54 20.146z"/><path d="M1930.888 859.457l71.69 28.918-7.583-89.434z"/><path d="M1944.454 778.795l61.32-21.113-10.78 41.26z"/><path d="M2005.774 757.682l31.09 24.125-41.87 17.134zM2002.58 888.375l25.63-74.598-33.215-14.836z"/><path d="M2028.21 813.777l8.654-31.97-41.87 17.134zM2002.58 888.375l25.63-74.598 8.494 7.052zM2002.58 888.375l54.985-37.727-20.86-29.82z"/><path d="M2028.21 813.777l8.654-31.97-.16 39.022zM2036.864 781.807l54.013 19.88-54.173 19.142z"/><path d="M2057.565 850.648l33.312-48.96-54.173 19.14zM1448.43 924.865l76.674-1.344-18.306-42.272z"/><path d="M1516.67 878.172l8.434 45.35-18.306-42.274zM1800.964 810.08l72.226 18.68-.473-28.06z"/><path d="M1873.19 828.76l53.325 24.943-53.798-53.002zM1906.7 740.502l23.596 22.367-57.58 37.83zM1930.296 762.87l14.158 15.925-71.737 21.906zM1926.515 853.703l17.94-74.908-71.738 21.906zM2011.24 521.952l35.506-77.673-22.16 74.332zM2011.24 521.952l61.45 59.938-48.103-63.278zM2046.746 444.28l40.718 73.322-62.877 1.01zM2072.69 581.89l12.268-39.583-60.37-23.695z"/><path d="M2087.464 517.602l-2.506 24.705-60.37-23.695zM1860.58 429.23l15.726 92.756 42.317-14.125z"/><path d="M1860.58 429.23l43.74-30.873 14.303 109.504zM1876.306 521.986l57.167-3.262-14.85-10.863zM1904.32 398.357l142.426 45.922-128.123 63.58z"/><path d="M1933.473 518.724l77.768 3.228-92.617-14.09z"/><path d="M2011.24 521.952l35.506-77.673-128.123 63.58zM1884.853 926.116l31.772-37.663-2.212 22.537z"/><path d="M1884.853 926.116l47.546 4.267-17.987-19.393zM1916.625 888.453l24.82 7.066-27.032 15.47zM1932.78 914.965l-.38 15.418-17.987-19.393zM1932.78 914.965l8.665-19.446-27.032 15.47zM1488.545 743.948l37.798 31.67 28.566-20.42zM1488.545 743.948l56.58-43.124 9.784 54.373z"/><path d="M1526.343 775.617l56.828 5.53-28.26-25.95zM1545.126 700.824l54.502 60.465-44.72-6.093z"/><path d="M1583.17 781.148l16.458-19.86-44.72-6.09zM1665.466 694.38l45.213 2.475-1.818 19.643zM1710.68 696.855l134.934-.035-136.752 19.678zM1718.288 811.342l82.676-1.262-92.102-93.582zM1800.964 810.08l44.65-113.26-136.752 19.678z"/><path d="M1665.466 694.38l43.396 22.118-56.23 46.856zM1708.862 716.498l9.426 94.844-65.656-47.988z"/><path d="M1692.464 843.186l25.824-31.844-65.656-47.988z"/><path d="M1583.17 781.148l109.294 62.038-39.832-79.832z"/><path d="M1583.17 781.148l40.028-22.54 29.434 4.746z"/><path d="M1623.198 758.607l42.268-64.226-12.834 68.974zM2082.33 397.557l41.552 60.912 33.484-12.383z"/><path d="M2123.882 458.47l13.297 47.486 20.186-59.87zM1991.55 679.13l32.298 40.497-6.985-37.05zM2127.968 870.096l17.38 51.724-26.185-24.93z"/><path d="M2016.863 682.577l6.985 37.05 116.186-18.798z"/><path d="M2023.848 719.627l84.124 7.04 32.062-25.838z"/><path d="M2107.972 726.666l19.996 143.43 12.066-169.267zM1464.937 955.107l42.275-7.502 43.058 30.913z"/><path d="M1507.212 947.605l17.892-24.084 25.166 54.998zM1525.104 923.52l74.448 8.67-49.282 46.328z"/><path d="M1599.552 932.19l3.58 55.74-52.862-9.412zM2137.18 505.956l20.186-59.87 38.393 256.81z"/><path d="M2137.18 505.956l21.92 34.664 36.66 162.275zM2140.034 700.83l-12.066 169.266 67.79-167.2z"/><path d="M2149.25 568.744l9.85-28.124 36.66 162.275zM2127.968 870.096l17.38 51.724 50.41-218.925zM1800.964 810.08l44.65-113.26 20.178 28.534z"/><path d="M1800.964 810.08l71.753-9.38-6.925-75.346zM1845.614 696.82l76.617-7.244-56.438 35.778zM1872.717 800.7l33.983-60.198-40.908-15.148z"/><path d="M1906.7 740.502l15.53-50.926-56.438 35.778zM1991.55 679.13l25.313 3.447 37.538-29.51zM1991.55 679.13l56.217-59.38 6.634 33.316z"/><path d="M2016.863 682.577l123.17 18.252-85.632-47.764z"/><path d="M2047.767 619.75l65.53 23.658-58.896 9.658zM2113.298 643.408l.857 12.643-59.754-2.984z"/><path d="M2114.155 656.05l25.88 44.78-85.634-47.764zM2072.69 581.89l40.608 61.518 10.717-2.96z"/><path d="M2072.69 581.89l76.56-13.146-25.235 71.704zM2113.298 643.408l.857 12.643 9.86-15.602z"/><path d="M2114.155 656.05l25.88 44.78-16.02-60.382z"/><path d="M2140.034 700.83l55.725 2.065-71.745-62.447zM2149.25 568.744l46.51 134.15-71.745-62.446zM1793.177 419.314l67.403 9.917-6.436-34.762zM1860.58 429.23l43.74-30.873-50.176-3.89zM1729.746 954.346l28.163-74.252 39.364 108.498zM1729.746 954.346l64.42 148.537 3.108-114.29zM1757.91 880.094l126.943 46.022-87.58 62.476z"/><path d="M1797.274 988.592l-3.107 114.29 52.44-110.517z"/><path d="M1797.274 988.592l87.58-62.476-38.247 66.25z"/><path d="M1794.167 1102.883l111.328-44.403-58.888-66.115z"/><path d="M1868.884 986.56l15.97-60.444-38.247 66.25z"/><path d="M1868.884 986.56l36.61 71.92-58.887-66.115zM2002.58 888.375l-1.915 20.367 99.834-13.658z"/><path d="M2002.58 888.375l54.985-37.727 42.934 44.436zM2000.665 908.742l86.27 67.003 13.564-80.66zM2057.565 850.648l22.336-6.253 20.6 50.69z"/><path d="M2079.9 844.395l48.068 25.7-27.47 24.99z"/><path d="M2086.935 975.745l58.414-53.925-44.85-26.736z"/><path d="M2119.163 896.89l8.805-26.794-27.47 24.988z"/><path d="M2119.163 896.89l26.186 24.93-44.85-26.736zM1683.112 968.62l111.055 134.263-186.762-108.48z"/><path d="M1603.13 987.93l79.982-19.31-75.707 25.784zM1488.545 743.948l56.58-43.124-29.205-25.343z"/><path d="M1545.126 700.824l16.825-47.802-46.03 22.46zM1561.95 653.022l-5.096-24.268-40.934 46.727zM1690.488 409.745l.84 44.316 23.347-26.287z"/><path d="M1691.327 454.06l72.79-10.71-49.442-15.577z"/><path d="M1764.118 443.35l29.06-24.036-78.503 8.46zM1714.675 427.773l78.502-8.46-1.795-56.23z"/><path d="M1793.177 419.314l60.967-24.846-62.762-31.386z"/></g><g opacity=".5" fill="#FFF"><circle cx="2056.546" cy="1053.227" r="3.388"/><circle cx="2037.11" cy="1013.422" r="3.388"/><circle cx="2086.934" cy="975.745" r="3.388"/><circle cx="1905.495" cy="1058.48" r="3.388"/><circle cx="1794.167" cy="1102.883" r="3.388"/><circle cx="1893.212" cy="997.24" r="3.388"/><circle cx="1868.884" cy="986.56" r="3.389"/><circle cx="1846.606" cy="992.365" r="3.388"/><circle cx="1797.21" cy="989.055" r="3.388"/><circle cx="1885.513" cy="926.207" r="3.388"/><circle cx="1914.216" cy="912.436" r="3.388"/><circle cx="1932.78" cy="914.965" r="3.388"/><circle cx="1932.398" cy="930.383" r="3.388"/><circle cx="1951.553" cy="928.572" r="3.388"/><circle cx="1942.132" cy="909.399" r="3.388"/><circle cx="1941.444" cy="895.519" r="3.388"/><circle cx="1916.624" cy="888.453" r="3.388"/><circle cx="2000.663" cy="908.741" r="3.389"/><circle cx="2002.578" cy="888.375" r="3.388"/><circle cx="1930.888" cy="859.456" r="3.389"/><circle cx="1926.515" cy="853.703" r="3.388"/><circle cx="1885.253" cy="860.079" r="3.389"/><circle cx="1873.19" cy="828.76" r="3.388"/><circle cx="1872.716" cy="800.7" r="3.389"/><circle cx="1800.964" cy="810.08" r="3.388"/><circle cx="1761.153" cy="831.177" r="3.389"/><circle cx="1740.614" cy="855.637" r="3.388"/><circle cx="1756.95" cy="880.7" r="3.388"/><circle cx="1729.747" cy="954.346" r="3.388"/><circle cx="1683.113" cy="968.62" r="3.388"/><circle cx="1675.979" cy="932.656" r="3.388"/><circle cx="1720.599" cy="889.008" r="3.389"/><circle cx="1692.464" cy="843.186" r="3.388"/><circle cx="1718.288" cy="811.341" r="3.389"/><circle cx="1906.699" cy="740.501" r="3.389"/><circle cx="1865.791" cy="725.353" r="3.389"/><path d="M1848.972 697.277c.252-1.854-1.045-3.562-2.9-3.816-1.853-.25-3.562 1.048-3.814 2.903-.252 1.853 1.047 3.56 2.9 3.812 1.855.255 3.562-1.045 3.814-2.898z"/><circle cx="1922.021" cy="691.126" r="3.388"/><circle cx="1957.6" cy="675.978" r="3.389"/><circle cx="1991.548" cy="679.129" r="3.388"/><circle cx="2017.841" cy="682.71" r="3.389"/><circle cx="2023.847" cy="719.626" r="3.388"/><circle cx="2004.929" cy="757.566" r="3.388"/><circle cx="2037.284" cy="781.865" r="3.388"/><circle cx="2036.704" cy="820.829" r="3.388"/><circle cx="2028.614" cy="813.833" r="3.388"/><circle cx="1995.843" cy="799.161" r="3.388"/><circle cx="1944.454" cy="778.795" r="3.388"/><circle cx="1929.462" cy="762.756" r="3.388"/><circle cx="2057.813" cy="850.682" r="3.388"/><circle cx="2079.901" cy="844.394" r="3.389"/><circle cx="2090.876" cy="801.688" r="3.389"/><circle cx="2107.972" cy="726.666" r="3.388"/><circle cx="2138.243" cy="701.521" r="3.388"/><circle cx="2195.759" cy="702.896" r="3.389"/><circle cx="2124.015" cy="640.449" r="3.388"/><circle cx="2113.298" cy="643.409" r="3.389"/><circle cx="2114.153" cy="656.05" r="3.389"/><path d="M2057.603 653.502c.254-1.854-1.045-3.562-2.898-3.816-1.855-.252-3.562 1.047-3.816 2.902-.253 1.853 1.046 3.56 2.9 3.814 1.854.252 3.56-1.047 3.813-2.9z"/><circle cx="2047.767" cy="619.749" r="3.389"/><circle cx="2034.478" cy="606.888" r="3.389"/><circle cx="2072.689" cy="581.889" r="3.388"/><circle cx="2084.958" cy="542.307" r="3.388"/><circle cx="2024.165" cy="518.555" r="3.388"/><circle cx="2011.438" cy="520.505" r="3.388"/><circle cx="2046.897" cy="444.301" r="3.388"/><circle cx="2082.222" cy="398.35" r="3.388"/><circle cx="2123.915" cy="458.211" r="3.388"/><circle cx="2084.813" cy="448.729" r="3.388"/><path d="M2090.82 518.06c.253-1.855-1.045-3.563-2.9-3.816-1.853-.253-3.56 1.046-3.813 2.9-.253 1.853 1.046 3.562 2.9 3.814 1.853.253 3.56-1.047 3.814-2.9z"/><circle cx="2136.739" cy="505.896" r="3.388"/><circle cx="2156.015" cy="445.902" r="3.388"/><circle cx="2158.966" cy="541.601" r="3.388"/><circle cx="2147.917" cy="540.57" r="3.388"/><circle cx="2153.082" cy="559.689" r="3.388"/><circle cx="2149.089" cy="569.934" r="3.388"/><circle cx="1996.263" cy="530.961" r="3.388"/><circle cx="1943.718" cy="556.953" r="3.388"/><circle cx="1886.001" cy="589.609" r="3.388"/><circle cx="1930.046" cy="613.291" r="3.388"/><circle cx="1821.574" cy="627.244" r="3.388"/><circle cx="1824.234" cy="607.716" r="3.389"/><circle cx="1832.845" cy="588.261" r="3.389"/><circle cx="1876.306" cy="521.986" r="3.388"/><circle cx="1918.722" cy="507.138" r="3.388"/><circle cx="1858.974" cy="428.277" r="3.388"/><circle cx="1791.91" cy="419.142" r="3.388"/><circle cx="1791.382" cy="363.082" r="3.388"/><circle cx="1692.507" cy="344.456" r="3.388"/><circle cx="1854.144" cy="394.468" r="3.388"/><circle cx="1904.319" cy="398.357" r="3.388"/><circle cx="1809.281" cy="463.498" r="3.388"/><circle cx="1770.692" cy="514.967" r="3.388"/><circle cx="1753.971" cy="517.847" r="3.389"/><circle cx="1764.118" cy="443.351" r="3.389"/><circle cx="1714.572" cy="428.527" r="3.388"/><circle cx="1691.327" cy="454.061" r="3.388"/><circle cx="1658.739" cy="421.996" r="3.388"/><circle cx="1656.363" cy="388.973" r="3.389"/><circle cx="1689.645" cy="409.631" r="3.389"/><circle cx="1627.321" cy="368.727" r="3.388"/><circle cx="1591.278" cy="355.714" r="3.388"/><circle cx="1590.124" cy="427.281" r="3.388"/><circle cx="1550.274" cy="442.213" r="3.388"/><circle cx="1599.296" cy="479.832" r="3.388"/><circle cx="1584.649" cy="492.57" r="3.388"/><circle cx="1611.128" cy="550.691" r="3.388"/><circle cx="1659.685" cy="572.777" r="3.388"/><path d="M1641.298 613c.252-1.854-1.046-3.562-2.9-3.816-1.854-.252-3.562 1.047-3.814 2.902-.254 1.852 1.045 3.56 2.9 3.814 1.853.252 3.56-1.046 3.814-2.9z"/><circle cx="1641.915" cy="643.287" r="3.388"/><circle cx="1655.946" cy="608.441" r="3.388"/><circle cx="1556.854" cy="628.754" r="3.388"/><circle cx="1517.161" cy="675.651" r="3.388"/><circle cx="1545.127" cy="700.824" r="3.389"/><circle cx="1554.908" cy="755.199" r="3.388"/><circle cx="1488.546" cy="743.948" r="3.388"/><circle cx="1527.169" cy="775.73" r="3.388"/><circle cx="1552.953" cy="819.76" r="3.388"/><circle cx="1534.321" cy="862.159" r="3.389"/><circle cx="1525.104" cy="923.521" r="3.388"/><circle cx="1516.536" cy="879.154" r="3.388"/><circle cx="1506.798" cy="881.248" r="3.388"/><path d="M1464.948 835.03c.253-1.855-1.045-3.563-2.9-3.817-1.854-.252-3.563 1.047-3.815 2.902-.252 1.852 1.047 3.56 2.9 3.814 1.855.252 3.563-1.047 3.815-2.9z"/><circle cx="1465.842" cy="853.568" r="3.389"/><circle cx="1448.533" cy="924.112" r="3.388"/><circle cx="1599.554" cy="932.19" r="3.389"/><circle cx="1608.056" cy="995.72" r="3.388"/><circle cx="1464.937" cy="955.108" r="3.389"/><circle cx="1603.132" cy="987.93" r="3.388"/><circle cx="1551.706" cy="978.714" r="3.389"/><circle cx="1507.212" cy="947.605" r="3.388"/><circle cx="1582.911" cy="779.903" r="3.389"/><circle cx="1599.629" cy="761.289" r="3.388"/><circle cx="1623.163" cy="758.866" r="3.388"/><circle cx="1652.632" cy="763.353" r="3.389"/><circle cx="1640.543" cy="678.462" r="3.389"/><circle cx="1621.069" cy="689.07" r="3.388"/><circle cx="1665.466" cy="694.381" r="3.388"/><circle cx="1681.078" cy="674.406" r="3.388"/><circle cx="1710.644" cy="697.115" r="3.388"/><circle cx="1709.802" cy="716.626" r="3.388"/><circle cx="1561.72" cy="654.727" r="3.388"/><circle cx="1690.733" cy="603.526" r="3.389"/><circle cx="1548.261" cy="526.39" r="3.388"/><circle cx="1933.472" cy="518.724" r="3.388"/><circle cx="1779.872" cy="611.618" r="3.389"/><circle cx="2128.146" cy="870.119" r="3.388"/><circle cx="2119.162" cy="896.89" r="3.389"/><circle cx="2100.499" cy="895.084" r="3.388"/><circle cx="2145.349" cy="921.821" r="3.388"/></g></g><g fill="none" stroke="#FFF" stroke-width=".6" stroke-miterlimit="10"><path d="M2186.936 613.164l38.26 74.616 15.244-40.956zM1882.862 1026.256l15.043 25.178-28.155 62.944zM1897.905 1051.434l96.43-24.41-18.385-10.635zM1986.163 1002.766l8.172 24.257-18.385-10.634zM2042.548 632.34l41.988 23.952-14.207 16.505z"/><path d="M2240.44 646.824l-15.244 40.956 63.885 10.245z"/><path d="M2225.196 687.78l50.68 103.964 13.205-93.72zM1914.576 542.02l17.928 7 27.087-28.846z"/><path d="M2240.44 646.824l48.64 51.2 19.24 1.488zM2065.962 1023.533l-14.76 17.092-44.797-49.803zM2070.33 672.797l50.628 120.5 55.863-63.613zM2225.196 687.78l50.68 103.964-99.055-62.06z"/><path d="M2189.99 828.27l85.887-36.526-99.056-62.06zM2042.548 632.34l41.988 23.952 21.615-10.655zM1914.46 625.92l128.088 6.42-74.164-65.222zM1932.504 549.02l27.087-28.846 8.794 46.944zM1944.767 332.704l20.007 65.215 24.49-52.173zM1613.833 628.824l-8.992 19.192 56.747 52.18z"/><path d="M1613.833 628.824l90.998 44.548-43.243 26.824zM1964.774 397.92l99.273 35.735-133.306 36.215zM1914.576 542.02l45.015-21.846-28.85-50.304z"/><path d="M1959.59 520.174l104.457-86.52-133.306 36.216zM2042.548 632.34l63.603 13.297-9.712-106.397z"/><path d="M2106.15 645.637l80.786-32.473-90.498-73.924zM2389.976 652.38l61.915-19.24-30.524 47.612z"/><path d="M2451.89 633.14l-1.62 81.38-28.904-33.768zM2289.08 698.025l19.24 1.487 16.9 93.244z"/><path d="M2289.08 698.025l-13.203 93.72 49.343 1.01zM1613.833 628.824l82.256-64.252 13.722 52.68zM1613.833 628.824l90.998 44.548 4.982-56.12z"/><path d="M1704.83 673.372l52.554-14.766-47.572-41.354zM1635.462 703.3l26.125-3.104-47.57 49.29zM1869.75 1114.378l28.155-62.944 118.16 107.638z"/><path d="M1897.905 1051.434l96.43-24.41 21.73 132.048z"/><path d="M1994.335 1027.023l56.867 13.602-35.138 118.447zM2120.958 793.296l-39.666 71.083 71.207 43.65zM2081.292 864.38l2.54 23.387 68.667 20.262zM2389.976 652.38l31.39 28.372-41.705 63.642z"/><path d="M2421.366 680.752l28.903 33.768-70.61 29.874zM1704.83 673.372l52.554-14.766 58.586 125.76zM1815.97 784.366l35.335 42.02 8.276-54.13zM1851.305 826.387l33.432-9.504-25.156-44.627z"/><path d="M1884.737 816.883l50.01 7.166-75.166-51.794zM2051.202 1040.625l-35.138 118.447 69.838-2.957zM1968.384 567.118l-53.925 58.802-16.332-54.024z"/><path d="M1914.576 542.02l17.928 7-34.376 22.876z"/><path d="M1932.504 549.02l35.88 18.098-70.256 4.778zM2064.047 433.655l72.325 36.965-56.816 60.506zM1968.384 567.118l74.164 65.222 37.008-101.214z"/><path d="M2136.372 470.62l-39.934 68.62-16.882-8.114z"/><path d="M2096.438 539.24l-53.89 93.1 37.008-101.214zM1959.59 520.174l104.457-86.52 15.51 97.472zM1959.59 520.174l8.794 46.944 111.172-35.992zM1869.75 1114.378l146.314 44.694-7.155 47.446z"/><path d="M2016.064 1159.072l69.838-2.957-76.993 50.403zM2074.88 352.078l16.78 41.183 43.612-57.43zM1889.974 406.163l40.767 63.707-99.47 34.823z"/><path d="M1930.74 469.87l-16.164 72.15-83.307-37.327zM1914.576 542.02l-16.448 29.876-66.86-67.203zM2084.536 656.292l-14.207 16.505 82.036 7.392zM2084.536 656.292l21.615-10.655 46.216 34.552z"/><path d="M2070.33 672.797l106.49 56.887-24.454-49.495zM2106.15 645.637l80.786-32.473-34.57 67.025z"/><path d="M2186.936 613.164l38.26 74.616-72.83-7.59zM2176.82 729.684l48.376-41.904-72.83-7.59zM1934.748 824.05l43.96 98.76 9.044-35.726zM1978.708 922.81l41.036 20.846-31.992-56.572zM2120.958 793.296l-39.666 71.083-6.904-35.225zM1986.163 1002.766l20.242-11.944-7.322 11.917z"/><path d="M1986.163 1002.766l8.172 24.257 4.748-24.284z"/><path d="M2006.405 990.822l44.797 49.803-52.12-37.886z"/><path d="M1994.335 1027.023l56.867 13.602-52.12-37.886zM2379.66 744.394l70.61-29.874-18.44 51.224zM1851.305 826.387l33.432-9.504-33.533 42.576zM1884.737 816.883l50.01 7.166-83.543 35.41zM1934.748 824.05l43.96 98.76-127.504-63.35zM2189.99 828.27l85.887-36.526 2.69 19.11zM2275.877 791.744l49.343 1.012-46.653 18.098z"/><path d="M2325.22 792.756l-2.86 81.328-43.793-63.23zM1744.695 853.404l33.648 54.81-51.082-17.017z"/><path d="M1778.343 908.213l-37.147 174.835-13.935-191.85zM2325.22 792.756l77.273 37.19-40.902-64.938z"/><path d="M2379.66 744.394l52.17 21.35-70.24-.736zM2091.66 393.26l-27.613 40.395-9.06-49.406zM1989.263 345.747l-24.49 52.172 90.214-13.67z"/><path d="M1989.263 345.747l85.617 6.33-19.893 32.172zM1964.774 397.92l99.273 35.735-9.06-49.406z"/><path d="M2074.88 352.078l16.78 41.183-36.673-9.01zM1815.97 784.366l23.35 50.666 8.542-6.348zM1815.97 784.366l35.335 42.02-3.443 2.298z"/><path d="M1839.32 835.032l11.884 24.427-3.342-30.776zM1851.305 826.387l-.1 33.072-3.343-30.776zM1744.695 853.404l71.275-69.038-140.543 20.575z"/><path d="M1744.695 853.404l-17.434 37.793-51.833-86.256zM1614.017 749.485l47.57-49.29 13.84 104.746z"/><path d="M1661.587 700.196l43.244-26.824-29.403 131.57z"/><path d="M1704.83 673.372l111.14 110.994-140.543 20.575zM2136.372 470.62l-39.934 68.62 68.518-20.777z"/><path d="M2136.372 470.62l41.523-3.017-12.94 50.86zM2096.438 539.24l90.498 73.924-21.98-94.7zM2177.895 467.603l54.274 52.07-67.214-1.21z"/><path d="M2232.17 519.672l-45.234 93.492-21.98-94.7zM1774.585 562.008l10.312 89.27 65.172-51.55zM1757.384 658.606l27.513-7.327 22.916 12.676z"/><path d="M1784.897 651.28l65.172-51.553-42.257 64.23zM1850.07 599.727l36.874 33.52-79.13 30.71zM1978.708 922.81l41.036 20.846.25 7.973zM2006.405 990.822l59.557 32.71-45.967-71.903zM2176.82 729.684l-55.862 63.612 40.518 10.41zM2176.82 729.684l13.17 98.587-28.514-24.565z"/><path d="M2120.958 793.296l31.54 114.733 8.978-104.325zM2189.99 828.27l3.126 57.103-31.64-81.668z"/><path d="M2152.5 908.03l40.616-22.657-31.64-81.668zM1675.427 804.94l51.834 86.257-84.296-33.832zM1744.695 853.404l71.275-69.038-4.03 59.224z"/><path d="M1744.695 853.404l33.648 54.81 33.597-64.624zM1815.97 784.366l23.35 50.666-27.38 8.558z"/><path d="M1839.32 835.032l11.884 24.427-39.264-15.87z"/><path d="M1778.343 908.213l72.86-48.754-39.263-15.87zM1978.708 922.81l41.287 28.82-31.39 16.948z"/><path d="M2019.995 951.63l-13.59 39.192-17.8-22.244zM1539.682 739.38l42.825 20.313-38.31-58.082z"/><path d="M1582.507 759.693l31.51-10.208-69.82-47.874zM2139.568 1024.8l24.093 8.673 37.21-31.384z"/><path d="M2163.66 1033.473l26.78 53.886 10.43-85.27z"/><path d="M2264.272 945.557l-73.833 141.802 10.43-85.27zM2008.91 1206.518l76.992-50.403 87.058-11.107zM1886.944 633.246l27.515-7.326 11.565 38.496zM1914.46 625.92l128.088 6.42-116.523 32.076zM2042.548 632.34l27.78 40.457-144.303-8.38zM2361.59 765.008l70.24.736-2.476 45.21z"/><path d="M2361.59 765.008l40.903 64.937 26.86-18.992zM1851.204 859.46l127.504 63.35-42.79 59.305z"/><path d="M1978.708 922.81l9.896 45.768-52.687 13.537zM1882.862 1026.256l15.043 25.178 38.012-69.32z"/><path d="M1897.905 1051.434l78.045-35.045-40.033-34.275zM1944.767 332.704l-54.793 73.46 53.488-6.15z"/><path d="M1944.767 332.704l20.007 65.215-21.312 2.094zM1889.974 406.163l40.767 63.707 12.722-69.856z"/><path d="M1964.774 397.92l-34.033 71.95 12.722-69.856zM2152.5 908.03l40.616-22.657-28.1 64.257zM2193.116 885.373l71.156 60.184-99.255 4.073zM2200.87 1002.09l63.402-56.533-99.255 4.073zM1926.025 664.416l144.304 8.38-22.918 77.968zM2070.33 672.797l50.628 120.5-73.546-42.533zM1774.585 562.008l75.484 37.72-29.75-69.945z"/><path d="M1850.07 599.727l48.058-27.83-77.81-42.114zM2037.02 281.155l-47.757 64.592 72.394-30.402z"/><path d="M2037.02 281.155l98.252 54.675-73.615-20.485zM1989.263 345.747l85.617 6.33-13.223-36.732z"/><path d="M2074.88 352.078l60.392-16.248-73.615-20.485zM1886.944 633.246l27.515-7.326-40.754-23.897zM1850.07 599.727l48.058-27.83-24.422 30.126z"/><path d="M1898.128 571.896l16.33 54.024-40.752-23.897zM2019.744 943.656l.25 7.973 96.4-13.39z"/><path d="M2019.744 943.656l64.087-55.89 32.564 50.473z"/><path d="M2019.995 951.63l45.967 71.903 50.432-85.294zM2083.83 887.767l68.67 20.262-36.106 30.21zM2152.5 908.03l12.517 41.6-48.623-11.39z"/><path d="M2065.962 1023.533l70.807-50.685-20.376-34.61z"/><path d="M2136.77 972.848l28.247-23.218-48.623-11.39zM2065.962 1023.533l70.807-50.685 3.124 11.777zM2065.962 1023.533l73.606 1.268.326-40.175zM2136.77 972.848l28.247-23.218-25.123 34.995zM2165.017 949.63l35.853 52.46-60.976-17.465z"/><path d="M2139.568 1024.8l61.302-22.71-60.976-17.465zM1544.196 701.61l69.82 47.875 10.596-49.74zM1635.462 703.3l-21.445 46.185 10.595-49.74zM1934.748 824.05l53.004 63.034 17.536-25.54zM1987.752 887.084l31.992 56.572-14.456-82.11zM2074.388 829.155l6.904 35.224-76.004-2.835zM2081.292 864.38l2.54 23.387-78.544-26.222z"/><path d="M2019.744 943.656l64.087-55.89-78.542-26.22zM2308.32 699.512l81.656-47.13-67.514 52.67z"/><path d="M2308.32 699.512l16.9 93.244-2.758-87.705zM2389.976 652.38l-10.315 92.014-57.198-39.343z"/><path d="M2325.22 792.756l36.37-27.748-39.128-59.957z"/><path d="M2379.66 744.394l-18.07 20.614-39.128-59.957zM2232.17 519.672l-45.234 93.492 47.102 14.385z"/><path d="M2232.17 519.672l59.104.23-57.236 107.647z"/><path d="M2186.936 613.164l53.504 33.66-6.402-19.275z"/><path d="M2291.274 519.903l98.702 132.478-155.938-24.83z"/><path d="M2240.44 646.824l67.88 52.688-74.282-71.963z"/><path d="M2308.32 699.512l81.656-47.13-155.938-24.833zM1935.917 982.115l52.687-13.537-16.416 18.854z"/><path d="M1935.917 982.115l40.033 34.274-3.762-28.958z"/><path d="M1988.604 968.578l17.8 22.244-34.216-3.39z"/><path d="M1986.163 1002.766l-10.213 13.623-3.762-28.958z"/><path d="M1986.163 1002.766l20.242-11.944-34.217-3.39zM1696.09 564.572l13.722 52.68 38.763-.078zM1696.09 564.572l78.495-2.564-26.01 55.166z"/><path d="M1709.812 617.252l47.572 41.354-8.81-41.432zM1774.585 562.008l10.312 89.27-36.322-34.104z"/><path d="M1757.384 658.606l27.513-7.327-36.322-34.106zM1886.944 633.246l39.08 31.17-14.207 16.504zM1926.025 664.416l121.387 86.348-135.595-69.844z"/><path d="M1859.58 772.256l75.168 51.793-22.93-143.13z"/><path d="M1934.748 824.05l112.664-73.286-135.595-69.844zM1886.944 633.246l24.873 47.674-80.568 6.145zM1911.817 680.92l-52.236 91.336-28.33-85.19zM1815.97 784.366l43.61-12.11-28.33-85.19z"/><path d="M1757.384 658.606l58.586 125.76 15.28-97.3z"/><path d="M1757.384 658.606l50.43 5.35 23.435 23.11z"/><path d="M1807.813 663.956l79.13-30.71-55.694 53.82zM2451.89 633.14l-1.62 81.38 38.042 10.3zM2450.27 714.52l-18.44 51.224 56.482-40.924zM2189.99 828.27l3.126 57.103 17.436-37.795zM2190.44 1087.36l-17.48 57.648-7.592-39.188zM2210.552 847.578l-17.436 37.795 116.532 57.47z"/><path d="M2193.116 885.373l71.156 60.184 45.376-2.715z"/><path d="M2264.272 945.557l-73.833 141.802 119.208-144.518zM1539.682 739.38l42.825 20.313 18.937 55.368z"/><path d="M1582.507 759.693l31.51-10.208-12.573 65.576zM1614.017 749.485l61.41 55.456-73.983 10.12z"/><path d="M1675.427 804.94l-32.463 52.425-41.52-42.304zM2431.83 765.744l56.482-40.924-129.865 255.555z"/><path d="M2431.83 765.744l-2.476 45.21-70.907 169.42z"/><path d="M2309.648 942.842l-119.21 144.517 168.01-106.985z"/><path d="M2402.493 829.945l26.86-18.992-70.906 169.422zM2190.44 1087.36l-17.48 57.648 185.487-164.633zM1934.748 824.05l112.664-73.286-.12 38.578zM1934.748 824.05l70.54 37.495 42.004-72.203zM2047.412 750.764l73.546 42.532-73.666-3.954z"/><path d="M2005.288 861.545l69.1-32.39-27.096-39.813zM2074.388 829.155l46.57-35.86-73.666-3.953zM2189.99 828.27l20.562 19.308 52.652-2.514zM2189.99 828.27l88.577-17.416-15.363 34.21zM2210.552 847.578l99.096 95.264-46.444-97.778z"/><path d="M2278.567 810.854l43.793 63.23-59.156-29.02z"/><path d="M2322.36 874.084l-7.324 11.918-51.832-40.938z"/><path d="M2315.036 886.002l-5.388 56.84-46.444-97.778zM2325.22 792.756l-2.86 81.328 11.535 4.197zM2325.22 792.756l77.273 37.19-68.598 48.335z"/><path d="M2322.36 874.084l-7.324 11.918 18.86-7.72z"/><path d="M2315.036 886.002l-5.388 56.84 24.247-64.56z"/><path d="M2309.648 942.842l48.8 37.533-24.553-102.094z"/><path d="M2402.493 829.945l-44.046 150.43-24.552-102.094zM2177.895 467.603l54.274 52.07 16.464-35.388zM2232.17 519.672l59.104.23-42.64-35.617zM1778.343 908.213l72.86-48.754-34.048 122.78z"/><path d="M1778.343 908.213l-37.147 174.835 75.96-100.808z"/><path d="M1851.204 859.46l84.713 122.655-118.762.125zM1817.155 982.24l-75.96 100.808 117.915-65.833z"/><path d="M1817.155 982.24l118.762-.125-76.807 35.1z"/><path d="M1741.196 1083.048l128.554 31.33-10.64-97.163z"/><path d="M1882.862 1026.256l53.055-44.14-76.807 35.1z"/><path d="M1882.862 1026.256l-13.112 88.122-10.64-97.163zM2065.962 1023.533l-14.76 17.092 98.535 51.625z"/><path d="M2065.962 1023.533l73.606 1.268 10.17 67.45z"/><path d="M2051.202 1040.625l34.7 115.49 63.835-63.865zM2139.568 1024.8l24.093 8.673-13.923 58.777z"/><path d="M2163.66 1033.473l26.78 53.886-40.703 4.89zM2085.902 1156.115l87.058-11.107-23.223-52.758zM2165.368 1105.82l25.07-18.46-40.7 4.89z"/><path d="M2165.368 1105.82l7.592 39.188-23.223-52.758zM1727.26 891.197l13.936 191.85-98.533-217.12zM1642.964 857.365l84.297 33.832-84.597-25.27zM1696.09 564.572l78.495-2.564-10.045-41.49z"/><path d="M1774.585 562.008l45.734-32.225-55.78-9.266zM1820.32 529.783l10.95-25.09-66.73 15.824zM2091.66 393.26l-27.613 40.395 37.825-8.696zM2064.047 433.655l72.325 36.965-34.5-45.66zM2136.372 470.62l41.523-3.017-76.023-42.644z"/><path d="M2101.872 424.96l76.023 42.643 34.382-51.724z"/><path d="M2177.895 467.603l70.74 16.682-36.358-68.406z"/></g><g fill="#FFF"><circle cx="2008.971" cy="1206.349" r="3.74"/><circle cx="2016.972" cy="1158.107" r="3.74"/><circle cx="2085.902" cy="1156.115" r="3.741"/><circle cx="1869.75" cy="1114.378" r="3.741"/><circle cx="1741.195" cy="1083.047" r="3.741"/><circle cx="1897.906" cy="1051.435" r="3.742"/><circle cx="1882.862" cy="1026.256" r="3.74"/><circle cx="1859.11" cy="1017.215" r="3.74"/><circle cx="1816.8" cy="982.618" r="3.74"/><circle cx="1936.453" cy="982.619" r="3.741"/><circle cx="1971.085" cy="988.607" r="3.74"/><circle cx="1986.164" cy="1002.766" r="3.741"/><circle cx="1975.95" cy="1016.389" r="3.74"/><circle cx="1994.336" cy="1027.023" r="3.74"/><circle cx="1998.137" cy="1003.747" r="3.741"/><circle cx="2006.405" cy="990.822" r="3.741"/><circle cx="1988.604" cy="968.579" r="3.741"/><circle cx="2051.201" cy="1040.625" r="3.741"/><path d="M2068.688 1026.092c1.414-1.506 1.34-3.873-.166-5.285-1.506-1.416-3.873-1.342-5.288.164-1.413 1.51-1.34 3.874.167 5.29 1.507 1.414 3.874 1.338 5.288-.168z"/><circle cx="2019.995" cy="951.628" r="3.74"/><circle cx="2019.744" cy="943.656" r="3.741"/><circle cx="1978.552" cy="922.976" r="3.74"/><circle cx="1987.752" cy="887.084" r="3.741"/><path d="M2008.015 864.104c1.414-1.504 1.34-3.87-.168-5.285-1.506-1.416-3.873-1.343-5.286.163-1.414 1.508-1.34 3.875.166 5.29 1.507 1.413 3.875 1.338 5.29-.17z"/><circle cx="1934.748" cy="824.049" r="3.741"/><circle cx="1885.436" cy="817.539" r="3.741"/><circle cx="1851.305" cy="826.388" r="3.742"/><circle cx="1849.954" cy="859.389" r="3.741"/><circle cx="1778.342" cy="908.213" r="3.74"/><circle cx="1727.262" cy="891.197" r="3.741"/><circle cx="1743.867" cy="854.286" r="3.741"/><circle cx="1811.94" cy="843.592" r="3.74"/><circle cx="1815.969" cy="784.366" r="3.741"/><circle cx="1859.581" cy="772.258" r="3.741"/><circle cx="2074.389" cy="829.155" r="3.741"/><circle cx="2047.292" cy="789.342" r="3.741"/><circle cx="2047.412" cy="750.764" r="3.741"/><circle cx="2119.775" cy="794.555" r="3.741"/><circle cx="2161.475" cy="803.705" r="3.741"/><path d="M2192.718 830.834c1.414-1.508 1.34-3.875-.166-5.29s-3.873-1.34-5.288.17c-1.413 1.503-1.34 3.872.167 5.284 1.507 1.415 3.874 1.34 5.288-.164z"/><circle cx="2211.346" cy="848.324" r="3.741"/><circle cx="2193.116" cy="885.373" r="3.74"/><circle cx="2151.813" cy="907.386" r="3.741"/><circle cx="2165.359" cy="949.953" r="3.741"/><circle cx="2139.895" cy="984.627" r="3.741"/><circle cx="2137.097" cy="973.156" r="3.741"/><circle cx="2117.014" cy="938.98" r="3.741"/><circle cx="2083.831" cy="887.767" r="3.74"/><circle cx="2080.616" cy="863.744" r="3.741"/><circle cx="2139.769" cy="1024.99" r="3.74"/><circle cx="2163.663" cy="1033.475" r="3.74"/><circle cx="2200.872" cy="1002.09" r="3.74"/><circle cx="2264.272" cy="945.557" r="3.742"/><circle cx="2307.593" cy="942.32" r="3.74"/><circle cx="2358.446" cy="980.374" r="3.74"/><circle cx="2333.894" cy="878.281" r="3.74"/><circle cx="2322.361" cy="874.083" r="3.741"/><path d="M2317.766 888.563c1.415-1.507 1.34-3.876-.166-5.29-1.505-1.413-3.874-1.34-5.288.168-1.414 1.505-1.34 3.875.166 5.288 1.505 1.415 3.875 1.34 5.288-.165z"/><circle cx="2263.079" cy="844.947" r="3.74"/><circle cx="2278.567" cy="810.854" r="3.741"/><circle cx="2274.848" cy="790.779" r="3.74"/><circle cx="2325.219" cy="792.757" r="3.741"/><circle cx="2361.593" cy="765.01" r="3.74"/><circle cx="2322.12" cy="704.729" r="3.741"/><circle cx="2309.423" cy="698.336" r="3.741"/><circle cx="2390.099" cy="652.497" r="3.741"/><circle cx="2451.285" cy="633.781" r="3.74"/><circle cx="2450.466" cy="714.312" r="3.74"/><circle cx="2421.368" cy="680.752" r="3.74"/><path d="M2382.387 746.953c1.415-1.506 1.342-3.873-.164-5.287-1.506-1.415-3.873-1.34-5.288.167-1.412 1.505-1.34 3.872.167 5.288 1.505 1.413 3.872 1.337 5.285-.167z"/><circle cx="2431.474" cy="765.41" r="3.74"/><circle cx="2487.214" cy="723.789" r="3.74"/><circle cx="2428.606" cy="811.751" r="3.741"/><circle cx="2419.329" cy="803.75" r="3.741"/><circle cx="2411.735" cy="824.254" r="3.74"/><circle cx="2401.588" cy="830.911" r="3.742"/><path d="M2291.807 700.588c1.415-1.508 1.342-3.875-.165-5.29-1.506-1.413-3.873-1.34-5.287.17-1.414 1.503-1.34 3.872.166 5.286s3.874 1.338 5.287-.166z"/><circle cx="2225.182" cy="687.767" r="3.741"/><circle cx="2152.366" cy="680.189" r="3.74"/><circle cx="2176.821" cy="729.685" r="3.741"/><circle cx="2070.328" cy="672.797" r="3.741"/><circle cx="2085.222" cy="656.936" r="3.741"/><path d="M2108.147 647.512c1.416-1.506 1.342-3.875-.164-5.29s-3.875-1.34-5.29.17c-1.413 1.503-1.338 3.872.17 5.286 1.505 1.414 3.87 1.34 5.284-.166z"/><circle cx="2186.936" cy="613.164" r="3.741"/><circle cx="2234.589" cy="626.961" r="3.741"/><circle cx="2231.335" cy="517.786" r="3.741"/><circle cx="2176.866" cy="466.637" r="3.74"/><path d="M2215.004 418.44c1.415-1.508 1.342-3.874-.164-5.29-1.507-1.412-3.875-1.34-5.29.168-1.412 1.506-1.338 3.873.168 5.287s3.873 1.34 5.286-.166z"/><circle cx="2135.272" cy="335.83" r="3.741"/><circle cx="2248.634" cy="484.285" r="3.74"/><circle cx="2291.273" cy="519.904" r="3.741"/><circle cx="2164.095" cy="517.654" r="3.74"/><circle cx="2096.438" cy="539.24" r="3.74"/><circle cx="2079.557" cy="531.126" r="3.741"/><circle cx="2136.372" cy="470.62" r="3.74"/><circle cx="2101.298" cy="425.57" r="3.741"/><circle cx="2064.047" cy="433.655" r="3.741"/><circle cx="2055.263" cy="383.955" r="3.74"/><circle cx="2074.265" cy="352.732" r="3.741"/><circle cx="2090.976" cy="392.618" r="3.741"/><circle cx="2061.105" cy="315.932" r="3.741"/><circle cx="2037.019" cy="281.155" r="3.74"/><circle cx="1990.166" cy="344.785" r="3.741"/><circle cx="1944.767" cy="332.704" r="3.74"/><circle cx="1964.775" cy="397.919" r="3.741"/><circle cx="1943.449" cy="400.001" r="3.741"/><circle cx="1930.056" cy="469.227" r="3.74"/><circle cx="1959.59" cy="520.174" r="3.741"/><circle cx="1914.576" cy="542.02" r="3.741"/><circle cx="1898.471" cy="572.217" r="3.741"/><path d="M1936.125 552.42c1.415-1.508 1.34-3.875-.165-5.29-1.506-1.412-3.875-1.34-5.29.17-1.412 1.503-1.34 3.872.17 5.284 1.505 1.415 3.872 1.34 5.285-.164z"/><circle cx="1831.269" cy="504.693" r="3.741"/><circle cx="1765.548" cy="521.464" r="3.74"/><circle cx="1774.585" cy="562.006" r="3.74"/><circle cx="1748.575" cy="617.174" r="3.74"/><circle cx="1696.089" cy="564.572" r="3.741"/><circle cx="1710.483" cy="617.883" r="3.74"/><circle cx="1705.489" cy="673.989" r="3.741"/><circle cx="1661.588" cy="700.196" r="3.74"/><circle cx="1614.015" cy="749.485" r="3.741"/><circle cx="1634.712" cy="704.097" r="3.741"/><circle cx="1624.613" cy="699.746" r="3.741"/><circle cx="1613.833" cy="628.825" r="3.741"/><circle cx="1605.497" cy="648.632" r="3.741"/><circle cx="1544.77" cy="701" r="3.74"/><circle cx="1675.426" cy="804.941" r="3.741"/><circle cx="1642.406" cy="867.523" r="3.741"/><circle cx="1539.682" cy="739.379" r="3.741"/><circle cx="1557.424" cy="761.365" r="3.741"/><circle cx="1642.964" cy="857.365" r="3.74"/><circle cx="1602.609" cy="816.156" r="3.741"/><circle cx="1582.506" cy="759.694" r="3.742"/><circle cx="1757.947" cy="657.32" r="3.741"/><circle cx="1784.897" cy="651.279" r="3.74"/><circle cx="1807.617" cy="664.166" r="3.741"/><circle cx="1831.248" cy="687.066" r="3.741"/><circle cx="1874.72" cy="602.976" r="3.741"/><circle cx="1850.413" cy="600.051" r="3.74"/><circle cx="1886.944" cy="633.247" r="3.741"/><circle cx="1913.773" cy="625.275" r="3.741"/><circle cx="1925.828" cy="664.627" r="3.741"/><circle cx="1912.581" cy="681.637" r="3.74"/><circle cx="1819.018" cy="531.168" r="3.741"/><circle cx="1967.831" cy="567.706" r="3.741"/><circle cx="1889.07" cy="407.125" r="3.741"/><circle cx="1847.379" cy="330" r="3.741"/><path d="M2243.167 649.385c1.414-1.506 1.342-3.873-.164-5.287-1.508-1.414-3.875-1.34-5.29.166-1.412 1.506-1.34 3.875.167 5.29 1.506 1.412 3.873 1.337 5.287-.17z"/><circle cx="2042.823" cy="632.047" r="3.74"/><circle cx="2190.584" cy="1087.495" r="3.74"/><circle cx="2165.367" cy="1105.821" r="3.742"/><circle cx="2149.738" cy="1092.252" r="3.741"/><circle cx="2172.959" cy="1145.008" r="3.74"/></g><path fill="none" stroke="#FFF" stroke-width=".6" stroke-miterlimit="10" d="M1889.974 406.163l-43.3-76.163 100.516 2.09M1557.4 761.09l-40.938 53.7"/></g></svg>