<svg xmlns="http://www.w3.org/2000/svg" xmlns:xlink="http://www.w3.org/1999/xlink" width="106" height="134" viewBox="0 0 106 134"><defs><path id="a" d="M2 2h46v36H2z"/></defs><clipPath id="b"><use xlink:href="#a" overflow="visible"/></clipPath><path clip-path="url(#b)" fill="none" stroke="#78B4D2" stroke-width="4" stroke-miterlimit="10" stroke-dasharray="5,4" d="M2 2h46v36H2z"/><defs><path id="c" d="M2 2h21v19H2z"/></defs><clipPath id="d"><use xlink:href="#c" overflow="visible"/></clipPath><path clip-path="url(#d)" fill="none" stroke="#78B4D2" stroke-width="4" stroke-miterlimit="10" d="M2 2h21v19H2z"/><defs><path id="e" d="M0-1h-1v8h8v-8H0zm0 2h6L5 0v6l1-1H0l1 1V0L0 1zm-21-22h48v48h-48v-48z"/></defs><clipPath id="f"><use xlink:href="#e" overflow="visible"/></clipPath><g clip-path="url(#f)"><defs><path id="g" d="M0 0h6v6H0z"/></defs><clipPath id="h"><use xlink:href="#g" overflow="visible"/></clipPath><path clip-path="url(#h)" fill-rule="evenodd" clip-rule="evenodd" fill="#FFF" d="M0 0h6v6H0z"/></g><defs><path id="i" d="M0 0h6v6H0z"/></defs><clipPath id="j"><use xlink:href="#i" overflow="visible"/></clipPath><path clip-path="url(#j)" fill="none" stroke="#78B4D2" stroke-width="4" stroke-miterlimit="10" d="M0 0h6v6H0z"/><defs><path id="k" d="M19-1h-1v8h8v-8h-7zm0 2h6l-1-1v6l1-1h-6l1 1V0l-1 1zM-2-21h48v48H-2v-48z"/></defs><clipPath id="l"><use xlink:href="#k" overflow="visible"/></clipPath><g clip-path="url(#l)"><defs><path id="m" d="M19 0h6v6h-6z"/></defs><clipPath id="n"><use xlink:href="#m" overflow="visible"/></clipPath><path clip-path="url(#n)" fill-rule="evenodd" clip-rule="evenodd" fill="#FFF" d="M19 0h6v6h-6z"/></g><defs><path id="o" d="M19 0h6v6h-6z"/></defs><clipPath id="p"><use xlink:href="#o" overflow="visible"/></clipPath><path clip-path="url(#p)" fill="none" stroke="#78B4D2" stroke-width="4" stroke-miterlimit="10" d="M19 0h6v6h-6z"/><defs><path id="q" d="M19 16h-1v8h8v-8h-7zm0 2h6l-1-1v6l1-1h-6l1 1v-6l-1 1zM-2-4h48v48H-2V-4z"/></defs><clipPath id="r"><use xlink:href="#q" overflow="visible"/></clipPath><g clip-path="url(#r)"><defs><path id="s" d="M19 17h6v6h-6z"/></defs><clipPath id="t"><use xlink:href="#s" overflow="visible"/></clipPath><path clip-path="url(#t)" fill-rule="evenodd" clip-rule="evenodd" fill="#FFF" d="M19 17h6v6h-6z"/></g><defs><path id="u" d="M19 17h6v6h-6z"/></defs><clipPath id="v"><use xlink:href="#u" overflow="visible"/></clipPath><path clip-path="url(#v)" fill="none" stroke="#78B4D2" stroke-width="4" stroke-miterlimit="10" d="M19 17h6v6h-6z"/><defs><path id="w" d="M0 16h-1v8h8v-8H0zm0 2h6l-1-1v6l1-1H0l1 1v-6l-1 1zM-21-4h48v48h-48V-4z"/></defs><clipPath id="x"><use xlink:href="#w" overflow="visible"/></clipPath><g clip-path="url(#x)"><defs><path id="y" d="M0 17h6v6H0z"/></defs><clipPath id="z"><use xlink:href="#y" overflow="visible"/></clipPath><path clip-path="url(#z)" fill-rule="evenodd" clip-rule="evenodd" fill="#FFF" d="M0 17h6v6H0z"/></g><defs><path id="A" d="M0 17h6v6H0z"/></defs><clipPath id="B"><use xlink:href="#A" overflow="visible"/></clipPath><path clip-path="url(#B)" fill="none" stroke="#78B4D2" stroke-width="4" stroke-miterlimit="10" d="M0 17h6v6H0z"/><defs><path id="C" d="M0 48h30v25H0z"/></defs><clipPath id="D"><use xlink:href="#C" overflow="visible"/></clipPath><path clip-path="url(#D)" fill="none" stroke="#78B4D2" stroke-width="4" stroke-miterlimit="10" d="M0 48h30v25H0z"/><defs><path id="E" d="M33 48h15v11H33z"/></defs><clipPath id="F"><use xlink:href="#E" overflow="visible"/></clipPath><path clip-path="url(#F)" fill="none" stroke="#78B4D2" stroke-width="4" stroke-miterlimit="10" d="M33 48h15v11H33z"/><defs><path id="G" d="M33 62h15v11H33z"/></defs><clipPath id="H"><use xlink:href="#G" overflow="visible"/></clipPath><path clip-path="url(#H)" fill="none" stroke="#78B4D2" stroke-width="4" stroke-miterlimit="10" d="M33 62h15v11H33z"/><defs><path id="I" d="M0 76h48v10H0z"/></defs><clipPath id="J"><use xlink:href="#I" overflow="visible"/></clipPath><path clip-path="url(#J)" fill="none" stroke="#78B4D2" stroke-width="4" stroke-miterlimit="10" d="M0 76h48v10H0z"/><defs><path id="K" d="M0 105.994C0 103.236 2.235 101 5 101h38c2.76 0 5 2.242 5 4.994v23.012c0 2.758-2.234 4.994-5 4.994H5c-2.76 0-5-2.242-5-4.994v-23.012z"/></defs><clipPath id="L"><use xlink:href="#K" overflow="visible"/></clipPath><path clip-path="url(#L)" fill="none" stroke="#78B4D2" stroke-width="4" stroke-miterlimit="10" d="M0 105.994C0 103.236 2.235 101 5 101h38c2.76 0 5 2.242 5 4.994v23.012c0 2.758-2.234 4.994-5 4.994H5c-2.76 0-5-2.242-5-4.994v-23.012z"/><defs><path id="M" d="M33 104.003v-3.008C33 98.233 30.766 96 28.01 96h-8.02c-2.747 0-4.99 2.236-4.99 4.995v3.008V103h18v1.003z"/></defs><clipPath id="N"><use xlink:href="#M" overflow="visible"/></clipPath><path clip-path="url(#N)" fill="none" stroke="#78B4D2" stroke-width="4" stroke-miterlimit="10" d="M33 104.003v-3.008C33 98.233 30.766 96 28.01 96h-8.02c-2.747 0-4.99 2.236-4.99 4.995v3.008V103h18v1.003z"/><path fill="none" stroke="#78B4D2" stroke-width="2" stroke-linecap="square" stroke-miterlimit="10" d="M20 118H2M45 118H28"/><defs><path id="O" d="M20 114h8v8h-8z"/></defs><clipPath id="P"><use xlink:href="#O" overflow="visible"/></clipPath><path clip-path="url(#P)" fill="none" stroke="#78B4D2" stroke-width="4" stroke-miterlimit="10" d="M20 114h8v8h-8z"/><g><defs><path id="Q" d="M58 52.994C58 50.236 60.234 48 63 48h38c2.76 0 5 2.242 5 4.994v23.012c0 2.758-2.234 4.994-5 4.994H63c-2.76 0-5-2.242-5-4.994V52.994z"/></defs><clipPath id="R"><use xlink:href="#Q" overflow="visible"/></clipPath><path clip-path="url(#R)" fill="none" stroke="#78B4D2" stroke-width="4" stroke-miterlimit="10" d="M58 52.994C58 50.236 60.234 48 63 48h38c2.76 0 5 2.242 5 4.994v23.012c0 2.758-2.234 4.994-5 4.994H63c-2.76 0-5-2.242-5-4.994V52.994z"/></g><path fill="none" stroke="#78B4D2" stroke-width="2" stroke-linecap="square" stroke-miterlimit="10" d="M104.5 72h-45M73 55h-8M89 59H65M83 63H65M77 67H65"/><g><defs><circle id="S" cx="82" cy="76" r="2"/></defs><clipPath id="T"><use xlink:href="#S" overflow="visible"/></clipPath><path clip-path="url(#T)" fill="#78B4D2" d="M75 69h14v14H75z"/></g><path fill="none" stroke="#78B4D2" stroke-width="2" stroke-linecap="square" stroke-miterlimit="10" d="M92 85H72M76 83v-2M88 83v-2"/><g><defs><path id="U" d="M58 22h26v16H58z"/></defs><clipPath id="V"><use xlink:href="#U" overflow="visible"/></clipPath><path clip-path="url(#V)" fill="none" stroke="#78B4D2" stroke-width="4" stroke-miterlimit="10" d="M58 22h26v16H58z"/></g><g><defs><path id="W" d="M88 13h18v12H88z"/></defs><clipPath id="X"><use xlink:href="#W" overflow="visible"/></clipPath><path clip-path="url(#X)" fill="none" stroke="#78B4D2" stroke-width="4" stroke-miterlimit="10" d="M88 13h18v12H88z"/></g><path fill="none" stroke="#78B4D2" stroke-width="2" stroke-linecap="square" stroke-miterlimit="10" d="M98 19h3"/><g><defs><circle id="Y" cx="94" cy="19" r="2"/></defs><clipPath id="Z"><use xlink:href="#Y" overflow="visible"/></clipPath><path clip-path="url(#Z)" fill="#78B4D2" d="M87 12h14v14H87z"/></g><path fill="none" stroke="#78B4D2" stroke-width="2" stroke-linecap="square" stroke-miterlimit="10" d="M68 28h3M80 6h3"/><g><defs><circle id="aa" cx="64" cy="28" r="2"/></defs><clipPath id="ab"><use xlink:href="#aa" overflow="visible"/></clipPath><path clip-path="url(#ab)" fill="#78B4D2" d="M57 21h14v14H57z"/></g><g><defs><circle id="ac" cx="76" cy="6" r="2"/></defs><clipPath id="ad"><use xlink:href="#ac" overflow="visible"/></clipPath><path clip-path="url(#ad)" fill="#78B4D2" d="M69-1h14v14H69z"/></g><path fill="none" stroke="#78B4D2" stroke-width="2" stroke-linecap="square" stroke-miterlimit="10" d="M90 3v5M97 8v4M97 26v6M71 1v20M95 8h-5M96.6 7L91 1.4M97 34H85M90 1H71"/><g><defs><path id="ae" d="M63 104.99V121c0 2.76 2.237 4.998 4.997 4.998h6.006c2.756 0 4.997-2.237 4.997-4.998v-16.004-.01C78.994 100.577 75.415 97 71 97s-7.994 3.576-8 7.99z"/></defs><clipPath id="af"><use xlink:href="#ae" overflow="visible"/></clipPath><path clip-path="url(#af)" fill="none" stroke="#78B4D2" stroke-width="4" stroke-miterlimit="10" d="M63 104.99V121c0 2.76 2.237 4.998 4.997 4.998h6.006c2.756 0 4.997-2.237 4.997-4.998v-16.004-.01C78.994 100.577 75.415 97 71 97s-7.994 3.576-8 7.99z"/></g><path fill="none" stroke="#78B4D2" stroke-width="2" stroke-linecap="square" stroke-miterlimit="10" d="M69 120v-12M73 120v-12"/><g><defs><path id="ag" d="M74 123.502v7.495c0 1.658-1.347 3.003-3 3.003-1.657 0-3-1.343-3-3.003v-7.495.498h6v-.498z"/></defs><clipPath id="ah"><use xlink:href="#ag" overflow="visible"/></clipPath><path clip-path="url(#ah)" fill="none" stroke="#78B4D2" stroke-width="4" stroke-miterlimit="10" d="M74 123.502v7.495c0 1.658-1.347 3.003-3 3.003-1.657 0-3-1.343-3-3.003v-7.495.498h6v-.498z"/></g><g><defs><path id="ai" d="M100.047 100.9c.608 1.312.953 2.814.953 4.41 0 .17-.004.342-.012.51.008.115.012.23.012.347v14.84c0 2.757-2.24 4.993-4.997 4.993h-6.006c-2.76 0-4.997-2.247-4.997-4.994v-14.84c0-.115.004-.23.012-.345-.008-.17-.012-.34-.012-.51 0-5.142 3.582-9.31 8-9.31.628 0 1.238.084 1.824.243-.513.61-.824 1.397-.824 2.257 0 1.933 1.567 3.5 3.5 3.5 1.004 0 1.91-.423 2.547-1.1z"/></defs><clipPath id="aj"><use xlink:href="#ai" overflow="visible"/></clipPath><path clip-path="url(#aj)" fill="none" stroke="#78B4D2" stroke-width="4" stroke-miterlimit="10" d="M100.047 100.9c.608 1.312.953 2.814.953 4.41 0 .17-.004.342-.012.51.008.115.012.23.012.347v14.84c0 2.757-2.24 4.993-4.997 4.993h-6.006c-2.76 0-4.997-2.247-4.997-4.994v-14.84c0-.115.004-.23.012-.345-.008-.17-.012-.34-.012-.51 0-5.142 3.582-9.31 8-9.31.628 0 1.238.084 1.824.243-.513.61-.824 1.397-.824 2.257 0 1.933 1.567 3.5 3.5 3.5 1.004 0 1.91-.423 2.547-1.1z"/></g><g><defs><path id="ak" d="M96 123.502v7.495c0 1.658-1.347 3.003-3 3.003-1.657 0-3-1.343-3-3.003v-7.495.498h6v-.498z"/></defs><clipPath id="al"><use xlink:href="#ak" overflow="visible"/></clipPath><path clip-path="url(#al)" fill="none" stroke="#78B4D2" stroke-width="4" stroke-miterlimit="10" d="M96 123.502v7.495c0 1.658-1.347 3.003-3 3.003-1.657 0-3-1.343-3-3.003v-7.495.498h6v-.498z"/></g><path fill="none" stroke="#78B4D2" stroke-width="2" stroke-linecap="square" stroke-miterlimit="10" d="M100 119.998H86"/></svg>